<svg width="82" height="80" viewBox="0 0 82 80" fill="none" xmlns="http://www.w3.org/2000/svg">
<path d="M0.00427897 52.6672C0.275994 51.3664 0.434316 50.0421 0.855795 48.7734C2.44329 43.9809 5.65894 40.5406 9.86089 37.9283C12.9888 35.9857 16.3863 34.6806 19.94 33.7606C20.7851 33.5424 20.7701 33.5467 20.2417 32.9027C15.3166 26.9078 13.9366 20.1749 16.6645 12.9134C19.4051 5.61994 24.8886 1.34311 32.5908 0.2049C43.6669 -1.43181 54.052 6.94 54.9655 18.0546C55.432 23.7179 53.7781 28.6815 50.0961 32.9883C49.9613 33.1444 49.7623 33.2621 49.7495 33.5574C51.6643 34.0666 53.5685 34.6357 55.417 35.3759C57.4516 36.1911 59.4028 37.1645 61.2278 38.3819C61.5466 38.5937 61.8632 38.7199 62.2591 38.7349C73.6882 39.1264 82.4387 48.5744 81.983 60.0164C81.585 70.0142 73.4614 78.4801 63.5085 79.2867C62.5757 79.3616 61.645 79.3937 60.7101 79.3937C44.4585 79.3937 28.207 79.3958 11.9555 79.3916C8.14289 79.3916 4.84808 78.1485 2.28283 75.2303C1.03337 73.8075 0.389387 72.1066 0 70.2859V52.6694L0.00427897 52.6672ZM49.298 75.2281C36.2343 64.5992 40.1603 45.0015 54.9784 39.7747C54.9099 39.7234 54.8543 39.6613 54.7837 39.6314C51.8911 38.3477 48.8573 37.556 45.7551 36.9848C45.4085 36.9206 45.1389 37.0597 44.8522 37.2095C38.3995 40.6177 31.9468 40.6134 25.4984 37.1966C25.2074 37.0426 24.9336 36.9228 24.5913 36.9869C19.7817 37.877 15.1647 39.289 11.0868 42.0982C6.51046 45.2518 4.01368 49.488 4.14419 55.1876C4.24902 59.7489 4.17628 64.3146 4.15916 68.8781C4.15274 70.8144 4.95505 72.327 6.44627 73.4994C8.07014 74.7746 9.95717 75.2324 11.9854 75.2303C24.127 75.2303 36.2707 75.2303 48.4123 75.2303C48.6434 75.2303 48.8744 75.2303 49.2938 75.2303L49.298 75.2281ZM19.51 19.839C19.4971 28.5017 26.489 35.5278 35.1411 35.5514C43.821 35.5749 50.8984 28.5231 50.8941 19.8561C50.8898 11.2382 43.8252 4.17365 35.201 4.16295C26.5746 4.15225 19.525 11.1976 19.51 19.839ZM61.6493 42.8791C52.7127 42.8855 45.4748 50.1362 45.4876 59.0729C45.4983 67.9496 52.7533 75.2067 61.6322 75.2281C70.5324 75.2495 77.8388 67.9539 77.8367 59.0515C77.8367 50.117 70.5859 42.8748 61.6493 42.8812V42.8791Z" fill="white"/>
<path d="M72.1349 53.3348C72.1371 53.6771 71.8589 54.1777 71.4289 54.6099C67.8453 58.1957 64.2659 61.7879 60.6694 65.3608C59.696 66.3279 58.5278 66.3321 57.5458 65.3715C55.6395 63.5059 53.7546 61.6146 51.8847 59.7126C50.9882 58.8012 50.9776 57.5303 51.7948 56.7023C52.657 55.8315 53.8808 55.8615 54.8543 56.8136C56.0931 58.0267 57.3404 59.2355 58.5235 60.502C59.0006 61.0134 59.2445 60.9342 59.6938 60.4764C62.5778 57.5496 65.4961 54.657 68.3973 51.7473C69.0455 51.0969 69.7687 50.746 70.7015 51.0541C71.5829 51.345 72.1478 52.1302 72.1307 53.3369L72.1349 53.3348Z" fill="white"/>
</svg>
