<?xml version="1.0" encoding="utf-8"?>
<!-- Generator: Adobe Illustrator 23.0.5, SVG Export Plug-In . SVG Version: 6.00 Build 0)  -->
<svg version="1.1" id="Layer_1" xmlns="http://www.w3.org/2000/svg" xmlns:xlink="http://www.w3.org/1999/xlink" x="0px" y="0px"
	 viewBox="0 0 300 300" style="enable-background:new 0 0 300 300;" xml:space="preserve">
<style type="text/css">
	.st0{display:none;}
	.st1{display:inline;}
	.st2{fill:#66FCF1;}
</style>
<g class="st0">
	<rect x="-2.5" y="-2.5" class="st1" width="308" height="308"/>
	<path class="st1" d="M305-2v307H-2V-2H305 M306-3H-3v309h309V-3L306-3z"/>
</g>
<path class="st2" d="M4.89,195.74c0.96-4.59,1.52-9.26,3-13.73c5.6-16.9,16.94-29.03,31.76-38.25c11.03-6.85,23.01-11.45,35.55-14.7
	c2.98-0.77,2.93-0.75,1.06-3.03C58.9,104.9,54.03,81.15,63.65,55.54c9.67-25.72,29-40.8,56.17-44.82
	c39.06-5.77,75.69,23.75,78.91,62.95c1.65,19.97-4.19,37.48-17.17,52.67c-0.48,0.55-1.18,0.97-1.22,2.01
	c6.75,1.8,13.47,3.8,19.99,6.41c7.18,2.87,14.06,6.31,20.49,10.6c1.12,0.75,2.24,1.19,3.64,1.24c40.31,1.38,71.17,34.7,69.56,75.05
	c-1.4,35.26-30.05,65.12-65.15,67.96c-3.29,0.26-6.57,0.38-9.87,0.38c-57.31,0-114.63,0.01-171.94-0.01
	c-13.45,0-25.07-4.38-34.11-14.68c-4.41-5.02-6.68-11.02-8.05-17.44v-62.13L4.89,195.74z M178.74,275.31
	c-46.07-37.49-32.23-106.6,20.03-125.03c-0.24-0.18-0.44-0.4-0.69-0.51c-10.2-4.53-20.9-7.32-31.84-9.33
	c-1.22-0.23-2.17,0.26-3.18,0.79c-22.76,12.02-45.51,12-68.26-0.05c-1.03-0.54-1.99-0.97-3.2-0.74
	c-16.96,3.14-33.24,8.12-47.63,18.03c-16.14,11.12-24.94,26.06-24.48,46.16c0.37,16.09,0.11,32.19,0.05,48.28
	c-0.02,6.83,2.81,12.16,8.07,16.3c5.73,4.5,12.38,6.11,19.53,6.1c42.82,0,85.65,0,128.47,0c0.82,0,1.63,0,3.11,0L178.74,275.31z
	 M73.68,79.97c-0.05,30.55,24.61,55.33,55.13,55.41c30.61,0.08,55.57-24.79,55.56-55.35c-0.02-30.39-24.93-55.31-55.34-55.35
	C98.6,24.64,73.74,49.49,73.68,79.97z M222.3,161.22c-31.52,0.02-57.04,25.59-57,57.11c0.04,31.31,25.62,56.9,56.94,56.97
	c31.39,0.08,57.16-25.65,57.15-57.05C279.39,186.75,253.81,161.21,222.3,161.22L222.3,161.22z"/>
<path class="st2" d="M259.28,198.1c0.01,1.21-0.97,2.97-2.49,4.5c-12.64,12.65-25.26,25.31-37.95,37.92
	c-3.43,3.41-7.55,3.43-11.02,0.04c-6.72-6.58-13.37-13.25-19.97-19.96c-3.16-3.21-3.2-7.7-0.32-10.62
	c3.04-3.07,7.36-2.97,10.79,0.39c4.37,4.28,8.77,8.54,12.94,13.01c1.68,1.8,2.54,1.52,4.13-0.09
	c10.17-10.32,20.46-20.52,30.69-30.78c2.29-2.29,4.84-3.53,8.13-2.44c3.11,1.03,5.1,3.8,5.04,8.05L259.28,198.1z"/>
<g>
</g>
<g>
</g>
<g>
</g>
<g>
</g>
<g>
</g>
<g>
</g>
<g>
</g>
<g>
</g>
<g>
</g>
<g>
</g>
<g>
</g>
<g>
</g>
<g>
</g>
<g>
</g>
<g>
</g>
</svg>
