<?xml version="1.0" encoding="utf-8"?>
<!-- Generator: Adobe Illustrator 23.0.5, SVG Export Plug-In . SVG Version: 6.00 Build 0)  -->
<svg version="1.1" id="Layer_1" xmlns="http://www.w3.org/2000/svg" xmlns:xlink="http://www.w3.org/1999/xlink" x="0px" y="0px"
	 viewBox="0 0 300 300" style="enable-background:new 0 0 300 300;" xml:space="preserve">
<style type="text/css">
	.st0{fill:#FFFFFF;}
</style>
<g>
	<path class="st0" d="M196.4,156.39c-3.32,0-7.91-0.13-13.77-0.39c-6.64-0.26-11.26-0.39-13.87-0.39c0.06,2.67,0.23,7.62,0.49,14.84
		c0.2,6.19,0.29,11.1,0.29,14.75c0,2.54-4.92,3.81-14.75,3.81c-9.51,0-14.26-0.81-14.26-2.44c0-4.04,0.1-9.24,0.29-15.63
		c0.2-8.79,0.33-13.96,0.39-15.53c-17.06,0.52-26.07,0.78-27.05,0.78c-1.17,0-1.76-1.01-1.76-3.03c0-0.65,0.33-4.36,0.98-11.13
		c0.06-3.91,0.2-7.91,0.39-12.01c0.59-0.98,1.46-1.46,2.64-1.46c3.19,0,7.32,0.1,12.4,0.29c6.77,0.2,10.9,0.33,12.4,0.39
		c-0.13-5.73-0.2-11.85-0.2-18.36v-10.64c0-1.24,0.85-1.86,2.54-1.86c2.41,0,5.97-0.06,10.69-0.2c4.72-0.13,8.25-0.2,10.6-0.2
		c3.19,0,4.79,0.55,4.79,1.66c0,3.26-0.11,8.2-0.34,14.84c-0.23,6.64-0.34,11.62-0.34,14.94c13.93-0.26,23.4-0.39,28.42-0.39
		c1.37,0,2.05,0.59,2.05,1.76c0,0.72-0.36,4.72-1.07,12.01c0.2,2.73,0,6.8-0.59,12.21C197.5,155.94,197.04,156.39,196.4,156.39z"/>
</g>
<g>
</g>
<g>
</g>
<g>
</g>
<g>
</g>
<g>
</g>
<g>
</g>
<g>
</g>
<g>
</g>
<g>
</g>
<g>
</g>
<g>
</g>
<g>
</g>
<g>
</g>
<g>
</g>
<g>
</g>
</svg>
