<?xml version="1.0" encoding="utf-8"?>
<!-- Generator: Adobe Illustrator 23.0.5, SVG Export Plug-In . SVG Version: 6.00 Build 0)  -->
<svg version="1.1" id="Layer_1" xmlns="http://www.w3.org/2000/svg" xmlns:xlink="http://www.w3.org/1999/xlink" x="0px" y="0px"
	 viewBox="0 0 300 300" style="enable-background:new 0 0 300 300;" xml:space="preserve">
<style type="text/css">
	.st0{fill:#FFFFFF;}
</style>
<g>
	<path class="st0" d="M253.21,184.28c-8.3,0-19.78-0.32-34.42-0.98c-16.6-0.65-28.16-0.98-34.67-0.98
		c0.16,6.68,0.57,19.04,1.22,37.11c0.49,15.46,0.73,27.75,0.73,36.87c0,6.35-12.29,9.52-36.87,9.52c-23.77,0-35.64-2.03-35.64-6.1
		c0-10.09,0.24-23.11,0.73-39.06c0.49-21.97,0.81-34.91,0.98-38.82c-42.64,1.3-65.19,1.95-67.63,1.95c-2.93,0-4.39-2.52-4.39-7.57
		c0-1.63,0.81-10.9,2.44-27.83c0.16-9.77,0.49-19.78,0.98-30.03c1.46-2.44,3.66-3.66,6.59-3.66c7.97,0,18.31,0.24,31.01,0.73
		c16.93,0.49,27.26,0.82,31.01,0.98c-0.33-14.32-0.49-29.62-0.49-45.9V43.9c0-3.09,2.11-4.64,6.35-4.64
		c6.02,0,14.93-0.16,26.73-0.49c11.8-0.32,20.63-0.49,26.49-0.49c7.97,0,11.96,1.38,11.96,4.15c0,8.14-0.29,20.51-0.85,37.11
		c-0.57,16.6-0.85,29.05-0.85,37.35c34.83-0.65,58.51-0.98,71.04-0.98c3.42,0,5.13,1.46,5.13,4.39c0,1.79-0.9,11.8-2.69,30.03
		c0.49,6.84,0,17.01-1.46,30.52C255.97,183.14,254.83,184.28,253.21,184.28z"/>
</g>
<g>
</g>
<g>
</g>
<g>
</g>
<g>
</g>
<g>
</g>
<g>
</g>
<g>
</g>
<g>
</g>
<g>
</g>
<g>
</g>
<g>
</g>
<g>
</g>
<g>
</g>
<g>
</g>
<g>
</g>
</svg>
