<?xml version="1.0" encoding="utf-8"?>
<!-- Generator: Adobe Illustrator 23.0.5, SVG Export Plug-In . SVG Version: 6.00 Build 0)  -->
<svg version="1.1" id="Layer_1" xmlns="http://www.w3.org/2000/svg" xmlns:xlink="http://www.w3.org/1999/xlink" x="0px" y="0px"
	 viewBox="0 0 260 64" style="enable-background:new 0 0 260 64;" xml:space="preserve">
<style type="text/css">
	.st0{display:none;}
	.st1{display:inline;}
	.st2{display:inline;fill:#FFFFFF;}
</style>
<g class="st0">
	<rect x="-31.5" y="-123.5" class="st1" width="313" height="310"/>
	<path class="st2" d="M281-123v309H-31v-309H281 M282-124H-32v311h314V-124L282-124z"/>
</g>
<path d="M1.45,6.31h13.28c4.53,0,7.84,1.07,9.92,3.2c2.08,2.08,3.12,5.31,3.12,9.68v2.24c0,2.88-0.48,5.23-1.44,7.04
	c-0.91,1.81-2.32,3.12-4.24,3.92v0.16c4.37,1.49,6.56,5.39,6.56,11.68v4.8c0,4.32-1.15,7.63-3.44,9.92
	c-2.24,2.24-5.55,3.36-9.92,3.36H1.45V6.31z M13.69,29.11c1.76,0,3.07-0.45,3.92-1.36c0.91-0.91,1.36-2.43,1.36-4.56v-3.12
	c0-2.03-0.37-3.49-1.12-4.4c-0.69-0.91-1.81-1.36-3.36-1.36h-4.24v14.8H13.69z M15.29,54.31c1.55,0,2.69-0.4,3.44-1.2
	c0.75-0.85,1.12-2.29,1.12-4.32v-4.88c0-2.56-0.45-4.32-1.36-5.28c-0.85-1.01-2.29-1.52-4.32-1.52h-3.92v17.2H15.29z M40.6,6.31
	h11.92l9.12,56h-8.8l-1.6-11.12v0.16h-10l-1.6,10.96h-8.16L40.6,6.31z M50.2,43.75l-3.92-27.68h-0.16l-3.84,27.68H50.2z M65.9,6.31
	h24v8H74.7v14.8h12.08v8H74.7v17.2h15.2v8h-24V6.31z M120.18,63.11c-4.21,0-7.44-1.2-9.68-3.6c-2.19-2.4-3.28-5.79-3.28-10.16V19.27
	c0-4.37,1.09-7.76,3.28-10.16c2.24-2.4,5.47-3.6,9.68-3.6c4.21,0,7.41,1.2,9.6,3.6c2.24,2.4,3.36,5.79,3.36,10.16v5.92h-8.32v-6.48
	c0-3.47-1.47-5.2-4.4-5.2s-4.4,1.73-4.4,5.2v31.28c0,3.41,1.47,5.12,4.4,5.12s4.4-1.71,4.4-5.12v-8.56h8.32v7.92
	c0,4.37-1.12,7.76-3.36,10.16C127.59,61.91,124.39,63.11,120.18,63.11z M145.2,6.31h11.92l9.12,56h-8.8l-1.6-11.12v0.16h-10
	l-1.6,10.96h-8.16L145.2,6.31z M154.8,43.75l-3.92-27.68h-0.16l-3.84,27.68H154.8z M170.51,6.31h13.04c4.53,0,7.84,1.07,9.92,3.2
	c2.08,2.08,3.12,5.31,3.12,9.68v3.44c0,5.81-1.92,9.49-5.76,11.04v0.16c2.13,0.64,3.63,1.95,4.48,3.92
	c0.91,1.97,1.36,4.61,1.36,7.92v9.84c0,1.6,0.05,2.91,0.16,3.92c0.11,0.96,0.37,1.92,0.8,2.88h-8.96c-0.32-0.91-0.53-1.76-0.64-2.56
	c-0.11-0.8-0.16-2.24-0.16-4.32V45.19c0-2.56-0.43-4.35-1.28-5.36c-0.8-1.01-2.21-1.52-4.24-1.52h-3.04v24h-8.8V6.31z M182.51,30.31
	c1.76,0,3.07-0.45,3.92-1.36c0.91-0.91,1.36-2.43,1.36-4.56v-4.32c0-2.03-0.37-3.49-1.12-4.4c-0.69-0.91-1.81-1.36-3.36-1.36h-4v16
	H182.51z M202.78,6.31h13.44c4.37,0,7.65,1.17,9.84,3.52c2.19,2.35,3.28,5.79,3.28,10.32v28.32c0,4.53-1.09,7.97-3.28,10.32
	s-5.47,3.52-9.84,3.52h-13.44V6.31z M216.06,54.31c1.44,0,2.53-0.43,3.28-1.28c0.8-0.85,1.2-2.24,1.2-4.16V19.75
	c0-1.92-0.4-3.31-1.2-4.16c-0.75-0.85-1.84-1.28-3.28-1.28h-4.48v40H216.06z M235.98,4.78h-3.5V1.71h10.37v3.07h-3.5v14.02h-3.36
	V4.78z M244.86,1.71h5.04l1.97,10.85h0.1l1.92-10.85h5.04v17.09h-3.17V5.79h-0.1l-2.59,13.01h-2.59l-2.59-13.01h-0.1v13.01h-2.93
	V1.71z"/>
<g>
</g>
<g>
</g>
<g>
</g>
<g>
</g>
<g>
</g>
<g>
</g>
<g>
</g>
<g>
</g>
<g>
</g>
<g>
</g>
<g>
</g>
<g>
</g>
<g>
</g>
<g>
</g>
<g>
</g>
</svg>
