<svg width="258" height="62" viewBox="0 0 258 62" fill="none" xmlns="http://www.w3.org/2000/svg">
<path d="M0.28 5H13.56C18.0933 5 21.4 6.06666 23.48 8.2C25.56 10.28 26.6 13.5067 26.6 17.88V20.12C26.6 23 26.12 25.3467 25.16 27.16C24.2533 28.9733 22.84 30.28 20.92 31.08V31.24C25.2933 32.7333 27.48 36.6267 27.48 42.92V47.72C27.48 52.04 26.3333 55.3467 24.04 57.64C21.8 59.88 18.4933 61 14.12 61H0.28V5ZM12.52 27.8C14.28 27.8 15.5867 27.3467 16.44 26.44C17.3467 25.5333 17.8 24.0133 17.8 21.88V18.76C17.8 16.7333 17.4267 15.2667 16.68 14.36C15.9867 13.4533 14.8667 13 13.32 13H9.08V27.8H12.52ZM14.12 53C15.6667 53 16.8133 52.6 17.56 51.8C18.3067 50.9467 18.68 49.5067 18.68 47.48V42.6C18.68 40.04 18.2267 38.28 17.32 37.32C16.4667 36.3067 15.0267 35.8 13 35.8H9.08V53H14.12ZM39.4238 5H51.3438L60.4638 61H51.6638L50.0638 49.88V50.04H40.0638L38.4638 61H30.3038L39.4238 5ZM49.0238 42.44L45.1038 14.76H44.9438L41.1037 42.44H49.0238ZM64.7331 5H88.7331V13H73.5331V27.8H85.6131V35.8H73.5331V53H88.7331V61H64.7331V5ZM119.008 61.8C114.795 61.8 111.568 60.6 109.328 58.2C107.141 55.8 106.048 52.4133 106.048 48.04V17.96C106.048 13.5867 107.141 10.2 109.328 7.8C111.568 5.4 114.795 4.2 119.008 4.2C123.221 4.2 126.421 5.4 128.608 7.8C130.848 10.2 131.968 13.5867 131.968 17.96V23.88H123.648V17.4C123.648 13.9333 122.181 12.2 119.248 12.2C116.315 12.2 114.848 13.9333 114.848 17.4V48.68C114.848 52.0933 116.315 53.8 119.248 53.8C122.181 53.8 123.648 52.0933 123.648 48.68V40.12H131.968V48.04C131.968 52.4133 130.848 55.8 128.608 58.2C126.421 60.6 123.221 61.8 119.008 61.8ZM144.033 5H155.953L165.073 61H156.273L154.673 49.88V50.04H144.673L143.073 61H134.913L144.033 5ZM153.633 42.44L149.713 14.76H149.553L145.713 42.44H153.633ZM169.343 5H182.383C186.916 5 190.223 6.06666 192.303 8.2C194.383 10.28 195.423 13.5067 195.423 17.88V21.32C195.423 27.1333 193.503 30.8133 189.663 32.36V32.52C191.796 33.16 193.289 34.4667 194.143 36.44C195.049 38.4133 195.503 41.0533 195.503 44.36V54.2C195.503 55.8 195.556 57.1067 195.663 58.12C195.769 59.08 196.036 60.04 196.463 61H187.503C187.183 60.0933 186.969 59.24 186.863 58.44C186.756 57.64 186.703 56.2 186.703 54.12V43.88C186.703 41.32 186.276 39.5333 185.423 38.52C184.623 37.5067 183.209 37 181.183 37H178.143V61H169.343V5ZM181.343 29C183.103 29 184.409 28.5467 185.263 27.64C186.169 26.7333 186.622 25.2133 186.622 23.08V18.76C186.622 16.7333 186.249 15.2667 185.503 14.36C184.809 13.4533 183.689 13 182.143 13H178.143V29H181.343ZM201.608 5H215.048C219.421 5 222.701 6.17333 224.888 8.52C227.075 10.8667 228.168 14.3067 228.168 18.84V47.16C228.168 51.6933 227.075 55.1333 224.888 57.48C222.701 59.8267 219.421 61 215.048 61H201.608V5ZM214.888 53C216.328 53 217.421 52.5733 218.168 51.72C218.968 50.8667 219.368 49.48 219.368 47.56V18.44C219.368 16.52 218.968 15.1333 218.168 14.28C217.421 13.4267 216.328 13 214.888 13H210.408V53H214.888ZM234.812 3.472H231.308V0.399998H241.676V3.472H238.172V17.488H234.812V3.472ZM243.692 0.399998H248.732L250.7 11.248H250.796L252.716 0.399998H257.756V17.488H254.588V4.48H254.492L251.9 17.488H249.308L246.716 4.48H246.62V17.488H243.692V0.399998Z" fill="white"/>
</svg>
