<svg width="45" height="45" viewBox="0 0 45 45" fill="none" xmlns="http://www.w3.org/2000/svg">
<path d="M22.4775 45.0063C19.9541 45.0063 17.4608 44.9763 14.9374 44.8861C7.39736 44.6156 2.44075 39.325 0.848632 34.2749C0.21779 32.321 0.0976302 30.3069 0.0675901 28.2929C-0.02253 24.4452 -0.02253 20.5975 0.0675901 16.7498C0.12767 14.4653 0.21779 12.1506 1.11899 10.0164C3.55224 4.36507 7.7278 0.938213 13.9161 0.246831C17.2505 -0.113891 20.5849 0.0364099 23.9194 0.00634981C26.3526 0.00634981 28.8159 -0.0237103 31.2492 0.246831C32.3606 0.367071 33.4421 0.547432 34.4935 0.908153C35.635 1.29893 36.2358 2.47128 35.9354 3.61356C35.605 4.75585 34.4935 5.53741 33.352 5.20675C31.099 4.57549 28.7859 4.54543 26.4728 4.51537C23.0182 4.45525 19.5636 4.45525 16.0789 4.57549C13.7959 4.66567 11.5729 4.99633 9.62033 6.34903C6.6764 8.39312 4.90404 11.1286 4.7238 14.7659C4.45344 19.9663 4.4234 25.1667 4.7238 30.3671C5.0242 35.6276 9.28989 39.9863 14.5469 40.317C19.864 40.6476 25.1811 40.6476 30.4982 40.317C35.7552 39.9863 39.9908 35.6276 40.3513 30.3671C40.6217 26.339 40.5315 22.311 40.5015 18.2829C40.5015 16.9603 41.1023 16.0885 42.2438 15.7879C43.5656 15.4573 44.9474 16.4492 44.9474 17.8019C44.9474 22.341 45.1577 26.8801 44.7372 31.3891C44.1063 38.0324 38.5189 43.7739 31.9701 44.6456C31.4294 44.7057 30.8887 44.7959 30.348 44.826C27.7345 45.0063 25.121 44.9462 22.5075 44.9763L22.4775 45.0063Z" fill="url(#paint0_linear_133_447)"/>
<path d="M44.9775 8.12253C44.9775 8.84397 44.4668 9.47524 43.6557 9.9562C41.2525 11.339 38.9695 12.9321 36.8366 14.7057C31.7899 18.9442 27.7946 24.0243 24.8807 29.9161C24.5803 30.5474 24.2198 31.1185 23.4988 31.359C22.5075 31.7197 21.6664 31.4792 20.9454 30.7578C18.6624 28.4732 16.3794 26.1887 14.0963 23.9041C13.4354 23.2428 12.7745 22.5814 12.1137 21.9201C11.1524 20.9582 11.1223 19.5754 12.0235 18.6736C12.9247 17.7718 14.3066 17.8019 15.2679 18.7338C17.4007 20.838 19.5336 22.9722 21.6364 25.1065C21.9668 25.4372 22.087 25.4672 22.3573 25.0163C26.9535 17.0804 33.2318 10.7979 41.1023 6.13856C41.7632 5.74778 42.4241 5.44718 43.2352 5.6576C44.2265 5.9582 44.8874 6.79989 44.8874 8.06241L44.9775 8.12253Z" fill="url(#paint1_linear_133_447)"/>
<defs>
<linearGradient id="paint0_linear_133_447" x1="42.5" y1="2" x2="5.5" y2="39" gradientUnits="userSpaceOnUse">
<stop stop-color="#B75CFF"/>
<stop offset="1" stop-color="#671AE4"/>
</linearGradient>
<linearGradient id="paint1_linear_133_447" x1="43.1104" y1="6.74094" x2="22.485" y2="33.4708" gradientUnits="userSpaceOnUse">
<stop stop-color="#B75CFF"/>
<stop offset="1" stop-color="#671AE4"/>
</linearGradient>
</defs>
</svg>
