<?xml version="1.0" encoding="utf-8"?>
<!-- Generator: Adobe Illustrator 23.0.5, SVG Export Plug-In . SVG Version: 6.00 Build 0)  -->
<svg version="1.1" id="Layer_1" xmlns="http://www.w3.org/2000/svg" xmlns:xlink="http://www.w3.org/1999/xlink" x="0px" y="0px"
	 viewBox="0 0 300 300" style="enable-background:new 0 0 300 300;" xml:space="preserve">
<style type="text/css">
	.st0{display:none;}
	.st1{display:inline;}
	.st2{fill:#66FCF1;}
</style>
<g class="st0">
	<rect x="-2.5" y="-2.5" class="st1" width="308" height="308"/>
	<path class="st1" d="M305-2v307H-2V-2H305 M306-3H-3v309h309V-3L306-3z"/>
</g>
<path class="st2" d="M76.56,293.99c-0.41-0.23-0.82-0.44-1.22-0.68c-2.44-1.52-3.48-3.86-2.71-6.47c0.78-2.65,2.7-4.03,5.42-4.07
	c5.16-0.08,10.31-0.09,15.47,0.01c1.69,0.03,2.2-0.4,2.24-2.16c0.25-11.9,7-18.42,18.94-18.43c3.28,0,6.57-0.11,9.84,0.05
	c1.95,0.09,2.8-0.5,3.23-2.46c1.71-7.67,3.54-15.32,5.47-22.94c0.57-2.25-0.07-2.64-2.21-2.63c-27.94,0.07-55.87,0.06-83.81,0.04
	c-11.26-0.01-19.72-5.7-23.13-15.36c-1.01-2.88-1.29-5.85-1.29-8.85c-0.02-47.44,0.09-94.88-0.08-142.32
	c-0.05-14.75,11.22-24.39,24.41-24.31c49.21,0.28,98.44,0.09,147.66,0.17c2.35,0,3.69-0.71,4.97-2.67
	c5.48-8.39,10.91-16.83,16.8-24.94c5.64-7.77,13.68-11.04,23.15-9.61c9.93,1.5,16.68,7.29,19.87,16.86
	c2.01,6.01,1.58,12.02-1.13,17.78c-0.82,1.74-1.13,2.71,1.41,2.55c11.36-0.71,23.61,8.42,23.57,24.18
	c-0.15,47.43-0.03,94.87-0.07,142.31c-0.01,14.66-9.66,24.2-24.41,24.22c-27.56,0.04-55.13,0.01-82.69,0.01
	c-2.56,0-3.56,1.22-2.99,3.65c1.72,7.29,3.51,14.56,5.12,21.87c0.43,1.95,1.28,2.56,3.23,2.47c3.65-0.15,7.31-0.08,10.96-0.04
	c10.68,0.11,17.81,7.18,17.8,17.86c0,2.25,0.64,2.83,2.81,2.75c4.49-0.17,9-0.05,13.5-0.05c3.9,0,6.12,1.35,6.85,4.09
	c0.79,3.01-0.37,5.1-3.95,7.16L76.56,293.99L76.56,293.99z M189.83,55.08c-0.78-0.59-1.65-0.33-2.45-0.33
	c-46.97-0.01-93.93-0.02-140.9,0c-7.79,0-12.36,4.6-12.44,12.43c-0.05,4.5-0.01,9-0.01,13.5c0,30,0.02,60-0.05,90
	c0,2.38,0.47,3.34,3.07,3.19c4.11-0.23,8.25-0.13,12.37-0.03c3.88,0.09,6.36,2.42,6.32,5.7c-0.04,3.33-2.49,5.46-6.45,5.5
	c-4.22,0.05-8.44,0.13-12.65-0.04c-2.18-0.08-2.68,0.72-2.65,2.75c0.11,7.5,0.01,15,0.05,22.5c0.05,8.07,4.69,12.71,12.83,12.71
	c70.78,0.02,141.56,0.02,212.34,0c8.26,0,12.86-4.65,12.9-12.93c0.03-7.12,0.01-14.25,0-21.37c0-2.41-1.22-3.61-3.66-3.61
	c-56.81,0-113.62,0-170.44,0c-1.22,0-2.45,0.04-3.65-0.11c-2.67-0.32-4.62-2.42-4.82-5.05c-0.21-2.71,1.56-5.21,4.29-5.78
	c1.36-0.29,2.79-0.29,4.19-0.29c56.9-0.02,113.81-0.03,170.71,0.04c2.68,0,3.45-0.64,3.44-3.39c-0.1-34.12-0.06-68.25-0.07-102.37
	c0-0.84,0-1.69-0.07-2.52c-0.58-6.41-5.04-10.64-11.46-10.82c-2.72-0.08-5.46,0.18-8.15-0.07c-3.01-0.28-4.93,0.8-6.85,3.16
	c-15.11,18.64-30.33,37.19-45.64,55.65c-2.27,2.74-3.64,5.19-2.13,8.74c0.53,1.24,0.41,2.77,0.5,4.16
	c1.04,17.3-11.66,28.58-24.05,29.44c-5,0.35-9.93-0.02-14.88-0.17c-7.54-0.23-14.45,1.16-20.29,6.51c-3.26,2.99-7.92,1.42-9.07-2.87
	c-2.75-10.27-4.47-20.66-3.49-31.38c1.81-20.05,15.42-33.28,35.45-34.12c1.83-0.08,2.83-0.7,3.81-2.18
	c7.55-11.41,15.18-22.75,22.77-34.14c0.5-0.75,1.25-1.39,1.29-2.4L189.83,55.08z M236.37,17.19c-4.84,0.2-8.66,2.07-11.31,6.01
	c-10.7,15.93-21.35,31.91-32.07,47.82c-0.91,1.35-0.67,1.99,0.56,2.87c4.49,3.23,8.96,6.47,13.3,9.89c1.65,1.29,2.41,0.83,3.55-0.57
	c4.74-5.92,9.6-11.76,14.4-17.63c7.24-8.84,14.53-17.64,21.7-26.54c3.49-4.33,4.03-9.22,1.65-14.23
	C245.8,19.88,241.62,17.55,236.37,17.19L236.37,17.19z M162.73,144.58c3.37,0.19,6.72,0.27,10.1,0.08
	c10.27-0.6,17.5-11.26,13.02-23.9c-0.31-0.88-1.01-1.32-1.68-1.81c-5.79-4.29-11.58-8.58-17.37-12.87c-0.67-0.5-1.29-0.99-2.21-1.1
	c-9.04-1.13-20.09,4.85-23.95,13.18c-4.34,9.38-3.52,19.14-1.88,28.94c0.21,1.23,0.72,1.19,1.7,0.74c7.1-3.26,14.63-3.64,22.27-3.22
	V144.58z M153.08,282.74c14.52,0,29.04,0.02,43.56-0.04c0.9,0,2.28,0.77,2.56-1.17c0.7-4.72-1.83-8.08-6.54-8.09
	c-26.41-0.04-52.83-0.04-79.24,0c-4.35,0-6.33,2.32-6.52,6.71c-0.1,2.12,0.52,2.65,2.62,2.64
	C124.03,282.7,138.55,282.74,153.08,282.74L153.08,282.74z M152.96,262.17c4.03,0,8.06-0.05,12.08,0.02
	c1.69,0.03,2.38-0.34,1.92-2.23c-1.95-7.9-3.82-15.82-5.67-23.74c-0.31-1.33-0.76-2.09-2.37-2.04c-3.93,0.12-7.87,0.1-11.8,0.01
	c-1.43-0.03-1.93,0.55-2.23,1.84c-1.87,8.01-3.78,16.02-5.74,24.01c-0.4,1.64,0.06,2.18,1.74,2.15
	C144.92,262.12,148.94,262.17,152.96,262.17L152.96,262.17z M201.42,94c-0.32-0.34-0.58-0.71-0.92-0.96
	c-4.5-3.36-9.04-6.67-13.5-10.08c-1.25-0.95-1.74-0.33-2.39,0.65c-2.84,4.3-5.65,8.6-8.61,12.82c-0.93,1.32-0.74,1.97,0.51,2.86
	c3.74,2.65,7.44,5.37,11.06,8.18c1.29,0.99,2.02,1.16,3.14-0.28c3.1-3.99,6.38-7.85,9.59-11.75C200.65,95.01,200.98,94.57,201.42,94
	z"/>
<path class="st2" d="M72.65,185.01c-3.1,0-5.56-2.39-5.61-5.46c-0.05-3.13,2.6-5.74,5.73-5.67c3.03,0.08,5.5,2.63,5.47,5.65
	C78.21,182.59,75.75,184.99,72.65,185.01L72.65,185.01z"/>
<g>
</g>
<g>
</g>
<g>
</g>
<g>
</g>
<g>
</g>
<g>
</g>
<g>
</g>
<g>
</g>
<g>
</g>
<g>
</g>
<g>
</g>
<g>
</g>
<g>
</g>
<g>
</g>
<g>
</g>
</svg>
