<svg width="82" height="91" viewBox="0 0 82 91" fill="none" xmlns="http://www.w3.org/2000/svg">
<path d="M16.939 90.5885C16.8113 90.5176 16.6813 90.4514 16.556 90.3734C15.7878 89.896 15.4616 89.1584 15.7027 88.3382C15.9486 87.5038 16.5513 87.0712 17.407 87.057C19.0286 87.0334 20.6501 87.0287 22.2717 87.0594C22.8035 87.0688 22.9643 86.9341 22.9761 86.3786C23.0541 82.6344 25.1768 80.585 28.9329 80.5802C29.9658 80.5802 30.9988 80.5448 32.0294 80.5944C32.6416 80.6228 32.9088 80.4361 33.0459 79.8191C33.5848 77.4057 34.1592 74.9993 34.7667 72.6025C34.9463 71.8957 34.7454 71.7728 34.0717 71.7751C25.2832 71.7964 16.497 71.794 7.70838 71.7869C4.16742 71.7846 1.50579 69.9952 0.432631 66.9554C0.11352 66.05 0.0260594 65.1163 0.0260594 64.1708C0.018968 49.2482 0.0544249 34.3256 5.7681e-05 19.4053C-0.0164889 14.7652 3.5292 11.7348 7.67765 11.7585C23.1581 11.8459 38.6409 11.7868 54.1238 11.8105C54.8636 11.8105 55.2844 11.5883 55.6862 10.9713C57.4094 8.33097 59.1185 5.67644 60.9693 3.12591C62.7445 0.681745 65.2714 -0.346504 68.2522 0.102616C71.3771 0.573011 73.4974 2.39549 74.502 5.4046C75.1355 7.29563 74.9984 9.18666 74.1451 10.9973C73.8874 11.5457 73.7905 11.8483 74.5871 11.7987C78.1612 11.5741 82.0141 14.4485 82 19.403C81.9527 34.3232 81.9905 49.2458 81.9787 64.1684C81.974 68.7802 78.9412 71.7799 74.3011 71.7869C65.6307 71.7988 56.9603 71.7893 48.2923 71.7893C47.4855 71.7893 47.1719 72.1722 47.3515 72.9381C47.8928 75.231 48.4554 77.5168 48.9613 79.8167C49.096 80.4313 49.3631 80.6204 49.9777 80.5944C51.1265 80.5472 52.2777 80.5708 53.4265 80.5826C56.7854 80.6181 59.0286 82.84 59.0263 86.2013C59.0263 86.9105 59.2272 87.0901 59.9103 87.0665C61.3239 87.0145 62.7398 87.0499 64.1557 87.0523C65.3825 87.0523 66.0798 87.4754 66.3091 88.3382C66.5573 89.2837 66.1933 89.9432 65.0658 90.5909H16.939V90.5885ZM52.5684 15.4389C52.3226 15.2522 52.0507 15.3349 51.7978 15.3349C37.0241 15.3302 22.2504 15.3278 7.47673 15.3349C5.02548 15.3349 3.58829 16.7815 3.56229 19.2446C3.54574 20.6605 3.55993 22.0764 3.55993 23.49C3.55993 32.9262 3.56702 42.3625 3.54338 51.7987C3.54338 52.548 3.6923 52.8483 4.50781 52.8033C5.8008 52.7324 7.10325 52.7632 8.39861 52.7939C9.61832 52.8222 10.3984 53.555 10.3866 54.588C10.3747 55.6352 9.60414 56.3041 8.35842 56.3183C7.03234 56.3325 5.70389 56.3585 4.3778 56.3065C3.6923 56.2805 3.53629 56.5334 3.54338 57.1716C3.57647 59.5307 3.54574 61.8897 3.55993 64.2488C3.57411 66.7875 5.03493 68.246 7.59492 68.246C29.8595 68.2531 52.1216 68.2531 74.3862 68.246C76.984 68.246 78.4306 66.7828 78.4448 64.1803C78.4543 61.9394 78.4472 59.6985 78.4448 57.4576C78.4448 56.6997 78.0611 56.3207 77.2937 56.3207C59.4234 56.3207 41.5531 56.3207 23.6829 56.3207C23.2999 56.3207 22.9123 56.3325 22.5341 56.2876C21.6949 56.1883 21.0803 55.5264 21.0165 54.6991C20.9503 53.8481 21.5058 53.061 22.3662 52.8813C22.7941 52.7915 23.2432 52.7892 23.6829 52.7892C41.5815 52.7844 59.4825 52.7797 77.3811 52.8033C78.225 52.8033 78.4661 52.6024 78.4637 51.7373C78.433 41.0033 78.4448 30.2693 78.4425 19.5353C78.4425 19.2706 78.4425 19.0035 78.4212 18.7411C78.2392 16.7248 76.8351 15.394 74.8164 15.3372C73.9607 15.3136 73.1003 15.394 72.2517 15.316C71.3062 15.2285 70.701 15.5689 70.0983 16.3111C65.3447 22.1733 60.558 28.0095 55.7406 33.8174C55.0267 34.6778 54.5965 35.4507 55.0693 36.5665C55.2348 36.9565 55.1993 37.4363 55.2253 37.876C55.5539 43.3174 51.5567 46.8655 47.6612 47.1373C46.0893 47.2484 44.5386 47.1302 42.9809 47.083C40.61 47.0097 38.4353 47.447 36.5986 49.13C35.5727 50.0708 34.1072 49.5768 33.7455 48.227C32.8804 44.9957 32.3391 41.729 32.6464 38.3558C33.216 32.0493 37.4969 27.889 43.7964 27.6242C44.3708 27.6006 44.6875 27.4044 44.9948 26.9387C47.3681 23.3505 49.7697 19.7812 52.1571 16.2C52.3131 15.9637 52.5495 15.7627 52.5637 15.4436L52.5684 15.4389ZM67.2074 3.52066C65.6851 3.58212 64.4819 4.1707 63.6499 5.41169C60.2838 10.4229 56.9343 15.4483 53.5612 20.4549C53.2752 20.8803 53.3508 21.0813 53.7361 21.3578C55.1473 22.3743 56.5538 23.3931 57.92 24.4686C58.4377 24.8751 58.6788 24.731 59.0357 24.2889C60.5273 22.4263 62.0543 20.5896 63.5648 18.7435C65.8435 15.9637 68.1363 13.1933 70.3914 10.3946C71.4882 9.03302 71.6584 7.49419 70.9114 5.91754C70.1739 4.36453 68.8596 3.63412 67.2074 3.52302V3.52066ZM44.0422 43.5893C45.1012 43.6484 46.1554 43.6744 47.2191 43.6129C50.4504 43.4238 52.7244 40.072 51.3156 36.0937C51.2187 35.8171 50.9965 35.68 50.7861 35.524C48.966 34.1743 47.1435 32.8246 45.3234 31.4748C45.113 31.3188 44.9168 31.1628 44.6284 31.1274C41.7848 30.7728 38.3077 32.6544 37.095 35.2735C35.7288 38.2235 35.9864 41.294 36.5041 44.3764C36.5703 44.7641 36.731 44.7499 37.0383 44.6081C39.2721 43.5822 41.6406 43.4616 44.0422 43.594V43.5893ZM41.0071 87.0499C45.5739 87.0499 50.1408 87.0547 54.7076 87.0381C54.9913 87.0381 55.4239 87.2816 55.5137 86.6694C55.7335 85.1849 54.9393 84.1283 53.4572 84.1259C45.1485 84.1118 36.8397 84.1118 28.531 84.1259C27.1624 84.1259 26.5407 84.8563 26.4792 86.2368C26.4485 86.9034 26.6423 87.0712 27.3042 87.0665C31.871 87.0358 36.4379 87.0499 41.0047 87.0499H41.0071ZM40.9716 80.5802C42.2386 80.5802 43.5056 80.5637 44.7726 80.5873C45.3045 80.5968 45.5219 80.481 45.3754 79.8853C44.7608 77.4009 44.1746 74.9095 43.5907 72.4181C43.4938 71.9997 43.352 71.7609 42.8461 71.7775C41.6099 71.8153 40.3712 71.8082 39.135 71.7799C38.6859 71.7704 38.5275 71.9524 38.4329 72.359C37.8443 74.8788 37.2439 77.3986 36.627 79.9113C36.5017 80.4266 36.6459 80.5968 37.173 80.5873C38.44 80.5637 39.707 80.5802 40.974 80.5802H40.9716ZM56.2134 27.681C56.1141 27.5746 56.0314 27.4588 55.9226 27.3784C54.5067 26.3218 53.079 25.2794 51.6749 24.2086C51.2825 23.9107 51.1265 24.1045 50.9232 24.4118C50.0297 25.7639 49.1456 27.1184 48.2143 28.4445C47.9212 28.8605 47.9803 29.0638 48.375 29.3451C49.5522 30.1795 50.7152 31.0352 51.8545 31.9192C52.2587 32.2313 52.4904 32.2833 52.8426 31.8318C53.8188 30.5766 54.8495 29.364 55.8588 28.1348C55.9699 27.9977 56.0763 27.8583 56.2134 27.681Z" fill="white"/>
<path d="M15.7074 56.3065C14.7336 56.3065 13.9582 55.5548 13.9417 54.588C13.9251 53.6047 14.7596 52.7821 15.7453 52.8057C16.6979 52.8293 17.4756 53.633 17.4661 54.5833C17.4567 55.5477 16.6837 56.3018 15.7074 56.3041V56.3065Z" fill="white"/>
</svg>
