<svg width="78" height="78" viewBox="0 0 78 78" fill="none" xmlns="http://www.w3.org/2000/svg">
<circle cx="39" cy="39" r="39" fill="url(#paint0_linear_131_198)"/>
<path d="M19 26.6778C19.0929 26.2342 19.1628 25.7844 19.2808 25.3481C20.2994 21.5709 23.7939 19.0482 27.6922 19.2663C31.506 19.4792 34.6873 22.3693 35.3115 26.1862C35.8678 29.5898 34.1279 33.0759 31.053 34.6864C30.7963 34.821 30.7117 34.9661 30.7128 35.2521C30.7232 38.4407 30.7242 41.6303 30.7128 44.8189C30.7117 45.131 30.7994 45.2281 31.1021 45.1989C31.3599 45.1738 31.6229 45.1884 31.8828 45.1957C32.557 45.2145 33.057 45.6832 33.0591 46.3501C33.0695 48.7058 33.0695 51.0626 33.0591 53.4183C33.0559 54.0675 32.5643 54.5413 31.9162 54.5664C31.6177 54.5778 31.316 54.5852 31.0186 54.5643C30.7723 54.5465 30.7117 54.6342 30.7149 54.8722C30.7274 55.822 30.6898 56.7739 30.7305 57.7226C30.7608 58.4417 30.5259 58.9584 29.8611 59.2579H24.5485C23.8868 58.9563 23.677 58.4428 23.678 57.7226C23.6958 50.237 23.6874 42.7524 23.6968 35.2667C23.6968 34.9619 23.6049 34.8116 23.3367 34.6707C21.6271 33.769 20.4163 32.4027 19.6429 30.6367C19.3069 29.8696 19.1712 29.0513 19.001 28.2413C19.001 27.7205 19.001 27.1997 19.001 26.6789L19 26.6778ZM23.6884 27.4241C23.6738 29.3592 25.2238 30.9498 27.1484 30.9738C29.1023 30.9978 30.7023 29.4375 30.718 27.494C30.7326 25.5569 29.1837 23.9673 27.258 23.9453C25.3041 23.9224 23.7031 25.4817 23.6884 27.4241Z" fill="white"/>
<path d="M43.0633 59.2567C42.8013 59.1931 42.5383 59.1336 42.2784 59.0636C39.7025 58.3758 37.9166 56.0775 37.9093 53.4087C37.8999 49.8684 37.9031 46.328 37.9135 42.7877C37.9135 42.5017 37.8363 42.3535 37.5733 42.2262C36.3803 41.649 35.2019 41.0394 34.012 40.456C33.5392 40.2243 33.2313 39.8871 33.2261 39.3475C33.2209 38.7891 33.5382 38.4447 34.0246 38.2067C35.2155 37.6243 36.3938 37.0169 37.5868 36.4366C37.8311 36.3176 37.9156 36.1798 37.9146 35.9063C37.9052 32.3263 37.9041 28.7474 37.9093 25.1674C37.9135 22.319 39.8141 19.9748 42.5957 19.3757C42.9516 19.2985 43.3138 19.2536 43.6801 19.2557C44.4003 19.2588 44.9316 19.7473 44.9378 20.4163C44.9441 21.0718 44.4441 21.5707 43.7407 21.5978C42.5456 21.6448 41.5843 22.1343 40.8871 23.1102C40.4341 23.7448 40.2494 24.4629 40.2494 25.2404C40.2536 29.0542 40.241 32.868 40.2609 36.6818C40.265 37.4135 39.9937 37.8832 39.3288 38.1848C38.5763 38.5261 37.8467 38.9196 37.0253 39.3319C37.6839 39.6648 38.2454 40.0228 38.8581 40.242C39.9613 40.6365 40.3005 41.3525 40.2776 42.5111C40.2076 46.0504 40.2515 49.5918 40.2525 53.1321C40.2525 55.3553 41.577 56.7674 43.7981 56.9136C44.3732 56.9511 44.8136 57.33 44.9232 57.879C45.0213 58.3706 44.7573 58.8758 44.2709 59.1398C44.2062 59.1753 44.1122 59.1659 44.0809 59.2567H43.0654H43.0633Z" fill="white"/>
<path d="M55.4795 35.8176C54.726 35.8176 53.9724 35.8218 53.2188 35.8166C52.4965 35.8114 51.9736 35.3177 51.9705 34.6497C51.9674 33.9828 52.4903 33.4786 53.2094 33.4755C54.7301 33.4703 56.2498 33.4692 57.7705 33.4755C58.4876 33.4786 59.0084 33.9911 58.999 34.6601C58.9896 35.3146 58.4771 35.8072 57.7789 35.8145C57.0128 35.8229 56.2456 35.8166 55.4795 35.8166V35.8176Z" fill="white"/>
<path d="M50.7942 24.1C51.5478 24.1 52.3013 24.0958 53.0549 24.101C53.7834 24.1062 54.3043 24.5884 54.3116 25.2575C54.3199 25.9411 53.7918 26.44 53.0424 26.4421C51.5478 26.4463 50.0542 26.4463 48.5595 26.4421C47.8081 26.44 47.2799 25.9474 47.2831 25.2658C47.2862 24.5863 47.8154 24.1041 48.571 24.101C49.3121 24.0979 50.0521 24.101 50.7931 24.101L50.7942 24.1Z" fill="white"/>
<path d="M46.1089 28.787C46.85 28.787 47.59 28.7849 48.331 28.787C49.0919 28.7902 49.6179 29.264 49.6242 29.9466C49.6305 30.6303 49.1034 31.1271 48.3529 31.1292C46.8583 31.1333 45.3647 31.1333 43.8701 31.1292C43.1207 31.1271 42.5915 30.6313 42.5957 29.9498C42.5999 29.2703 43.1301 28.7902 43.8868 28.787C44.6278 28.7839 45.3679 28.787 46.1089 28.787Z" fill="white"/>
<path d="M46.1506 38.1621C46.8917 38.1621 47.6317 38.1579 48.3727 38.1631C49.0992 38.1684 49.62 38.6558 49.6242 39.3248C49.6294 39.9939 49.1086 40.5001 48.3894 40.5032C46.8697 40.5095 45.349 40.5095 43.8283 40.5032C43.1113 40.5001 42.5894 39.9897 42.5957 39.3217C42.6019 38.6558 43.1259 38.1673 43.8502 38.1631C44.6163 38.1579 45.3835 38.1621 46.1496 38.1621H46.1506Z" fill="white"/>
<path d="M55.4899 49.8811C54.7363 49.8811 53.9828 49.8853 53.2292 49.8801C52.5028 49.8749 51.9799 49.3895 51.9715 48.7236C51.9632 48.0431 52.4934 47.5411 53.2396 47.539C54.7343 47.5348 56.2278 47.5359 57.7225 47.539C58.476 47.5411 59.0031 48.0316 58.999 48.7153C58.9958 49.3979 58.4687 49.878 57.711 49.8811C56.9699 49.8843 56.2299 49.8811 55.4889 49.8811H55.4899Z" fill="white"/>
<path d="M50.7744 54.5685C50.0333 54.5685 49.2933 54.5716 48.5523 54.5685C47.805 54.5643 47.2758 54.0664 47.2831 53.3838C47.2904 52.7179 47.8144 52.2295 48.5397 52.2274C50.0469 52.2232 51.554 52.2232 53.0612 52.2274C53.7866 52.2295 54.3074 52.7221 54.3105 53.3911C54.3137 54.0602 53.7939 54.5612 53.0737 54.5674C52.3076 54.5737 51.5405 54.5685 50.7744 54.5695V54.5685Z" fill="white"/>
<path d="M57.8456 24.1009C58.4792 24.1103 59.0031 24.6457 58.999 25.2782C58.9948 25.9264 58.4385 26.4629 57.7924 26.4409C57.1599 26.4201 56.6443 25.8752 56.6589 25.2438C56.6735 24.6123 57.2142 24.0905 57.8456 24.0999V24.1009Z" fill="white"/>
<path d="M53.1363 31.1293C52.5038 31.1262 51.9736 30.596 51.9715 29.9635C51.9684 29.3163 52.5195 28.7746 53.1666 28.7882C53.8002 28.8018 54.321 29.3414 54.3126 29.9739C54.3043 30.6064 53.7688 31.1324 53.1374 31.1293H53.1363Z" fill="white"/>
<path d="M58.999 29.9729C58.9906 30.6054 58.4562 31.1314 57.8237 31.1293C57.1766 31.1272 56.6391 30.572 56.6579 29.9248C56.6756 29.2934 57.2205 28.7747 57.8519 28.7882C58.4855 28.8018 59.0063 29.3404 58.9979 29.9729H58.999Z" fill="white"/>
<path d="M43.7615 33.4757C44.394 33.4736 44.9284 33.9997 44.9368 34.6322C44.9451 35.2803 44.3992 35.8252 43.7511 35.8168C43.1186 35.8085 42.5936 35.273 42.5957 34.6405C42.5988 34.008 43.129 33.4778 43.7615 33.4757Z" fill="white"/>
<path d="M49.6231 34.7031C49.5908 35.3356 49.0365 35.8429 48.4061 35.8157C47.759 35.7886 47.2413 35.2135 47.2852 34.5685C47.3279 33.9381 47.8926 33.4391 48.5209 33.4767C49.1534 33.5143 49.6555 34.0737 49.6231 34.7031Z" fill="white"/>
<path d="M43.749 24.1008C44.3815 24.0914 44.9222 24.6112 44.9368 25.2437C44.9524 25.8908 44.4118 26.443 43.7647 26.4419C43.1322 26.4419 42.6009 25.9117 42.5967 25.2792C42.5926 24.6467 43.1165 24.1102 43.749 24.1008Z" fill="white"/>
<path d="M51.9715 39.3019C51.9882 38.6704 52.5331 38.1507 53.1635 38.1632C53.797 38.1757 54.3189 38.7132 54.3116 39.3457C54.3043 39.9939 53.7459 40.5272 53.0998 40.5032C52.4673 40.4803 51.9538 39.9323 51.9715 39.3009V39.3019Z" fill="white"/>
<path d="M58.999 39.3393C58.9959 39.9719 58.4646 40.5021 57.8321 40.5042C57.185 40.5062 56.6443 39.9562 56.6579 39.308C56.6715 38.6755 57.2111 38.1547 57.8436 38.1631C58.4771 38.1714 59.0021 38.7068 58.998 39.3393H58.999Z" fill="white"/>
<path d="M44.9368 44.0038C44.9472 44.6363 44.4274 45.1769 43.7939 45.1926C43.1478 45.2082 42.5957 44.6686 42.5957 44.0205C42.5957 43.388 43.1248 42.8557 43.7573 42.8515C44.3898 42.8463 44.9263 43.3702 44.9357 44.0038H44.9368Z" fill="white"/>
<path d="M48.4708 42.8516C49.1044 42.861 49.6283 43.3965 49.6242 44.029C49.62 44.6771 49.0637 45.2136 48.4176 45.1917C47.7851 45.1708 47.2695 44.626 47.2841 43.9945C47.2987 43.3631 47.8394 42.8412 48.4708 42.8506V42.8516Z" fill="white"/>
<path d="M53.1259 45.1926C52.4934 45.1842 51.9684 44.6488 51.9705 44.0163C51.9736 43.3692 52.5289 42.8317 53.175 42.8515C53.8075 42.8713 54.3252 43.4151 54.3105 44.0466C54.2959 44.6801 53.7574 45.2009 53.1249 45.1926H53.1259Z" fill="white"/>
<path d="M58.999 44.0237C58.9969 44.6572 58.4688 45.1875 57.8363 45.1916C57.1892 45.1958 56.6464 44.6468 56.6589 43.9986C56.6704 43.3661 57.209 42.8432 57.8415 42.8505C58.475 42.8578 59.0011 43.3901 59 44.0237H58.999Z" fill="white"/>
<path d="M43.7605 49.8798C43.128 49.8767 42.5988 49.3465 42.5957 48.7129C42.5936 48.0658 43.1436 47.5241 43.7908 47.5387C44.4243 47.5523 44.9451 48.0919 44.9357 48.7244C44.9263 49.358 44.3919 49.883 43.7594 49.8798H43.7605Z" fill="white"/>
<path d="M49.6242 48.7236C49.6158 49.3561 49.0814 49.8821 48.4489 49.88C47.8018 49.878 47.2643 49.3227 47.2831 48.6756C47.3008 48.0441 47.8456 47.5254 48.4771 47.539C49.1106 47.5525 49.6315 48.0911 49.6231 48.7236H49.6242Z" fill="white"/>
<path d="M43.7636 54.5674C43.1311 54.5664 42.5999 54.0372 42.5957 53.4047C42.5915 52.7576 43.1405 52.2149 43.7876 52.2274C44.4212 52.2399 44.943 52.7764 44.9368 53.4099C44.9295 54.0424 44.3961 54.5695 43.7647 54.5685L43.7636 54.5674Z" fill="white"/>
<path d="M57.8185 52.2263C58.451 52.22 58.9886 52.7429 58.999 53.3764C59.0105 54.0246 58.4677 54.5726 57.8196 54.5673C57.1871 54.5621 56.6589 54.0309 56.6579 53.3973C56.6579 52.7648 57.185 52.2325 57.8175 52.2263H57.8185Z" fill="white"/>
<defs>
<linearGradient id="paint0_linear_131_198" x1="78" y1="17.5253" x2="7.40506" y2="63.6835" gradientUnits="userSpaceOnUse">
<stop stop-color="#B75CFF"/>
<stop offset="1" stop-color="#671AE4"/>
</linearGradient>
</defs>
</svg>
