<?xml version="1.0" encoding="utf-8"?>
<!-- Generator: Adobe Illustrator 23.0.5, SVG Export Plug-In . SVG Version: 6.00 Build 0)  -->
<svg version="1.1" id="Layer_1" xmlns="http://www.w3.org/2000/svg" xmlns:xlink="http://www.w3.org/1999/xlink" x="0px" y="0px"
	 viewBox="0 0 300 300" style="enable-background:new 0 0 300 300;" xml:space="preserve">
<style type="text/css">
	.st0{display:none;}
	.st1{display:inline;}
	.st2{fill:#66FCF1;}
</style>
<g class="st0">
	<rect x="-2.5" y="-2.5" class="st1" width="308" height="308"/>
	<path class="st1" d="M305-2v307H-2V-2H305 M306-3H-3v309h309V-3L306-3z"/>
</g>
<circle class="st2" cx="150.5" cy="149.5" r="142.5"/>
<path d="M77.42,104.48c0.34-1.62,0.59-3.26,1.03-4.86c3.72-13.8,16.49-23.02,30.73-22.22c13.94,0.78,25.56,11.34,27.84,25.28
	c2.03,12.44-4.32,25.17-15.56,31.06c-0.94,0.49-1.25,1.02-1.24,2.07c0.04,11.65,0.04,23.3,0,34.96c0,1.14,0.32,1.5,1.42,1.39
	c0.94-0.09,1.9-0.04,2.85-0.01c2.46,0.07,4.29,1.78,4.3,4.22c0.04,8.61,0.04,17.22,0,25.83c-0.01,2.37-1.81,4.1-4.18,4.19
	c-1.09,0.04-2.19,0.07-3.28-0.01c-0.9-0.07-1.12,0.26-1.11,1.13c0.05,3.47-0.09,6.95,0.06,10.41c0.11,2.63-0.75,4.52-3.18,5.61H97.7
	c-2.42-1.1-3.18-2.98-3.18-5.61c0.07-27.35,0.03-54.7,0.07-82.05c0-1.11-0.34-1.66-1.32-2.18c-6.25-3.29-10.67-8.29-13.5-14.74
	c-1.23-2.8-1.72-5.79-2.35-8.75C77.43,108.29,77.43,106.38,77.42,104.48L77.42,104.48z M94.55,107.2
	c-0.05,7.07,5.61,12.88,12.64,12.97c7.14,0.09,12.99-5.61,13.04-12.71c0.05-7.08-5.61-12.89-12.64-12.97
	C100.46,94.41,94.61,100.11,94.55,107.2z"/>
<path d="M165.35,223.51c-0.96-0.23-1.92-0.45-2.87-0.71c-9.41-2.51-15.94-10.91-15.96-20.66c-0.03-12.94-0.02-25.87,0.02-38.81
	c0-1.04-0.28-1.59-1.24-2.05c-4.36-2.11-8.66-4.34-13.01-6.47c-1.73-0.85-2.85-2.08-2.87-4.05c-0.02-2.04,1.14-3.3,2.92-4.17
	c4.35-2.13,8.66-4.35,13.02-6.47c0.89-0.43,1.2-0.94,1.2-1.94c-0.03-13.08-0.04-26.16-0.02-39.24c0.02-10.41,6.96-18.97,17.12-21.16
	c1.3-0.28,2.62-0.45,3.96-0.44c2.63,0.01,4.57,1.8,4.6,4.24c0.02,2.4-1.8,4.22-4.37,4.32c-4.37,0.17-7.88,1.96-10.43,5.53
	c-1.66,2.32-2.33,4.94-2.33,7.78c0.02,13.94-0.03,27.87,0.04,41.81c0.01,2.67-0.98,4.39-3.41,5.49c-2.75,1.25-5.42,2.68-8.42,4.19
	c2.41,1.22,4.46,2.52,6.7,3.33c4.03,1.44,5.27,4.06,5.19,8.29c-0.26,12.93-0.1,25.87-0.09,38.81c0,8.12,4.84,13.28,12.96,13.82
	c2.1,0.14,3.71,1.52,4.11,3.53c0.36,1.8-0.61,3.64-2.38,4.61c-0.24,0.13-0.58,0.1-0.69,0.43H165.35L165.35,223.51z"/>
<path d="M210.71,137.87c-2.75,0-5.51,0.02-8.26,0c-2.64-0.02-4.55-1.82-4.56-4.26c-0.01-2.44,1.9-4.28,4.53-4.29
	c5.56-0.02,11.11-0.02,16.67,0c2.62,0.01,4.52,1.88,4.49,4.33c-0.03,2.39-1.91,4.19-4.46,4.22
	C216.32,137.89,213.51,137.87,210.71,137.87L210.71,137.87z"/>
<path d="M193.59,95.06c2.75,0,5.51-0.02,8.26,0c2.66,0.02,4.57,1.78,4.59,4.23c0.03,2.5-1.9,4.32-4.64,4.33
	c-5.46,0.02-10.92,0.02-16.38,0c-2.75-0.01-4.68-1.81-4.66-4.3c0.01-2.48,1.94-4.24,4.71-4.26
	C188.18,95.05,190.88,95.06,193.59,95.06L193.59,95.06z"/>
<path d="M176.47,112.18c2.71,0,5.41-0.01,8.12,0c2.78,0.01,4.7,1.74,4.73,4.24c0.02,2.5-1.9,4.31-4.65,4.32
	c-5.46,0.01-10.92,0.01-16.38,0c-2.74-0.01-4.67-1.82-4.66-4.31c0.02-2.48,1.95-4.24,4.72-4.25
	C171.06,112.17,173.77,112.18,176.47,112.18z"/>
<path d="M176.63,146.44c2.71,0,5.41-0.02,8.12,0c2.65,0.02,4.56,1.8,4.57,4.24c0.02,2.44-1.88,4.29-4.51,4.31
	c-5.55,0.02-11.11,0.02-16.67,0c-2.62-0.01-4.53-1.88-4.5-4.32c0.02-2.43,1.94-4.22,4.58-4.23
	C171.02,146.42,173.82,146.44,176.63,146.44L176.63,146.44z"/>
<path d="M210.75,189.26c-2.75,0-5.51,0.02-8.26,0c-2.65-0.02-4.56-1.79-4.6-4.23c-0.03-2.49,1.91-4.32,4.63-4.33
	c5.46-0.02,10.92-0.01,16.38,0c2.75,0.01,4.68,1.8,4.66,4.3c-0.01,2.49-1.94,4.25-4.71,4.26
	C216.16,189.27,213.46,189.26,210.75,189.26L210.75,189.26z"/>
<path d="M193.52,206.38c-2.71,0-5.41,0.01-8.12,0c-2.73-0.02-4.66-1.83-4.64-4.33c0.03-2.43,1.94-4.22,4.59-4.23
	c5.51-0.02,11.01-0.02,16.52,0c2.65,0.01,4.55,1.81,4.56,4.25c0.01,2.44-1.89,4.28-4.52,4.3
	C199.12,206.4,196.32,206.38,193.52,206.38L193.52,206.38z"/>
<path d="M219.36,95.06c2.32,0.03,4.23,1.99,4.21,4.3c-0.02,2.37-2.05,4.33-4.41,4.25c-2.31-0.08-4.19-2.07-4.14-4.37
	C215.08,96.93,217.05,95.02,219.36,95.06L219.36,95.06z"/>
<path d="M202.15,120.74c-2.31-0.01-4.25-1.95-4.26-4.26c-0.01-2.36,2-4.34,4.37-4.29c2.32,0.05,4.22,2.02,4.19,4.33
	C206.42,118.83,204.46,120.75,202.15,120.74L202.15,120.74z"/>
<path d="M223.57,116.52c-0.03,2.31-1.98,4.23-4.29,4.23c-2.36-0.01-4.33-2.04-4.26-4.4c0.06-2.31,2.06-4.2,4.36-4.15
	C221.7,112.24,223.6,114.21,223.57,116.52L223.57,116.52z"/>
<path d="M167.9,129.32c2.31-0.01,4.26,1.91,4.29,4.23c0.03,2.37-1.96,4.36-4.33,4.33c-2.31-0.03-4.23-1.99-4.22-4.3
	C163.65,131.26,165.59,129.32,167.9,129.32z"/>
<path d="M189.32,133.8c-0.12,2.31-2.14,4.16-4.45,4.07c-2.36-0.1-4.26-2.2-4.1-4.56c0.16-2.3,2.22-4.13,4.52-3.99
	C187.6,129.46,189.43,131.5,189.32,133.8z"/>
<path d="M167.85,95.06c2.31-0.03,4.29,1.86,4.34,4.18c0.06,2.36-1.92,4.38-4.28,4.38c-2.31,0-4.25-1.94-4.27-4.25
	C163.63,97.06,165.54,95.09,167.85,95.06z"/>
<path d="M197.9,150.6c0.06-2.31,2.05-4.21,4.36-4.16c2.31,0.05,4.22,2.01,4.19,4.32c-0.03,2.37-2.07,4.32-4.43,4.23
	C199.71,154.91,197.83,152.91,197.9,150.6L197.9,150.6z"/>
<path d="M223.57,150.74c-0.01,2.31-1.95,4.25-4.26,4.26c-2.36,0.01-4.34-2-4.29-4.37c0.05-2.31,2.02-4.21,4.33-4.18
	C221.67,146.47,223.58,148.43,223.57,150.74L223.57,150.74z"/>
<path d="M172.19,167.78c0.04,2.31-1.86,4.29-4.18,4.34c-2.36,0.06-4.38-1.91-4.38-4.28c0-2.31,1.93-4.26,4.24-4.27
	C170.19,163.55,172.15,165.47,172.19,167.78L172.19,167.78z"/>
<path d="M185.1,163.57c2.32,0.03,4.23,1.99,4.21,4.3c-0.02,2.37-2.05,4.33-4.41,4.25c-2.31-0.08-4.19-2.07-4.14-4.37
	C180.82,165.44,182.8,163.54,185.1,163.57L185.1,163.57z"/>
<path d="M202.11,172.13c-2.31-0.03-4.23-1.99-4.22-4.3c0.01-2.36,2.04-4.33,4.4-4.26c2.31,0.07,4.2,2.06,4.15,4.37
	C206.39,170.25,204.42,172.16,202.11,172.13L202.11,172.13z"/>
<path d="M223.57,167.86c-0.01,2.31-1.94,4.25-4.25,4.27c-2.36,0.02-4.35-1.99-4.3-4.36c0.04-2.31,2.01-4.22,4.32-4.19
	C221.66,163.6,223.58,165.54,223.57,167.86L223.57,167.86z"/>
<path d="M167.89,189.25c-2.31-0.01-4.24-1.95-4.26-4.26c-0.01-2.36,2-4.34,4.37-4.29c2.31,0.05,4.22,2.02,4.18,4.33
	C172.15,187.35,170.2,189.26,167.89,189.25L167.89,189.25z"/>
<path d="M189.32,185.03c-0.03,2.31-1.98,4.23-4.29,4.23c-2.36-0.01-4.33-2.04-4.26-4.4c0.06-2.31,2.06-4.2,4.36-4.15
	C187.44,180.75,189.35,182.72,189.32,185.03L189.32,185.03z"/>
<path d="M167.91,206.38c-2.31,0-4.25-1.94-4.27-4.25c-0.02-2.36,1.99-4.35,4.36-4.3c2.32,0.05,4.22,2.01,4.2,4.32
	C172.17,204.46,170.22,206.39,167.91,206.38L167.91,206.38z"/>
<path d="M219.26,197.83c2.31-0.02,4.28,1.89,4.31,4.2c0.04,2.37-1.94,4.37-4.31,4.35c-2.31-0.02-4.24-1.96-4.24-4.27
	C215.02,199.79,216.95,197.85,219.26,197.83L219.26,197.83z"/>
<g>
</g>
<g>
</g>
<g>
</g>
<g>
</g>
<g>
</g>
<g>
</g>
<g>
</g>
<g>
</g>
<g>
</g>
<g>
</g>
<g>
</g>
<g>
</g>
<g>
</g>
<g>
</g>
<g>
</g>
</svg>
