<svg width="78" height="78" viewBox="0 0 78 78" fill="none" xmlns="http://www.w3.org/2000/svg">
<circle cx="39" cy="39" r="39" fill="url(#paint0_linear_131_344)"/>
<path d="M18 33.9055C18.1754 33.4742 18.3453 33.0429 18.7181 32.7274C19.1626 32.3535 19.6734 32.2145 20.2459 32.2156C22.6539 32.2211 25.0619 32.2101 27.4699 32.2267C27.8217 32.2289 27.9376 32.145 27.9508 31.7788C27.9916 30.7331 28.1174 29.6951 28.4428 28.6935C28.6259 28.1298 29.1167 27.8883 29.5988 28.1067C30.0058 28.2909 30.1801 28.6869 30.029 29.1844C29.7642 30.0602 29.6617 30.957 29.6054 31.8659C29.5889 32.1395 29.6495 32.2244 29.9297 32.2233C33.989 32.2156 38.0483 32.2178 42.1065 32.2189C42.2797 32.2189 42.4131 32.2189 42.4606 31.9851C42.6933 30.8401 42.9713 29.7028 42.9349 28.5214C42.9195 28.0339 42.8158 27.5695 42.5907 27.1327C42.4584 26.8757 42.3723 26.7786 42.1252 27.0797C41.32 28.0615 39.854 28.4155 38.7146 27.9512C37.638 27.5132 37.0699 26.4201 37.2684 25.1394C37.3192 24.8151 37.3964 24.4908 37.4957 24.1775C37.874 22.9796 37.2508 21.4717 36.1036 20.8694C35.8477 21.5368 35.6017 22.2064 35.2686 22.8395C35.0435 23.2664 34.8097 23.6867 34.5218 24.0728C34.2394 24.4511 33.7552 24.5427 33.3889 24.3055C33.0029 24.0551 32.8837 23.5598 33.1595 23.1462C33.7662 22.235 34.2173 21.2533 34.5571 20.2164C34.5869 20.1249 34.6233 20.0344 34.6431 19.9418C34.824 19.099 35.2476 18.8232 36.2183 19.1089C37.5916 19.5127 38.4068 20.533 38.9583 21.7839C39.372 22.7204 39.4602 23.6889 39.083 24.6728C38.965 24.9806 38.891 25.3049 38.8988 25.6402C38.9109 26.1951 39.1944 26.473 39.747 26.4808C40.5368 26.4918 40.9781 26.0914 41.0266 25.3203C41.0652 24.6894 41.6664 24.3441 42.2543 24.6375C43.5239 25.2718 44.2729 26.2999 44.5057 27.7008C44.7318 29.0586 44.4991 30.3856 44.2211 31.7071C44.113 32.2178 44.1097 32.2167 44.6391 32.2167C47.4873 32.2167 50.3354 32.2167 53.1835 32.2167C54.7587 32.2167 55.5684 33.0297 55.5684 34.6082C55.5684 37.2776 55.5772 39.947 55.5584 42.6165C55.5562 42.9783 55.6765 43.1459 55.9897 43.2949C57.0068 43.778 58.0017 44.3108 59.0199 44.7895C59.9123 45.2087 60.2917 45.8893 60.2818 46.8611C60.2531 49.6838 59.2603 52.1779 57.7216 54.4877C56.6339 56.1214 55.3047 57.5046 53.6104 58.536C52.6176 59.1405 51.6977 59.1713 50.7226 58.5283C50.171 58.1642 49.6008 57.8234 49.1242 57.3667C48.8308 57.0854 48.5275 57.0005 48.1326 57.0005C38.8723 57.0093 29.612 57.0082 20.3517 57.0071C19.1196 57.0071 18.4666 56.546 18.0596 55.3966C18.0463 55.358 18.021 55.3249 18.0011 55.2885C18.0011 48.1605 18.0011 41.0314 18.0011 33.9033L18 33.9055ZM45.7168 47.0806C45.7974 49.1709 46.4394 50.9546 47.4079 52.6301C48.4105 54.3653 49.6548 55.8776 51.3635 56.9873C51.9591 57.3744 52.4114 57.3524 52.9949 56.9707C54.773 55.807 56.0372 54.2064 57.0553 52.3831C58.0006 50.6898 58.582 48.8896 58.6228 46.9317C58.6305 46.5787 58.5069 46.3879 58.1926 46.2345C56.2677 45.2914 54.3506 44.3351 52.4356 43.371C52.2239 43.264 52.0672 43.2882 51.8676 43.3886C50.0376 44.3064 48.2131 45.2341 46.3643 46.1132C45.8503 46.3581 45.5944 46.6449 45.7168 47.0806ZM36.8073 39.6647C35.6657 39.6647 34.524 39.6713 33.3823 39.6602C33.1275 39.658 33.0205 39.7099 33.0238 39.9967C33.0404 41.1516 33.0371 42.3076 33.0249 43.4625C33.0227 43.7162 33.101 43.7912 33.3525 43.7901C35.6359 43.7824 37.9192 43.7813 40.2026 43.7901C40.485 43.7912 40.5434 43.6864 40.5401 43.4283C40.528 42.2867 40.5269 41.145 40.5401 40.0033C40.5434 39.7297 40.4574 39.6536 40.1894 39.6569C39.062 39.6702 37.9336 39.6624 36.8062 39.6624L36.8073 39.6647ZM36.8029 51.2303C35.6613 51.2303 34.5207 51.237 33.379 51.2248C33.1187 51.2215 33.0216 51.2833 33.0249 51.5646C33.0404 52.7051 33.0415 53.8468 33.0249 54.9885C33.0205 55.2863 33.1209 55.3536 33.4011 55.3525C35.6557 55.3426 37.9104 55.3426 40.1662 55.3525C40.4464 55.3536 40.5479 55.2852 40.5434 54.9874C40.5269 53.8601 40.5236 52.7327 40.5445 51.6054C40.5512 51.28 40.4387 51.2204 40.1441 51.2248C39.0311 51.2403 37.917 51.2314 36.8029 51.2314V51.2303ZM32.1711 37.999C33.3128 37.999 34.4556 37.9924 35.5973 38.0045C35.8642 38.0078 35.9547 37.9273 35.9525 37.6538C35.9392 36.5121 35.9392 35.3693 35.9525 34.2276C35.9558 33.9552 35.8653 33.8802 35.6006 33.8813C33.3437 33.8901 31.0868 33.8912 28.831 33.8813C28.5487 33.8802 28.4505 33.9507 28.4549 34.2464C28.4714 35.3748 28.4703 36.5033 28.4549 37.6317C28.4516 37.9196 28.5398 38.01 28.8277 38.0067C29.9418 37.9924 31.057 38.0012 32.1711 38.0012V37.999ZM41.3851 33.8857C40.2566 33.8857 39.1282 33.8978 37.9998 33.8779C37.6832 33.8724 37.6071 33.975 37.6115 34.2762C37.628 35.3903 37.6247 36.5055 37.6126 37.6196C37.6093 37.8953 37.6777 38.0056 37.9777 38.0034C40.2346 37.9924 42.4915 37.9924 44.7483 38.0034C45.0495 38.0045 45.1135 37.8964 45.1113 37.6207C45.098 36.5066 45.0914 35.3914 45.1146 34.2773C45.1223 33.9298 44.991 33.8746 44.6877 33.8791C43.5868 33.8945 42.486 33.8846 41.3851 33.8846V33.8857ZM32.2042 49.5669C33.3305 49.5669 34.4578 49.5625 35.584 49.5702C35.83 49.5724 35.958 49.5316 35.9536 49.2349C35.937 48.0811 35.9403 46.9262 35.9514 45.7724C35.9536 45.522 35.8775 45.4436 35.6249 45.4447C33.3437 45.4536 31.0626 45.4536 28.7825 45.4447C28.5288 45.4447 28.4538 45.5231 28.456 45.7724C28.467 46.8986 28.4714 48.0259 28.4538 49.1522C28.4494 49.4698 28.5321 49.579 28.8652 49.5735C29.9782 49.5537 31.0912 49.5658 32.2042 49.5658V49.5669ZM50.3277 37.999C51.401 37.999 52.4743 37.9979 53.5475 37.999C53.7505 37.999 53.9193 38.0123 53.916 37.7111C53.9016 36.6103 53.9116 35.5094 53.9093 34.4096C53.9093 34.0555 53.7351 33.8835 53.3733 33.8835C51.2818 33.8868 49.1904 33.889 47.099 33.8802C46.8431 33.879 46.7681 33.9618 46.7703 34.2111C46.7802 35.3528 46.7835 36.4955 46.7681 37.6372C46.7637 37.935 46.8696 38.0078 47.1486 38.0034C48.2076 37.9902 49.2676 37.9979 50.3266 37.9979L50.3277 37.999ZM23.1888 49.5669C24.2621 49.5669 25.3354 49.5603 26.4087 49.5713C26.6812 49.5746 26.8003 49.5118 26.797 49.2084C26.7815 48.0667 26.786 46.924 26.7948 45.7823C26.797 45.544 26.7407 45.4436 26.476 45.4447C24.3018 45.4547 22.1277 45.4536 19.9535 45.4447C19.712 45.4447 19.6546 45.533 19.6568 45.758C19.6656 46.914 19.67 48.07 19.6546 49.225C19.6502 49.5096 19.7528 49.5713 20.0109 49.5691C21.0698 49.5581 22.1299 49.5647 23.1899 49.5647L23.1888 49.5669ZM23.1999 37.999C24.2732 37.999 25.3453 37.9913 26.4186 38.0045C26.7021 38.0078 26.8003 37.924 26.7959 37.6328C26.7815 36.5055 26.7815 35.377 26.7959 34.2497C26.8003 33.9585 26.7076 33.879 26.4219 33.8802C24.3724 33.8912 22.3229 33.8846 20.2734 33.8868C19.787 33.8868 19.6623 34.0125 19.6601 34.4957C19.6568 35.5414 19.6689 36.586 19.6524 37.6317C19.648 37.9185 19.7318 38.0089 20.0208 38.0056C21.0798 37.9902 22.1387 38.0001 23.1977 38.0001L23.1999 37.999ZM28.017 43.7868C29.0208 43.7868 30.0235 43.7802 31.0273 43.7912C31.2843 43.7945 31.3869 43.7328 31.3824 43.4493C31.3659 42.2955 31.3681 41.1406 31.3813 39.9856C31.3835 39.7308 31.3052 39.6591 31.0548 39.6602C29.0484 39.6691 27.0419 39.6702 25.0354 39.6591C24.7497 39.658 24.6956 39.765 24.6978 40.0198C24.7089 41.1604 24.7111 42.301 24.6956 43.4416C24.6923 43.7195 24.7861 43.7934 25.0486 43.7901C26.0381 43.7791 27.0275 43.7857 28.017 43.7857V43.7868ZM28.0556 51.2303C27.0529 51.2303 26.0491 51.2392 25.0464 51.2248C24.7784 51.2215 24.6923 51.2976 24.6956 51.5712C24.7089 52.7118 24.7122 53.8523 24.6945 54.9918C24.6901 55.2985 24.8081 55.3525 25.0795 55.3514C27.0584 55.3426 29.0362 55.3415 31.0151 55.3525C31.3052 55.3547 31.3858 55.2654 31.3824 54.9797C31.367 53.8534 31.3626 52.7261 31.3847 51.5999C31.3913 51.2701 31.2721 51.2182 30.9831 51.2237C30.008 51.2392 29.0318 51.2292 28.0567 51.2303H28.0556ZM44.8101 43.7868C45.2359 43.7868 45.6661 43.7482 46.0875 43.7945C47.0052 43.896 47.8149 43.6401 48.5881 43.1735C48.7701 43.0643 48.8782 42.9728 48.8749 42.7378C48.8606 41.8178 48.8639 40.8968 48.8727 39.9757C48.8749 39.7507 48.8132 39.6591 48.5727 39.6602C46.5386 39.668 44.5046 39.6669 42.4716 39.6602C42.2554 39.6602 42.1903 39.7308 42.1925 39.9448C42.2014 41.1262 42.2025 42.3087 42.1925 43.4901C42.1903 43.7328 42.2797 43.7923 42.5036 43.789C43.2735 43.7791 44.0424 43.7857 44.8123 43.7857L44.8101 43.7868ZM44.3358 45.4778C44.295 45.469 44.2553 45.4536 44.2156 45.4536C42.1131 45.4525 40.0118 45.4558 37.9104 45.4469C37.6611 45.4469 37.6159 45.5495 37.617 45.7657C37.6236 46.9195 37.628 48.0734 37.6148 49.2272C37.6115 49.5062 37.7152 49.5735 37.9766 49.5724C39.982 49.5636 41.9885 49.5603 43.9938 49.5746C44.3402 49.5768 44.359 49.4654 44.3038 49.1643C44.081 47.9377 43.8549 46.7056 44.3358 45.4789V45.4778ZM47.2115 55.347C46.2673 54.0553 45.5106 52.7835 44.9679 51.3925C44.9017 51.2215 44.7726 51.2303 44.6336 51.2303C43.9177 51.2303 43.2018 51.2403 42.4871 51.2259C42.2433 51.2215 42.1903 51.312 42.1914 51.537C42.2003 52.693 42.2047 53.849 42.1892 55.0051C42.1859 55.2819 42.2731 55.3569 42.5389 55.3525C43.4191 55.3393 44.3005 55.347 45.1808 55.3481C45.8227 55.3481 46.4658 55.3481 47.2115 55.3481V55.347ZM19.6579 41.7495C19.6579 42.312 19.6712 42.8757 19.6524 43.4372C19.6425 43.7074 19.7274 43.7945 19.9977 43.7912C20.9033 43.778 21.8089 43.7791 22.7156 43.7912C22.9616 43.7945 23.0488 43.7251 23.0454 43.468C23.0333 42.301 23.0344 41.135 23.0454 39.968C23.0476 39.7397 22.9848 39.6569 22.7465 39.6602C21.8266 39.6713 20.9077 39.6757 19.9877 39.658C19.6998 39.6525 19.648 39.7683 19.6535 40.0198C19.6678 40.5956 19.6579 41.1726 19.6579 41.7495ZM23.0399 53.2699C23.0399 52.693 23.0322 52.115 23.0443 51.5381C23.0488 51.3164 22.9969 51.2215 22.7509 51.2248C21.8166 51.2381 20.8812 51.237 19.9469 51.2248C19.6987 51.2215 19.6535 51.3241 19.6546 51.5425C19.6634 52.6147 19.6546 53.6869 19.6601 54.7591C19.6623 55.1893 19.8024 55.3382 20.2238 55.3415C21.0621 55.3503 21.9016 55.3371 22.7399 55.3481C22.9726 55.3514 23.051 55.2764 23.0454 55.0415C23.0311 54.4502 23.041 53.859 23.041 53.2677L23.0399 53.2699ZM50.5273 42.1521C50.8329 42.0925 51.0756 41.9535 51.2962 41.8101C51.8797 41.4318 52.4334 41.4141 53.0192 41.8024C53.2751 41.9723 53.5751 42.076 53.906 42.2337C53.906 41.4053 53.9038 40.6409 53.9082 39.8753C53.9082 39.7077 53.8244 39.6647 53.6788 39.6647C52.7037 39.6658 51.7286 39.6669 50.7546 39.6647C50.6079 39.6647 50.5251 39.7022 50.5262 39.8709C50.5317 40.6232 50.5284 41.3755 50.5284 42.1532L50.5273 42.1521Z" fill="white"/>
<path d="M31.2754 26.8967C30.8188 26.8923 30.4669 26.5416 30.4625 26.086C30.4581 25.6227 30.8397 25.2377 31.2964 25.2443C31.7354 25.251 32.1094 25.626 32.1149 26.065C32.1204 26.5305 31.7465 26.9012 31.2754 26.8967Z" fill="white"/>
<path d="M55.7559 48.5509C55.7647 48.7726 55.6368 48.9778 55.4581 49.1609C54.3241 50.3213 53.1957 51.485 52.0562 52.64C51.6282 53.0746 51.1991 53.079 50.7535 52.6708C50.2262 52.1877 49.7044 51.699 49.1882 51.2049C48.7856 50.8199 48.7481 50.3158 49.0812 49.9639C49.4221 49.6043 49.8997 49.6164 50.3255 50.0014C50.5902 50.2408 50.8649 50.4735 51.1064 50.735C51.3116 50.9567 51.4352 50.9092 51.6249 50.7107C52.4787 49.8161 53.349 48.9369 54.2116 48.0501C54.4079 47.8482 54.6131 47.6805 54.9176 47.6794C55.3952 47.6783 55.757 48.0302 55.7548 48.552L55.7559 48.5509Z" fill="white"/>
<defs>
<linearGradient id="paint0_linear_131_344" x1="78" y1="17.5253" x2="7.40506" y2="63.6835" gradientUnits="userSpaceOnUse">
<stop stop-color="#B75CFF"/>
<stop offset="1" stop-color="#671AE4"/>
</linearGradient>
</defs>
</svg>
