<?xml version="1.0" encoding="utf-8"?>
<!-- Generator: Adobe Illustrator 23.0.5, SVG Export Plug-In . SVG Version: 6.00 Build 0)  -->
<svg version="1.1" id="Layer_1" xmlns="http://www.w3.org/2000/svg" xmlns:xlink="http://www.w3.org/1999/xlink" x="0px" y="0px"
	 viewBox="0 0 300 300" style="enable-background:new 0 0 300 300;" xml:space="preserve">
<style type="text/css">
	.st0{display:none;}
	.st1{display:inline;}
	.st2{fill:#66FCF1;}
</style>
<g class="st0">
	<rect x="-2.5" y="-2.5" class="st1" width="308" height="308"/>
	<path class="st1" d="M305-2v307H-2V-2H305 M306-3H-3v309h309V-3L306-3z"/>
</g>
<circle class="st2" cx="149.5" cy="150.04" r="144.5"/>
<path d="M71.69,131.17c0.65-1.6,1.28-3.2,2.66-4.36c1.65-1.39,3.54-1.9,5.66-1.9c8.92,0.02,17.84-0.02,26.77,0.04
	c1.3,0.01,1.73-0.3,1.78-1.66c0.15-3.87,0.62-7.72,1.82-11.43c0.68-2.09,2.5-2.98,4.28-2.17c1.51,0.68,2.15,2.15,1.59,3.99
	c-0.98,3.24-1.36,6.57-1.57,9.94c-0.06,1.01,0.16,1.33,1.2,1.32c15.04-0.03,30.08-0.02,45.12-0.02c0.64,0,1.14,0,1.31-0.87
	c0.86-4.24,1.89-8.46,1.76-12.83c-0.06-1.81-0.44-3.53-1.28-5.15c-0.49-0.95-0.81-1.31-1.72-0.2c-2.98,3.64-8.42,4.95-12.64,3.23
	c-3.99-1.62-6.09-5.67-5.36-10.42c0.19-1.2,0.47-2.4,0.84-3.56c1.4-4.44-0.91-10.03-5.16-12.26c-0.95,2.47-1.86,4.95-3.09,7.3
	c-0.83,1.58-1.7,3.14-2.77,4.57c-1.05,1.4-2.84,1.74-4.2,0.86c-1.43-0.93-1.87-2.76-0.85-4.3c2.25-3.38,3.92-7.01,5.18-10.86
	c0.11-0.34,0.25-0.67,0.32-1.02c0.67-3.12,2.24-4.14,5.84-3.09c5.09,1.5,8.11,5.28,10.15,9.91c1.53,3.47,1.86,7.06,0.46,10.7
	c-0.44,1.14-0.71,2.34-0.68,3.58c0.04,2.06,1.1,3.09,3.14,3.11c2.93,0.04,4.56-1.44,4.74-4.3c0.14-2.34,2.37-3.62,4.55-2.53
	c4.7,2.35,7.48,6.16,8.34,11.35c0.84,5.03-0.02,9.95-1.05,14.84c-0.4,1.89-0.41,1.89,1.55,1.89c10.55,0,21.11,0,31.66,0
	c5.84,0,8.84,3.01,8.84,8.86c0,9.89,0.03,19.78-0.04,29.67c-0.01,1.34,0.44,1.96,1.6,2.51c3.77,1.79,7.45,3.76,11.23,5.54
	c3.31,1.55,4.71,4.07,4.68,7.68c-0.11,10.46-3.78,19.7-9.49,28.26c-4.03,6.05-8.95,11.18-15.23,15c-3.68,2.24-7.09,2.35-10.7-0.03
	c-2.04-1.35-4.16-2.61-5.92-4.3c-1.09-1.04-2.21-1.36-3.67-1.36c-34.31,0.03-68.62,0.03-102.93,0.02c-4.57,0-6.98-1.71-8.49-5.97
	c-0.05-0.14-0.14-0.27-0.22-0.4C71.7,183.99,71.7,157.57,71.69,131.17L71.69,131.17z M174.39,179.98c0.3,7.74,2.68,14.35,6.27,20.56
	c3.71,6.43,8.33,12.03,14.66,16.14c2.21,1.43,3.88,1.35,6.04-0.06c6.59-4.31,11.27-10.24,15.04-17c3.5-6.27,5.66-12.94,5.81-20.2
	c0.03-1.31-0.43-2.01-1.59-2.58c-7.13-3.49-14.24-7.04-21.33-10.61c-0.78-0.4-1.36-0.31-2.1,0.07c-6.78,3.4-13.54,6.84-20.39,10.1
	C174.88,177.31,173.93,178.37,174.39,179.98z M141.38,152.51c-4.23,0-8.46,0.02-12.69-0.02c-0.94-0.01-1.34,0.18-1.33,1.25
	c0.06,4.28,0.05,8.56,0,12.84c-0.01,0.94,0.28,1.22,1.21,1.21c8.46-0.03,16.92-0.03,25.38,0c1.05,0,1.26-0.38,1.25-1.34
	c-0.04-4.23-0.05-8.46,0-12.69c0.01-1.01-0.31-1.3-1.3-1.28C149.73,152.53,145.55,152.5,141.38,152.51L141.38,152.51z
	 M141.36,195.36c-4.23,0-8.46,0.02-12.69-0.02c-0.96-0.01-1.32,0.22-1.31,1.26c0.06,4.23,0.06,8.46,0,12.69
	c-0.02,1.1,0.36,1.35,1.39,1.35c8.35-0.04,16.71-0.04,25.07,0c1.04,0,1.41-0.25,1.4-1.35c-0.06-4.18-0.07-8.35,0-12.53
	c0.02-1.21-0.39-1.43-1.48-1.41C149.62,195.4,145.49,195.36,141.36,195.36L141.36,195.36z M124.2,146.34
	c4.23,0,8.46-0.02,12.69,0.02c0.99,0.01,1.32-0.29,1.32-1.3c-0.05-4.23-0.05-8.46,0-12.69c0.01-1.01-0.32-1.29-1.3-1.28
	c-8.36,0.03-16.72,0.04-25.08,0c-1.05,0-1.41,0.26-1.39,1.35c0.06,4.18,0.06,8.36,0,12.54c-0.01,1.07,0.31,1.4,1.38,1.39
	C115.94,146.31,120.07,146.34,124.2,146.34L124.2,146.34z M158.34,131.1c-4.18,0-8.36,0.04-12.54-0.03
	c-1.17-0.02-1.46,0.36-1.44,1.48c0.06,4.13,0.05,8.26,0,12.39c-0.01,1.02,0.24,1.43,1.35,1.42c8.36-0.04,16.72-0.04,25.09,0
	c1.12,0,1.35-0.4,1.34-1.42c-0.05-4.13-0.07-8.26,0.01-12.39c0.03-1.29-0.46-1.49-1.58-1.48
	C166.49,131.13,162.42,131.09,158.34,131.1L158.34,131.1z M124.32,189.2c4.17,0,8.35-0.02,12.52,0.01c0.91,0.01,1.39-0.14,1.37-1.24
	c-0.06-4.27-0.05-8.55-0.01-12.83c0.01-0.93-0.27-1.22-1.21-1.21c-8.45,0.03-16.9,0.03-25.35,0c-0.94,0-1.22,0.29-1.21,1.21
	c0.04,4.17,0.06,8.35-0.01,12.52c-0.02,1.18,0.29,1.58,1.52,1.56C116.07,189.15,120.2,189.19,124.32,189.2L124.32,189.2z
	 M191.47,146.34c3.98,0,7.95,0,11.93,0c0.75,0,1.38,0.05,1.37-1.07c-0.05-4.08-0.02-8.16-0.02-12.23c0-1.31-0.65-1.95-1.99-1.95
	c-7.75,0.01-15.5,0.02-23.25-0.01c-0.95,0-1.23,0.3-1.22,1.23c0.04,4.23,0.05,8.46-0.01,12.69c-0.02,1.1,0.38,1.37,1.41,1.36
	C183.62,146.3,187.54,146.33,191.47,146.34L191.47,146.34z M90.92,189.2c3.98,0,7.95-0.02,11.93,0.02c1.01,0.01,1.45-0.22,1.44-1.34
	c-0.06-4.23-0.04-8.46-0.01-12.69c0.01-0.88-0.2-1.25-1.18-1.25c-8.06,0.04-16.11,0.03-24.17,0c-0.89,0-1.11,0.33-1.1,1.16
	c0.03,4.28,0.05,8.57-0.01,12.85c-0.02,1.05,0.36,1.28,1.32,1.27C83.07,189.16,86.99,189.19,90.92,189.2L90.92,189.2z M90.96,146.34
	c3.98,0,7.95-0.03,11.93,0.02c1.05,0.01,1.41-0.3,1.4-1.38c-0.05-4.18-0.05-8.36,0-12.53c0.02-1.08-0.33-1.37-1.39-1.37
	c-7.59,0.04-15.19,0.02-22.78,0.02c-1.8,0-2.26,0.47-2.27,2.26c-0.01,3.87,0.03,7.74-0.03,11.62c-0.02,1.06,0.29,1.4,1.36,1.39
	C83.1,146.3,87.03,146.34,90.96,146.34L90.96,146.34z M108.81,167.78c3.72,0,7.43-0.02,11.15,0.02c0.95,0.01,1.33-0.22,1.32-1.27
	c-0.06-4.27-0.05-8.55,0-12.83c0.01-0.94-0.28-1.21-1.21-1.21c-7.43,0.03-14.87,0.04-22.3,0c-1.06,0-1.26,0.39-1.25,1.34
	c0.04,4.23,0.05,8.45-0.01,12.68c-0.01,1.03,0.34,1.3,1.31,1.29C101.47,167.75,105.14,167.78,108.81,167.78L108.81,167.78z
	 M108.95,195.36c-3.72,0-7.43,0.03-11.15-0.02c-0.99-0.01-1.31,0.27-1.3,1.28c0.05,4.23,0.06,8.45,0,12.67
	c-0.02,1.14,0.42,1.34,1.43,1.33c7.33-0.03,14.66-0.04,21.99,0c1.07,0.01,1.37-0.32,1.36-1.38c-0.06-4.17-0.07-8.35,0.01-12.52
	c0.02-1.22-0.42-1.41-1.49-1.39C116.18,195.39,112.57,195.36,108.95,195.36L108.95,195.36z M171.03,167.78
	c1.58,0,3.17-0.14,4.73,0.03c3.4,0.38,6.4-0.57,9.27-2.3c0.67-0.4,1.07-0.74,1.06-1.61c-0.05-3.41-0.04-6.82-0.01-10.23
	c0.01-0.83-0.22-1.17-1.11-1.17c-7.54,0.03-15.07,0.02-22.61,0c-0.8,0-1.04,0.26-1.03,1.05c0.03,4.38,0.04,8.76,0,13.14
	c-0.01,0.9,0.32,1.12,1.15,1.11C165.33,167.75,168.18,167.78,171.03,167.78L171.03,167.78z M169.27,174.05
	c-0.15-0.03-0.3-0.09-0.45-0.09c-7.79,0-15.58,0.01-23.36-0.02c-0.92,0-1.09,0.38-1.09,1.18c0.02,4.27,0.04,8.55-0.01,12.83
	c-0.01,1.03,0.37,1.28,1.34,1.28c7.43-0.03,14.86-0.04,22.29,0.01c1.28,0.01,1.35-0.4,1.15-1.52
	C168.33,183.16,167.49,178.59,169.27,174.05L169.27,174.05z M179.92,210.61c-3.5-4.79-6.3-9.5-8.31-14.65
	c-0.25-0.63-0.72-0.6-1.24-0.6c-2.65,0-5.3,0.04-7.95-0.02c-0.9-0.02-1.1,0.32-1.1,1.15c0.03,4.28,0.05,8.57-0.01,12.85
	c-0.01,1.03,0.31,1.3,1.3,1.29c3.26-0.05,6.53-0.02,9.79-0.02C174.78,210.62,177.16,210.62,179.92,210.61L179.92,210.61z
	 M77.84,160.23c0,2.08,0.05,4.17-0.02,6.25c-0.04,1,0.28,1.32,1.28,1.31c3.36-0.05,6.71-0.04,10.07,0c0.91,0.01,1.23-0.24,1.22-1.2
	c-0.04-4.32-0.04-8.64,0-12.97c0.01-0.85-0.22-1.15-1.11-1.14c-3.41,0.04-6.81,0.06-10.22-0.01c-1.07-0.02-1.26,0.41-1.24,1.34
	C77.87,155.96,77.84,158.09,77.84,160.23z M90.37,202.92c0-2.14-0.03-4.28,0.02-6.42c0.02-0.82-0.18-1.17-1.09-1.16
	c-3.46,0.05-6.93,0.05-10.39,0c-0.92-0.01-1.09,0.37-1.08,1.18c0.03,3.97,0,7.95,0.02,11.92c0.01,1.59,0.53,2.15,2.09,2.16
	c3.11,0.03,6.22-0.02,9.32,0.02c0.86,0.01,1.15-0.27,1.13-1.14C90.33,207.29,90.37,205.1,90.37,202.92L90.37,202.92z M192.21,161.72
	c1.13-0.22,2.03-0.74,2.85-1.27c2.16-1.4,4.21-1.47,6.38-0.03c0.95,0.63,2.06,1.01,3.29,1.6c0-3.07-0.01-5.9,0.01-8.74
	c0-0.62-0.31-0.78-0.85-0.78c-3.61,0-7.23,0.01-10.83,0c-0.54,0-0.85,0.14-0.85,0.76C192.23,156.06,192.21,158.85,192.21,161.72
	L192.21,161.72z"/>
<path d="M120.88,105.2c-1.69-0.02-3-1.32-3.01-3c-0.02-1.72,1.4-3.14,3.09-3.12c1.63,0.02,3.01,1.41,3.03,3.04
	C124.01,103.84,122.62,105.22,120.88,105.2z"/>
<path d="M211.58,185.43c0.03,0.82-0.44,1.58-1.1,2.26c-4.2,4.3-8.38,8.61-12.6,12.89c-1.59,1.61-3.18,1.63-4.83,0.11
	c-1.95-1.79-3.89-3.6-5.8-5.43c-1.49-1.43-1.63-3.29-0.4-4.6c1.26-1.33,3.03-1.29,4.61,0.14c0.98,0.89,2,1.75,2.89,2.72
	c0.76,0.82,1.22,0.65,1.92-0.09c3.16-3.31,6.39-6.57,9.58-9.86c0.73-0.75,1.49-1.37,2.62-1.37
	C210.25,182.2,211.59,183.5,211.58,185.43L211.58,185.43z"/>
<g>
</g>
<g>
</g>
<g>
</g>
<g>
</g>
<g>
</g>
<g>
</g>
<g>
</g>
<g>
</g>
<g>
</g>
<g>
</g>
<g>
</g>
<g>
</g>
<g>
</g>
<g>
</g>
<g>
</g>
</svg>
