<?xml version="1.0" encoding="utf-8"?>
<!-- Generator: Adobe Illustrator 23.0.5, SVG Export Plug-In . SVG Version: 6.00 Build 0)  -->
<svg version="1.1" id="Layer_1" xmlns="http://www.w3.org/2000/svg" xmlns:xlink="http://www.w3.org/1999/xlink" x="0px" y="0px"
	 viewBox="0 0 300 300" style="enable-background:new 0 0 300 300;" xml:space="preserve">
<style type="text/css">
	.st0{display:none;}
	.st1{display:inline;}
	.st2{fill:#66FCF1;}
</style>
<g class="st0">
	<rect x="-2.5" y="-2.5" class="st1" width="308" height="308"/>
	<path class="st1" d="M305-2v307H-2V-2H305 M306-3H-3v309h309V-3L306-3z"/>
</g>
<path class="st2" d="M2.28,105.91c5.58-8.48,11.27-16.86,19.23-23.41c13.25-10.9,28.36-16.89,45.55-17.47
	c1.74-0.06,3.02-0.45,4.23-1.84c6.22-7.12,14.21-10.61,23.61-10.61c56.97-0.04,113.95-0.12,170.92,0.04
	c18.16,0.05,31.13,13.55,31.14,31.77c0.03,32.02,0.03,64.03,0,96.05c-0.02,18.28-13.18,31.57-31.51,31.73
	c-13.72,0.12-27.43,0.07-41.15-0.02c-2.05-0.02-3.03,0.54-3.65,2.58c-3.28,10.76-7.26,21.31-10.74,31.99
	c-2.86,8.75-13.36,12.38-20.85,7.03c-14.87-10.6-13.71-14.94-16.63-12.09c-10.02,9.78-23.95,9.81-33.9,0.05
	c-1.38-1.34-1.91-1.05-3.08,0.12c-11.74,11.58-30.05,8.74-37.9-5.86c-0.64-1.18-0.99-2.11-2.73-1.46
	c-12.24,4.52-25.18,5.76-37.96,7.64c-15.26,2.24-30.57,4.24-45.81,6.55c-4.08,0.61-6.91-0.48-8.76-4.13v-3.45
	c1.28-2.38,3.03-4.08,5.87-4.48c17.93-2.51,35.85-5.09,53.78-7.6c10.83-1.51,21.65-3.04,31.87-7.17
	c18.04-7.3,33.79-18.69,50.36-28.59c0.95-0.57,2.22-1.8,2.74-2.78c7.78-14.76-2.28-28.01-16.58-27.42
	c-8.13,0.34-15.89,2.18-23.43,5.24c-15.43,6.26-30.91,12.43-46.39,18.59c-3.81,1.51-7.34,0.16-8.65-3.16
	c-1.35-3.39,0.25-6.58,4.12-8.22c1.68-0.71,3.32-1.54,5.07-2c2.15-0.57,2.75-1.74,2.73-3.92c-0.09-15.24-0.08-30.48-0.04-45.72
	c0.03-14.85,0.08-29.71,0.26-44.56c0.02-1.91-0.8-1.77-2.03-1.62c-6.62,0.78-12.93,2.67-18.95,5.49
	c-12.31,5.76-21.32,15.05-28.44,26.42c-3.83,6.12-8.76,5.92-12.29-0.22v-3.45V105.91z M154.96,199.57c0.88,0.07,1.25,0.13,1.63,0.13
	c36.45,0.04,72.9,0.12,109.35,0.08c12.4-0.02,20.52-9.91,18.49-23.35c-4.41-29.21-3.59-58.95,0.08-88.27
	c1.73-13.84-6.27-23.22-19.19-23.23c-56.69-0.03-113.37-0.03-170.06,0c-11.59,0-19.29,7.78-19.29,19.33
	c-0.02,26.84-0.01,53.68,0,80.52c0,0.8-0.22,1.67,0.38,2.54c9.24-3.69,18.39-7.32,27.54-10.99c12.66-5.07,25.93-6.96,39.93-4.4
	c5.55,1.01,11.94,6.17,14.13,11.37c6.18,14.7,4.89,25.92-2.99,36.27H154.96z M196.61,212.29c-0.67,0-1.35-0.02-2.01,0
	c-3.24,0.15-7.31-1.3-9.48,0.53c-2.13,1.8-2.42,5.82-3.41,8.91c-1.94,6.07,0.71,11.83,6.28,13.82c6.04,2.15,12.85-0.73,14.99-6.54
	c1.81-4.93,3.31-9.98,5.04-14.95c0.54-1.53,0.05-1.81-1.35-1.8c-3.35,0.05-6.71,0.02-10.07,0.02L196.61,212.29z M155.14,236.25
	c5.27,0.02,9.5-2.87,11.2-7.81c1.61-4.69,3.06-9.44,4.65-14.14c0.45-1.31,0.7-2.09-1.21-2.04c-4.02,0.1-8.05-0.04-12.07,0.05
	c-3.23,0.07-7.44-1.39-9.43,0.55c-2.27,2.19-2.78,6.33-3.71,9.72C142.58,229.68,147.73,236.24,155.14,236.25L155.14,236.25z
	 M134.34,213.82c-8.84,5.03-16.71,10.32-25.16,14.59c-2.2,1.11,0.01,2.5,0.33,4.07c0.35,1.7,1.84,3,3.53,3.42
	c7.87,1.96,13.65-0.21,15.96-6.28C130.89,224.65,132.42,219.55,134.34,213.82L134.34,213.82z"/>
<path class="st2" d="M102.29,170.15c-3.24,1.31-6.82-1.07-6.81-4.57c0-2.03,0.1-4.05,0.45-6.06c0.08-0.45,0.16-0.91,0.27-1.37
	c2.59-11.31,12.29-19.05,24.32-19.19c12.94-0.15,25.89-0.16,38.83,0c14.49,0.18,24.94,10.88,25.01,25.31
	c0.02,2.93,0.04,5.85-0.01,8.78c-0.05,3.15-2.08,5.33-4.88,5.36c-2.79,0.03-4.86-2.14-4.92-5.28c-0.14-6.86,0.48-13.72-1.52-20.49
	c-0.61-2.06-2.49-3.51-4.63-3.58c-9.49-0.3-18.94-0.2-28.41-0.2c-6.4,0-12.64-0.02-18.95,0.01c-5.52,0.03-9.92,2.15-12.63,5.8
	c-1.92,2.58-3,5.93-3.02,9.85c0,0.34,0,0.69,0,1.03C105.39,167.58,104.17,169.39,102.29,170.15L102.29,170.15z"/>
<path class="st2" d="M115.36,104.49c-0.03-18.82,21.16-32.88,40.8-19.32c1.41,0.98,2.64,2.24,3.56,3.69
	c16.82,26.2-13.42,54.22-39.27,32.43c-3.22-2.72-5.1-6.73-5.1-10.95L115.36,104.49z M149.27,92.56c-14.9-9.31-30.38,5.98-21.5,20.8
	c0.33,0.55,0.77,1.07,1.25,1.48c15.2,13.07,34.13-5.51,21.71-20.98C150.34,93.36,149.82,92.9,149.27,92.56z"/>
<path class="st2" d="M238.47,168.52c9.63,0,19.25,0,28.88,0c2.22,0,4.13,0.61,5.24,2.7c0.86,1.61,0.78,3.26-0.18,4.83
	c-1.25,2.04-3.22,2.42-5.4,2.41c-10.4-0.02-20.79,0-31.19,0c-8.63,0-17.25,0.02-25.88-0.01c-3.29-0.01-5.37-1.6-5.72-4.2
	c-0.45-3.34,1.79-5.68,5.6-5.7c7.08-0.05,14.17-0.02,21.25-0.02c2.46,0,4.93,0,7.39,0V168.52z"/>
<path class="st2" d="M237.16,91.07c0.92-0.88,2.14-1.37,3.42-1.37c9.04,0,18.08-0.03,27.12,0.02c4.26,0.02,6.73,3.71,4.87,7.15
	c-1.06,1.96-2.82,2.67-5.01,2.67c-8.47-0.03-16.94-0.01-25.41-0.01c-10.78,0-21.56,0.01-32.34,0c-3.01,0-5.07-1.46-5.55-3.84
	c-1.23-6.09,7.33-9.87,16.67,0.68c2.68,3.03,7.39,3.17,10.32,0.37L237.16,91.07z"/>
<path class="st2" d="M238.47,138.93c-9.47,0-18.94-0.01-28.41,0.01c-1.75,0-3.39-0.19-4.64-1.59c-1.3-1.46-1.59-3.17-0.98-4.96
	c0.61-1.81,2.01-2.88,3.9-3.21c0.6-0.11,1.23-0.07,1.85-0.07c18.94,0,37.89,0,56.83,0c0.23,0,0.46,0,0.69,0
	c3.27,0.07,5.51,2.11,5.47,4.98c-0.04,2.83-2.15,4.8-5.35,4.82c-6.08,0.05-12.16,0.02-18.25,0.02
	C245.86,138.92,242.17,138.92,238.47,138.93L238.47,138.93z"/>
<g>
</g>
<g>
</g>
<g>
</g>
<g>
</g>
<g>
</g>
<g>
</g>
<g>
</g>
<g>
</g>
<g>
</g>
<g>
</g>
<g>
</g>
<g>
</g>
<g>
</g>
<g>
</g>
<g>
</g>
</svg>
