<svg width="82" height="56" viewBox="0 0 82 56" fill="none" xmlns="http://www.w3.org/2000/svg">
<path d="M0 15.5189C1.55327 13.1584 3.13648 10.8278 5.35085 9.00604C9.03718 5.97411 13.2413 4.30633 18.0252 4.14597C18.5087 4.12886 18.866 4.01982 19.2019 3.63494C20.9327 1.65286 23.1556 0.684266 25.7722 0.682128C41.6237 0.671437 57.4772 0.650056 73.3287 0.692819C78.3821 0.705648 81.9893 4.46242 81.9936 9.53203C82.0021 18.4397 82.0021 27.3473 81.9936 36.257C81.9872 41.3438 78.3265 45.0407 73.226 45.0856C69.4091 45.1198 65.5944 45.1048 61.7776 45.0792C61.2085 45.0749 60.9346 45.2288 60.7613 45.7976C60.265 47.4269 59.7109 49.039 59.1525 50.6491C57.458 55.537 51.8568 56.8861 48.1427 53.2919C47.8153 52.9754 47.672 52.969 47.3425 53.2897C44.5548 56.0095 40.6801 56.0202 37.9095 53.3026C37.5266 52.9284 37.3789 53.0118 37.0516 53.3346C33.7846 56.5569 28.6905 55.7657 26.5061 51.7053C26.3285 51.3761 26.2301 51.1195 25.7465 51.2991C22.3405 52.5563 18.7419 52.9006 15.1861 53.4244C10.9392 54.0466 6.68161 54.6047 2.43901 55.2462C1.30295 55.4172 0.517755 55.1115 0.00213948 54.0958V53.1358C0.359433 52.4729 0.845096 52.0004 1.63671 51.8892C6.62598 51.19 11.611 50.4716 16.6003 49.7746C19.6126 49.3555 22.6229 48.93 25.4663 47.7797C30.3422 45.8083 34.6147 42.7614 39.0798 40.063C40.3507 39.2954 40.9198 37.9398 40.9861 36.4473C41.1187 33.5138 38.7311 31.2943 35.6245 31.4226C33.3631 31.5167 31.2022 32.0299 29.1055 32.8809C24.8116 34.6235 20.5048 36.3383 16.198 38.0531C15.1368 38.4743 14.157 38.098 13.7911 37.1743C13.4167 36.2314 13.8596 35.344 14.9379 34.8886C15.4043 34.6919 15.8621 34.461 16.3478 34.3327C16.9469 34.1745 17.1116 33.8473 17.1073 33.2422C17.0816 29.0022 17.0859 24.7622 17.0966 20.5201C17.1052 16.387 17.118 12.2539 17.1694 8.12083C17.1758 7.58843 16.9469 7.62905 16.6045 7.66968C14.7624 7.88777 13.0081 8.41376 11.3307 9.19633C7.90539 10.7978 5.40006 13.3829 3.4189 16.5474C2.35343 18.2494 0.982023 18.1959 0 16.4854V15.5253L0 15.5189ZM42.4795 41.579C42.7234 41.5982 42.8282 41.6153 42.933 41.6153C53.0742 41.626 63.2153 41.6495 73.3565 41.6367C76.4459 41.6324 78.5811 39.4237 78.5875 36.2763C78.6025 27.3687 78.6004 18.4589 78.5875 9.55127C78.5833 6.27131 76.448 4.12031 73.1832 4.11817C57.4109 4.10962 41.6386 4.10962 25.8664 4.11817C22.6422 4.11817 20.5005 6.282 20.4984 9.49568C20.492 16.9643 20.4963 24.4308 20.4984 31.8995C20.4984 32.1218 20.4364 32.3634 20.6032 32.6072C23.1749 31.5809 25.7209 30.5695 28.2647 29.5496C30.922 28.4848 33.6755 27.9246 36.5402 28.0187C40.7422 28.1576 44.2039 31.6471 44.3836 35.838C44.4756 37.9548 43.8209 39.8128 42.4752 41.579H42.4795ZM54.0669 45.1176C53.8808 45.1176 53.6925 45.1112 53.5064 45.1176C52.6056 45.1583 51.4738 44.7563 50.8684 45.2652C50.2757 45.7655 50.1944 46.8859 49.9206 47.7433C49.3814 49.4325 50.1174 51.0361 51.6685 51.5877C53.348 52.1864 55.2436 51.3846 55.8384 49.7682C56.3433 48.3955 56.7584 46.9907 57.2419 45.6094C57.3917 45.1839 57.2547 45.1048 56.8653 45.1091C55.9325 45.1241 54.9997 45.1134 54.0648 45.1134L54.0669 45.1176ZM42.5287 51.7845C43.9942 51.7887 45.1709 50.9848 45.6437 49.6121C46.093 48.3078 46.4953 46.9843 46.9381 45.6778C47.0622 45.3143 47.1328 45.0963 46.6001 45.1091C45.4812 45.1369 44.3601 45.0984 43.2411 45.1241C42.3425 45.1433 41.1722 44.737 40.616 45.2759C39.9848 45.8852 39.8436 47.0377 39.5826 47.9806C39.0349 49.9563 40.4683 51.7802 42.5265 51.7845H42.5287ZM36.7435 45.5431C34.2831 46.9415 32.0944 48.4147 29.7431 49.6035C29.3366 49.8088 29.4714 50.0483 29.634 50.3134C30.3079 51.406 31.2793 51.9555 32.5694 51.8721C33.8595 51.7887 34.8008 51.1366 35.2566 49.9392C35.7829 48.558 36.2086 47.1382 36.7435 45.5453V45.5431Z" fill="white"/>
<path d="M25.9648 34.1444C25.9648 32.9064 25.845 31.6619 26.0546 30.4368C26.076 30.3106 26.0996 30.1823 26.1295 30.0562C26.8505 26.9088 29.5484 24.7556 32.8967 24.7172C36.4975 24.6765 40.1003 24.6722 43.7011 24.7172C47.7319 24.7663 50.6416 27.7448 50.6608 31.7603C50.6651 32.5749 50.6715 33.3874 50.6587 34.2021C50.6437 35.0787 50.081 35.6838 49.3023 35.6924C48.5256 35.7009 47.9501 35.0958 47.933 34.2235C47.9159 33.3874 47.9394 32.5514 47.9244 31.7175C47.8816 29.2073 46.1658 27.4968 43.654 27.4754C41.874 27.4583 40.0961 27.4711 38.316 27.4711C36.536 27.4711 34.7987 27.4647 33.0422 27.4733C31.506 27.4818 30.2823 28.0719 29.5292 29.0876C28.9943 29.806 28.6948 30.7382 28.6883 31.8287C28.6862 32.235 28.6883 32.6391 28.6883 33.0453L25.9648 34.1444Z" fill="white"/>
<path d="M31.4611 15.1254C31.4547 11.3387 34.5377 8.24475 38.3118 8.24903C42.0944 8.2533 45.1667 11.3451 45.156 15.1339C45.1431 18.9014 42.0965 21.9569 38.3374 21.9718C34.5505 21.9847 31.4675 18.9164 31.4611 15.1275V15.1254ZM38.3032 11.0137C36.0182 11.0137 34.1826 12.8547 34.1911 15.1339C34.1997 17.3683 36.0375 19.2136 38.2797 19.235C40.5304 19.2585 42.4196 17.3854 42.4238 15.1254C42.4303 12.8482 40.5882 11.0115 38.3032 11.0137Z" fill="white"/>
<path d="M65.7143 32.9385C68.3929 32.9385 71.0715 32.9385 73.7502 32.9385C74.3685 32.9385 74.8991 33.1095 75.2071 33.689C75.4468 34.138 75.4254 34.5956 75.1579 35.0339C74.8113 35.6005 74.2615 35.7074 73.656 35.7053C70.7634 35.701 67.8709 35.7053 64.9783 35.7053C62.5778 35.7053 60.1794 35.7096 57.7789 35.7031C56.8632 35.701 56.2834 35.2584 56.1871 34.5336C56.063 33.6056 56.6856 32.9534 57.7447 32.947C59.7151 32.9342 61.6877 32.9428 63.6582 32.9428C64.3428 32.9428 65.0296 32.9428 65.7143 32.9428V32.9385Z" fill="white"/>
<path d="M65.7485 11.0094C68.4485 11.0094 71.1464 11.0008 73.8464 11.0137C75.0317 11.0201 75.7185 12.0464 75.2007 13.0022C74.9055 13.5474 74.4155 13.7462 73.8079 13.7441C71.4523 13.7356 69.0946 13.742 66.739 13.742C63.7395 13.742 60.7399 13.7441 57.7404 13.742C56.9017 13.742 56.3305 13.3357 56.1957 12.6729C56.0095 11.7513 56.6279 11.0201 57.6484 11.0158C60.3484 11.003 63.0463 11.0115 65.7463 11.0115L65.7485 11.0094Z" fill="white"/>
<path d="M65.7142 24.7064C63.0784 24.7064 60.4447 24.7042 57.8088 24.7085C57.3232 24.7085 56.8653 24.655 56.5187 24.2659C56.1572 23.8596 56.0759 23.3828 56.2449 22.8868C56.416 22.3822 56.8033 22.085 57.3296 21.993C57.4965 21.9631 57.6719 21.9738 57.8431 21.9738C63.1126 21.9738 68.3843 21.9738 73.6539 21.9738C73.718 21.9738 73.7822 21.9738 73.8464 21.9738C74.7557 21.993 75.3783 22.5596 75.3676 23.3593C75.3569 24.1462 74.7707 24.6935 73.8785 24.7C72.1862 24.7128 70.4938 24.7042 68.8015 24.7042C67.7724 24.7042 66.7455 24.7042 65.7164 24.7042L65.7142 24.7064Z" fill="white"/>
</svg>
