<?xml version="1.0" encoding="utf-8"?>
<!-- Generator: Adobe Illustrator 23.0.5, SVG Export Plug-In . SVG Version: 6.00 Build 0)  -->
<svg version="1.1" id="Layer_1" xmlns="http://www.w3.org/2000/svg" xmlns:xlink="http://www.w3.org/1999/xlink" x="0px" y="0px"
	 viewBox="0 0 300 300" style="enable-background:new 0 0 300 300;" xml:space="preserve">
<style type="text/css">
	.st0{display:none;}
	.st1{display:inline;}
	.st2{fill:#66FCF1;}
</style>
<g class="st0">
	<rect x="-2.5" y="-2.5" class="st1" width="308" height="308"/>
	<path class="st1" d="M305-2v307H-2V-2H305 M306-3H-3v309h309V-3L306-3z"/>
</g>
<circle class="st2" cx="149.41" cy="150.59" r="142.59"/>
<path d="M222.52,186.01c-0.6,2.71-1.42,5.31-3.2,7.52c-1.31,1.62-2.92,2.05-4.31,1.01c-1.33-0.99-1.53-2.69-0.31-4.3
	c1.58-2.07,2.13-4.37,2.13-6.94c-0.02-24.85-0.01-49.7-0.02-74.54c0-6.51-3.65-10.14-10.18-10.14c-7.24,0-14.47,0.03-21.7-0.02
	c-1.19-0.01-1.66,0.18-1.6,1.52c0.13,2.66,0.1,5.33,0.01,7.99c-0.04,1.22,0.24,1.62,1.55,1.61c5.62-0.08,11.23-0.04,16.85-0.03
	c0.57,0,1.15,0,1.71,0.09c1.29,0.22,2.2,1.28,2.26,2.57c0.07,1.39-0.72,2.53-2.07,2.84c-0.64,0.15-1.32,0.19-1.98,0.19
	c-5.57,0.01-11.14,0.06-16.71-0.02c-1.36-0.02-1.67,0.42-1.61,1.67c0.1,1.95,0.1,3.91,0,5.85c-0.06,1.26,0.25,1.7,1.62,1.68
	c5.57-0.09,11.14-0.04,16.71-0.03c0.57,0,1.15,0,1.71,0.08c1.37,0.21,2.3,1.3,2.34,2.65c0.04,1.39-0.77,2.48-2.15,2.79
	c-0.6,0.13-1.22,0.18-1.84,0.18c-5.62,0.01-11.24,0.06-16.85-0.03c-1.32-0.02-1.6,0.39-1.54,1.6c0.1,2,0.1,4,0,5.99
	c-0.06,1.22,0.24,1.63,1.55,1.61c5.62-0.08,11.23-0.04,16.85-0.03c0.57,0,1.15,0,1.71,0.09c1.3,0.22,2.2,1.28,2.26,2.57
	c0.07,1.39-0.72,2.54-2.07,2.85c-0.64,0.15-1.32,0.19-1.98,0.19c-5.62,0.01-11.24,0.05-16.85-0.02c-1.23-0.01-1.52,0.37-1.47,1.52
	c0.09,2,0.1,4,0,5.99c-0.06,1.26,0.24,1.71,1.62,1.68c5.57-0.09,11.14-0.04,16.71-0.03c0.57,0,1.15,0,1.71,0.08
	c1.37,0.21,2.3,1.3,2.34,2.65c0.04,1.39-0.77,2.48-2.15,2.79c-0.6,0.13-1.22,0.18-1.84,0.18c-5.62,0.01-11.24,0.05-16.85-0.03
	c-1.31-0.02-1.65,0.38-1.54,1.6c0.09,0.89,0.11,1.8-0.17,2.69c-0.41,1.31-1.6,2.18-2.89,2.07c-1.33-0.11-2.39-1.1-2.57-2.46
	c-0.07-0.56-0.06-1.14-0.06-1.71c0-22.61-0.01-45.22,0-67.83c0-4.46-1.67-7.94-5.76-10.03c-1.47-0.75-3.06-1.04-4.69-1.04
	c-11.85-0.01-23.7-0.03-35.56,0.01c-6.16,0.02-10.43,4.36-10.47,10.6c-0.05,6.9-0.01,13.8-0.01,20.71c0,19.85,0,39.7,0.01,59.55
	c0,0.54-0.19,1.12,0.18,1.64c0.61-0.11,0.67-0.66,0.88-1.04c3.39-6.1,8.22-10.65,14.51-13.66c0.98-0.47,1.97-0.72,3.01-0.24
	c1.83,0.86,2.19,3.33,0.64,4.63c-0.47,0.39-1.04,0.67-1.58,0.95c-5.78,2.92-10.02,7.3-12.62,13.25c-1.22,2.78-2.21,3.18-5.16,2.16
	c-7.98-2.74-15.46,3.33-14.37,11.66c0.32,2.41-0.07,3.13-2.32,4.28c-7.09,3.63-8.08,12.94-1.91,17.95c2,1.62,4.34,2.35,6.88,2.35
	c25.09,0.01,50.17,0.05,75.26-0.02c8.85-0.03,15.95-7.35,15.91-16.11c-0.04-8.73-7.08-15.92-15.88-16
	c-5.6-0.05-10.12,2.28-13.39,6.89c-0.36,0.5-0.68,1.04-1.05,1.53c-1.04,1.38-2.59,1.72-3.88,0.88c-1.31-0.84-1.72-2.39-0.91-3.88
	c1.3-2.41,3.04-4.48,5.2-6.18c1.19-0.95,2.42-1.86,3.82-2.48c0.78-0.35,0.87-0.76,0.58-1.55c-2.32-6.17-6.33-10.87-12.07-14.11
	c-0.5-0.28-1.02-0.52-1.5-0.83c-1.44-0.95-1.9-2.47-1.17-3.82c0.76-1.4,2.37-1.89,3.95-1.12c3.98,1.94,7.45,4.59,10.32,7.97
	c2.52,2.95,4.54,6.23,5.76,9.93c0.35,1.08,0.89,1.3,1.97,1.21c12.53-1.06,22.87,7.73,23.88,20.22c0.88,10.92-7.38,21.3-18.23,22.9
	c-0.37,0.05-0.77-0.02-1.07,0.3h-79.67c-0.17-0.07-0.34-0.18-0.52-0.21c-7.1-1.33-12.32-6.07-13.6-12.88
	c-1.34-7.13,1.11-12.9,7.11-17.07c0.54-0.38,0.7-0.76,0.7-1.39c0.07-8.5,5.3-14.9,13.59-16.59c0.86-0.18,1.05-0.48,1.04-1.28
	c-0.03-4.28-0.06-8.57,0.01-12.85c0.02-1.17-0.26-1.53-1.48-1.51c-5.62,0.07-11.23,0.03-16.84,0.03c-2.72,0-4.07-0.98-4.06-2.9
	c0.02-1.89,1.32-2.8,3.98-2.8c5.62,0,11.23-0.05,16.84,0.03c1.3,0.02,1.61-0.38,1.55-1.6c-0.1-1.99-0.1-4,0-5.99
	c0.06-1.19-0.2-1.63-1.53-1.61c-5.61,0.09-11.23,0.04-16.84,0.03c-0.66,0-1.34-0.05-1.97-0.2c-1.26-0.3-2.06-1.44-2.02-2.75
	c0.03-1.28,0.92-2.4,2.19-2.64c0.6-0.11,1.23-0.11,1.85-0.11c5.66-0.01,11.32-0.03,16.99,0.02c1.07,0.01,1.4-0.29,1.36-1.36
	c-0.08-2.19-0.08-4.38,0-6.56c0.04-1.03-0.32-1.27-1.29-1.26c-5.66,0.04-11.32,0.03-16.99,0.01c-0.57,0-1.14-0.02-1.7-0.13
	c-1.57-0.3-2.45-1.38-2.39-2.88c0.06-1.46,1.09-2.5,2.65-2.66c0.47-0.05,0.95-0.04,1.43-0.04c5.66,0,11.32-0.02,16.99,0.02
	c0.98,0.01,1.33-0.24,1.3-1.27c-0.07-2.19-0.08-4.38,0-6.56c0.04-1.07-0.28-1.36-1.35-1.35c-5.66,0.05-11.32,0.03-16.99,0.02
	c-0.66,0-1.34-0.04-1.97-0.2c-1.3-0.33-2-1.23-2.05-2.58c-0.08-1.78,1.16-2.91,3.27-2.92c5.71-0.03,11.42,0,17.13-0.01
	c2.19,0,1.93,0.24,1.94-1.87c0.01-4.76-0.04-9.52,0.01-14.28c0.1-9.22,6.95-16.04,16.13-16.06c11.9-0.03,23.79-0.04,35.69,0
	c8.34,0.02,14.84,5.77,15.87,14.03c0.15,1.17,0.54,1.42,1.66,1.42c7.57-0.05,15.13-0.04,22.7-0.02c4.76,0.01,8.64,1.89,11.7,5.54
	c1.79,2.14,2.65,4.67,3.3,7.31V186.01z"/>
<path d="M149.51,95.76c4,0,7.99,0,11.99,0c1.46,0,2.61,0.52,3.13,1.98s-0.28,3.02-1.78,3.54c-0.6,0.21-1.22,0.19-1.84,0.19
	c-7.75,0-15.51,0-23.27,0c-0.24,0-0.48,0.01-0.72-0.01c-1.76-0.11-2.99-1.25-3.02-2.81c-0.03-1.61,1.24-2.86,3.08-2.88
	C141.23,95.73,145.37,95.76,149.51,95.76z"/>
<path d="M149.27,116.32c-4,0-7.99,0.02-11.99-0.01c-2.38-0.02-3.82-1.85-3.06-3.82c0.49-1.26,1.48-1.86,2.78-1.86
	c8.28-0.02,16.56-0.03,24.84,0.01c1.75,0.01,2.98,1.28,2.98,2.83c0,1.61-1.27,2.82-3.12,2.84
	C157.54,116.35,153.4,116.32,149.27,116.32L149.27,116.32z"/>
<path d="M149.55,125.47c4,0,7.99-0.03,11.99,0.01c2.38,0.02,3.82,1.85,3.06,3.82c-0.49,1.25-1.48,1.86-2.78,1.86
	c-8.28,0.02-16.56,0.03-24.84-0.01c-1.75-0.01-2.98-1.28-2.98-2.83c0-1.61,1.27-2.82,3.12-2.84
	C141.28,125.44,145.42,125.47,149.55,125.47L149.55,125.47z"/>
<path d="M149.41,140.32c4.05,0,8.09-0.03,12.13,0.01c2.38,0.02,3.82,1.85,3.06,3.82c-0.48,1.26-1.48,1.86-2.77,1.87
	c-8.28,0.02-16.56,0.03-24.84-0.01c-1.75-0.01-2.98-1.28-2.98-2.83c0-1.61,1.27-2.83,3.12-2.84
	C141.23,140.29,145.32,140.32,149.41,140.32L149.41,140.32z"/>
<path d="M191.65,166.56c4.05,0.17,7.44,3.63,7.51,7.68c0.03,1.72-0.9,2.9-2.46,3.13c-1.44,0.21-2.79-0.77-3.09-2.46
	c-0.29-1.6-1.02-2.52-2.71-2.79c-1.82-0.3-2.8-1.62-2.55-3.14C188.61,167.36,189.8,166.48,191.65,166.56z"/>
<path d="M153.17,160.81c0.01,1.59-1.31,2.9-2.88,2.87c-1.5-0.03-2.82-1.34-2.84-2.81c-0.02-1.55,1.35-2.88,2.93-2.85
	C151.94,158.04,153.16,159.26,153.17,160.81L153.17,160.81z"/>
<path d="M167.16,204.04c-0.03,1.55-1.31,2.81-2.82,2.8c-1.52-0.02-2.79-1.31-2.79-2.84c-0.01-1.6,1.33-2.9,2.91-2.85
	C166,201.2,167.19,202.48,167.16,204.04L167.16,204.04z"/>
<path d="M76.3,146.03c0-12.52,0-25.03,0-37.54c0-9.24,6.35-15.57,15.59-15.58c4.76,0,9.51-0.01,14.28,0.01
	c1.97,0.01,3.19,1.01,3.29,2.63c0.12,1.85-1.13,3.05-3.28,3.07c-4.9,0.02-9.8,0.01-14.7,0.01c-3.14,0-5.74,1.14-7.67,3.68
	c-1.25,1.66-1.79,3.56-1.79,5.61c0,25.46-0.01,50.91,0.01,76.37c0,3.51,1.58,6.2,4.61,8c0.25,0.15,0.5,0.28,0.73,0.44
	c1.48,1.01,1.89,2.53,1.07,3.95c-0.77,1.32-2.31,1.75-3.87,0.97c-3.32-1.66-5.71-4.2-7.14-7.64c-0.85-2.05-1.14-4.19-1.14-6.41
	C76.3,171.06,76.3,158.55,76.3,146.03z"/>
<path d="M107.27,166.54c1.66-0.02,2.84,0.9,3.04,2.37c0.22,1.63-0.59,2.86-2.33,3.15c-1.75,0.29-2.67,1.13-2.9,2.93
	c-0.2,1.56-1.62,2.56-3.03,2.39c-1.52-0.19-2.6-1.48-2.56-3.09C99.57,170.16,103.15,166.59,107.27,166.54z"/>
<g>
</g>
<g>
</g>
<g>
</g>
<g>
</g>
<g>
</g>
<g>
</g>
<g>
</g>
<g>
</g>
<g>
</g>
<g>
</g>
<g>
</g>
<g>
</g>
<g>
</g>
<g>
</g>
<g>
</g>
</svg>
