<svg width="78" height="78" viewBox="0 0 78 78" fill="none" xmlns="http://www.w3.org/2000/svg">
<circle cx="39" cy="39" r="39" fill="url(#paint0_linear_131_377)"/>
<path d="M58.9969 48.6882C58.8336 49.4288 58.6095 50.1401 58.1223 50.7457C57.7652 51.1898 57.3249 51.3053 56.9424 51.0206C56.5785 50.7496 56.5246 50.2849 56.8573 49.8456C57.2887 49.2781 57.4404 48.649 57.4394 47.9476C57.4326 41.1519 57.4355 34.3553 57.4345 27.5597C57.4345 25.7791 56.4366 24.7851 54.6501 24.7851C52.6709 24.7851 50.6927 24.792 48.7135 24.7783C48.3887 24.7763 48.2586 24.8282 48.2752 25.195C48.3094 25.9229 48.3026 26.6538 48.2772 27.3817C48.2654 27.7153 48.3437 27.8258 48.7008 27.8209C50.2368 27.7994 51.7728 27.8112 53.3098 27.8131C53.4653 27.8131 53.6238 27.8131 53.7765 27.8385C54.1306 27.8992 54.3772 28.1888 54.3948 28.541C54.4143 28.9206 54.1972 29.2337 53.8273 29.3188C53.6522 29.3589 53.4673 29.3706 53.2863 29.3706C51.763 29.3746 50.2397 29.3863 48.7164 29.3638C48.3437 29.3579 48.2586 29.4783 48.2762 29.8217C48.3036 30.3539 48.3026 30.89 48.2762 31.4222C48.2586 31.7676 48.3447 31.8879 48.7184 31.8821C50.2417 31.8586 51.765 31.8723 53.2883 31.8733C53.4438 31.8733 53.6023 31.8723 53.7559 31.8958C54.1306 31.9545 54.385 32.2509 54.3958 32.6207C54.4075 33.0013 54.1864 33.2997 53.8078 33.3838C53.6444 33.42 53.4732 33.4318 53.3059 33.4328C51.7699 33.4367 50.2329 33.4484 48.6969 33.4249C48.3368 33.42 48.2595 33.5316 48.2762 33.8632C48.3036 34.4092 48.3026 34.957 48.2762 35.5029C48.2595 35.8356 48.3407 35.9481 48.6988 35.9432C50.2348 35.9217 51.7708 35.9334 53.3078 35.9354C53.4634 35.9354 53.6219 35.9354 53.7745 35.9608C54.1296 36.0215 54.3752 36.3101 54.3938 36.6633C54.4134 37.0429 54.1962 37.3569 53.8273 37.442C53.6522 37.4822 53.4673 37.4939 53.2863 37.4949C51.7503 37.4988 50.2133 37.5076 48.6773 37.489C48.3417 37.4851 48.2615 37.5898 48.2762 37.9058C48.3016 38.4517 48.3026 38.9996 48.2762 39.5455C48.2595 39.8889 48.3427 40.0122 48.7184 40.0063C50.2417 39.9828 51.765 39.9955 53.2883 39.9975C53.4438 39.9975 53.6023 39.9965 53.7559 40.02C54.1306 40.0787 54.385 40.3751 54.3967 40.745C54.4085 41.1255 54.1874 41.4239 53.8097 41.5081C53.6463 41.5443 53.4751 41.556 53.3078 41.557C51.7718 41.5609 50.2348 41.5717 48.6988 41.5492C48.3398 41.5443 48.2468 41.6529 48.2781 41.9875C48.3016 42.2301 48.3085 42.4805 48.2312 42.7232C48.1187 43.0813 47.7929 43.319 47.4407 43.2887C47.0767 43.2574 46.7871 42.9873 46.7372 42.6156C46.7167 42.462 46.7216 42.3035 46.7216 42.1479C46.7216 35.9638 46.7196 29.7796 46.7216 23.5954C46.7216 22.3745 46.2637 21.4245 45.1464 20.8512C44.7443 20.6447 44.3099 20.5674 43.8628 20.5674C40.6206 20.5655 37.3793 20.5586 34.137 20.5694C32.4523 20.5753 31.2852 21.761 31.2734 23.4683C31.2607 25.3555 31.2705 27.2437 31.2705 29.1319C31.2705 34.5608 31.2705 39.9897 31.2734 45.4185C31.2734 45.5653 31.2216 45.7248 31.3233 45.8666C31.4906 45.8363 31.5072 45.6856 31.565 45.5819C32.4924 43.9148 33.8142 42.6703 35.5341 41.8456C35.8032 41.7165 36.0732 41.6489 36.3569 41.781C36.8578 42.0149 36.9547 42.6909 36.533 43.048C36.4058 43.1556 36.2493 43.2309 36.0996 43.3073C34.5186 44.1056 33.3593 45.3041 32.647 46.9311C32.3144 47.6912 32.0424 47.8008 31.2343 47.523C29.0516 46.7726 27.0058 48.4338 27.3052 50.7124C27.3923 51.3728 27.2857 51.5684 26.6713 51.8825C24.7312 52.8745 24.4602 55.4212 26.1498 56.7919C26.6977 57.236 27.3356 57.4337 28.0321 57.4337C34.8933 57.4356 41.7545 57.4464 48.6157 57.4278C51.0361 57.4209 52.9771 55.4183 52.9664 53.0213C52.9546 50.6331 51.0302 48.6676 48.6235 48.6451C47.0914 48.6305 45.8567 49.2683 44.9615 50.5285C44.8637 50.6664 44.7766 50.8122 44.6749 50.9472C44.3892 51.3239 43.9675 51.4178 43.6143 51.1889C43.2563 50.958 43.1447 50.5353 43.3649 50.1264C43.72 49.466 44.1974 48.9015 44.7864 48.4348C45.1132 48.1755 45.4487 47.927 45.8303 47.7558C46.0446 47.6599 46.068 47.5474 45.9878 47.3322C45.3538 45.6436 44.2552 44.358 42.6859 43.4726C42.5499 43.3963 42.407 43.3307 42.2769 43.2456C41.8817 42.9854 41.7584 42.5696 41.958 42.2017C42.1664 41.8182 42.6057 41.6851 43.0381 41.8965C44.128 42.4277 45.075 43.1527 45.8616 44.0753C46.5513 44.8834 47.1041 45.7786 47.4367 46.7921C47.5336 47.0876 47.6804 47.1463 47.9758 47.1218C51.402 46.8332 54.2324 49.237 54.5083 52.6534C54.7499 55.6413 52.4899 58.4795 49.5216 58.9178C49.4208 58.9325 49.3103 58.911 49.2301 59H27.4383C27.3913 58.9804 27.3453 58.9501 27.2954 58.9413C25.3534 58.5774 23.926 57.281 23.5758 55.4183C23.2098 53.4674 23.879 51.8903 25.5207 50.7505C25.6684 50.6478 25.7125 50.5422 25.7134 50.369C25.732 48.0454 27.1624 46.2932 29.4312 45.8304C29.667 45.7825 29.7178 45.6983 29.7159 45.4811C29.7071 44.3101 29.7002 43.138 29.7198 41.9669C29.7247 41.648 29.6474 41.5492 29.3157 41.5531C27.7797 41.5717 26.2447 41.5619 24.7087 41.5609C23.9651 41.5609 23.5943 41.2938 23.5992 40.7665C23.6041 40.2509 23.9593 39.9994 24.6891 39.9994C26.2251 39.9994 27.7611 39.9867 29.2962 40.0083C29.6513 40.0131 29.7374 39.9055 29.7208 39.57C29.6934 39.025 29.6944 38.4762 29.7208 37.9312C29.7364 37.6044 29.667 37.4841 29.303 37.49C27.768 37.5135 26.232 37.5017 24.696 37.4978C24.515 37.4978 24.3301 37.4851 24.1559 37.443C23.8106 37.3599 23.5934 37.0487 23.6022 36.6907C23.611 36.3394 23.8526 36.0342 24.1999 35.9686C24.3643 35.9373 24.5365 35.9393 24.7057 35.9393C26.2545 35.9373 27.8032 35.9305 29.3519 35.9452C29.6454 35.9481 29.7335 35.8669 29.7227 35.5734C29.7002 34.9756 29.7012 34.3759 29.7227 33.7781C29.7325 33.4973 29.6357 33.4318 29.3695 33.4337C27.8208 33.4455 26.2721 33.4406 24.7234 33.4376C24.5678 33.4376 24.4103 33.4318 24.2586 33.4034C23.8282 33.3222 23.5885 33.0267 23.6061 32.6158C23.6227 32.2167 23.9035 31.932 24.332 31.8889C24.4612 31.8762 24.5923 31.8782 24.7224 31.8782C26.2711 31.8782 27.8198 31.8723 29.3686 31.883C29.6357 31.885 29.7335 31.8165 29.7237 31.5367C29.7041 30.9389 29.7022 30.3392 29.7237 29.7414C29.7345 29.4489 29.6484 29.3687 29.3549 29.3716C27.8061 29.3863 26.2574 29.3804 24.7087 29.3765C24.5277 29.3765 24.3418 29.3667 24.1686 29.3227C23.8125 29.2327 23.6227 28.9852 23.6071 28.6183C23.5865 28.1321 23.9231 27.8219 24.5013 27.819C26.0627 27.8121 27.6251 27.819 29.1866 27.8151C29.7844 27.8141 29.7139 27.8806 29.7159 27.3044C29.7188 26.0032 29.7041 24.701 29.7198 23.3998C29.7462 20.8786 31.6217 19.0128 34.1322 19.007C37.3861 18.9982 40.6401 18.9972 43.8932 19.007C46.1747 19.0138 47.9514 20.5841 48.2331 22.8431C48.2732 23.163 48.3809 23.2325 48.6871 23.2305C50.7563 23.2158 52.8255 23.2207 54.8957 23.2237C56.1979 23.2256 57.2584 23.7393 58.0949 24.7382C58.5851 25.3232 58.8208 26.0149 58.9969 26.7379V48.6882Z" fill="white"/>
<path d="M39.0278 24.0044C40.1216 24.0044 41.2144 24.0044 42.3082 24.0044C42.7084 24.0044 43.0214 24.1453 43.1633 24.5464C43.3052 24.9475 43.087 25.3711 42.6751 25.514C42.5107 25.5707 42.3425 25.5658 42.1732 25.5658C40.0521 25.5658 37.9301 25.5658 35.809 25.5658C35.7435 25.5658 35.6789 25.5678 35.6134 25.5639C35.131 25.5345 34.7945 25.2215 34.7876 24.7959C34.7798 24.3566 35.1271 24.0132 35.631 24.0083C36.7629 23.9966 37.8959 24.0044 39.0278 24.0044Z" fill="white"/>
<path d="M38.9603 29.628C37.8665 29.628 36.7737 29.6348 35.6799 29.625C35.0283 29.6192 34.635 29.1183 34.8434 28.5802C34.9765 28.2368 35.2475 28.0704 35.6026 28.0704C37.8675 28.0646 40.1324 28.0616 42.3963 28.0724C42.8757 28.0744 43.2112 28.4217 43.2103 28.8473C43.2103 29.2865 42.863 29.6192 42.3562 29.6241C41.2242 29.6348 40.0913 29.627 38.9593 29.628H38.9603Z" fill="white"/>
<path d="M39.0386 32.1287C40.1324 32.1287 41.2252 32.1218 42.319 32.1316C42.9706 32.1375 43.3639 32.6374 43.1555 33.1765C43.0224 33.5189 42.7514 33.6862 42.3963 33.6862C40.1314 33.6921 37.8665 33.695 35.6026 33.6843C35.1232 33.6823 34.7877 33.335 34.7886 32.9094C34.7886 32.4701 35.136 32.1375 35.6427 32.1326C36.7747 32.1218 37.9076 32.1297 39.0396 32.1287H39.0386Z" fill="white"/>
<path d="M38.9995 36.1907C40.106 36.1907 41.2125 36.1838 42.318 36.1936C42.9696 36.1995 43.3629 36.6994 43.1555 37.2375C43.0234 37.5809 42.7514 37.7472 42.3973 37.7482C40.1324 37.7541 37.8675 37.757 35.6036 37.7463C35.1242 37.7443 34.7886 37.397 34.7886 36.9714C34.7886 36.5321 35.1359 36.1985 35.6418 36.1936C36.761 36.1829 37.8802 36.1907 38.9995 36.1897V36.1907Z" fill="white"/>
<path d="M50.5518 43.3679C51.6603 43.4139 52.5858 44.36 52.6063 45.4675C52.6151 45.9371 52.3608 46.2609 51.9342 46.3245C51.539 46.3832 51.1721 46.1141 51.0899 45.6514C51.0116 45.2141 50.8101 44.9616 50.3493 44.8873C49.8503 44.8061 49.5842 44.4431 49.6507 44.0283C49.7222 43.5861 50.0479 43.3464 50.5518 43.3679Z" fill="white"/>
<path d="M40.0277 41.7947C40.0306 42.2301 39.6706 42.5891 39.2401 42.5803C38.8292 42.5725 38.4682 42.2144 38.4633 41.8104C38.4584 41.3877 38.8312 41.0238 39.2636 41.0306C39.6911 41.0375 40.0257 41.3711 40.0287 41.7947H40.0277Z" fill="white"/>
<path d="M43.855 53.62C43.8472 54.0427 43.4969 54.389 43.0831 54.3851C42.6682 54.3802 42.3209 54.027 42.319 53.6073C42.317 53.17 42.6819 52.8139 43.1154 52.8286C43.536 52.8423 43.8628 53.1935 43.855 53.621V53.62Z" fill="white"/>
<path d="M19.002 37.7531C19.002 34.3299 19.002 30.9076 19.002 27.4844C19.002 24.9583 20.7385 23.2246 23.2656 23.2227C24.5668 23.2217 25.868 23.2188 27.1702 23.2246C27.7103 23.2266 28.0419 23.5015 28.0713 23.9437C28.1045 24.4485 27.7611 24.7792 27.1731 24.7822C25.8328 24.788 24.4925 24.7841 23.1521 24.7841C22.2931 24.7841 21.5809 25.0962 21.0555 25.7908C20.7131 26.2438 20.5663 26.7633 20.5663 27.3239C20.5654 34.2868 20.5624 41.2498 20.5683 48.2117C20.5683 49.1715 20.9997 49.9072 21.8304 50.3993C21.8979 50.4394 21.9664 50.4756 22.0309 50.5196C22.436 50.7946 22.5485 51.2123 22.3244 51.5997C22.1151 51.9598 21.6924 52.0772 21.2649 51.8639C20.357 51.4109 19.7025 50.7143 19.3121 49.7741C19.0792 49.2135 19 48.6275 19 48.0219C19.0039 44.5987 19.002 41.1764 19.002 37.7531Z" fill="white"/>
<path d="M27.4745 43.363C27.9284 43.3571 28.2513 43.6096 28.3051 44.0117C28.3648 44.4568 28.1427 44.7934 27.6682 44.8726C27.1898 44.9528 26.9374 45.1808 26.8748 45.6739C26.8209 46.0995 26.4306 46.3744 26.0461 46.3264C25.6293 46.2736 25.3358 45.9214 25.3446 45.4821C25.3671 44.3521 26.3474 43.3767 27.4745 43.363Z" fill="white"/>
<defs>
<linearGradient id="paint0_linear_131_377" x1="78" y1="17.5253" x2="7.40506" y2="63.6835" gradientUnits="userSpaceOnUse">
<stop stop-color="#B75CFF"/>
<stop offset="1" stop-color="#671AE4"/>
</linearGradient>
</defs>
</svg>
