<svg width="82" height="82" viewBox="0 0 82 82" fill="none" xmlns="http://www.w3.org/2000/svg">
<path d="M0.00213952 3.04239C0.509205 1.57468 1.36715 0.453577 2.96965 0.102697C3.32909 0.0235347 3.70992 0.00427903 4.08006 0.00427903C28.6845 0 53.291 0 77.8976 0C80.4308 0 81.9991 1.56399 81.9991 4.08861C82.0012 24.0781 81.9991 44.0655 81.9991 64.0549C81.9991 66.2287 80.6726 67.829 78.6165 68.1628C77.7072 68.3104 77.0097 67.9189 76.8706 67.1829C76.7187 66.372 77.1744 65.8286 78.1715 65.6403C79.0679 65.4692 79.4381 65.0006 79.4381 63.995C79.4402 59.4571 79.4381 54.9214 79.4381 50.3834C79.4381 38.5605 79.4274 26.7375 79.4594 14.9167C79.4616 14.0759 79.2177 13.9325 78.441 13.9325C53.4622 13.9539 28.4834 13.9539 3.50239 13.9325C2.72788 13.9325 2.54174 14.1208 2.54388 14.8932C2.56742 31.1984 2.56314 47.5058 2.56314 63.811C2.56314 65.375 2.84556 65.651 4.44163 65.651C14.8504 65.651 25.257 65.651 35.6657 65.651C35.9053 65.651 36.1471 65.6446 36.3867 65.651C37.2211 65.6767 37.7603 66.1431 37.7924 66.8684C37.8266 67.6172 37.2746 68.1564 36.4103 68.2056C36.1706 68.2184 35.931 68.2099 35.6892 68.2099C25.3618 68.2099 15.0322 68.1735 4.70479 68.2377C2.35133 68.2527 0.738133 67.4782 0 65.1803V3.04239H0.00213952ZM40.9204 11.3886C53.4622 11.3886 66.004 11.3822 78.548 11.4058C79.2926 11.4058 79.4723 11.2004 79.4552 10.4815C79.406 8.40188 79.4402 6.31799 79.4381 4.23838C79.4381 2.94183 79.0636 2.561 77.7863 2.561C73.3832 2.561 68.9801 2.561 64.577 2.561C44.5083 2.561 24.4418 2.561 4.37317 2.561C2.87337 2.561 2.56528 2.87551 2.56528 4.39884C2.56528 6.4271 2.59737 8.45536 2.54816 10.4836C2.53105 11.2025 2.71077 11.4079 3.45532 11.4079C15.9437 11.3822 28.4342 11.3908 40.9225 11.3908L40.9204 11.3886Z" fill="white"/>
<path d="M56.5345 81.9969C53.8709 81.3016 52.0437 79.5301 50.3963 77.4248C47.8995 74.2326 45.285 71.1325 42.7154 67.9959C41.9452 67.0567 41.3354 66.049 41.1108 64.8273C40.486 61.4576 43.4236 58.873 46.6757 59.9513C47.4673 60.2145 48.1755 60.636 48.8066 61.188C50.1053 62.3219 51.4104 63.4473 52.7369 64.5984C52.9359 64.2646 52.8503 63.9694 52.8503 63.6912C52.8567 55.9547 52.8567 48.2182 52.8503 40.4818C52.8503 39.5661 52.9295 38.6675 53.2953 37.8202C53.9992 36.1942 55.2059 35.1972 57.001 35.0731C58.8966 34.9426 60.283 35.8198 61.2008 37.4458C61.6993 38.3251 61.8384 39.2965 61.8341 40.2999C61.8256 44.1147 61.8448 47.9294 61.817 51.7442C61.8127 52.3668 61.9839 52.5957 62.6129 52.7369C65.0798 53.291 67.5317 53.9179 69.9236 54.7566C72.827 55.7729 74.5001 58.0814 74.5001 61.1666C74.5001 66.2094 74.4294 71.2523 74.5279 76.2908C74.5835 79.0422 73.6721 81.0855 70.6232 81.9905H56.5303L56.5345 81.9969ZM55.4156 53.6376C55.4156 58.0942 55.4092 62.553 55.422 67.0096C55.422 67.7135 55.3728 68.3639 54.6368 68.6934C53.8901 69.0272 53.3745 68.5864 52.8589 68.1329C51.1173 66.5967 49.3693 65.0691 47.6235 63.5393C47.0993 63.0815 46.5494 62.6578 45.8926 62.4032C45.2828 62.1679 44.6881 62.1508 44.1639 62.6043C43.6269 63.0665 43.4664 63.6698 43.6076 64.3438C43.7402 64.9792 44.0312 65.5505 44.442 66.0532C47.5443 69.8594 50.6231 73.6849 53.7639 77.4569C54.8636 78.7791 56.3035 79.4787 58.1114 79.4509C61.847 79.3931 65.5847 79.4338 69.3224 79.4338C71.1945 79.4338 71.9284 78.6999 71.9305 76.8236C71.9305 71.6181 71.9305 66.4148 71.9305 61.2094C71.9305 59.1084 71.0062 57.8653 68.9972 57.155C66.5796 56.2992 64.087 55.7215 61.6031 55.1118C59.8765 54.6881 59.2774 53.9628 59.2753 52.202C59.2731 48.2782 59.271 44.3543 59.2753 40.4304C59.2753 39.7821 59.2367 39.1446 58.8966 38.5733C58.5307 37.9571 58.0023 37.5977 57.2556 37.6212C56.5003 37.6448 56.0211 38.0534 55.713 38.706C55.4562 39.2494 55.4113 39.8313 55.4134 40.424C55.4177 44.8271 55.4134 49.2324 55.4134 53.6355L55.4156 53.6376Z" fill="white"/>
<path d="M22.8243 19.998C26.7739 19.998 30.7234 19.9938 34.673 19.998C36.943 20.0002 38.1347 21.1876 38.1347 23.4448C38.1368 31.0508 38.1368 38.6568 38.1347 46.2627C38.1347 48.5242 36.943 49.7287 34.6837 49.7309C26.7568 49.7373 18.832 49.7373 10.9051 49.7309C8.57303 49.7309 7.38132 48.5114 7.38132 46.1536C7.38132 38.6268 7.38132 31.1021 7.38132 23.5753C7.38132 21.1833 8.56875 19.998 10.9736 19.9959C14.9231 19.9938 18.8727 19.9959 22.8222 19.9959L22.8243 19.998ZM22.7751 47.1742C26.6969 47.1742 30.6207 47.1763 34.5425 47.1742C35.5245 47.1742 35.5758 47.1164 35.5758 46.1237C35.5758 38.599 35.5673 31.0743 35.5908 23.5496C35.593 22.7709 35.3319 22.5312 34.5724 22.5483C32.7581 22.5911 30.9417 22.5997 29.1295 22.5441C28.3828 22.5205 28.1325 22.681 28.1517 23.4855C28.2095 26.0465 28.1774 28.6075 28.1688 31.1706C28.1667 32.0157 27.8137 32.6811 27.0263 33.032C26.2518 33.3764 25.5158 33.2545 24.8697 32.6875C24.568 32.4244 24.2685 32.159 23.9711 31.8916C23.2094 31.2041 22.4528 31.192 21.7011 31.8552C21.3802 32.1377 21.0571 32.4158 20.734 32.6961C20.0686 33.2716 19.3241 33.4406 18.5111 33.0641C17.7237 32.7003 17.3835 32.0392 17.3835 31.1941C17.3793 28.5518 17.3664 25.9095 17.39 23.2694C17.3942 22.711 17.2274 22.5419 16.669 22.5526C14.8012 22.5847 12.9334 22.5633 11.0656 22.5655C9.99152 22.5655 9.95729 22.5997 9.95729 23.7122C9.95729 31.1578 9.95729 38.6011 9.95729 46.0466C9.95729 47.1143 10.0193 47.1784 11.0891 47.1784C14.9852 47.1806 18.8812 47.1784 22.7773 47.1784L22.7751 47.1742ZM25.6121 29.8291C25.6121 27.4799 25.6014 25.2698 25.6207 23.0618C25.625 22.5954 25.3982 22.5526 25.0302 22.5548C23.5368 22.5655 22.0413 22.5783 20.5479 22.5483C20.0365 22.5377 19.9232 22.7345 19.9274 23.1988C19.9467 25.2527 19.9339 27.3066 19.9403 29.3606C19.9403 29.5039 19.8804 29.69 20.1114 29.7714C21.0057 29.2621 21.5535 28.186 22.7516 28.1218C24.031 28.0533 24.5787 29.1851 25.61 29.8291H25.6121Z" fill="white"/>
<path d="M59.0934 29.7585C62.6964 29.7585 66.2993 29.7542 69.9022 29.7585C72.4675 29.7607 74.055 31.3139 74.0829 33.8771C74.1064 35.931 74.1085 37.9871 74.0829 40.0432C74.0508 42.5464 72.4418 44.1425 69.9579 44.1682C68.8646 44.1789 67.7691 44.1831 66.6759 44.166C65.7216 44.151 65.1718 43.6589 65.1696 42.8716C65.1696 42.0821 65.7088 41.6221 66.6823 41.6136C67.7756 41.6029 68.871 41.6221 69.9643 41.6072C71.002 41.5922 71.509 41.1193 71.5219 40.0924C71.5475 38.0106 71.5454 35.9289 71.5219 33.8471C71.5112 32.7859 71.0426 32.3174 70.0007 32.3152C62.6878 32.3067 55.3749 32.3067 48.0599 32.3152C47.0501 32.3152 46.5794 32.7902 46.5708 33.7829C46.5559 35.8904 46.5559 37.9999 46.5708 40.1095C46.5773 41.0873 47.0693 41.5644 48.0535 41.6072C48.3466 41.62 48.6419 41.6007 48.9329 41.6221C49.6047 41.6692 50.039 42.0265 50.1246 42.6962C50.2166 43.4001 49.8849 43.8815 49.2046 44.0933C46.757 44.8507 44.0826 42.9829 44.0227 40.4219C43.9692 38.1283 43.982 35.8305 44.0184 33.5369C44.0526 31.3867 45.7043 29.7799 47.8759 29.7671C51.6115 29.7478 55.3493 29.7607 59.087 29.7607L59.0934 29.7585Z" fill="white"/>
<path d="M16.9535 56.0639C14.3134 56.0639 11.6711 56.066 9.0309 56.0639C8.01249 56.0639 7.41129 55.5996 7.39203 54.8229C7.37064 54.0228 8.00821 53.5071 9.04588 53.505C14.3283 53.5029 19.6108 53.5029 24.8911 53.505C25.9031 53.505 26.4958 53.9693 26.5214 54.7566C26.5471 55.5739 25.9416 56.0553 24.8761 56.066C24.7157 56.066 24.5552 56.066 24.3969 56.066C21.9151 56.066 19.4354 56.066 16.9535 56.066V56.0639Z" fill="white"/>
<path d="M11.716 61.4832C10.7553 61.4832 9.7947 61.4982 8.8362 61.479C7.98039 61.4618 7.3963 60.9227 7.39417 60.1931C7.39417 59.4528 7.96114 58.9329 8.84048 58.9287C10.7874 58.9158 12.7344 58.9137 14.6814 58.9287C15.5286 58.9351 16.0528 59.4272 16.0678 60.1567C16.0827 60.9227 15.5436 61.4576 14.6792 61.4768C13.6929 61.4982 12.7044 61.4811 11.7181 61.4832H11.716Z" fill="white"/>
<path d="M50.9504 5.71251C57.968 5.71251 64.9835 5.71251 72.0011 5.71251C72.3199 5.71251 72.6451 5.69753 72.9596 5.74674C73.5929 5.84302 73.9523 6.24097 73.9994 6.8764C74.0465 7.5097 73.7555 7.97184 73.15 8.16439C72.8526 8.25853 72.5188 8.26709 72.2022 8.26709C58.0365 8.27137 43.8686 8.27137 29.7029 8.26709C29.3862 8.26709 29.0525 8.25639 28.7551 8.16011C28.1539 7.96542 27.8394 7.50542 27.8886 6.8764C27.9399 6.2538 28.3036 5.84088 28.9412 5.7446C29.2557 5.69753 29.5788 5.70823 29.8997 5.70823C36.9173 5.70823 43.9328 5.70823 50.9504 5.70823V5.71251Z" fill="white"/>
<path d="M18.4533 5.75529C19.1273 5.75529 19.6793 6.30087 19.6857 6.96626C19.69 7.63165 19.1487 8.18578 18.4768 8.19862C17.7665 8.2136 17.1889 7.64662 17.2038 6.94914C17.2188 6.28803 17.7794 5.75315 18.4555 5.75529H18.4533Z" fill="white"/>
<path d="M14.2599 6.99193C14.2513 7.6723 13.7207 8.19862 13.0425 8.20076C12.3257 8.20076 11.7887 7.64449 11.8144 6.92561C11.8379 6.25166 12.3878 5.74032 13.0703 5.7553C13.7464 5.77027 14.2706 6.31371 14.262 6.99193H14.2599Z" fill="white"/>
<path d="M7.66373 8.19649C6.98123 8.2136 6.43993 7.71081 6.40784 7.03259C6.37574 6.32655 6.92346 5.75316 7.6295 5.75316C8.30986 5.75316 8.83191 6.2752 8.83832 6.95984C8.84474 7.65091 8.34196 8.17937 7.66159 8.19649H7.66373Z" fill="white"/>
<path d="M28.3892 40.8134C29.1616 40.8134 29.9361 40.7963 30.7063 40.8177C31.5001 40.8412 32.005 41.314 32.035 42.0136C32.0649 42.7496 31.5578 43.3359 30.7512 43.353C29.153 43.3894 27.5527 43.3872 25.9545 43.3573C25.1265 43.3401 24.6237 42.7989 24.628 42.0586C24.6322 41.3162 25.1393 40.854 25.9887 40.8112C26.0422 40.8091 26.0957 40.8091 26.1492 40.8091C26.8958 40.8091 27.6404 40.8091 28.3871 40.8091V40.8134H28.3892Z" fill="white"/>
</svg>
