<?xml version="1.0" encoding="utf-8"?>
<!-- Generator: Adobe Illustrator 23.0.5, SVG Export Plug-In . SVG Version: 6.00 Build 0)  -->
<svg version="1.1" id="Layer_1" xmlns="http://www.w3.org/2000/svg" xmlns:xlink="http://www.w3.org/1999/xlink" x="0px" y="0px"
	 viewBox="0 0 300 300" style="enable-background:new 0 0 300 300;" xml:space="preserve">
<style type="text/css">
	.st0{display:none;}
	.st1{display:inline;}
	.st2{fill:#66FCF1;}
</style>
<g class="st0">
	<rect x="-2.5" y="-2.5" class="st1" width="308" height="308"/>
	<path class="st1" d="M305-2v307H-2V-2H305 M306-3H-3v309h309V-3L306-3z"/>
</g>
<path class="st2" d="M6.95,17.65c1.77-5.14,4.78-9.06,10.39-10.29c1.26-0.28,2.59-0.34,3.89-0.34C107.35,7,193.47,7,279.6,7
	c8.87,0,14.36,5.47,14.36,14.31c0.01,69.97,0,139.92,0,209.89c0,7.61-4.64,13.21-11.84,14.38c-3.18,0.52-5.62-0.85-6.11-3.43
	c-0.53-2.84,1.06-4.74,4.55-5.4c3.14-0.6,4.43-2.24,4.43-5.76c0.01-15.88,0-31.76,0-47.64c0-41.38-0.04-82.76,0.07-124.14
	c0.01-2.94-0.85-3.44-3.56-3.44c-87.43,0.07-174.86,0.07-262.3,0c-2.71,0-3.36,0.66-3.35,3.36c0.08,57.07,0.07,114.15,0.07,171.22
	c0,5.47,0.99,6.44,6.57,6.44c36.43,0,72.86,0,109.29,0c0.84,0,1.68-0.02,2.52,0c2.92,0.09,4.81,1.72,4.92,4.26
	c0.12,2.62-1.81,4.51-4.84,4.68c-0.84,0.04-1.68,0.02-2.52,0.02c-36.15,0-72.3-0.13-108.45,0.1c-8.24,0.05-13.88-2.66-16.47-10.7
	L6.95,17.65L6.95,17.65z M150.17,46.86c43.9,0,87.8-0.02,131.7,0.06c2.61,0,3.24-0.72,3.18-3.24c-0.17-7.28-0.05-14.57-0.06-21.85
	c0-4.54-1.31-5.87-5.78-5.87c-15.41,0-30.82,0-46.23,0c-70.24,0-140.48,0-210.72,0c-5.25,0-6.33,1.1-6.33,6.43
	c0,7.1,0.11,14.2-0.06,21.3c-0.06,2.52,0.57,3.24,3.18,3.24C62.75,46.84,106.47,46.87,150.17,46.86L150.17,46.86z"/>
<path class="st2" d="M204.82,294c-9.32-2.43-15.72-8.63-21.48-16c-8.74-11.17-17.89-22.02-26.88-33c-2.7-3.29-4.83-6.81-5.62-11.09
	c-2.19-11.79,8.1-20.84,19.48-17.07c2.77,0.92,5.25,2.4,7.46,4.33c4.55,3.97,9.11,7.91,13.76,11.94c0.7-1.17,0.4-2.2,0.4-3.18
	c0.02-27.08,0.02-54.16,0-81.24c0-3.21,0.28-6.35,1.56-9.32c2.46-5.69,6.69-9.18,12.97-9.62c6.63-0.46,11.49,2.61,14.7,8.3
	c1.74,3.08,2.23,6.48,2.22,9.99c-0.03,13.35,0.04,26.7-0.06,40.06c-0.02,2.18,0.58,2.98,2.79,3.47c8.63,1.94,17.22,4.13,25.59,7.07
	c10.16,3.56,16.02,11.64,16.02,22.44c0,17.65-0.25,35.3,0.1,52.94c0.19,9.63-3,16.78-13.67,19.95h-49.33L204.82,294z M200.91,194.74
	c0,15.6-0.02,31.21,0.02,46.8c0,2.46-0.17,4.74-2.75,5.89c-2.61,1.17-4.42-0.37-6.22-1.96c-6.1-5.38-12.21-10.72-18.32-16.08
	c-1.83-1.6-3.76-3.09-6.06-3.98c-2.13-0.82-4.22-0.88-6.05,0.7c-1.88,1.62-2.44,3.73-1.95,6.09c0.46,2.22,1.48,4.22,2.92,5.98
	c10.86,13.32,21.63,26.71,32.63,39.91c3.85,4.63,8.89,7.08,15.22,6.98c13.08-0.2,26.16-0.06,39.24-0.06c6.55,0,9.12-2.57,9.13-9.14
	c0-18.22,0-36.43,0-54.65c0-7.35-3.24-11.7-10.27-14.19c-8.46-3-17.19-5.02-25.88-7.15c-6.04-1.48-8.14-4.02-8.15-10.18
	c-0.01-13.73-0.02-27.47,0-41.2c0-2.27-0.14-4.5-1.33-6.5c-1.28-2.16-3.13-3.41-5.74-3.33c-2.64,0.08-4.32,1.51-5.4,3.8
	c-0.9,1.9-1.06,3.94-1.05,6.01C200.92,163.9,200.9,179.32,200.91,194.74L200.91,194.74z"/>
<path class="st2" d="M86.83,77c13.82,0,27.65-0.01,41.47,0c7.95,0.01,12.12,4.16,12.12,12.06c0.01,26.62,0.01,53.24,0,79.87
	c0,7.92-4.17,12.13-12.08,12.14c-27.75,0.02-55.48,0.02-83.23,0c-8.16,0-12.33-4.27-12.33-12.52c0-26.34,0-52.68,0-79.03
	c0-8.37,4.16-12.52,12.57-12.53C59.18,76.98,73,76.99,86.83,77L86.83,77z M86.66,172.12c13.73,0,27.46,0.01,41.19,0
	c3.44,0,3.62-0.2,3.62-3.68c0-26.34-0.03-52.67,0.05-79.01c0.01-2.73-0.91-3.56-3.56-3.5c-6.35,0.15-12.71,0.18-19.05-0.01
	c-2.61-0.08-3.49,0.48-3.42,3.3c0.2,8.96,0.09,17.93,0.06,26.9c-0.01,2.96-1.24,5.29-4,6.52c-2.71,1.21-5.29,0.78-7.55-1.21
	c-1.06-0.92-2.1-1.85-3.15-2.79c-2.67-2.41-5.31-2.45-7.95-0.13c-1.12,0.99-2.25,1.96-3.38,2.94c-2.33,2.01-4.93,2.61-7.78,1.29
	c-2.76-1.27-3.95-3.59-3.95-6.55c-0.01-9.25-0.06-18.5,0.02-27.74c0.01-1.95-0.57-2.55-2.52-2.51c-6.54,0.11-13.08,0.04-19.61,0.05
	c-3.76,0-3.88,0.12-3.88,4.01c0,26.06,0,52.11,0,78.17c0,3.74,0.22,3.96,3.96,3.96c13.64,0.01,27.27,0,40.91,0L86.66,172.12z
	 M96.59,111.41c0-8.22-0.04-15.96,0.03-23.69c0.02-1.63-0.78-1.78-2.07-1.77c-5.23,0.04-10.46,0.08-15.69-0.02
	c-1.79-0.04-2.19,0.65-2.17,2.28c0.07,7.19,0.02,14.38,0.05,21.57c0,0.5-0.21,1.15,0.6,1.44c3.13-1.78,5.05-5.55,9.24-5.77
	C91.06,105.19,92.97,109.15,96.59,111.41L96.59,111.41z"/>
<path class="st2" d="M213.78,111.16c12.61,0,25.22-0.02,37.83,0c8.98,0.01,14.54,5.44,14.63,14.42c0.08,7.19,0.09,14.39,0,21.58
	c-0.11,8.76-5.74,14.35-14.44,14.44c-3.83,0.04-7.66,0.05-11.49-0.01c-3.34-0.05-5.26-1.77-5.27-4.53c0-2.76,1.89-4.37,5.29-4.4
	c3.83-0.04,7.66,0.03,11.49-0.02c3.63-0.05,5.41-1.71,5.45-5.3c0.09-7.29,0.08-14.57,0-21.86c-0.04-3.71-1.68-5.35-5.32-5.36
	c-25.6-0.03-51.19-0.03-76.8,0c-3.53,0-5.18,1.66-5.21,5.14c-0.05,7.38-0.05,14.76,0,22.14c0.02,3.42,1.74,5.09,5.19,5.24
	c1.03,0.04,2.06-0.02,3.08,0.05c2.35,0.16,3.87,1.42,4.17,3.76c0.32,2.46-0.84,4.15-3.22,4.89c-8.57,2.65-17.93-3.89-18.14-12.85
	c-0.19-8.03-0.14-16.07-0.02-24.1c0.12-7.53,5.9-13.15,13.5-13.19c13.08-0.07,26.16-0.02,39.24-0.02L213.78,111.16z"/>
<path class="st2" d="M66.29,203.23c-9.24,0-18.49,0.01-27.73,0c-3.56,0-5.67-1.63-5.74-4.34c-0.07-2.8,2.16-4.61,5.79-4.61
	c18.49-0.01,36.98-0.01,55.46,0c3.54,0,5.62,1.63,5.71,4.38c0.09,2.86-2.03,4.55-5.76,4.58c-0.56,0-1.12,0-1.68,0
	C83.65,203.24,74.97,203.24,66.29,203.23L66.29,203.23z"/>
<path class="st2" d="M47.95,222.2c-3.36,0-6.72,0.05-10.08-0.01c-3-0.06-5.04-1.95-5.05-4.5c0-2.59,1.98-4.41,5.06-4.43
	c6.81-0.05,13.63-0.05,20.44,0c2.97,0.02,4.8,1.74,4.85,4.3c0.05,2.68-1.83,4.55-4.86,4.62C54.87,222.25,51.41,222.19,47.95,222.2
	L47.95,222.2z"/>
<path class="st2" d="M185.28,26.99c24.56,0,49.12,0,73.68,0c1.12,0,2.25-0.05,3.35,0.12c2.22,0.34,3.47,1.73,3.64,3.95
	c0.16,2.22-0.85,3.83-2.97,4.51c-1.04,0.33-2.21,0.36-3.32,0.36c-49.58,0.01-99.17,0.01-148.75,0c-1.11,0-2.28-0.04-3.32-0.37
	c-2.1-0.68-3.21-2.29-3.03-4.49c0.18-2.18,1.45-3.62,3.68-3.96c1.1-0.16,2.23-0.13,3.35-0.13c24.56,0,49.12,0,73.68,0V26.99z"/>
<path class="st2" d="M71.53,27.14c2.36,0,4.29,1.91,4.31,4.24c0.02,2.33-1.88,4.27-4.23,4.31c-2.49,0.05-4.51-1.93-4.46-4.37
	C67.21,29.01,69.18,27.14,71.53,27.14L71.53,27.14z"/>
<path class="st2" d="M56.86,31.47c-0.03,2.38-1.89,4.22-4.26,4.23c-2.51,0-4.39-1.95-4.3-4.46c0.08-2.36,2.01-4.15,4.4-4.1
	C55.06,27.2,56.89,29.1,56.86,31.47L56.86,31.47z"/>
<path class="st2" d="M33.77,35.69c-2.39,0.06-4.28-1.7-4.4-4.07c-0.11-2.47,1.8-4.48,4.28-4.48c2.38,0,4.21,1.83,4.23,4.22
	C37.9,33.78,36.14,35.63,33.77,35.69L33.77,35.69z"/>
<path class="st2" d="M106.31,149.85c2.7,0,5.41-0.06,8.11,0.02c2.78,0.08,4.55,1.74,4.65,4.19c0.1,2.58-1.67,4.63-4.49,4.69
	c-5.59,0.13-11.2,0.12-16.79,0.02c-2.9-0.06-4.66-1.95-4.64-4.55c0.01-2.6,1.79-4.22,4.76-4.37c0.19-0.01,0.37-0.01,0.56-0.01
	c2.61,0,5.22,0,7.83,0L106.31,149.85L106.31,149.85z"/>
<g>
</g>
<g>
</g>
<g>
</g>
<g>
</g>
<g>
</g>
<g>
</g>
<g>
</g>
<g>
</g>
<g>
</g>
<g>
</g>
<g>
</g>
<g>
</g>
<g>
</g>
<g>
</g>
<g>
</g>
</svg>
