<svg width="82" height="62" viewBox="0 0 82 62" fill="none" xmlns="http://www.w3.org/2000/svg">
<path d="M0 7.3717C0.13907 6.89244 0.265303 6.40891 0.41935 5.93607C1.57256 2.40583 4.76689 0.0373568 8.50895 0.0159614C13.4727 -0.0139921 18.4386 0.00740325 23.4023 0.00740325C39.9773 0.00740325 56.5523 0.00526371 73.1295 0.00740325C77.4107 0.00740325 80.7826 2.58769 81.7604 6.59077C81.938 7.31821 82 8.06063 82 8.81161C81.9957 23.4396 82.0043 38.0655 81.9936 52.6936C81.9893 57.8178 78.2815 61.4999 73.1316 61.502C51.7512 61.5085 30.3708 61.4764 8.99249 61.5256C4.01592 61.5384 0.614048 57.9846 0.121954 54.3325C0.113396 54.264 0.0427908 54.2019 0 54.1378C0 38.5491 0 22.9604 0 7.3717ZM40.9594 58.1002C51.6357 58.1002 62.312 58.1023 72.9883 58.1002C76.4436 58.1002 78.5939 55.9585 78.596 52.5138C78.6003 37.9949 78.6003 23.476 78.596 8.95496C78.596 5.55951 76.4372 3.41141 73.0289 3.40927C51.6763 3.40499 30.3258 3.40499 8.97323 3.40927C5.56494 3.40927 3.40829 5.55737 3.40829 8.95496C3.40401 23.5017 3.40829 38.0463 3.40615 52.593C3.40615 53.1835 3.45536 53.7676 3.61582 54.3346C4.2748 56.6774 6.26885 58.098 8.93472 58.098C19.611 58.1023 30.2873 58.098 40.9636 58.098L40.9594 58.1002Z" fill="white"/>
<path d="M25.6338 37.6013C23.4451 37.6013 21.2585 37.5927 19.0697 37.6034C15.8048 37.6205 13.6759 39.7558 13.6524 43.0272C13.6438 44.0413 13.6674 45.0554 13.6417 46.0675C13.6139 47.103 12.9014 47.8304 11.9622 47.8347C11.0186 47.839 10.257 47.1051 10.2634 46.0803C10.2762 44.3237 10.0708 42.5522 10.4688 40.8149C11.3674 36.8974 14.7243 34.2144 18.8921 34.1673C23.3745 34.116 27.8568 34.1117 32.3391 34.1673C37.3564 34.2294 40.9743 37.9372 41 42.9373C41.0043 43.9514 41.0128 44.9656 40.9957 45.9797C40.9786 47.0688 40.2768 47.824 39.3076 47.8347C38.3427 47.8454 37.6259 47.0944 37.6045 46.0075C37.5832 44.9677 37.6131 43.9258 37.596 42.886C37.5425 39.7601 35.4072 37.6291 32.2814 37.6034C30.0669 37.5842 27.8525 37.5992 25.6381 37.5992L25.6338 37.6013Z" fill="white"/>
<path d="M17.1035 22.2287C17.0971 17.5132 20.9333 13.6598 25.6295 13.6663C30.3365 13.6727 34.162 17.5217 34.1449 22.2394C34.1299 26.9314 30.3365 30.7355 25.6595 30.7526C20.9461 30.7697 17.1099 26.9485 17.1035 22.2287ZM25.6188 17.1066C22.7733 17.1088 20.4904 19.3981 20.5011 22.2373C20.5118 25.0208 22.7989 27.3165 25.5889 27.3443C28.3917 27.3722 30.7409 25.0422 30.7473 22.2266C30.7537 19.3917 28.4644 17.1045 25.6188 17.1066Z" fill="white"/>
<path d="M59.7295 44.4093C63.0629 44.4093 66.3963 44.4114 69.7297 44.4093C70.5 44.4093 71.159 44.6211 71.5419 45.3443C71.8393 45.9048 71.8137 46.4739 71.482 47.0195C71.0498 47.7234 70.3673 47.8582 69.6121 47.8561C66.0134 47.8518 62.4125 47.8561 58.8138 47.8561C55.827 47.8561 52.8402 47.8625 49.8534 47.8518C48.713 47.8475 47.992 47.2998 47.8722 46.3948C47.7182 45.2394 48.4927 44.4264 49.8106 44.4178C52.2647 44.4007 54.7166 44.4136 57.1706 44.4136C58.0243 44.4136 58.878 44.4136 59.7295 44.4136V44.4093Z" fill="white"/>
<path d="M59.7745 17.1024C63.1335 17.1024 66.4926 17.0917 69.8517 17.1088C71.3258 17.1153 72.1817 18.3947 71.5377 19.5843C71.1697 20.2647 70.562 20.5107 69.8046 20.5086C66.8713 20.4979 63.9402 20.5043 61.0068 20.5043C57.2733 20.5043 53.542 20.5064 49.8085 20.5043C48.7644 20.5043 48.0519 19.9994 47.885 19.1735C47.6518 18.0246 48.4221 17.1174 49.693 17.111C53.052 17.0939 56.4111 17.1046 59.7702 17.1046L59.7745 17.1024Z" fill="white"/>
<path d="M59.7317 34.1565C56.4517 34.1565 53.174 34.1522 49.8941 34.1608C49.2886 34.1608 48.7216 34.0945 48.2894 33.6109C47.8401 33.106 47.7395 32.5112 47.9471 31.8929C48.1589 31.2639 48.6403 30.8959 49.295 30.7803C49.5025 30.7439 49.7208 30.7546 49.9326 30.7546C56.4903 30.7546 63.0501 30.7546 69.6078 30.7546C69.6869 30.7546 69.7682 30.7546 69.8474 30.7546C70.9792 30.7803 71.7516 31.4842 71.7409 32.4813C71.7281 33.4612 70.9985 34.1415 69.8881 34.1501C67.7827 34.1672 65.6753 34.1565 63.57 34.1565C62.2906 34.1565 61.0111 34.1565 59.7317 34.1565Z" fill="white"/>
</svg>
