<?xml version="1.0" encoding="utf-8"?>
<!-- Generator: Adobe Illustrator 23.0.5, SVG Export Plug-In . SVG Version: 6.00 Build 0)  -->
<svg version="1.1" id="Layer_1" xmlns="http://www.w3.org/2000/svg" xmlns:xlink="http://www.w3.org/1999/xlink" x="0px" y="0px"
	 viewBox="0 0 300 300" style="enable-background:new 0 0 300 300;" xml:space="preserve">
<style type="text/css">
	.st0{display:none;}
	.st1{display:inline;}
	.st2{fill:#66FCF1;}
</style>
<g class="st0">
	<rect x="-2.5" y="-2.5" class="st1" width="308" height="308"/>
	<path class="st1" d="M305-2v307H-2V-2H305 M306-3H-3v309h309V-3L306-3z"/>
</g>
<path class="st2" d="M1.54,68.56c0.5-1.74,0.96-3.49,1.52-5.21c4.18-12.81,15.77-21.4,29.34-21.47c18.01-0.11,36.02-0.03,54.02-0.03
	c60.12,0,120.25-0.01,180.38,0c15.53,0,27.76,9.36,31.31,23.88c0.64,2.64,0.87,5.33,0.87,8.06c-0.02,53.06,0.02,106.12-0.02,159.18
	c-0.02,18.59-13.47,31.94-32.15,31.95c-77.56,0.02-155.11-0.09-232.66,0.09c-18.05,0.05-30.39-12.84-32.18-26.09
	c-0.03-0.25-0.29-0.47-0.44-0.71C1.54,181.65,1.54,125.11,1.54,68.56z M150.12,252.57c38.73,0,77.46,0.01,116.18,0
	c12.53,0,20.33-7.77,20.34-20.26c0.02-52.67,0.02-105.33,0-158.01c0-12.32-7.83-20.11-20.19-20.12c-77.46-0.02-154.9-0.02-232.36,0
	c-12.36,0-20.19,7.79-20.19,20.12c-0.02,52.77,0,105.53-0.01,158.29c0,2.14,0.18,4.26,0.76,6.32c2.39,8.5,9.62,13.65,19.29,13.65
	c38.73,0.02,77.45,0,116.18,0L150.12,252.57z"/>
<path class="st2" d="M94.53,178.22c-7.94,0-15.87-0.03-23.81,0.01c-11.84,0.06-19.57,7.81-19.65,19.67
	c-0.03,3.68,0.05,7.36-0.04,11.03c-0.1,3.76-2.69,6.39-6.09,6.41c-3.42,0.02-6.19-2.65-6.16-6.36c0.05-6.37-0.7-12.8,0.75-19.1
	c3.26-14.21,15.44-23.94,30.55-24.11c16.26-0.19,32.52-0.2,48.78,0c18.2,0.23,31.32,13.68,31.42,31.81
	c0.02,3.68,0.05,7.36-0.02,11.04c-0.06,3.95-2.61,6.69-6.12,6.73c-3.5,0.04-6.1-2.69-6.18-6.63c-0.08-3.77,0.03-7.55-0.03-11.32
	c-0.19-11.34-7.94-19.07-19.28-19.16c-8.03-0.07-16.07-0.02-24.1-0.02L94.53,178.22z"/>
<path class="st2" d="M63.58,122.45c-0.02-17.11,13.89-31.08,30.93-31.06c17.07,0.02,30.95,13.99,30.89,31.1
	c-0.05,17.02-13.81,30.82-30.78,30.88C77.52,153.43,63.61,139.57,63.58,122.45z M94.47,103.87c-10.32,0.01-18.6,8.31-18.56,18.61
	c0.04,10.1,8.34,18.42,18.46,18.53c10.17,0.1,18.69-8.35,18.71-18.56C113.1,112.16,104.79,103.87,94.47,103.87z"/>
<path class="st2" d="M218.21,202.91c12.09,0,24.18,0.01,36.28,0c2.79,0,5.18,0.77,6.57,3.39c1.08,2.03,0.99,4.1-0.22,6.08
	c-1.57,2.55-4.04,3.04-6.78,3.03c-13.05-0.02-26.12,0-39.17,0c-10.83,0-21.67,0.02-32.5-0.02c-4.14-0.02-6.75-2-7.19-5.29
	c-0.56-4.19,2.25-7.14,7.03-7.17c8.9-0.06,17.8-0.02,26.7-0.02c3.1,0,6.19,0,9.28,0V202.91z"/>
<path class="st2" d="M218.37,103.86c12.18,0,24.37-0.04,36.55,0.02c5.35,0.02,8.45,4.66,6.12,8.98c-1.33,2.47-3.54,3.36-6.29,3.35
	c-10.64-0.04-21.27-0.02-31.91-0.02c-13.54,0-27.08,0.01-40.62,0c-3.79,0-6.37-1.83-6.98-4.83c-0.85-4.17,1.95-7.46,6.56-7.48
	c12.18-0.06,24.37-0.02,36.55-0.02L218.37,103.86z"/>
<path class="st2" d="M218.21,165.72c-11.9,0-23.79-0.02-35.69,0.02c-2.2,0-4.25-0.24-5.82-1.99c-1.63-1.83-1.99-3.99-1.24-6.23
	c0.77-2.28,2.51-3.62,4.89-4.04c0.75-0.13,1.54-0.09,2.31-0.09c23.79,0,47.58,0,71.37,0c0.29,0,0.58,0,0.87,0
	c4.11,0.09,6.91,2.65,6.87,6.26c-0.05,3.55-2.69,6.02-6.72,6.05c-7.64,0.06-15.28,0.02-22.92,0.02
	C227.5,165.72,222.86,165.72,218.21,165.72z"/>
<g>
</g>
<g>
</g>
<g>
</g>
<g>
</g>
<g>
</g>
<g>
</g>
<g>
</g>
<g>
</g>
<g>
</g>
<g>
</g>
<g>
</g>
<g>
</g>
<g>
</g>
<g>
</g>
<g>
</g>
</svg>
