<svg width="57" height="57" viewBox="0 0 57 57" fill="none" xmlns="http://www.w3.org/2000/svg">
<path d="M56.991 16.815C56.7516 16.8024 56.5121 16.779 56.2727 16.7772C51.1364 16.7754 45.9982 16.7682 40.8619 16.7862C40.3506 16.788 40.212 16.6494 40.2138 16.1381C40.2318 11.0018 40.2264 5.86365 40.2228 0.72733C40.2228 0.487887 40.1994 0.248444 40.185 0.00900161C45.649 0.00900161 51.1112 0.0126023 56.5751 0C56.9226 0 57.0018 0.0792142 57 0.424876C56.9874 5.88705 56.991 11.351 56.991 16.8132V16.815ZM53.6442 8.45971C53.6442 6.90424 53.6352 5.34696 53.6514 3.79148C53.655 3.45302 53.5596 3.3486 53.2139 3.3504C50.157 3.363 47.1 3.3648 44.0431 3.3504C43.6632 3.3486 43.5786 3.48182 43.5804 3.83109C43.5912 6.87003 43.5912 9.90897 43.5804 12.9461C43.5804 13.3062 43.6866 13.4232 44.0521 13.4232C47.091 13.4106 50.13 13.4088 53.1671 13.4232C53.574 13.425 53.6568 13.2774 53.6514 12.9065C53.6334 11.4248 53.6442 9.94138 53.6442 8.45971Z" fill="white"/>
<path d="M0.00900161 40.1851C0.248444 40.1977 0.487887 40.2211 0.72733 40.2229C5.86365 40.2247 11.0018 40.2319 16.1381 40.2139C16.6494 40.2121 16.788 40.3507 16.7862 40.862C16.7682 45.9983 16.7736 51.1364 16.7772 56.2727C16.7772 56.5122 16.8006 56.7516 16.815 56.9911C11.3438 56.9911 5.87085 56.9875 0.399672 57.0001C0.0684122 57.0001 0 56.9335 0 56.6004C0.0126023 51.1292 0.00900161 45.6562 0.00900161 40.1851ZM8.3733 53.6443C9.87477 53.6443 11.3744 53.6317 12.8759 53.6533C13.2684 53.6587 13.4268 53.5813 13.4232 53.142C13.4034 50.1228 13.407 47.1019 13.4214 44.0828C13.4214 43.6939 13.3062 43.5787 12.9191 43.5805C9.89997 43.5949 6.87903 43.5931 3.85989 43.5805C3.48902 43.5805 3.3468 43.6651 3.3486 44.0702C3.3648 47.1091 3.363 50.148 3.3486 53.1852C3.3486 53.5489 3.45122 53.6569 3.81668 53.6533C5.33615 53.6353 6.85563 53.6461 8.3751 53.6461L8.3733 53.6443Z" fill="white"/>
<path d="M40.1868 56.9911C40.1994 56.7516 40.2228 56.5122 40.2246 56.2727C40.2264 51.1364 40.2336 45.9983 40.2156 40.862C40.2138 40.3507 40.3524 40.2121 40.8637 40.2139C46 40.2319 51.1382 40.2265 56.2745 40.2229C56.5139 40.2229 56.7534 40.1995 56.9928 40.1851C56.9928 45.6562 56.9892 51.1292 57.0018 56.6004C57.0018 56.9317 56.9352 57.0001 56.6021 57.0001C51.131 56.9875 45.658 56.9911 40.1868 56.9911ZM53.646 48.625C53.646 47.1235 53.6334 45.6238 53.655 44.1224C53.6604 43.7263 53.5776 43.5733 53.1419 43.5769C50.1228 43.5949 47.1018 43.5931 44.0827 43.5787C43.692 43.5769 43.5804 43.6993 43.5822 44.0846C43.5966 47.1037 43.5948 50.1246 43.5822 53.1438C43.5822 53.5182 43.6722 53.6551 44.0737 53.6533C47.1126 53.6371 50.1516 53.6389 53.1887 53.6533C53.556 53.6533 53.6586 53.5452 53.6532 53.1834C53.6352 51.6639 53.646 50.1444 53.646 48.625Z" fill="white"/>
<path d="M16.815 0.0090332C16.8024 0.934399 16.7808 1.86156 16.779 2.78693C16.7736 5.01213 16.7646 7.23913 16.788 9.46433C16.7916 9.91261 16.689 10.0692 16.2119 10.0656C13.2252 10.044 10.2402 10.0458 7.25349 10.0656C6.81421 10.0674 6.67738 9.94501 6.69719 9.50573C6.73139 8.72799 6.72419 7.94845 6.69899 7.16891C6.68818 6.80345 6.80521 6.69363 7.17067 6.69723C9.06281 6.71343 10.9549 6.68823 12.8453 6.71523C13.3188 6.72243 13.4304 6.57841 13.425 6.12293C13.3998 4.25059 13.416 2.37646 13.4124 0.502322C13.4124 0.338492 13.3818 0.172863 13.3656 0.0090332C14.516 0.0090332 15.6664 0.0090332 16.815 0.0090332Z" fill="white"/>
<path d="M0.00900269 20.1527C3.23518 20.1455 6.45956 20.1419 9.68574 20.1257C9.98459 20.1257 10.0602 20.2392 10.0602 20.5164C10.053 23.613 10.053 26.7077 10.0602 29.8043C10.0602 30.1031 9.95218 30.1823 9.67133 30.1769C8.83778 30.1625 8.00243 30.1481 7.16888 30.1823C6.74401 30.1985 6.6954 30.0167 6.6972 29.6602C6.7116 27.7879 6.6864 25.9156 6.7152 24.0432C6.7224 23.5697 6.58018 23.4635 6.1265 23.4689C4.08853 23.4977 2.04877 23.4869 0.00900269 23.4905V20.1509V20.1527Z" fill="white"/>
<path d="M10.026 0.00900161C10.035 1.00818 10.0332 2.00916 10.062 3.00654C10.0728 3.39001 9.84416 3.3558 9.59572 3.3558C7.70538 3.354 5.81684 3.3702 3.9265 3.3432C3.46382 3.336 3.3378 3.46202 3.345 3.9247C3.372 5.79524 3.345 7.66757 3.3666 9.53811C3.372 9.95398 3.26038 10.08 2.84271 10.0638C1.89934 10.0242 0.955971 10.035 0.0108019 10.0242C0.00900161 6.80702 0.0144026 3.58804 0 0.369066C0 0.0612109 0.0612109 0 0.370866 0C3.58984 0.0144026 6.80882 0.00900161 10.026 0.00900161Z" fill="white"/>
<path d="M56.991 23.4925C54.8954 23.4889 52.8017 23.4925 50.7061 23.4727C50.3334 23.4691 50.2884 23.6221 50.2902 23.9336C50.301 25.8239 50.2794 27.7161 50.3064 29.6064C50.3136 30.0745 50.1768 30.2059 49.7195 30.1843C48.9238 30.1483 48.1262 30.1645 47.3287 30.1789C47.046 30.1843 46.938 30.1051 46.9398 29.8062C46.9488 26.7097 46.947 23.6149 46.9398 20.5184C46.9398 20.2393 47.0136 20.1259 47.3143 20.1277C50.5405 20.1439 53.7648 20.1475 56.991 20.1547V23.4943V23.4925Z" fill="white"/>
<path d="M0.00900247 26.8302C0.952371 26.8302 1.89754 26.8482 2.83911 26.8176C3.25138 26.8032 3.3702 26.913 3.3648 27.3361C3.3414 29.2229 3.3648 31.1114 3.345 32.9981C3.3414 33.4014 3.42961 33.5508 3.85989 33.531C4.65383 33.495 5.45138 33.531 6.24712 33.5148C6.55857 33.5076 6.7206 33.5616 6.7098 33.9307C6.6846 34.7804 6.6936 35.6338 6.7062 36.4836C6.7098 36.7626 6.63599 36.876 6.33353 36.8742C4.22536 36.8562 2.11538 36.8544 0.00720215 36.8472V26.8302H0.00900247Z" fill="white"/>
<path d="M56.991 36.8472C54.8828 36.8544 52.7729 36.858 50.6647 36.8742C50.364 36.876 50.2884 36.7626 50.292 36.4835C50.3046 35.632 50.3136 34.7804 50.2884 33.9307C50.2776 33.5616 50.4396 33.5076 50.7511 33.5148C51.5648 33.531 52.3804 33.5022 53.1941 33.5292C53.5704 33.5418 53.655 33.405 53.6514 33.0539C53.637 31.1474 53.6586 29.2426 53.6334 27.3361C53.628 26.9148 53.7468 26.805 54.1591 26.8176C55.1025 26.85 56.0458 26.8302 56.9892 26.8302V36.8472H56.991Z" fill="white"/>
<path d="M0.00900247 13.3638C0.228642 13.38 0.448281 13.4106 0.66792 13.4106C3.61145 13.4142 6.55497 13.4196 9.4967 13.4052C9.91798 13.4034 10.0872 13.5006 10.0638 13.9561C10.026 14.714 10.0278 15.4737 10.0638 16.2317C10.0854 16.68 9.92698 16.788 9.4985 16.7844C6.49916 16.7682 3.50163 16.7754 0.502291 16.7772C0.336661 16.7772 0.172832 16.8006 0.00720215 16.815C0.00720215 15.6646 0.00720215 14.5142 0.00720215 13.3656L0.00900247 13.3638Z" fill="white"/>
<path d="M36.8472 0.0090332C36.8544 1.01001 36.8562 2.00919 36.8742 3.01017C36.8796 3.27662 36.7824 3.35943 36.5195 3.35943C33.9613 3.35223 31.4048 3.35043 28.8466 3.36123C28.5225 3.36123 28.4937 3.21361 28.4973 2.95616C28.5063 1.97318 28.5009 0.992009 28.5009 0.0090332C31.2824 0.0090332 34.0657 0.0090332 36.8472 0.0090332Z" fill="white"/>
<path d="M20.1528 56.9911C20.1456 55.9901 20.1438 54.991 20.1258 53.99C20.1204 53.7235 20.2176 53.6407 20.4805 53.6407C23.0387 53.6479 25.5952 53.6497 28.1534 53.6389C28.4775 53.6389 28.5063 53.7865 28.5027 54.044C28.4937 55.027 28.4991 56.0081 28.4991 56.9911H20.1528Z" fill="white"/>
<path d="M31.8387 56.991C31.8405 56.0098 31.8549 55.0286 31.8387 54.0474C31.8333 53.7324 31.9323 53.6352 32.2474 53.6388C33.6534 53.6532 35.0613 53.6532 36.4673 53.6388C36.786 53.6352 36.8814 53.7378 36.8742 54.0492C36.8508 55.0286 36.8526 56.0098 36.8454 56.991H31.8369H31.8387Z" fill="white"/>
<path d="M25.1613 0.0090332C25.1595 0.990209 25.1451 1.97138 25.1613 2.95256C25.1667 3.26762 25.0677 3.36483 24.7526 3.36123C23.3466 3.34683 21.9387 3.34683 20.5327 3.36123C20.214 3.36483 20.1186 3.26222 20.1258 2.95076C20.1492 1.97138 20.1474 0.990209 20.1546 0.0090332H25.1631H25.1613Z" fill="white"/>
<path d="M36.8706 21.7658C36.8706 24.3799 36.858 26.9939 36.8814 29.6098C36.885 30.0815 36.75 30.2075 36.2927 30.1841C35.5708 30.1445 34.8452 30.1427 34.1251 30.1841C33.6426 30.2111 33.504 30.0833 33.5076 29.581C33.531 25.6509 33.5202 21.719 33.5202 17.7889C33.5202 17.1144 33.1787 16.7771 32.4958 16.7771C31.3094 16.7771 30.123 16.7663 28.9366 16.7825C28.6017 16.7879 28.4829 16.6907 28.4937 16.345C28.5171 15.5115 28.5171 14.6761 28.4937 13.8426C28.4829 13.4897 28.6107 13.4069 28.9402 13.4087C31.4246 13.4195 33.9091 13.4231 36.3935 13.4051C36.8022 13.4015 36.8796 13.5545 36.8778 13.9236C36.8652 16.5377 36.8706 19.1517 36.8706 21.7676V21.7658Z" fill="white"/>
<path d="M24.3061 43.5875C23.1197 43.5875 21.9315 43.5659 20.7451 43.5983C20.2716 43.6109 20.1078 43.5011 20.1186 42.9916C20.151 41.1373 20.1186 39.2829 20.1402 37.4286C20.1456 37.0037 20.0448 36.8381 19.5893 36.8615C18.8116 36.8993 18.032 36.8579 17.2525 36.8777C16.905 36.8867 16.7574 36.8003 16.77 36.4204C16.7952 35.6049 16.788 34.7875 16.7736 33.972C16.7682 33.6515 16.8438 33.5111 17.2039 33.5147C19.1518 33.5309 21.098 33.5327 23.0459 33.5147C23.4474 33.5111 23.4906 33.6821 23.4888 34.0116C23.478 35.9037 23.4978 37.7959 23.4726 39.6862C23.4672 40.1327 23.604 40.2443 24.0325 40.2371C25.3665 40.2119 26.7024 40.2371 28.0382 40.2209C28.3911 40.2173 28.5261 40.3073 28.5117 40.6872C28.4829 41.5027 28.4811 42.3201 28.5117 43.1338C28.5261 43.5191 28.3821 43.6001 28.0364 43.5965C26.7942 43.5803 25.552 43.5911 24.3079 43.5911L24.3061 43.5875Z" fill="white"/>
<path d="M20.9305 30.1733C18.6135 30.1733 16.2965 30.1589 13.9795 30.1841C13.506 30.1895 13.3962 30.0473 13.4016 29.5936C13.4268 27.7213 13.4214 25.8489 13.4052 23.9766C13.4016 23.5985 13.4988 23.4563 13.8985 23.4707C14.7122 23.4995 15.5296 23.4941 16.3451 23.4707C16.6944 23.4617 16.7898 23.5877 16.7826 23.919C16.7628 24.7147 16.8006 25.5141 16.7682 26.3098C16.7502 26.7293 16.8816 26.8373 17.2975 26.8355C20.8369 26.8193 24.3781 26.8391 27.9176 26.8121C28.4307 26.8085 28.5369 26.9633 28.5117 27.4314C28.4739 28.1714 28.4775 28.9149 28.5117 29.6548C28.5297 30.0653 28.4199 30.1859 27.995 30.1805C25.642 30.1589 23.2872 30.1697 20.9323 30.1697L20.9305 30.1733Z" fill="white"/>
<path d="M20.1312 11.7274C20.1312 10.2061 20.142 8.68484 20.124 7.16537C20.1186 6.79451 20.2374 6.69549 20.5975 6.69729C23.0819 6.70989 25.5682 6.70989 28.0526 6.69729C28.3713 6.69729 28.5189 6.7531 28.5081 7.12037C28.4811 7.95391 28.4847 8.78926 28.5081 9.62461C28.5171 9.96847 28.4073 10.0657 28.0688 10.0621C26.733 10.0459 25.3971 10.0747 24.0631 10.0441C23.6076 10.0333 23.4636 10.1521 23.4708 10.622C23.4978 12.4943 23.4708 14.3685 23.4906 16.2408C23.4942 16.6459 23.4024 16.8007 22.9703 16.7827C22.2106 16.7503 21.449 16.7521 20.6893 16.7827C20.2644 16.7989 20.1114 16.6891 20.1204 16.2336C20.1492 14.7321 20.1312 13.2289 20.1312 11.7274Z" fill="white"/>
<path d="M36.8706 45.2871C36.8706 46.7885 36.8598 48.2918 36.8778 49.7933C36.8814 50.1677 36.7914 50.3064 36.3881 50.3028C33.9037 50.2848 31.4174 50.2884 28.933 50.3028C28.5891 50.3046 28.4847 50.2037 28.4937 49.8635C28.5153 49.0299 28.5189 48.1946 28.4937 47.3592C28.4811 46.9902 28.6341 46.9362 28.9492 46.938C30.303 46.9506 31.6569 46.9254 33.0107 46.9542C33.441 46.9632 33.5346 46.8209 33.531 46.4159C33.5112 44.5237 33.5364 42.6316 33.5112 40.7413C33.5058 40.3128 33.6408 40.2012 34.0477 40.2156C34.8254 40.2444 35.6068 40.2444 36.3845 40.2156C36.7824 40.2012 36.8832 40.3452 36.8796 40.725C36.8616 42.2463 36.8724 43.7676 36.8724 45.2871H36.8706Z" fill="white"/>
<path d="M24.2791 23.4798C23.0585 23.4798 21.8361 23.4636 20.6155 23.4888C20.2176 23.496 20.1114 23.3646 20.124 22.9848C20.1492 22.171 20.142 21.3555 20.1258 20.5417C20.1204 20.2357 20.2068 20.1222 20.5291 20.124C23.0639 20.1348 25.5988 20.1348 28.1354 20.124C28.4343 20.124 28.5117 20.2285 28.5063 20.5111C28.4919 21.3627 28.4829 22.2142 28.5099 23.064C28.5207 23.4312 28.3713 23.487 28.0544 23.4834C26.796 23.469 25.5376 23.478 24.2791 23.478V23.4798Z" fill="white"/>
<path d="M32.7334 33.5201C33.9541 33.5201 35.1765 33.5309 36.3971 33.5129C36.7464 33.5075 36.8904 33.5921 36.8778 33.9702C36.8508 34.8019 36.858 35.6355 36.876 36.4672C36.8832 36.7877 36.768 36.8741 36.4601 36.8723C33.9433 36.8633 31.4264 36.8633 28.9096 36.8723C28.6071 36.8723 28.4847 36.8003 28.4937 36.4726C28.5135 35.6211 28.5135 34.7695 28.4937 33.9198C28.4865 33.6047 28.5873 33.5075 28.9024 33.5111C30.1788 33.5255 31.4552 33.5183 32.7334 33.5165V33.5201Z" fill="white"/>
<path d="M16.7754 16.725C16.7754 17.69 16.7628 18.6532 16.7826 19.6182C16.7898 19.9836 16.7124 20.1547 16.2965 20.1403C15.481 20.1096 14.6636 20.1168 13.8499 20.1385C13.5006 20.1475 13.407 20.0178 13.4088 19.6884C13.4196 17.7404 13.4178 15.7943 13.4088 13.8463C13.4088 13.5529 13.4718 13.4034 13.8067 13.4106C14.66 13.4287 15.5134 13.4269 16.3649 13.4106C16.6818 13.4052 16.7826 13.5241 16.779 13.8337C16.7646 14.7987 16.7736 15.7619 16.7736 16.7268L16.7754 16.725Z" fill="white"/>
<path d="M43.5804 36.8687C42.6154 36.8687 41.6505 36.8525 40.6873 36.8777C40.311 36.8867 40.2102 36.7553 40.2192 36.4006C40.239 35.5851 40.2318 34.7677 40.2228 33.9522C40.2192 33.6677 40.2714 33.5111 40.6153 33.5147C42.5992 33.5273 44.585 33.5255 46.5689 33.5147C46.8642 33.5147 46.9542 33.6209 46.9506 33.9054C46.938 34.7587 46.9344 35.6121 46.9506 36.4654C46.9578 36.7877 46.8372 36.8795 46.5293 36.8759C45.5464 36.8615 44.5634 36.8705 43.5804 36.8705V36.8687Z" fill="white"/>
<path d="M34.3429 6.70435C35.0469 6.70435 35.7508 6.71695 36.4529 6.69895C36.759 6.69175 36.8814 6.78176 36.8742 7.10402C36.8562 7.95557 36.8562 8.80713 36.8742 9.65868C36.8814 9.98634 36.7536 10.0637 36.4529 10.0601C35.0649 10.0475 33.675 10.0475 32.287 10.0601C31.9611 10.0637 31.8279 9.98274 31.8369 9.62807C31.8603 8.79632 31.8603 7.96097 31.8369 7.12922C31.8261 6.77456 31.9557 6.68635 32.287 6.69715C32.9711 6.71875 33.657 6.70255 34.3429 6.70435Z" fill="white"/>
<path d="M22.6463 46.9451C23.3322 46.9451 24.0163 46.9559 24.7022 46.9397C25.0155 46.9325 25.1721 46.9938 25.1613 47.361C25.1361 48.2126 25.1451 49.0641 25.1577 49.9157C25.1631 50.2019 25.0695 50.3027 24.776 50.3009C23.3502 50.2901 21.9243 50.2883 20.4985 50.3009C20.196 50.3027 20.1204 50.1821 20.124 49.9067C20.1348 49.0551 20.1402 48.2036 20.1222 47.352C20.115 47.0388 20.2194 46.9307 20.5327 46.9397C21.2366 46.9578 21.9405 46.9451 22.6427 46.9451H22.6463Z" fill="white"/>
<path d="M41.9043 30.1337C41.3696 30.1337 40.6549 30.3426 40.347 30.0797C39.9852 29.7701 40.2534 29.0355 40.2282 28.4864C40.2084 28.0435 40.2318 27.5971 40.2228 27.1524C40.2174 26.9184 40.3038 26.8229 40.5451 26.8247C41.4524 26.8337 42.3598 26.8337 43.2671 26.8247C43.5138 26.8229 43.5876 26.9256 43.5876 27.1542C43.5822 28.0436 43.5804 28.9329 43.5876 29.8205C43.5894 30.0779 43.5084 30.1877 43.2365 30.1769C42.7919 30.1589 42.3472 30.1715 41.9025 30.1715C41.9025 30.1589 41.9025 30.1463 41.9025 30.1319L41.9043 30.1337Z" fill="white"/>
<path d="M40.2246 21.7227C40.2876 21.2708 39.9779 20.5614 40.347 20.2194C40.6819 19.9097 41.3732 20.1348 41.9079 20.1366C42.4408 20.1366 43.1393 19.9079 43.4652 20.223C43.8198 20.5668 43.557 21.2744 43.5822 21.8235C43.602 22.2483 43.575 22.675 43.5894 23.0999C43.5984 23.3807 43.5012 23.4924 43.2077 23.487C42.3382 23.4726 41.4686 23.4708 40.6009 23.487C40.302 23.4924 40.2138 23.3717 40.2228 23.0945C40.2372 22.6696 40.2264 22.2447 40.2264 21.7245L40.2246 21.7227Z" fill="white"/>
<path d="M11.7183 36.8688C11.2934 36.8688 10.8686 36.858 10.4437 36.8724C10.1628 36.8832 10.0476 36.7878 10.053 36.4943C10.0674 35.6266 10.0674 34.757 10.053 33.8893C10.0476 33.5904 10.1718 33.5112 10.4491 33.5166C11.3168 33.5292 12.1864 33.5274 13.0541 33.5166C13.3152 33.513 13.4178 33.6066 13.416 33.8695C13.407 34.757 13.407 35.6428 13.416 36.5304C13.4196 36.8022 13.299 36.8796 13.0487 36.8724C12.6059 36.8598 12.1612 36.8688 11.7183 36.8688Z" fill="white"/>
<path d="M48.6141 10.0549C48.1892 10.0549 47.7643 10.0441 47.3395 10.0585C47.0694 10.0675 46.9344 9.99905 46.9398 9.69299C46.956 8.82524 46.9524 7.95568 46.9398 7.08793C46.9362 6.80708 47.028 6.69546 47.3215 6.69906C48.1892 6.71346 49.0588 6.70986 49.9265 6.70086C50.1732 6.69906 50.301 6.76207 50.2974 7.03932C50.2866 7.92688 50.2866 8.81264 50.2974 9.7002C50.301 9.96304 50.2056 10.0639 49.9427 10.0567C49.4998 10.0441 49.0552 10.0531 48.6123 10.0531L48.6141 10.0549Z" fill="white"/>
<path d="M8.3589 50.2957C7.91602 50.2957 7.47134 50.2885 7.02846 50.2993C6.79262 50.3047 6.699 50.2111 6.7008 49.9735C6.708 49.0679 6.7062 48.1623 6.7008 47.2568C6.7008 47.0551 6.76741 46.9453 6.98525 46.9471C7.90882 46.9507 8.83418 46.9525 9.75775 46.9453C10.0188 46.9435 10.0566 47.0858 10.0548 47.2964C10.0512 48.1839 10.0458 49.0697 10.0548 49.9573C10.0584 50.2291 9.93958 50.3083 9.68754 50.3011C9.24466 50.2885 8.79998 50.2975 8.3571 50.2975L8.3589 50.2957Z" fill="white"/>
<path d="M48.6159 46.9903C49.1488 46.9903 49.8581 46.7815 50.1714 47.0443C50.5368 47.3522 50.265 48.0849 50.292 48.6322C50.3136 49.0571 50.2848 49.4819 50.2992 49.9068C50.3082 50.1823 50.2272 50.3065 49.9265 50.3011C49.0588 50.2867 48.1892 50.2867 47.3215 50.3011C47.0262 50.3065 46.938 50.1913 46.9416 49.9122C46.9524 49.0445 46.956 48.1749 46.9416 47.3071C46.9362 46.9993 47.0748 46.9345 47.3431 46.9435C47.7679 46.9579 48.1928 46.9471 48.6177 46.9471C48.6177 46.9615 48.6177 46.9759 48.6177 46.9921L48.6159 46.9903Z" fill="white"/>
</svg>
