<?xml version="1.0" encoding="utf-8"?>
<!-- Generator: Adobe Illustrator 23.0.5, SVG Export Plug-In . SVG Version: 6.00 Build 0)  -->
<svg version="1.1" id="Layer_1" xmlns="http://www.w3.org/2000/svg" xmlns:xlink="http://www.w3.org/1999/xlink" x="0px" y="0px"
	 viewBox="0 0 300 300" style="enable-background:new 0 0 300 300;" xml:space="preserve">
<style type="text/css">
	.st0{display:none;}
	.st1{display:inline;}
	.st2{fill:#66FCF1;}
</style>
<g class="st0">
	<rect x="-2.5" y="-2.5" class="st1" width="308" height="308"/>
	<path class="st1" d="M305-2v307H-2V-2H305 M306-3H-3v309h309V-3L306-3z"/>
</g>
<path class="st2" d="M294.81,90.65c-1.22-0.06-2.44-0.18-3.65-0.19c-26.12-0.01-52.25-0.05-78.37,0.05c-2.6,0.01-3.3-0.7-3.3-3.3
	c0.09-26.12,0.06-52.25,0.05-78.37c0-1.22-0.12-2.44-0.19-3.65c27.79,0,55.56,0.02,83.35-0.05c1.77,0,2.17,0.4,2.16,2.16
	C294.79,35.08,294.81,62.86,294.81,90.65L294.81,90.65z M277.79,48.16c0-7.91-0.05-15.83,0.04-23.74c0.02-1.72-0.47-2.25-2.22-2.24
	c-15.54,0.06-31.09,0.07-46.64,0c-1.93-0.01-2.36,0.67-2.35,2.44c0.05,15.45,0.05,30.91,0,46.35c0,1.83,0.54,2.43,2.4,2.43
	c15.45-0.06,30.91-0.07,46.35,0c2.07,0.01,2.49-0.74,2.46-2.63C277.74,63.24,277.79,55.7,277.79,48.16z"/>
<path class="st2" d="M5.05,209.49c1.22,0.06,2.44,0.18,3.65,0.19c26.12,0.01,52.25,0.05,78.37-0.05c2.6-0.01,3.3,0.7,3.3,3.3
	c-0.09,26.12-0.06,52.25-0.05,78.37c0,1.22,0.12,2.44,0.19,3.65c-27.82,0-55.65-0.02-83.48,0.05C5.35,295,5,294.66,5,292.97
	C5.06,265.15,5.05,237.31,5.05,209.49z M47.58,277.94c7.64,0,15.26-0.06,22.9,0.05c2,0.03,2.8-0.37,2.78-2.6
	c-0.1-15.35-0.08-30.72-0.01-46.07c0-1.98-0.59-2.56-2.55-2.55c-15.35,0.07-30.72,0.06-46.07,0c-1.89,0-2.61,0.43-2.6,2.49
	c0.08,15.45,0.07,30.91,0,46.35c0,1.85,0.52,2.4,2.38,2.38C32.14,277.89,39.86,277.94,47.58,277.94L47.58,277.94z"/>
<path class="st2" d="M209.36,294.95c0.06-1.22,0.18-2.44,0.19-3.65c0.01-26.12,0.05-52.25-0.05-78.37c-0.01-2.6,0.7-3.3,3.3-3.3
	c26.12,0.09,52.25,0.06,78.37,0.05c1.22,0,2.44-0.12,3.65-0.19c0,27.82-0.02,55.65,0.05,83.48c0,1.68-0.34,2.03-2.03,2.03
	C265.01,294.94,237.18,294.95,209.36,294.95z M277.8,252.41c0-7.64-0.06-15.26,0.05-22.9c0.03-2.01-0.39-2.79-2.61-2.77
	c-15.35,0.09-30.72,0.08-46.07,0.01c-1.99-0.01-2.55,0.61-2.55,2.57c0.07,15.35,0.06,30.71,0,46.07c0,1.9,0.46,2.6,2.5,2.59
	c15.45-0.08,30.91-0.07,46.35,0c1.87,0,2.39-0.55,2.36-2.39C277.75,267.86,277.8,260.14,277.8,252.41z"/>
<path class="st2" d="M90.51,5.19c-0.06,4.71-0.17,9.42-0.18,14.13c-0.03,11.32-0.07,22.64,0.05,33.96c0.02,2.28-0.5,3.08-2.93,3.06
	c-15.19-0.11-30.37-0.1-45.56,0c-2.23,0.01-2.93-0.61-2.83-2.85c0.17-3.95,0.14-7.92,0.01-11.88c-0.05-1.86,0.54-2.42,2.4-2.4
	c9.62,0.08,19.24-0.05,28.86,0.09c2.41,0.04,2.98-0.7,2.95-3.01c-0.13-9.52-0.05-19.05-0.06-28.58c0-0.83-0.16-1.68-0.24-2.51
	C78.82,5.19,84.67,5.19,90.51,5.19z"/>
<path class="st2" d="M5.05,107.62c16.41-0.04,32.8-0.05,49.21-0.14c1.52,0,1.9,0.58,1.9,1.99c-0.04,15.75-0.04,31.48,0,47.23
	c0,1.52-0.55,1.92-1.98,1.89c-4.24-0.07-8.49-0.15-12.73,0.03c-2.16,0.08-2.41-0.84-2.4-2.65c0.07-9.52-0.05-19.04,0.09-28.56
	c0.04-2.41-0.69-2.95-2.99-2.92c-10.36,0.15-20.74,0.09-31.11,0.11V107.62L5.05,107.62z"/>
<path class="st2" d="M55.98,5.19c0.05,5.08,0.04,10.17,0.18,15.24c0.05,1.95-1.11,1.78-2.37,1.78c-9.61-0.01-19.22,0.07-28.83-0.06
	c-2.35-0.04-2.99,0.6-2.96,2.96c0.14,9.51,0,19.03,0.11,28.55c0.03,2.11-0.54,2.76-2.66,2.67c-4.8-0.2-9.59-0.15-14.4-0.2
	C5.05,39.76,5.07,23.39,5,7.02c0-1.57,0.31-1.88,1.89-1.88C23.26,5.22,39.62,5.19,55.98,5.19z"/>
<path class="st2" d="M294.81,124.61c-10.66-0.02-21.3,0-31.96-0.1c-1.9-0.02-2.12,0.76-2.11,2.34c0.05,9.61-0.05,19.23,0.08,28.85
	c0.04,2.38-0.66,3.05-2.98,2.94c-4.05-0.18-8.1-0.1-12.16-0.03c-1.44,0.03-1.99-0.38-1.98-1.9c0.05-15.75,0.04-31.48,0-47.23
	c0-1.42,0.38-2,1.9-1.99c16.41,0.08,32.8,0.1,49.21,0.14V124.61L294.81,124.61z"/>
<path class="st2" d="M5.05,141.58c4.8,0,9.6,0.09,14.39-0.06c2.1-0.07,2.7,0.49,2.67,2.64c-0.12,9.59,0,19.2-0.1,28.79
	c-0.02,2.05,0.43,2.81,2.62,2.71c4.04-0.18,8.09,0,12.14-0.08c1.58-0.04,2.41,0.24,2.35,2.11c-0.13,4.32-0.08,8.66-0.02,12.98
	c0.02,1.42-0.36,2-1.9,1.99c-10.72-0.09-21.45-0.1-32.17-0.14L5.05,141.58L5.05,141.58z"/>
<path class="st2" d="M294.81,192.52c-10.72,0.04-21.45,0.05-32.17,0.14c-1.53,0.01-1.91-0.57-1.9-1.99
	c0.06-4.33,0.11-8.66-0.02-12.98c-0.05-1.88,0.77-2.15,2.35-2.11c4.14,0.08,8.29-0.06,12.42,0.07c1.91,0.06,2.34-0.63,2.33-2.42
	c-0.07-9.69,0.04-19.38-0.09-29.08c-0.03-2.14,0.58-2.7,2.67-2.64c4.8,0.16,9.59,0.06,14.39,0.06L294.81,192.52L294.81,192.52z"/>
<path class="st2" d="M5.05,73.1c1.12,0.08,2.23,0.24,3.35,0.24c14.97,0.02,29.94,0.05,44.9-0.03c2.14-0.01,3,0.49,2.88,2.8
	c-0.19,3.85-0.18,7.72,0,11.57c0.11,2.28-0.7,2.83-2.87,2.81c-15.25-0.08-30.5-0.05-45.75-0.04c-0.84,0-1.68,0.12-2.52,0.19
	C5.04,84.8,5.04,78.95,5.05,73.1L5.05,73.1z"/>
<path class="st2" d="M192.38,5.19c0.04,5.09,0.05,10.17,0.14,15.26c0.03,1.35-0.47,1.78-1.8,1.78c-13.01-0.04-26.01-0.05-39.02,0.01
	c-1.65,0-1.79-0.75-1.78-2.06c0.05-5,0.02-9.99,0.02-14.99C164.08,5.19,178.23,5.19,192.38,5.19z"/>
<path class="st2" d="M107.48,294.95c-0.04-5.09-0.05-10.17-0.14-15.26c-0.03-1.36,0.47-1.78,1.8-1.78
	c13.01,0.04,26.01,0.05,39.02-0.01c1.65,0,1.79,0.75,1.78,2.06c-0.05,5-0.02,9.99-0.02,14.99H107.48z"/>
<path class="st2" d="M166.91,294.95c0.01-4.99,0.08-9.98,0-14.97c-0.03-1.6,0.48-2.1,2.08-2.08c7.15,0.07,14.31,0.07,21.46,0
	c1.62-0.02,2.11,0.5,2.07,2.09c-0.12,4.98-0.11,9.97-0.15,14.96H166.91L166.91,294.95z"/>
<path class="st2" d="M132.95,5.19c-0.01,4.99-0.08,9.98,0,14.97c0.03,1.6-0.48,2.1-2.08,2.08c-7.15-0.07-14.31-0.07-21.46,0
	c-1.62,0.02-2.11-0.5-2.07-2.09c0.12-4.98,0.11-9.97,0.15-14.96H132.95L132.95,5.19z"/>
<path class="st2" d="M192.49,115.83c0,13.29-0.06,26.59,0.05,39.89c0.02,2.4-0.67,3.04-2.99,2.92c-3.67-0.2-7.36-0.21-11.02,0
	c-2.45,0.14-3.16-0.51-3.14-3.07c0.12-19.99,0.06-39.98,0.06-59.97c0-3.43-1.74-5.15-5.21-5.15c-6.03,0-12.07-0.05-18.1,0.03
	c-1.7,0.03-2.31-0.47-2.25-2.22c0.12-4.24,0.12-8.49,0-12.73c-0.05-1.79,0.59-2.22,2.27-2.21c12.63,0.05,25.27,0.07,37.9-0.02
	c2.08-0.02,2.47,0.76,2.46,2.64C192.47,89.24,192.49,102.53,192.49,115.83L192.49,115.83z"/>
<path class="st2" d="M128.6,226.79c-6.03,0-12.08-0.11-18.11,0.05c-2.41,0.06-3.24-0.49-3.19-3.09c0.16-9.43,0-18.86,0.11-28.29
	c0.03-2.16-0.49-3-2.8-2.88c-3.95,0.19-7.92-0.02-11.88,0.08c-1.77,0.05-2.52-0.39-2.45-2.33c0.13-4.15,0.09-8.3,0.02-12.45
	c-0.03-1.63,0.36-2.34,2.19-2.33c9.91,0.08,19.8,0.09,29.71,0c2.04-0.02,2.26,0.85,2.25,2.53c-0.05,9.62,0.05,19.24-0.08,28.86
	c-0.03,2.27,0.67,2.84,2.85,2.8c6.78-0.13,13.58,0,20.37-0.08c1.79-0.02,2.48,0.44,2.41,2.37c-0.15,4.15-0.16,8.3,0,12.44
	c0.07,1.96-0.66,2.37-2.42,2.35c-6.32-0.08-12.63-0.03-18.96-0.03L128.6,226.79z"/>
<path class="st2" d="M111.44,158.58c-11.78,0-23.56-0.07-35.35,0.05c-2.41,0.03-2.97-0.7-2.94-3c0.13-9.52,0.1-19.04,0.02-28.56
	c-0.02-1.92,0.48-2.65,2.51-2.57c4.14,0.15,8.29,0.12,12.44,0c1.78-0.05,2.26,0.59,2.22,2.28c-0.1,4.05,0.09,8.11-0.07,12.16
	c-0.09,2.13,0.58,2.68,2.69,2.67c18-0.08,36.01,0.02,54.01-0.12c2.61-0.02,3.15,0.77,3.02,3.15c-0.19,3.76-0.17,7.54,0,11.31
	c0.09,2.09-0.47,2.7-2.63,2.67c-11.97-0.11-23.94-0.05-35.92-0.05L111.44,158.58z"/>
<path class="st2" d="M107.37,64.78c0-7.74,0.05-15.47-0.04-23.2c-0.03-1.89,0.58-2.39,2.41-2.38c12.63,0.06,25.28,0.06,37.91,0
	c1.62,0,2.37,0.28,2.32,2.15c-0.14,4.24-0.12,8.49,0,12.73c0.05,1.75-0.51,2.24-2.23,2.22c-6.79-0.08-13.59,0.06-20.37-0.09
	c-2.32-0.05-3.05,0.55-3.01,2.94c0.14,9.52,0,19.05,0.1,28.57c0.02,2.06-0.45,2.85-2.65,2.76c-3.86-0.16-7.74-0.16-11.6,0
	c-2.16,0.08-2.94-0.48-2.89-2.79C107.46,80.06,107.37,72.41,107.37,64.78z"/>
<path class="st2" d="M192.49,235.44c0,7.63-0.05,15.28,0.04,22.91c0.02,1.9-0.44,2.61-2.49,2.59c-12.63-0.09-25.28-0.07-37.91,0
	c-1.75,0.01-2.28-0.5-2.23-2.23c0.11-4.24,0.13-8.49,0-12.73c-0.06-1.88,0.71-2.15,2.32-2.14c6.88,0.06,13.77-0.06,20.65,0.08
	c2.19,0.05,2.66-0.68,2.65-2.74c-0.1-9.62,0.03-19.24-0.1-28.86c-0.03-2.18,0.66-2.75,2.73-2.67c3.95,0.15,7.93,0.15,11.88,0
	c2.02-0.07,2.54,0.66,2.52,2.59C192.45,219.97,192.5,227.71,192.49,235.44L192.49,235.44z"/>
<path class="st2" d="M128.46,124.54c-6.21,0-12.42-0.08-18.63,0.05c-2.02,0.04-2.56-0.63-2.5-2.56c0.13-4.14,0.09-8.29,0.01-12.42
	c-0.03-1.56,0.41-2.13,2.05-2.12c12.89,0.05,25.78,0.05,38.68,0c1.52,0,1.91,0.53,1.89,1.97c-0.07,4.33-0.12,8.66,0.02,12.98
	c0.05,1.87-0.7,2.15-2.32,2.13C141.26,124.49,134.86,124.53,128.46,124.54L128.46,124.54z"/>
<path class="st2" d="M171.46,175.6c6.21,0,12.42,0.05,18.63-0.04c1.78-0.03,2.51,0.4,2.44,2.33c-0.14,4.23-0.1,8.47-0.01,12.7
	c0.04,1.63-0.55,2.07-2.11,2.06c-12.8-0.05-25.6-0.05-38.4,0c-1.54,0-2.16-0.37-2.11-2.03c0.1-4.33,0.1-8.66,0-12.98
	c-0.04-1.6,0.48-2.1,2.08-2.08c6.49,0.07,12.98,0.04,19.48,0.03V175.6z"/>
<path class="st2" d="M90.31,90.19c0,4.91-0.06,9.81,0.04,14.71c0.04,1.86-0.36,2.73-2.47,2.65c-4.15-0.16-8.3-0.12-12.44-0.01
	c-1.78,0.05-2.25-0.61-2.24-2.29c0.05-9.91,0.05-19.8,0-29.71c0-1.49,0.32-2.25,2.02-2.22c4.34,0.09,8.68,0.08,13.01,0
	c1.61-0.03,2.12,0.58,2.11,2.15C90.25,80.4,90.3,85.3,90.31,90.19L90.31,90.19z"/>
<path class="st2" d="M226.62,192.63c-4.91,0-9.81-0.08-14.71,0.05c-1.91,0.05-2.43-0.62-2.38-2.43c0.1-4.15,0.06-8.3,0.02-12.45
	c-0.02-1.45,0.25-2.24,2-2.22c10.09,0.06,20.19,0.05,30.28,0c1.5,0,1.96,0.54,1.94,1.99c-0.06,4.34-0.08,8.68,0,13.02
	c0.04,1.64-0.58,2.11-2.14,2.09C236.61,192.59,231.61,192.64,226.62,192.63L226.62,192.63z"/>
<path class="st2" d="M179.64,39.24c3.58,0,7.16,0.06,10.73-0.03c1.56-0.04,2.18,0.42,2.14,2.06c-0.09,4.33-0.09,8.66,0,12.99
	c0.04,1.67-0.61,2.06-2.14,2.04c-7.06-0.06-14.13-0.06-21.18,0c-1.66,0.02-2.33-0.39-2.29-2.2c0.12-4.23,0.12-8.48,0-12.71
	c-0.05-1.8,0.6-2.25,2.29-2.2C172.66,39.31,176.15,39.23,179.64,39.24z"/>
<path class="st2" d="M120.16,243.87c3.49,0,6.97,0.05,10.45-0.03c1.59-0.04,2.39,0.28,2.33,2.14c-0.13,4.33-0.08,8.66-0.02,12.99
	c0.03,1.46-0.45,1.97-1.94,1.96c-7.25-0.05-14.5-0.06-21.75,0c-1.54,0.01-1.92-0.6-1.9-2c0.05-4.33,0.08-8.66-0.01-12.99
	c-0.04-1.59,0.49-2.14,2.09-2.1c3.58,0.09,7.16,0.03,10.73,0.03H120.16z"/>
<path class="st2" d="M218.09,158.38c-2.72,0-6.35,1.06-7.92-0.27c-1.84-1.57-0.48-5.31-0.6-8.1c-0.1-2.25,0.02-4.52-0.03-6.78
	c-0.03-1.19,0.41-1.68,1.64-1.67c4.61,0.05,9.23,0.05,13.84,0c1.25-0.01,1.63,0.51,1.63,1.68c-0.03,4.52-0.04,9.05,0,13.56
	c0.01,1.31-0.4,1.87-1.79,1.81c-2.26-0.09-4.52-0.03-6.78-0.03C218.08,158.51,218.08,158.44,218.09,158.38L218.09,158.38z"/>
<path class="st2" d="M209.55,115.61c0.32-2.3-1.25-5.91,0.62-7.64c1.7-1.57,5.22-0.43,7.94-0.42c2.71,0,6.26-1.16,7.92,0.44
	c1.8,1.75,0.47,5.35,0.59,8.14c0.1,2.16-0.04,4.33,0.04,6.49c0.05,1.43-0.45,2-1.94,1.97c-4.42-0.07-8.84-0.08-13.26,0
	c-1.52,0.03-1.97-0.59-1.92-2C209.61,120.42,209.56,118.26,209.55,115.61L209.55,115.61z"/>
<path class="st2" d="M64.59,192.63c-2.16,0-4.32-0.05-6.48,0.02c-1.43,0.05-2.01-0.43-1.99-1.92c0.07-4.41,0.07-8.83,0-13.25
	c-0.03-1.52,0.6-1.92,2.01-1.9c4.41,0.06,8.83,0.05,13.25,0c1.33-0.02,1.85,0.46,1.84,1.79c-0.05,4.51-0.05,9.02,0,13.53
	c0.02,1.38-0.59,1.78-1.87,1.74C69.1,192.58,66.84,192.63,64.59,192.63z"/>
<path class="st2" d="M252.21,56.27c-2.16,0-4.32-0.05-6.48,0.02c-1.37,0.05-2.06-0.3-2.03-1.86c0.08-4.41,0.06-8.83,0-13.25
	c-0.02-1.43,0.45-2,1.94-1.98c4.41,0.07,8.83,0.05,13.25,0.01c1.25-0.01,1.9,0.31,1.89,1.72c-0.05,4.51-0.05,9.02,0,13.53
	c0.02,1.34-0.47,1.85-1.8,1.81C256.72,56.22,254.46,56.26,252.21,56.27L252.21,56.27z"/>
<path class="st2" d="M47.51,260.91c-2.25,0-4.51-0.04-6.77,0.02c-1.2,0.03-1.68-0.45-1.67-1.66c0.04-4.61,0.03-9.21,0-13.81
	c0-1.03,0.34-1.58,1.45-1.57c4.7,0.02,9.4,0.03,14.1-0.01c1.33-0.01,1.52,0.71,1.51,1.79c-0.02,4.51-0.05,9.02,0,13.53
	c0.02,1.38-0.59,1.78-1.87,1.75C52.01,260.87,49.75,260.92,47.51,260.91L47.51,260.91z"/>
<path class="st2" d="M252.22,244.1c2.71,0,6.32-1.06,7.91,0.27c1.86,1.57,0.48,5.29,0.61,8.07c0.11,2.16-0.04,4.32,0.04,6.48
	c0.05,1.4-0.37,2.03-1.9,2.01c-4.41-0.07-8.83-0.07-13.25,0c-1.5,0.03-1.95-0.56-1.93-1.98c0.05-4.41,0.07-8.83,0-13.25
	c-0.03-1.57,0.68-1.89,2.04-1.85c2.16,0.07,4.32,0.02,6.48,0.02C252.23,243.95,252.23,244.02,252.22,244.1L252.22,244.1z"/>
<g>
</g>
<g>
</g>
<g>
</g>
<g>
</g>
<g>
</g>
<g>
</g>
<g>
</g>
<g>
</g>
<g>
</g>
<g>
</g>
<g>
</g>
<g>
</g>
<g>
</g>
<g>
</g>
<g>
</g>
</svg>
