<svg width="51" height="64" viewBox="0 0 51 64" fill="none" xmlns="http://www.w3.org/2000/svg">
<path d="M5.48565 64C4.9129 63.8213 4.31176 63.7061 3.77408 63.4556C1.4597 62.3753 0.22069 60.5301 0.0136312 57.9886C-0.00306703 57.7816 0.000272625 57.5728 0.000272625 57.3641C0.000272625 40.4504 0.000272625 23.5351 0.000272625 6.62143C0.000272625 3.86956 1.18585 1.82402 3.67556 0.590022C4.46873 0.195944 5.32535 0.0105928 6.21036 0.00892298C15.0421 0.00558333 23.8754 -0.0127848 32.7072 0.0156023C36.2489 0.0272911 38.8972 2.80421 38.9423 6.46948C38.9673 8.55175 38.9707 10.6357 38.9323 12.718C38.9222 13.2891 39.0993 13.5228 39.6319 13.7366C46.0474 16.3164 49.8797 21.0387 50.8097 27.8817C51.8951 35.8551 47.1745 43.4511 39.6136 46.2497C39.1026 46.4384 38.9256 46.6622 38.9306 47.2182C38.9607 50.5295 38.9456 53.8424 38.9456 57.1537C38.9456 60.8273 37.1723 63.0649 33.5838 63.9265C33.5471 63.9349 33.517 63.9733 33.4853 63.9983H5.48565V64ZM2.5 31.9727C2.5 40.4721 2.49666 48.9716 2.50167 57.471C2.50167 59.8505 4.09469 61.4969 6.41407 61.4986C15.1222 61.5053 23.8287 61.5053 32.5368 61.4986C34.711 61.4969 36.3657 60.0125 36.4158 57.8383C36.496 54.4035 36.4392 50.9653 36.4509 47.5272C36.4509 47.1715 36.319 47.1197 36.0001 47.1631C31.4882 47.7676 27.3637 46.744 23.6216 44.1708C23.3478 43.9821 23.1057 43.9704 22.8068 44.0556C21.5661 44.4096 20.3204 44.7402 19.0814 45.0942C18.507 45.2579 17.9643 45.2879 17.5251 44.8054C17.0843 44.3228 17.1594 43.7834 17.3798 43.2274C17.8323 42.0869 18.2632 40.938 18.7307 39.8042C18.8893 39.4185 18.8543 39.1279 18.6422 38.7639C16.6451 35.3374 15.8486 31.6388 16.4113 27.7163C17.7873 18.1249 26.1464 11.6994 35.788 12.7881C36.4008 12.8566 36.4643 12.6862 36.4559 12.1653C36.4292 10.3117 36.4509 8.45657 36.4442 6.60307C36.4342 4.07495 34.8662 2.50865 32.3448 2.50865C23.7619 2.50698 15.179 2.50865 6.59776 2.50865C6.28717 2.50865 5.9699 2.50865 5.66432 2.56543C3.72732 2.91943 2.50167 4.45734 2.5 6.53961C2.49666 15.0173 2.5 23.4967 2.5 31.9744V31.9727ZM20.5224 42.0835C21.374 41.8564 22.0821 41.7062 22.7633 41.474C23.488 41.2269 24.0591 41.3739 24.6703 41.8347C27.8964 44.2677 31.5483 45.2512 35.5409 44.7085C43.9384 43.5663 49.5774 35.9102 48.2499 27.5494C46.5049 16.5636 33.4085 11.3888 24.5868 18.1967C18.3767 22.9891 16.9223 31.5453 21.2054 38.1494C21.5661 38.7055 21.6663 39.2248 21.3891 39.846C21.0852 40.5256 20.8464 41.2353 20.5224 42.0835Z" fill="white"/>
<path d="M19.4604 51.7101C23.4179 51.7101 27.3771 51.7101 31.3346 51.7101C31.5433 51.7101 31.752 51.7051 31.9591 51.7185C32.6921 51.7653 33.2014 52.2679 33.2081 52.9391C33.2148 53.5787 32.7389 54.0963 32.0442 54.1882C31.8589 54.2132 31.6702 54.2099 31.4832 54.2099C23.4847 54.2099 15.4846 54.2099 7.4861 54.2082C7.19722 54.2082 6.89832 54.1965 6.62113 54.1264C6.08011 53.9878 5.72109 53.4568 5.74447 52.9041C5.76952 52.3213 6.19532 51.8287 6.77642 51.7452C7.02189 51.7101 7.2757 51.7152 7.52451 51.7152C11.5037 51.7152 15.4812 51.7152 19.4604 51.7152V51.7101Z" fill="white"/>
<path d="M16.0306 6.22397C17.5084 6.22397 18.9879 6.21896 20.4657 6.22563C21.3223 6.23064 21.8399 6.67315 21.87 7.39952C21.9017 8.15261 21.3774 8.707 20.5224 8.71201C17.5451 8.73037 14.5662 8.73037 11.5889 8.71201C10.7723 8.707 10.2363 8.16597 10.2363 7.4563C10.2363 6.71656 10.784 6.23064 11.6557 6.22563C13.1134 6.21729 14.5712 6.22397 16.0289 6.22397H16.0306Z" fill="white"/>
<path d="M19.4922 56.5925C20.0749 56.5925 20.6577 56.5708 21.2388 56.5976C21.9752 56.631 22.4728 57.1403 22.4795 57.8149C22.4861 58.4811 21.9919 59.0388 21.2622 59.0639C20.0783 59.1023 18.8927 59.1023 17.7088 59.0672C16.9423 59.0439 16.4547 58.4861 16.4781 57.7781C16.5015 57.0985 16.9924 56.6243 17.7455 56.5959C18.3266 56.5742 18.9094 56.5909 19.4922 56.5909C19.4922 56.5909 19.4922 56.5925 19.4922 56.5942V56.5925Z" fill="white"/>
<path d="M26.8494 6.23578C27.0982 6.23578 27.3504 6.21575 27.5975 6.23912C28.2153 6.29924 28.6712 6.78182 28.7096 7.3913C28.7463 7.9557 28.3639 8.50174 27.7878 8.642C27.1951 8.78728 26.5856 8.76891 25.9911 8.66538C25.3365 8.55183 24.9408 8.01081 24.9809 7.3696C25.0209 6.73673 25.4935 6.27419 26.1631 6.23077C26.3902 6.21575 26.6206 6.2291 26.8494 6.2291C26.8494 6.23077 26.8494 6.23411 26.8494 6.23578Z" fill="white"/>
<path d="M27.008 25.4486C28.2137 25.4653 29.269 25.8661 30.1156 26.711C30.4395 27.0333 30.6633 27.0183 31.0173 26.8029C31.6735 26.4021 32.3465 26.0214 33.0395 25.6891C33.4753 25.4803 33.6039 25.2299 33.5922 24.7356C33.5404 22.6917 35.0449 21.0236 37.0905 20.7815C39.0224 20.551 40.9411 21.9487 41.3402 23.874C41.7476 25.8427 40.6288 27.7981 38.7219 28.4243C37.4445 28.8434 36.2472 28.6447 35.1735 27.8515C34.8679 27.6261 34.6592 27.6161 34.3469 27.7997C33.5571 28.2623 32.7489 28.6914 31.9474 29.1356C31.7119 29.2658 31.4448 29.366 31.5349 29.7317C31.6285 30.1141 31.3312 30.58 31.919 30.8505C32.7472 31.2329 33.5404 31.6988 34.3252 32.1697C34.6625 32.3717 34.8779 32.34 35.1985 32.1146C36.5728 31.1494 38.0289 31.086 39.4867 31.9075C40.891 32.699 41.6207 34.2386 41.3585 35.89C41.098 37.5231 40.1229 38.5985 38.5415 39.061C36.0001 39.8058 33.5103 37.8387 33.5905 35.1503C33.6039 34.7245 33.482 34.5208 33.1163 34.3371C32.4083 33.9864 31.717 33.599 31.0423 33.1899C30.6733 32.9662 30.4462 32.9578 30.0972 33.2901C28.6962 34.6293 26.639 34.8881 24.9441 34.0098C23.291 33.1515 22.2958 31.308 22.5129 29.508C22.7466 27.5643 24.1142 26.0297 26.0245 25.5839C26.3468 25.5087 26.6824 25.4937 27.0114 25.452L27.008 25.4486ZM27.008 32.011C28.1318 32.016 29.0385 31.1194 29.0436 29.9989C29.0486 28.8701 28.1602 27.9784 27.0264 27.9734C25.8976 27.9701 24.9926 28.8601 24.9876 29.9789C24.9825 31.0943 25.8893 32.006 27.008 32.011ZM38.9106 24.6772C38.9005 23.8923 38.251 23.2545 37.4712 23.2662C36.6864 23.2778 36.0668 23.9207 36.0752 24.7156C36.0835 25.5071 36.7231 26.1366 37.5079 26.1249C38.2894 26.1132 38.9189 25.4637 38.9089 24.6772H38.9106ZM37.5163 33.8645C36.7114 33.8529 36.0886 34.454 36.0769 35.2555C36.0652 36.052 36.678 36.6966 37.4645 36.7133C38.2393 36.73 38.8955 36.0921 38.9106 35.3073C38.9256 34.5141 38.3094 33.8762 37.5163 33.8645Z" fill="white"/>
</svg>
