<?xml version="1.0" encoding="utf-8"?>
<!-- Generator: Adobe Illustrator 23.0.5, SVG Export Plug-In . SVG Version: 6.00 Build 0)  -->
<svg version="1.1" id="Layer_1" xmlns="http://www.w3.org/2000/svg" xmlns:xlink="http://www.w3.org/1999/xlink" x="0px" y="0px"
	 viewBox="0 0 300 300" style="enable-background:new 0 0 300 300;" xml:space="preserve">
<style type="text/css">
	.st0{display:none;}
	.st1{display:inline;}
	.st2{fill:#66FCF1;}
</style>
<g class="st0">
	<rect x="-2.5" y="-2.5" class="st1" width="308" height="308"/>
	<path class="st1" d="M305-2v307H-2V-2H305 M306-3H-3v309h309V-3L306-3z"/>
</g>
<path class="st2" d="M58.24,300c-2.67-0.83-5.48-1.37-7.99-2.54c-10.81-5.04-16.59-13.66-17.56-25.53
	c-0.08-0.97-0.06-1.94-0.06-2.92c0-78.97,0-157.95,0-236.92c0-12.85,5.54-22.4,17.16-28.16c3.7-1.84,7.7-2.71,11.83-2.71
	c41.24-0.02,82.48-0.1,123.71,0.03c16.54,0.05,28.9,13.02,29.11,30.13c0.12,9.72,0.13,19.45-0.05,29.17
	c-0.05,2.67,0.78,3.76,3.27,4.76c29.95,12.05,47.85,34.09,52.19,66.04c5.07,37.23-16.97,72.69-52.27,85.76
	c-2.39,0.88-3.21,1.93-3.19,4.52c0.14,15.46,0.07,30.93,0.07,46.39c0,17.15-8.28,27.6-25.03,31.62c-0.17,0.04-0.31,0.22-0.46,0.34
	L58.24,300L58.24,300z M44.3,150.46c0,39.68-0.02,79.37,0.01,119.05c0,11.11,7.44,18.8,18.27,18.8c40.66,0.03,81.31,0.03,121.97,0
	c10.15-0.01,17.88-6.94,18.11-17.09c0.37-16.04,0.11-32.09,0.16-48.14c0-1.66-0.62-1.9-2.1-1.7c-21.07,2.82-40.32-1.96-57.8-13.97
	c-1.28-0.88-2.41-0.94-3.8-0.54c-5.79,1.65-11.61,3.2-17.39,4.85c-2.68,0.76-5.22,0.9-7.27-1.35c-2.06-2.25-1.71-4.77-0.68-7.37
	c2.11-5.33,4.12-10.69,6.31-15.98c0.74-1.8,0.58-3.16-0.41-4.86c-9.32-16-13.04-33.27-10.42-51.58
	c6.42-44.78,45.45-74.78,90.47-69.7c2.86,0.32,3.16-0.48,3.12-2.91c-0.12-8.65-0.02-17.32-0.05-25.97
	c-0.05-11.8-7.37-19.12-19.14-19.12c-40.07-0.01-80.15,0-120.21,0c-1.45,0-2.93,0-4.36,0.27c-9.04,1.65-14.77,8.83-14.77,18.56
	C44.28,71.3,44.3,110.89,44.3,150.46L44.3,150.46z M128.44,197.67c3.98-1.06,7.28-1.76,10.46-2.85c3.38-1.15,6.05-0.47,8.9,1.68
	c15.06,11.36,32.11,15.95,50.75,13.42c39.21-5.33,65.54-41.08,59.34-80.12c-8.15-51.29-69.29-75.45-110.48-43.67
	c-28.99,22.38-35.79,62.32-15.79,93.16c1.68,2.6,2.15,5.02,0.86,7.92C131.07,190.4,129.96,193.71,128.44,197.67z"/>
<path class="st2" d="M123.48,242.62c18.48,0,36.96,0,55.44,0c0.97,0,1.95-0.02,2.92,0.04c3.42,0.22,5.8,2.57,5.83,5.7
	c0.03,2.99-2.19,5.4-5.43,5.83c-0.87,0.12-1.75,0.1-2.62,0.1c-37.35,0-74.7,0-112.04-0.01c-1.35,0-2.74-0.05-4.04-0.38
	c-2.53-0.65-4.2-3.13-4.09-5.71c0.12-2.72,2.11-5.02,4.82-5.41c1.15-0.16,2.33-0.14,3.49-0.14c18.58,0,37.15,0,55.73,0V242.62z"/>
<path class="st2" d="M107.47,30.24c6.9,0,13.81-0.02,20.71,0.01c4,0.02,6.42,2.09,6.56,5.48c0.15,3.52-2.3,6.1-6.29,6.13
	c-13.9,0.09-27.81,0.09-41.71,0c-3.81-0.02-6.32-2.55-6.32-5.86c0-3.45,2.56-5.72,6.63-5.75C93.85,30.21,100.66,30.24,107.47,30.24
	L107.47,30.24z"/>
<path class="st2" d="M123.63,265.41c2.72,0,5.44-0.1,8.15,0.02c3.44,0.16,5.76,2.53,5.79,5.68c0.03,3.11-2.28,5.71-5.68,5.83
	c-5.53,0.18-11.06,0.18-16.59,0.02c-3.58-0.11-5.86-2.71-5.75-6.02c0.11-3.17,2.4-5.39,5.92-5.52
	C118.19,265.33,120.91,265.41,123.63,265.41C123.63,265.41,123.63,265.41,123.63,265.41L123.63,265.41z"/>
<path class="st2" d="M157.98,30.3c1.16,0,2.34-0.09,3.49,0.02c2.88,0.28,5.01,2.53,5.19,5.38c0.17,2.64-1.61,5.18-4.3,5.84
	c-2.77,0.68-5.61,0.59-8.39,0.11c-3.06-0.53-4.9-3.06-4.72-6.05c0.19-2.95,2.39-5.11,5.52-5.32c1.06-0.07,2.14-0.01,3.2-0.01
	C157.98,30.28,157.98,30.29,157.98,30.3z"/>
<path class="st2" d="M158.72,120c5.63,0.08,10.56,1.95,14.51,5.89c1.51,1.5,2.56,1.43,4.21,0.43c3.06-1.87,6.21-3.65,9.44-5.2
	c2.03-0.97,2.64-2.14,2.58-4.45c-0.24-9.54,6.78-17.33,16.33-18.46c9.02-1.08,17.98,5.45,19.84,14.44
	c1.9,9.19-3.32,18.32-12.22,21.25c-5.96,1.96-11.55,1.03-16.57-2.67c-1.43-1.05-2.4-1.1-3.86-0.24c-3.69,2.16-7.46,4.16-11.2,6.24
	c-1.1,0.61-2.35,1.08-1.93,2.78c0.44,1.79-0.95,3.96,1.79,5.22c3.87,1.79,7.57,3.96,11.23,6.16c1.57,0.94,2.58,0.8,4.08-0.26
	c6.42-4.51,13.22-4.8,20.02-0.97c6.56,3.7,9.96,10.88,8.74,18.59c-1.22,7.62-5.77,12.65-13.15,14.81
	c-11.87,3.48-23.49-5.71-23.12-18.26c0.06-1.99-0.51-2.94-2.21-3.8c-3.31-1.64-6.53-3.45-9.68-5.36c-1.72-1.04-2.78-1.08-4.41,0.47
	c-6.54,6.25-16.15,7.46-24.06,3.36c-7.72-4.01-12.36-12.61-11.35-21.02c1.09-9.08,7.48-16.24,16.4-18.32
	c1.5-0.35,3.07-0.42,4.61-0.62L158.72,120z M158.72,150.64c5.25,0.02,9.48-4.16,9.5-9.39c0.02-5.27-4.12-9.43-9.42-9.46
	c-5.27-0.02-9.5,4.14-9.52,9.36C149.27,146.36,153.5,150.62,158.72,150.64z M214.3,116.4c-0.05-3.66-3.08-6.64-6.72-6.59
	c-3.66,0.05-6.56,3.06-6.52,6.77c0.04,3.7,3.03,6.63,6.69,6.58C211.4,123.11,214.34,120.07,214.3,116.4L214.3,116.4z M207.79,159.3
	c-3.76-0.05-6.67,2.75-6.72,6.49c-0.05,3.72,2.81,6.73,6.48,6.81c3.62,0.08,6.68-2.9,6.75-6.56
	C214.37,162.33,211.49,159.35,207.79,159.3z"/>
<g>
</g>
<g>
</g>
<g>
</g>
<g>
</g>
<g>
</g>
<g>
</g>
<g>
</g>
<g>
</g>
<g>
</g>
<g>
</g>
<g>
</g>
<g>
</g>
<g>
</g>
<g>
</g>
<g>
</g>
</svg>
