<svg width="78" height="78" viewBox="0 0 78 78" fill="none" xmlns="http://www.w3.org/2000/svg">
<circle cx="39" cy="39" r="39" fill="url(#paint0_linear_131_311)"/>
<path d="M52.5846 59H25.489C25.4467 58.9156 25.3566 58.9297 25.2869 58.9031C24.4827 58.6008 24.0034 57.9375 24.0027 57.0812C23.9995 50.8477 23.9987 44.6141 24.0027 38.3805C24.0027 37.3258 24.7223 36.5594 25.7764 36.4609C25.9448 36.4453 26.117 36.4344 26.2838 36.4523C26.5806 36.4836 26.695 36.3922 26.6817 36.0719C26.6558 35.4352 26.6652 34.7969 26.6754 34.1594C26.6997 32.6516 26.5564 31.1352 26.8109 29.6391C27.677 24.5562 30.5847 21.2023 35.465 19.5359C36.3194 19.2445 37.2153 19.1594 38.0963 19H39.9757C40.2725 19.1172 40.5912 19.0961 40.899 19.1391C46.7199 19.943 51.3339 25.1484 51.406 31.0172C51.4256 32.6438 51.4091 34.2711 51.4146 35.8984C51.4169 36.5133 51.3238 36.4438 51.9432 36.4477C53.3575 36.4555 54.0897 37.182 54.0905 38.5914C54.0913 42.3141 54.0905 46.0367 54.0905 49.7594C54.0905 52.1672 54.0936 54.5758 54.0889 56.9836C54.0873 58.0039 53.6465 58.6023 52.6778 58.9367C52.6433 58.9484 52.6151 58.9789 52.5838 59H52.5846ZM39.0415 57.8281C42.9171 57.8281 46.7935 57.8281 50.6691 57.8281C51.1648 57.8281 51.6613 57.8352 52.157 57.825C52.637 57.8148 52.9119 57.5508 52.9135 57.0687C52.9213 55.207 52.9135 53.3453 52.9213 51.4836C52.9221 51.2516 52.8273 51.1977 52.6182 51.2031C52.1875 51.2141 51.7568 51.2062 51.3261 51.2062C50.7638 51.2062 50.4783 51.4888 50.4694 52.0539C50.4569 52.8523 49.9455 53.3664 49.1397 53.3727C48.3049 53.3797 47.4693 53.3773 46.6337 53.3727C46.1709 53.3703 45.9125 53.1578 45.9093 52.7906C45.9062 52.4195 46.1623 52.2047 46.6235 52.2031C47.3808 52.2 48.1381 52.1852 48.8938 52.2102C49.2266 52.2211 49.3025 52.1141 49.3018 51.7945C49.29 48.9047 49.2877 46.0141 49.3033 43.1242C49.3049 42.7617 49.2047 42.6719 48.8476 42.6727C44.1497 42.6844 39.4518 42.6805 34.754 42.6805C34.6232 42.6805 34.4916 42.6891 34.3632 42.6734C34.068 42.6375 33.8878 42.468 33.8542 42.1711C33.8189 41.8562 33.9638 41.6344 34.2669 41.55C34.4258 41.5055 34.602 41.5109 34.7704 41.5109C39.4683 41.5094 44.1661 41.5094 48.864 41.5094C50.0097 41.5094 50.4263 41.8992 50.4647 43.0281C50.4709 43.2203 50.5062 43.3055 50.7223 43.3016C51.3613 43.2883 52.0011 43.2914 52.6402 43.3C52.8305 43.3023 52.9221 43.2648 52.9205 43.0461C52.9119 41.4836 52.9205 39.9219 52.9111 38.3594C52.9088 37.9148 52.6558 37.6703 52.2087 37.6266C52.092 37.6148 51.9737 37.6203 51.8563 37.6203C43.3219 37.6203 34.7868 37.6203 26.2525 37.6203C26.1351 37.6203 26.0168 37.6148 25.9001 37.6258C25.4412 37.6664 25.1789 37.9273 25.1773 38.3844C25.1703 39.9336 25.1797 41.4828 25.1687 43.032C25.1671 43.2734 25.2674 43.3047 25.4702 43.3016C26.0309 43.2914 26.594 43.275 27.1531 43.3062C27.5157 43.3266 27.6433 43.2461 27.6355 42.8508C27.619 42.0234 28.1508 41.5203 28.9824 41.5133C29.8439 41.5063 30.7053 41.507 31.5659 41.5133C32.0076 41.5164 32.2856 41.768 32.2707 42.125C32.2558 42.4742 32.0005 42.6797 31.5612 42.6812C30.7914 42.6852 30.0208 42.7 29.2518 42.675C28.8979 42.6633 28.7867 42.7578 28.789 43.1258C28.8047 46.0031 28.8031 48.8805 28.7898 51.757C28.7882 52.1109 28.8783 52.2141 29.2432 52.2125C33.9411 52.2 38.639 52.2039 43.3368 52.2039C43.4543 52.2039 43.5725 52.1969 43.6892 52.207C44.0236 52.2352 44.2632 52.4805 44.2632 52.7859C44.2632 53.0898 44.026 53.3367 43.6924 53.3703C43.5757 53.382 43.4574 53.3758 43.34 53.3758C38.6162 53.3758 33.8918 53.3758 29.168 53.3758C29.0506 53.3758 28.9331 53.3789 28.8156 53.3719C28.2213 53.3328 27.7514 52.9258 27.6574 52.3398C27.6167 52.0852 27.6143 51.8203 27.6284 51.5617C27.6425 51.2977 27.565 51.1922 27.2815 51.2023C26.7083 51.2219 26.1327 51.225 25.5595 51.2016C25.2541 51.1891 25.164 51.2766 25.1664 51.5891C25.182 53.3469 25.1734 55.1039 25.1742 56.8617C25.1742 57.6117 25.3966 57.8297 26.1593 57.8297C30.4531 57.8297 34.7461 57.8297 39.0399 57.8297L39.0415 57.8281ZM39.0595 36.4477C41.4997 36.4477 43.9406 36.4383 46.3808 36.457C46.7684 36.4602 46.8546 36.3438 46.8499 35.9758C46.8287 34.4789 46.8436 32.9812 46.8397 31.4844C46.8381 30.9109 46.799 30.3391 46.6776 29.7773C45.8193 25.8047 42.2123 23.1977 38.1628 23.6188C34.2802 24.0227 31.3051 27.3531 31.2738 31.3438C31.2613 32.9187 31.2809 34.4945 31.2636 36.0695C31.2605 36.3867 31.3623 36.4555 31.6607 36.4539C34.1275 36.443 36.5935 36.4477 39.0603 36.4477H39.0595ZM48.0151 33.157C48.0151 34.218 48.0222 35.168 48.0104 36.1187C48.0073 36.3695 48.0801 36.4617 48.3401 36.4531C48.8483 36.4359 49.3589 36.4273 49.8664 36.4555C50.1922 36.4734 50.2485 36.3484 50.2462 36.0563C50.2329 34.4938 50.2368 32.932 50.2407 31.3695C50.2423 30.6508 50.1812 29.9383 50.0402 29.2352C48.6377 22.2453 41.3681 18.2945 34.7634 21.0539C30.6724 22.7625 28.3787 25.9602 27.919 30.3789C27.7193 32.2961 27.8822 34.2297 27.8469 36.1555C27.843 36.3734 27.9104 36.457 28.1351 36.4516C28.6308 36.4398 29.1281 36.4242 29.6222 36.4555C29.9903 36.4789 30.1125 36.382 30.1062 35.9914C30.0819 34.4945 30.0976 32.9969 30.096 31.5C30.0952 30.8867 30.136 30.2797 30.2503 29.6758C31.035 25.5219 34.5989 22.5227 38.8989 22.407C43.0189 22.2961 46.7418 25.1594 47.7473 29.1891C48.0832 30.5367 47.9963 31.9039 48.0167 33.157H48.0151ZM26.4115 44.4688C26.0857 44.4688 25.7592 44.4805 25.4342 44.4648C25.2243 44.4547 25.1671 44.5312 25.1718 44.7328C25.1836 45.2922 25.1844 45.8516 25.1718 46.4109C25.1671 46.6234 25.2494 46.6734 25.4451 46.6703C26.0842 46.6609 26.7232 46.6602 27.3614 46.6703C27.5681 46.6734 27.6324 46.6008 27.6284 46.4008C27.6183 45.8414 27.6167 45.282 27.6284 44.7227C27.6331 44.507 27.5447 44.4586 27.3504 44.4664C27.038 44.4789 26.7247 44.4695 26.4115 44.4695V44.4688ZM51.702 46.6656C52.0152 46.6656 52.3277 46.6578 52.6402 46.6688C52.8312 46.6758 52.9244 46.6289 52.9197 46.4125C52.908 45.8539 52.9096 45.2938 52.9197 44.7352C52.9229 44.5375 52.8657 44.4609 52.6558 44.4648C52.0176 44.4766 51.3786 44.4742 50.7396 44.4648C50.5485 44.4625 50.4584 44.5008 50.4639 44.7195C50.478 45.2781 50.4796 45.8383 50.4639 46.3969C50.4569 46.6359 50.5579 46.6781 50.7638 46.6695C51.0763 46.6563 51.3895 46.6664 51.702 46.6656ZM26.3841 50.0352C26.7091 50.0352 27.0348 50.0258 27.3598 50.0383C27.5658 50.0469 27.6308 49.9687 27.6277 49.768C27.6175 49.2227 27.6183 48.6773 27.6277 48.1328C27.6316 47.925 27.5799 47.8289 27.3457 47.8336C26.7083 47.8477 26.0708 47.8453 25.4334 47.8336C25.222 47.8297 25.1687 47.9102 25.1718 48.1063C25.182 48.6641 25.1836 49.2227 25.171 49.7805C25.1664 49.9961 25.2556 50.0438 25.4475 50.0375C25.7592 50.0266 26.0716 50.0344 26.3841 50.0344V50.0352ZM51.6746 50.0352C51.9996 50.0352 52.3254 50.0258 52.6503 50.0383C52.854 50.0461 52.9236 49.9742 52.9205 49.7703C52.9095 49.2125 52.9103 48.6539 52.9205 48.0961C52.9244 47.8867 52.8383 47.832 52.6425 47.8344C52.0051 47.843 51.3676 47.8445 50.7302 47.8344C50.5219 47.8305 50.4623 47.9055 50.4662 48.1047C50.4764 48.6625 50.478 49.2211 50.4662 49.7789C50.4616 49.9906 50.5453 50.0461 50.7396 50.0391C51.0512 50.0273 51.3637 50.0359 51.6762 50.0359L51.6746 50.0352Z" fill="white"/>
<path d="M34.5457 50.4306C34.028 50.4244 33.5378 50.3189 33.0985 50.0291C32.9552 49.9345 32.8252 49.8267 32.7461 49.672C32.6075 49.401 32.685 49.1658 32.8902 48.9658C33.1032 48.758 33.295 48.8697 33.4736 49.0252C33.8197 49.3275 34.2034 49.5244 34.6811 49.4681C35.0257 49.4275 35.328 49.3095 35.4227 48.94C35.5144 48.5838 35.3616 48.3072 35.0641 48.1033C34.6529 47.8213 34.1721 47.6783 33.7414 47.4361C33.1188 47.0861 32.779 46.5853 32.8259 45.8486C32.8643 45.2439 33.1533 44.8064 33.6968 44.5642C34.4478 44.2299 35.2199 44.2533 35.9803 44.54C36.3538 44.6814 36.4502 44.9236 36.3092 45.2439C36.1902 45.5135 36.0022 45.6338 35.7187 45.4806C35.3632 45.2892 34.9873 45.2049 34.5879 45.2556C34.2606 45.297 33.9646 45.4103 33.8957 45.7799C33.8322 46.1213 34.0625 46.3119 34.3272 46.4478C34.732 46.6556 35.1541 46.8291 35.5559 47.0416C36.1542 47.358 36.4823 47.8619 36.5207 48.5431C36.5856 49.7017 35.8159 50.4369 34.5457 50.4306Z" fill="white"/>
<path d="M39.3829 50.4313C38.7964 50.4251 38.2411 50.3071 37.7768 49.9243C37.5575 49.7438 37.4009 49.5243 37.5348 49.2102C37.6922 48.8407 37.9498 48.7579 38.2646 49.0086C38.5865 49.2649 38.9123 49.4844 39.35 49.4743C39.8387 49.4633 40.1472 49.2829 40.2404 48.9297C40.3336 48.5751 40.1723 48.2501 39.7408 48.0141C39.3532 47.8024 38.9397 47.6383 38.5513 47.429C37.9561 47.1079 37.606 46.6235 37.6311 45.9204C37.653 45.2922 37.9349 44.818 38.5144 44.5626C39.2662 44.2313 40.036 44.2586 40.798 44.5399C41.0932 44.6485 41.2373 44.8563 41.1473 45.1813C41.0588 45.5008 40.827 45.6219 40.5247 45.4743C40.1879 45.3102 39.8442 45.2126 39.4698 45.2508C39.1347 45.286 38.8089 45.3586 38.722 45.7516C38.6366 46.1352 38.8982 46.3282 39.1856 46.4751C39.5904 46.6829 40.0172 46.8477 40.4151 47.068C40.9194 47.3469 41.2467 47.7711 41.3101 48.3626C41.448 49.6383 40.7118 50.4274 39.3821 50.4305L39.3829 50.4313Z" fill="white"/>
<path d="M42.5882 47.3508C42.5882 46.5321 42.585 45.7125 42.5897 44.8938C42.5921 44.4938 42.7291 44.3781 43.1481 44.3821C43.4919 44.3852 43.6689 44.5149 43.6649 44.8961C43.6501 46.2867 43.6681 47.6781 43.6524 49.0696C43.6493 49.3633 43.7292 49.4531 44.022 49.4406C44.5295 49.4188 45.0385 49.4422 45.5468 49.4328C45.8811 49.4266 45.9845 49.6274 45.9822 49.9024C45.9806 50.1805 45.8647 50.368 45.535 50.3641C44.7268 50.3547 43.9187 50.3586 43.1113 50.3602C42.7385 50.3602 42.5756 50.1922 42.5835 49.8078C42.6007 48.9891 42.589 48.1696 42.589 47.3508H42.5882Z" fill="white"/>
<defs>
<linearGradient id="paint0_linear_131_311" x1="78" y1="17.5253" x2="7.40506" y2="63.6835" gradientUnits="userSpaceOnUse">
<stop stop-color="#B75CFF"/>
<stop offset="1" stop-color="#671AE4"/>
</linearGradient>
</defs>
</svg>
