<?xml version="1.0" encoding="utf-8"?>
<!-- Generator: Adobe Illustrator 23.0.5, SVG Export Plug-In . SVG Version: 6.00 Build 0)  -->
<svg version="1.1" id="Layer_1" xmlns="http://www.w3.org/2000/svg" xmlns:xlink="http://www.w3.org/1999/xlink" x="0px" y="0px"
	 viewBox="0 0 300 300" style="enable-background:new 0 0 300 300;" xml:space="preserve">
<style type="text/css">
	.st0{display:none;}
	.st1{display:inline;}
	.st2{fill:#66FCF1;}
</style>
<g class="st0">
	<rect x="-2.5" y="-2.5" class="st1" width="308" height="308"/>
	<path class="st1" d="M305-2v307H-2V-2H305 M306-3H-3v309h309V-3L306-3z"/>
</g>
<circle class="st2" cx="149.82" cy="151.16" r="144.84"/>
<path d="M200.27,225.44H99.65c-0.16-0.31-0.49-0.26-0.75-0.36c-2.99-1.12-4.77-3.59-4.77-6.77c-0.01-23.15-0.01-46.3,0-69.45
	c0-3.92,2.67-6.76,6.59-7.13c0.63-0.06,1.26-0.1,1.88-0.03c1.1,0.12,1.53-0.22,1.48-1.41c-0.1-2.36-0.06-4.74-0.02-7.1
	c0.09-5.6-0.44-11.23,0.5-16.79c3.22-18.88,14.01-31.33,32.14-37.52c3.17-1.08,6.5-1.4,9.77-1.99h6.98c1.1,0.44,2.29,0.36,3.43,0.52
	c21.62,2.99,38.75,22.32,39.02,44.11c0.07,6.04,0.01,12.08,0.03,18.13c0.01,2.28-0.34,2.03,1.96,2.04c5.25,0.03,7.97,2.73,7.97,7.96
	c0,13.83,0,27.65,0,41.47c0,8.94,0.01,17.89-0.01,26.83c-0.01,3.79-1.64,6.01-5.24,7.25C200.49,225.25,200.39,225.36,200.27,225.44
	L200.27,225.44z M149.98,221.09c14.39,0,28.79,0,43.18,0c1.84,0,3.68,0.03,5.53-0.01c1.78-0.04,2.8-1.02,2.81-2.81
	c0.03-6.91,0-13.83,0.03-20.74c0-0.86-0.35-1.06-1.13-1.04c-1.6,0.04-3.2,0.01-4.8,0.01c-2.09,0-3.15,1.05-3.18,3.15
	c-0.05,2.97-1.95,4.87-4.94,4.9c-3.1,0.03-6.2,0.02-9.31,0c-1.72-0.01-2.68-0.8-2.69-2.16c-0.01-1.38,0.94-2.18,2.65-2.18
	c2.81-0.01,5.62-0.07,8.43,0.03c1.24,0.04,1.52-0.36,1.52-1.54c-0.04-10.73-0.05-21.47,0.01-32.2c0.01-1.35-0.37-1.68-1.69-1.68
	c-17.45,0.04-34.89,0.03-52.34,0.03c-0.49,0-0.97,0.03-1.45-0.03c-1.1-0.13-1.77-0.76-1.89-1.87c-0.13-1.17,0.41-1.99,1.53-2.31
	c0.59-0.17,1.24-0.15,1.87-0.15c17.45-0.01,34.89-0.01,52.34-0.01c4.25,0,5.8,1.45,5.94,5.64c0.02,0.71,0.15,1.03,0.96,1.02
	c2.37-0.05,4.75-0.04,7.12-0.01c0.71,0.01,1.05-0.13,1.04-0.94c-0.03-5.8,0-11.6-0.03-17.41c-0.01-1.65-0.95-2.56-2.61-2.72
	c-0.43-0.04-0.87-0.02-1.31-0.02c-31.69,0-63.39,0-95.09,0c-0.44,0-0.88-0.02-1.31,0.02c-1.7,0.15-2.68,1.12-2.68,2.82
	c-0.03,5.75,0.01,11.51-0.03,17.26c-0.01,0.9,0.37,1.01,1.12,1c2.08-0.04,4.17-0.1,6.25,0.02c1.35,0.08,1.82-0.22,1.79-1.69
	c-0.06-3.07,1.91-4.94,5-4.97c3.2-0.03,6.4-0.02,9.59,0c1.64,0.01,2.67,0.95,2.62,2.27c-0.06,1.3-1,2.06-2.63,2.07
	c-2.86,0.01-5.72,0.07-8.58-0.02c-1.31-0.04-1.73,0.31-1.72,1.67c0.06,10.69,0.05,21.37,0,32.05c-0.01,1.31,0.33,1.7,1.68,1.69
	c17.45-0.05,34.89-0.03,52.34-0.03c0.44,0,0.88-0.03,1.31,0.01c1.24,0.1,2.13,1.02,2.13,2.15c0,1.13-0.88,2.05-2.12,2.17
	c-0.43,0.04-0.87,0.02-1.31,0.02c-17.54,0-35.09,0-52.63,0c-0.44,0-0.87,0.01-1.31-0.01c-2.21-0.15-3.95-1.66-4.3-3.83
	c-0.15-0.95-0.16-1.93-0.11-2.89c0.05-0.98-0.24-1.37-1.29-1.33c-2.13,0.07-4.27,0.08-6.4,0c-1.13-0.05-1.47,0.28-1.46,1.44
	c0.06,6.53,0.03,13.05,0.03,19.58c0,2.79,0.83,3.59,3.66,3.59C118.08,221.09,134.02,221.09,149.98,221.09L149.98,221.09z
	 M150.04,141.69c9.06,0,18.13-0.03,27.19,0.03c1.44,0.01,1.76-0.42,1.74-1.79c-0.08-5.56-0.02-11.12-0.04-16.68
	c-0.01-2.13-0.15-4.25-0.6-6.34c-3.19-14.75-16.58-24.43-31.62-22.87c-14.42,1.5-25.47,13.87-25.58,28.69
	c-0.05,5.85,0.03,11.7-0.04,17.55c-0.01,1.18,0.37,1.43,1.47,1.43C131.73,141.67,140.89,141.69,150.04,141.69L150.04,141.69z
	 M183.3,129.47c0,3.94,0.03,7.47-0.02,11c-0.01,0.93,0.26,1.27,1.22,1.24c1.89-0.06,3.78-0.1,5.67,0.01
	c1.21,0.07,1.42-0.4,1.41-1.48c-0.05-5.8-0.03-11.6-0.02-17.41c0.01-2.67-0.22-5.32-0.74-7.93c-5.21-25.96-32.21-40.63-56.73-30.38
	c-15.19,6.35-23.71,18.22-25.42,34.63c-0.74,7.12-0.14,14.3-0.27,21.45c-0.01,0.81,0.24,1.12,1.07,1.1c1.84-0.04,3.69-0.1,5.52,0.01
	c1.37,0.09,1.82-0.27,1.8-1.72c-0.09-5.56-0.03-11.12-0.04-16.68c0-2.28,0.15-4.53,0.57-6.77c2.91-15.43,16.15-26.56,32.12-26.99
	c15.3-0.41,29.13,10.22,32.86,25.19C183.56,119.73,183.23,124.81,183.3,129.47L183.3,129.47z M103.07,171.47
	c-1.21,0-2.42,0.04-3.63-0.01c-0.78-0.04-0.99,0.25-0.97,1c0.04,2.08,0.05,4.15,0,6.23c-0.02,0.79,0.29,0.97,1.01,0.96
	c2.37-0.03,4.75-0.04,7.12,0c0.77,0.01,1.01-0.26,0.99-1c-0.04-2.08-0.04-4.15,0-6.23c0.02-0.8-0.31-0.98-1.03-0.95
	C105.4,171.51,104.24,171.48,103.07,171.47L103.07,171.47z M196.99,179.63c1.16,0,2.32-0.03,3.48,0.01
	c0.71,0.03,1.06-0.15,1.04-0.95c-0.04-2.07-0.04-4.15,0-6.23c0.01-0.73-0.2-1.02-0.98-1c-2.37,0.04-4.74,0.03-7.12,0
	c-0.71-0.01-1.04,0.13-1.02,0.95c0.05,2.07,0.06,4.15,0,6.23c-0.03,0.89,0.35,1.04,1.11,1.01
	C194.67,179.6,195.83,179.64,196.99,179.63z M102.97,192.15c1.21,0,2.42-0.03,3.62,0.01c0.77,0.03,1.01-0.26,0.99-1
	c-0.04-2.03-0.03-4.05,0-6.07c0.01-0.77-0.18-1.13-1.05-1.11c-2.37,0.05-4.73,0.04-7.1,0c-0.79-0.01-0.98,0.28-0.97,1.01
	c0.04,2.07,0.04,4.15,0,6.22c-0.02,0.8,0.31,0.98,1.03,0.95C100.65,192.11,101.81,192.14,102.97,192.15L102.97,192.15z
	 M196.89,192.15c1.21,0,2.42-0.03,3.62,0.01c0.76,0.03,1.01-0.24,1-1c-0.04-2.07-0.04-4.15,0-6.22c0.01-0.78-0.31-0.98-1.03-0.97
	c-2.37,0.03-4.73,0.04-7.1,0c-0.77-0.01-0.99,0.26-0.98,1c0.04,2.07,0.04,4.15,0,6.22c-0.02,0.79,0.29,0.99,1.02,0.97
	C194.58,192.12,195.74,192.15,196.89,192.15L196.89,192.15z"/>
<path d="M133.28,193.61c-1.92-0.02-3.74-0.41-5.37-1.49c-0.53-0.35-1.01-0.75-1.31-1.33c-0.51-1.01-0.23-1.88,0.54-2.62
	c0.79-0.77,1.5-0.36,2.17,0.22c1.29,1.12,2.71,1.85,4.48,1.64c1.28-0.15,2.4-0.59,2.75-1.96c0.34-1.32-0.23-2.35-1.33-3.11
	c-1.53-1.05-3.31-1.58-4.91-2.48c-2.31-1.3-3.57-3.16-3.4-5.9c0.14-2.25,1.22-3.87,3.23-4.77c2.79-1.24,5.66-1.15,8.48-0.09
	c1.39,0.53,1.75,1.42,1.22,2.61c-0.44,1-1.14,1.45-2.19,0.88c-1.32-0.71-2.72-1.02-4.2-0.84c-1.22,0.15-2.31,0.57-2.57,1.95
	c-0.24,1.27,0.62,1.98,1.6,2.48c1.5,0.77,3.07,1.42,4.56,2.21c2.22,1.18,3.44,3.05,3.58,5.58
	C140.86,190.91,138,193.64,133.28,193.61z"/>
<path d="M151.24,193.62c-2.18-0.02-4.24-0.46-5.96-1.88c-0.81-0.67-1.4-1.49-0.9-2.65c0.58-1.37,1.54-1.68,2.71-0.75
	c1.2,0.95,2.41,1.77,4.03,1.73c1.81-0.04,2.96-0.71,3.31-2.02c0.35-1.32-0.25-2.52-1.86-3.4c-1.44-0.79-2.98-1.4-4.42-2.17
	c-2.21-1.19-3.51-2.99-3.42-5.6c0.08-2.33,1.13-4.09,3.28-5.04c2.79-1.23,5.65-1.13,8.48-0.08c1.1,0.4,1.63,1.18,1.3,2.38
	c-0.33,1.19-1.19,1.64-2.31,1.09c-1.25-0.61-2.53-0.97-3.92-0.83c-1.24,0.13-2.45,0.4-2.78,1.86c-0.32,1.42,0.65,2.14,1.72,2.69
	c1.5,0.77,3.09,1.38,4.57,2.2c1.87,1.04,3.09,2.61,3.32,4.81C158.91,190.67,156.18,193.6,151.24,193.62L151.24,193.62z"/>
<path d="M163.15,182.18c0-3.04-0.01-6.08,0.01-9.12c0.01-1.49,0.52-1.92,2.07-1.9c1.28,0.01,1.93,0.49,1.92,1.91
	c-0.05,5.16,0.01,10.33-0.05,15.5c-0.01,1.09,0.29,1.42,1.37,1.38c1.88-0.08,3.78,0.01,5.66-0.03c1.24-0.02,1.63,0.72,1.62,1.74
	c-0.01,1.03-0.44,1.73-1.66,1.71c-3-0.03-6-0.02-9-0.01c-1.38,0-1.99-0.62-1.96-2.05C163.19,188.26,163.15,185.22,163.15,182.18
	L163.15,182.18z"/>
<g>
</g>
<g>
</g>
<g>
</g>
<g>
</g>
<g>
</g>
<g>
</g>
<g>
</g>
<g>
</g>
<g>
</g>
<g>
</g>
<g>
</g>
<g>
</g>
<g>
</g>
<g>
</g>
<g>
</g>
</svg>
