<?xml version="1.0" encoding="utf-8"?>
<!-- Generator: Adobe Illustrator 23.0.5, SVG Export Plug-In . SVG Version: 6.00 Build 0)  -->
<svg version="1.1" id="Layer_1" xmlns="http://www.w3.org/2000/svg" xmlns:xlink="http://www.w3.org/1999/xlink" x="0px" y="0px"
	 viewBox="0 0 300 300" style="enable-background:new 0 0 300 300;" xml:space="preserve">
<style type="text/css">
	.st0{fill:#FFFFFF;}
</style>
<g>
	<path class="st0" d="M230.26,109.81c0,5.05-1.14,11.64-3.42,19.78c-1.95,6.51-3.83,13.1-5.62,19.78c-0.65,8.14-2.2,19.94-4.64,35.4
		c-0.49,2.28-2.44,3.42-5.86,3.42c-6.19,0-15.5-0.08-27.95-0.24c-12.45-0.16-21.85-0.24-28.2-0.24c-17.09,0-40.04,1.55-68.85,4.64
		c-1.63,0.16-6.02,0.82-13.18,1.95c-5.7,0.98-10.17,1.46-13.43,1.46c-4.23,0-6.35-3.99-6.35-11.96c0-4.23,2.77-16.03,8.3-35.4
		c5.37-18.39,9.28-30.27,11.72-35.64c1.14-2.6,3.25-3.91,6.35-3.91c6.35,0,15.87,0.33,28.56,0.98c12.7,0.65,22.22,0.98,28.56,0.98
		c13.34,0,35.4-1.95,66.16-5.86c16.11-2.11,23.68-3.17,22.71-3.17C228.55,101.76,230.26,104.44,230.26,109.81z"/>
</g>
<g>
</g>
<g>
</g>
<g>
</g>
<g>
</g>
<g>
</g>
<g>
</g>
<g>
</g>
<g>
</g>
<g>
</g>
<g>
</g>
<g>
</g>
<g>
</g>
<g>
</g>
<g>
</g>
<g>
</g>
</svg>
