<?xml version="1.0" encoding="utf-8"?>
<!-- Generator: Adobe Illustrator 23.0.5, SVG Export Plug-In . SVG Version: 6.00 Build 0)  -->
<svg version="1.1"
	 id="Layer_1" shape-rendering="geometricPrecision" image-rendering="optimizeQuality" text-rendering="geometricPrecision"
	 xmlns="http://www.w3.org/2000/svg" xmlns:xlink="http://www.w3.org/1999/xlink" x="0px" y="0px" viewBox="0 0 67.1 42.5"
	 style="enable-background:new 0 0 67.1 42.5;" xml:space="preserve">
<style type="text/css">
	.st0{fill-rule:evenodd;clip-rule:evenodd;}
	.st1{fill:#FFFFFF;}
</style>
<g>
	<path class="st0" d="M51.7,41.8c-2.3,0-4.3-0.4-6.3-1.1c-1.9-0.7-3.4-1.8-4.8-3.2c-1.3-1.4-2.3-3-3-4.9c-0.7-1.8-1-3.9-1-6.3
		c0-2,0.3-4,1-6.2c0.7-1.9,1.7-3.4,3.1-5c1.5-1.5,3-2.5,4.8-3.3c1.9-0.8,3.9-1.2,6.2-1.2c2.4,0,4.6,0.5,6.5,1.5
		c1.9,0.9,3.4,2.3,4.6,4c1.2,1.6,2,3.4,2.6,5.6c0.5,2.2,0.7,4.3,0.5,6.6l0,0.5H45.5c0.1,2.1,0.7,3.9,1.7,4.8c1.1,1,2.7,1.6,4.8,1.6
		c1.5,0,2.8-0.4,3.8-1.1c1.1-0.8,1.7-1.5,1.9-2.3l0.1-0.3h7.9l-0.2,0.7c-1.2,3.6-2.9,6.1-5.3,7.6C57.9,41,55.1,41.8,51.7,41.8z
		 M57.1,22.9c-0.3-1.5-0.9-2.8-1.7-3.7c-0.8-0.9-2.3-1.4-4-1.4c-1.2,0-2.1,0.2-2.9,0.5c-0.8,0.4-1.4,0.9-1.8,1.4
		c-0.5,0.6-0.8,1.2-0.9,1.8c-0.1,0.5-0.2,0.9-0.3,1.3H57.1z M1,41.3V0.8h19.1c1.8,0,3.5,0.2,5.2,0.5c1.5,0.3,2.8,0.8,4.2,1.7
		c1.1,0.8,2,1.8,2.8,3.2c0.6,1.3,1,2.9,1,4.9c0,2.2-0.5,3.9-1.5,5.3c-0.8,1.1-1.8,2.1-3.2,2.9c2,0.8,3.5,1.9,4.6,3.5
		c1.3,1.9,1.9,4.1,1.9,6.6c0,2-0.4,3.8-1.1,5.4c-0.8,1.5-1.8,2.7-3.2,3.8c-1.4,1-3,1.7-4.7,2.1c-2.1,0.5-3.7,0.7-5.2,0.7H1z
		 M19.4,33.5c0.8,0,1.6-0.1,2.3-0.3c0.8-0.2,1.4-0.4,1.8-0.7c0.6-0.4,1-0.9,1.3-1.4c0.3-0.6,0.5-1.2,0.5-2.3c0-1.8-0.5-3.2-1.5-4
		c-1-0.8-2.3-1.2-4.2-1.2h-8.8v9.8L19.4,33.5z M18.9,16.7c1.4,0,2.6-0.3,3.5-1c0.9-0.6,1.3-1.6,1.3-3.2c0-0.8-0.2-1.5-0.4-2.1
		c-0.2-0.5-0.7-0.9-1.1-1.2c-0.5-0.3-1.1-0.4-1.7-0.5c-0.7-0.1-1.5-0.2-2.1-0.2h-7.6v8.2H18.9z M42.8,8.9V4h17v4.9H42.8z"/>
	<path class="st1" d="M20.1,1.3c1.9,0,3.6,0.2,5.1,0.5c1.6,0.3,2.9,0.9,4,1.6c1.1,0.8,1.9,1.8,2.6,3c0.6,1.2,0.9,2.8,0.9,4.6
		c0,2-0.4,3.6-1.4,5c-0.9,1.3-2.2,2.4-4,3.3c2.4,0.7,4.2,1.9,5.4,3.7c1.2,1.8,1.8,3.9,1.8,6.3c0,2-0.4,3.7-1.1,5.2
		c-0.8,1.5-1.8,2.6-3.1,3.6c-1.3,0.9-2.8,1.6-4.5,2c-1.7,0.4-3.4,0.7-5.1,0.7H1.5V1.3H20.1 M10.2,17.2h8.7c1.5,0,2.8-0.4,3.8-1.1
		c1-0.7,1.5-1.9,1.5-3.6c0-0.9-0.2-1.7-0.5-2.3c-0.3-0.6-0.8-1.1-1.3-1.4c-0.6-0.3-1.2-0.5-1.9-0.6C19.8,8.1,19,8,18.3,8h-8.1V17.2
		 M19.4,34c0.9,0,1.7-0.1,2.4-0.3c0.8-0.2,1.5-0.4,2-0.8c0.6-0.4,1.1-0.9,1.4-1.6c0.4-0.7,0.5-1.5,0.5-2.5c0-2-0.6-3.5-1.7-4.4
		s-2.6-1.3-4.5-1.3h-9.3v10.8L19.4,34 M59.3,4.5v3.9h-16V4.5H59.3 M51.7,11.1c2.4,0,4.5,0.5,6.3,1.4c1.8,0.9,3.3,2.2,4.4,3.8
		c1.2,1.6,2,3.4,2.5,5.4s0.7,4.1,0.5,6.4H44.9c0,2.4,0.7,4.6,1.9,5.7c1.2,1.1,2.9,1.7,5.1,1.7c1.6,0,3-0.4,4.1-1.2
		c1.1-0.8,1.8-1.6,2.1-2.5H65c-1.1,3.4-2.8,5.9-5.1,7.3c-2.3,1.5-5,2.2-8.2,2.2c-2.3,0-4.3-0.4-6.1-1.1s-3.3-1.7-4.6-3.1
		c-1.2-1.3-2.2-2.9-2.9-4.7s-1-3.9-1-6.1c0-2.1,0.4-4.1,1-6c0.7-1.9,1.7-3.4,3-4.8c1.3-1.3,2.8-2.4,4.6-3.2
		C47.5,11.5,49.5,11.1,51.7,11.1 M44.9,23.4h12.8c-0.3-2-1-3.5-1.9-4.5c-0.9-1-2.5-1.6-4.4-1.6c-1.3,0-2.3,0.2-3.1,0.6
		s-1.5,0.9-2,1.6c-0.5,0.6-0.9,1.3-1,2C45.1,22.2,45,22.8,44.9,23.4 M20.1,0.3H1.5h-1v1v39.5v1h1h19.2c1.5,0,3.2-0.2,5.3-0.7
		c1.7-0.4,3.4-1.1,4.8-2.2l0,0l0,0c1.5-1.2,2.5-2.4,3.4-3.9l0,0l0,0c0.8-1.7,1.2-3.6,1.2-5.6c0-2.6-0.7-4.9-2-6.9
		c-1-1.4-2.3-2.6-3.9-3.3c1-0.7,1.9-1.6,2.5-2.5c1.1-1.5,1.6-3.3,1.6-5.6c0-2-0.3-3.7-1-5l0,0l0,0c-0.8-1.4-1.8-2.5-2.9-3.3l0,0l0,0
		c-1.4-0.9-2.8-1.4-4.4-1.7C23.7,0.4,21.9,0.3,20.1,0.3L20.1,0.3z M11.2,9h7.1C19,9,19.7,9,20.4,9.1c0.6,0.1,1,0.2,1.6,0.5
		c0.4,0.2,0.7,0.6,0.9,1c0.3,0.5,0.4,1.2,0.4,1.9c0,1.4-0.4,2.3-1.1,2.8c-0.9,0.6-2,0.9-3.2,0.9h-7.7V9L11.2,9z M11.2,24.1h8.3
		c1.7,0,3,0.4,3.9,1.1c0.9,0.7,1.3,2,1.3,3.6c0,1-0.1,1.5-0.4,2l0,0l0,0.1c-0.2,0.5-0.5,0.8-1,1.2l0,0l0,0c-0.3,0.3-1,0.4-1.6,0.6
		C21,32.9,20.2,33,19.4,33l-8.2-0.1V24.1L11.2,24.1z M60.3,3.5h-1h-16h-1v1v3.9v1h1h16h1v-1V4.5V3.5L60.3,3.5z M51.7,10.1
		c-2.3,0-4.5,0.4-6.4,1.3c-1.8,0.8-3.4,1.9-4.9,3.4c-1.5,1.6-2.5,3.3-3.2,5.2c-0.7,2.3-1.1,4.3-1.1,6.3c0,2.5,0.4,4.6,1.1,6.5
		c0.7,1.9,1.8,3.6,3.1,5c1.4,1.5,3,2.6,5,3.4c2,0.8,4.1,1.2,6.5,1.2c3.4,0,6.3-0.8,8.7-2.4c2.4-1.5,4.3-4.1,5.5-7.8l0.4-1.3H65h-6.9
		h-0.7l-0.2,0.7c-0.2,0.7-0.8,1.3-1.7,2c-0.9,0.7-2.1,1-3.5,1c-1.9,0-3.4-0.5-4.4-1.4c-0.8-0.7-1.4-2.2-1.5-4h19.5h0.9l0.1-0.9
		c0.2-2.3,0-4.5-0.5-6.7c-0.6-2.2-1.4-4.1-2.7-5.8c-1.2-1.7-2.8-3.1-4.8-4.1C56.5,10.6,54.2,10.1,51.7,10.1L51.7,10.1z M46.1,22.4
		c0-0.2,0.1-0.4,0.2-0.6l0-0.1l0-0.1c0.1-0.4,0.3-1,0.8-1.5l0,0l0,0c0.4-0.5,0.9-0.9,1.6-1.3c0.7-0.3,1.5-0.5,2.7-0.5
		c1.6,0,2.9,0.5,3.7,1.3c0.6,0.7,1.1,1.7,1.4,2.8H46.1L46.1,22.4z"/>
</g>
</svg>
