<?xml version="1.0" encoding="utf-8"?>
<!-- Generator: Adobe Illustrator 26.0.1, SVG Export Plug-In . SVG Version: 6.00 Build 0)  -->
<svg version="1.1" id="Layer_1" xmlns="http://www.w3.org/2000/svg" xmlns:xlink="http://www.w3.org/1999/xlink" x="0px" y="0px"
	 viewBox="0 0 657 722.8" style="enable-background:new 0 0 657 722.8;" xml:space="preserve">
<style type="text/css">
	.st0{fill:#FFFFFF;stroke:#000000;stroke-miterlimit:10;}
	.st1{fill:#0D0D0D;stroke:#000000;stroke-miterlimit:10;}
	.st2{fill:#0D0D0D;}
	.st3{fill:#020202;stroke:#000000;stroke-miterlimit:10;}
	.st4{fill:#181818;}
	.st5{fill:#00FFEF;}
	.st6{fill:#FDFDFD;}
	.st7{fill:#FEFEFE;}
	.st8{fill:#FAFAFA;}
</style>
<g>
	<path class="st0" d="M280.4,645.6c-1.5,0.1-2.6,0.1-3.7,0.2c-1.3,0.1-2.5,0.3-3.8,0.5c-11.4,2.3-19.8,8.4-22.7,20.1
		c-3.1,12-0.6,22.8,9.5,30.8c7.7,6.1,16.8,7.4,26.3,6c21-3.2,30.1-23.1,22.2-40.9C303,650.1,292.4,646.1,280.4,645.6L280.4,645.6z
		 M283.9,626.9c13.8,0.1,27,5.8,36.6,15.7c23,23.9,14.8,62.4-16.3,75c-20.9,8.5-41.6,7.1-59.9-6.8c-25.2-19-23.5-56.9,2.7-74.6
		C257,629.5,268.1,626.8,283.9,626.9L283.9,626.9z"/>
	<path class="st0" d="M22.1,655.3c0,2.7,0,5.5,0,8.2c0,0.8-0.1,1.6,1.1,1.6c4.7-0.2,9.4,0.5,14-0.7c5.2-1.3,8.1-5.4,7.8-10.2
		c-0.4-4.7-3.9-8.1-9.2-8.5c-4-0.3-8-0.1-12-0.2c-1.3,0-1.7,0.4-1.7,1.7C22.2,649.8,22.1,652.5,22.1,655.3L22.1,655.3z M22.1,693.1
		c0,2.9,0,5.8,0,8.8c0,1.2,0.1,2,1.7,2c5.4-0.1,10.9,0.1,16.4-0.3c4.4-0.3,8.8-1.5,11.1-5.9c3.2-6-0.2-12.6-7.6-14.4
		c-6.7-1.6-13.6-0.5-20.4-0.8c-1.5,0-1.1,1-1.1,1.8C22.1,687.3,22.1,690.3,22.1,693.1L22.1,693.1z M56.9,670.6
		c3.6,1.5,6.9,3.1,9.6,5.6c14.2,12.9,9.7,35.3-8.5,42.3c-5,1.9-10.4,2.9-15.7,2.8c-12.9,0-25.8,0-38.6,0.1c-2.7,0-3.6-0.8-3.6-3.5
		c0.1-28.7,0.1-57.4,0-86.1c0-2.6,0.7-3.7,3.5-3.7c11.9,0.1,23.8-0.1,35.7,0.2c9.4,0.2,17.7,3.6,23.8,11.2c7,8.9,5.6,21.7-3.2,28.9
		C58.9,669,58,669.7,56.9,670.6L56.9,670.6z"/>
	<path class="st0" d="M177.6,686.1c-0.3-4.1-0.3-8.2,0-12.3c0.1,0,0.2-0.1,0.2-0.1c0-0.2-0.1-0.3-0.1-0.4c0.3-1.5,1.6-1.3,2.6-1.3
		c10.6,0,21.1,0,31.6,0c2.1,0,3,0.9,3,3c0,11.5,0,23,0,34.6c0,2-1,3-2.6,3.9c-11.3,6.5-23.5,9.1-36.4,9.1c-12.1,0-23.4-2.8-33.6-9.5
		c-29-19.2-26.7-62.7,4.1-78.8c17.2-9,35.2-8.9,53.4-3.9c3.5,0.9,6.8,2.4,10.2,3.5c1.9,0.4,3.1,2.2,2.8,4.1c-0.1,4.2,0,8.4-0.1,12.6
		c0,3.6-1,4.2-4.3,2.7c-10.9-5-22.2-8-34.2-7.3c-9.8,0.6-18.5,3.9-24.5,12.3c-12.2,17-3.5,39.8,16.8,44.4c7.9,1.9,16.2,1.5,24-0.9
		c1.6-0.5,2.2-1.1,2.1-2.8c-0.1-2.5-0.1-5.1,0-7.6c0-1.4-0.5-1.9-1.9-1.8c-3.4,0.1-6.8,0.1-10.3,0c-1.2,0-2.6,0.3-3-1.5
		C178.4,687.3,178.4,686.7,177.6,686.1L177.6,686.1z"/>
	<path class="st0" d="M591.6,674.6c0-14.2,0-28.3,0-42.5c0-3.9,0.2-4.1,4.2-4.1H652c3.8,0,4,0.2,4,4c0,3.3-0.1,6.7,0,10
		c0.2,2.8-1,3.6-3.6,3.5c-12-0.1-24,0-36-0.1c-2.1,0-2.9,0.3-2.8,2.7c0.2,4.9,0.2,9.8,0,14.6c-0.1,2,0.6,2.4,2.5,2.3
		c11.5-0.1,23,0,34.6-0.1c2.7,0,3.7,0.8,3.6,3.5c-0.2,3.3,0,6.6,0,10c0,3.8-0.3,4-4,4c-11.2,0-22.5,0.1-33.7,0c-2.5,0-3,0.7-3,3.1
		c0.2,5.3,0.2,10.5,0,15.8c0,2,0.4,2.6,2.5,2.6c12.1-0.1,24.2-0.1,36.3,0c4.4,0,4.5,0.2,4.5,4.7c0,3.3,0,6.6,0,10
		c0,1.9-0.8,2.8-2.8,2.8c-19.9,0-39.8,0-59.8,0c-2.8,0-2.9-1.6-2.9-3.6c0-14.4,0-28.7,0-43.1L591.6,674.6z"/>
	<path class="st0" d="M537.9,682.5l12.6-28.2c3.5-7.9,7.1-15.8,10.6-23.7c0.8-1.8,1.9-2.7,4-2.6c5.3,0.1,10.5,0,15.8,0.1
		c3.8,0,4.3,0.9,2.7,4.4c-10.4,22.9-20.9,45.7-31.4,68.6c-2.9,6.3-5.8,12.6-8.6,18.9c-0.8,1.9-2,2.3-4,2.6c-4.4,0.5-6.7-1.1-8.6-5.2
		c-13-28.2-26.4-56.3-39.6-84.4c-2-4.2-1.5-4.9,3.1-4.9c4.9,0,9.8,0.1,14.6,0c2.5-0.1,3.8,0.8,4.9,3.1c7.5,16.5,15.1,32.9,22.7,49.4
		C537.1,681,537.4,681.5,537.9,682.5L537.9,682.5z"/>
	<path class="st0" d="M406.5,632.8c0,10.7,0.1,21.4,0.1,32.1c0,11.3-0.1,22.6-0.1,33.9c-1.4,1.2-1.4,2.5,0,3.7
		c0.3,1.8,1.7,1.2,2.7,1.2c13,0,26,0,39.1,0c1.3,0,3-0.5,3.5,1.6c-0.1,0.1-0.2,0.2-0.2,0.2c0.1,0.1,0.1,0.3,0.2,0.4
		c0,0.4,0,0.8,0,1.2c-0.6,0.4-0.6,0.8,0,1.2v10.6c-0.1,0-0.2,0.1-0.2,0.2c0,0.1,0.1,0.3,0.2,0.4c0,1.4-0.9,1.8-2.1,1.8
		c-21.1,0-42.3,0-63.4,0c-0.2,0-0.5-0.3-0.7-0.4c0-2.2,0-4.4,0-6.7v-80.4c0-0.8,0-1.6,0.1-2.3c0.3-1.8,0.9-3,3.2-2.8
		c3.6,0.2,7.2,0,10.8,0.1c1.6,0,3.3,0.6,4.8-0.5c2.5,0.1,2.4,1.8,2.1,3.5C405.4,632,405.7,632.4,406.5,632.8L406.5,632.8z"/>
	<path class="st0" d="M483,674.6c0,14.2,0,28.5,0,42.7c0,3.6-0.3,3.9-3.8,3.9c-4.9,0-9.8-0.1-14.6,0c-2.9,0.1-3.7-1-3.7-3.8
		c0.1-27.4,0.1-54.9,0-82.3c0-8.2-0.6-7.2,7.2-7.2c3.8,0,7.6,0.1,11.4,0c2.7-0.1,3.6,1,3.6,3.6C482.9,645.9,483,660.3,483,674.6
		L483,674.6z"/>
	<path class="st0" d="M108.5,675c0,14.1,0,28.3,0,42.4c0,3.7-0.1,3.8-3.8,3.8H90.4c-3.6,0-3.8-0.2-3.8-3.8c0-24.6,0-49.2,0-73.8
		c0-4.1,0.1-8.2,0-12.3c-0.1-2.5,0.8-3.5,3.3-3.4c5,0.1,9.9,0.2,14.9,0c2.8-0.1,3.8,0.9,3.7,3.7C108.5,646.1,108.6,660.5,108.5,675
		L108.5,675z"/>
	<path class="st0" d="M404.4,628.1c-1.5,1.1-3.2,0.5-4.8,0.5c-3.6,0-7.2,0.1-10.8-0.1c-2.2-0.1-2.9,1.1-3.2,2.8
		c-0.1,0.8-0.1,1.6-0.1,2.3v80.5c0,2.2,0,4.4,0,6.7c-1.4-0.6-1-1.8-1-2.8c0-28.9,0-57.8,0-86.7c0-2,0.4-3.4,2.9-3.4
		C393.1,628,398.8,628,404.4,628.1L404.4,628.1z"/>
	<path class="st1" d="M406.5,702.6c-1.4-1.2-1.4-2.5,0-3.7V702.6L406.5,702.6z"/>
	<path class="st0" d="M177.6,686.1c0.8,0.5,0.8,1.1,0.1,1.8C177.4,687.3,177.4,686.7,177.6,686.1L177.6,686.1z"/>
	<path class="st2" d="M406.5,632.8c-0.8-0.4-1.1-0.8,0-1.2V632.8L406.5,632.8z"/>
	<path class="st3" d="M451.9,708.3c-0.6-0.4-0.6-0.8,0-1.2V708.3L451.9,708.3z"/>
	<path class="st0" d="M177.7,673.2c0.1,0.1,0.1,0.3,0.1,0.4c0,0-0.1,0.1-0.2,0.1C177.6,673.6,177.7,673.4,177.7,673.2L177.7,673.2z"
		/>
	<path class="st3" d="M451.9,706c-0.1-0.1-0.2-0.3-0.2-0.4c0,0,0.1-0.1,0.2-0.2C451.8,705.6,451.8,705.8,451.9,706L451.9,706z"/>
	<path class="st3" d="M451.9,719.5c-0.1-0.1-0.1-0.3-0.2-0.4c0,0,0.1-0.1,0.2-0.2V719.5z"/>
	<path class="st4" d="M303.9,0.1c4.5,1.3,9.1,1.7,13.5,3.1c14.4,4.5,26.9,13.5,35.7,25.8c0.8,1.3,2.2,2.2,3.7,2.3
		c22.6,3.3,44.1,10.2,63.8,21.9c40.2,24,66.1,58.4,75.3,104.8c0.6,2.6,1,5.2,1.1,7.8c-0.1,4.9,2,8.5,4.9,12.3
		c13,17.1,16.5,36.5,12.5,57.4c-4.9,25.7-19,45.8-39.1,62.1c-6,4.9-12.4,9.1-19.3,12.7c-2.1,1.1-2,1.8-0.5,3.5
		c5.4,6.1,10.2,12.6,14.3,19.6c0.6,1.3,1.8,2.3,3.3,2.6c10,2.1,17.6,7.8,22.8,16.5c1.4,2.4,2.2,2.8,4.6,0.9
		c7.6-6.3,16.2-10.6,26.4-10.6c17.9-0.1,33.7,13.3,37.2,31.3c2.4,12.5,0.7,24.8-3.2,36.6c-9.1,28-23.7,52.8-44.4,73.8
		c-6.3,6.5-13.6,11.8-22.1,15c-13.8,5.2-26.5,1-34.2-11.5c-1.5-2.5-2.2-2.3-4-0.4c-15.4,16.3-34.4,26.7-55.4,33.8
		c-3.8,1.3-7.6,2.5-11.5,3.4c-1.7,0.3-3.2,1.5-3.8,3.2c-6.2,12.8-13.8,24.7-24.1,34.6c-8.7,8.3-18.5,14.9-30.6,16.7
		c-18.4,2.8-33-4-43.2-19.4c-2.7-4.1-5.3-5.4-10.1-5.3c-28.9,1.1-57.4-7.4-81-24.2c-8.8-6-16.4-13.6-22.5-22.4
		c-1.3-1.9-3.1-3.4-5.3-4.2c-22-8.9-41.3-21.6-56.3-40.3c-9.7-12.1-17.2-25.3-20.1-40.7c-1.3-6.1-1.1-12.5,0.3-18.6
		c3.9-15.3,17-22.6,31.7-17c5.3,2,9.6,3.2,14.6-0.2c2.4-1.7,5.8-1.8,8.8-1.9c1.4,0,1.9-0.3,1.3-1.9c-4.9-13.9-2.5-26.1,8.3-36.4
		c0.1-0.1,0.2-0.4,0.4-0.8c-4.6-2.1-8.9-4.8-12.7-8.1c-18.5-16.6-21.5-45.8-6.4-65.6c1.6-2.2,1.1-2.7-1-3.9
		c-17.3-9.7-26.9-24.8-29.8-44.1c-2.7-18.5,1.7-35.3,13.7-49.8c5.5-6.8,12.6-12.1,20.8-15.2c2.3-0.9,2.2-1.6,1-3.5
		c-26.7-42.9,0-99.8,50-106.6c11.4-1.6,22.9-0.2,33.6,3.9c1.8,0.7,2.4,0.5,2.9-1.5c7.6-28.4,29.8-47.7,58.8-51.2
		c0.5-0.1,1,0,1.3-0.5L303.9,0.1z"/>
	<path class="st5" d="M537.7,207.8c-2.6-9.2-5.1-18.2-7.5-27.2c-0.4-1.8-1.7-3.3-3.5-3.9c-4.4-1.6-8.7-3.5-13-5.3
		c-0.7-0.3-1.7-0.3-1.7-1.3s1.1-1,1.7-1.3c4.2-1.7,8.2-3.5,12.5-5c2.2-0.7,3.8-2.5,4.2-4.8c2.1-8,4.4-16,6.6-24c0.1-1,0.6-2,1.4-2.7
		c1.2,4.1,2.2,7.9,3.3,11.8c1.5,5.4,3.1,10.9,4.5,16.3c0.3,1.3,1.3,2.4,2.6,2.8c4.6,1.8,9.2,3.7,13.8,5.6c0.7,0.3,1.7,0.4,1.7,1.3
		c0,0.7-1,0.8-1.6,1.1c-4.1,1.6-8.1,3.4-12.2,4.8c-3,1-4.3,2.9-5,5.8c-2.1,8-4.3,16-6.6,24C538.9,206.7,538.5,207.4,537.7,207.8
		L537.7,207.8z"/>
	<path class="st6" d="M339.6,566.5c-17.1,8.9-35.9,3-46-14.2c-3.6-6.4-6.3-13.2-8-20.4c-1.2-4.5-3.3-6.4-6.3-5.6s-4,3.4-2.8,8
		c0.8,3,1.7,6,2.7,9c0.5,1.5,0.6,2.3-1.4,2.3c-31.3,0.6-59.4-8.3-83.6-28.7c-4.5-3.8-8.7-8-11.7-13s-7.4-7.3-12.2-9.4
		c-15.8-6.8-30.3-15.4-42.4-27.6c-12.6-12.7-22.5-27.2-26.3-45.1c-1.3-5.5-1.1-11.3,0.6-16.8c2.9-8.3,9.3-11.7,17.8-9.1
		c1.8,0.5,3.4,1.4,5.1,2.1c1,0.3,1.5,1.3,1.3,2.3c-0.5,5.1,1.9,9,5.9,11.7c7.9,5.3,16.3,9.7,25.8,11.4c1.7,0.3,1.9,0.8,1.2,2.2
		c-2,4.2-3.7,8.6-5,13.1c-1,3.3,0.1,5.9,2.8,6.7s5.1-0.6,6.2-3.9c3.6-11.3,8.9-21.9,15.6-31.6c1-1.4,1.3-3.1,1-4.7
		c-2.8-15.7-2.7-31.5-1.7-47.3c1-15.6-1.5-30.6-5.8-45.6c-3.4-11.9-9.1-22.9-13.2-34.6c-7.6-21.4-10.4-43.3-9.6-65.9
		c0.9-23.1,5.2-45.5,14.2-66.8c11.6-28,30.7-52.3,55.1-70.3c24.1-18.2,52.5-29.8,82.4-33.9c40.6-5.7,79.5-0.2,115.1,21
		c38.4,22.9,62.7,56.1,70.5,100.6c0.7,3.9,1,7.9,1.3,11.9c0.1,1.6,0.7,3.1,1.8,4.2c18.4,20.3,20.2,43.5,11.4,68.3
		c-8.2,23-24,39.6-44.6,52c-16.9,10.1-35.8,16.4-55.3,18.7c-0.4,0-0.8,0.1-1.2,0.2c-3.3,0.6-5.1,2.5-4.8,5.2s2.7,4.5,6,4.2
		c6.7-0.7,13.3-1.8,19.9-3.5c7.2-1.7,14.3-4,21.1-6.9c1.3-0.8,2.9-0.4,3.8,0.8c23.5,25,35.3,54.4,33.2,88.9
		c-1.4,21.8-6.9,42.5-19,61.1c-12.7,19.5-30.7,32.4-52,41.1c-5.4,2.2-10.9,4.1-16.6,5.7c-0.3-1.4,0.4-2.4,0.8-3.5
		c7.5-21,12.1-42.6,12-65c0.1-9.3-1.4-18.5-4.3-27.4c-7.5-22.1-26.2-34.5-50.2-33.2c-16.4,0.9-30,7.8-41.6,19.1
		c-2,1.9-3.2,2-5.6,0.7c-12.4-7.1-25.4-8.4-38.9-3.3c-1.5,0.6-3,1.4-4.4,2.4c-2.5,1.7-3.1,4.4-1.6,6.6c1.3,2.2,4.2,2.8,6.3,1.5
		c0,0,0.1,0,0.1-0.1c10.7-5.9,21.4-4.8,32,0.1c3.4,1.5,3.3,1.6,1.1,4.7c-4.4,6.1-8.1,12.7-11.2,19.5c-1.5,3.2-0.7,5.8,1.8,7
		s5.2,0.2,6.8-3.1c5.7-12.2,12.9-23.4,23.4-32.2s22.5-13.8,36.5-13.3c19.6,0.8,32.6,11.3,37.5,30.2c3,11.3,3.3,22.7,2.2,34.3
		c-2.3,0-2-1.8-2-3.1c0-3.3-0.5-6.6-1.5-9.8c-2.9-10.1-12.1-13.3-20-12.3c-9.6,1.2-16.6,7.1-22.5,14.1
		c-10.7,12.6-17.1,27.3-20.7,43.4c-3.2,13.3-4.7,26.9-4.5,40.6c0,7,1.4,14,4,20.6c2.1,4.9,5.1,9,10.3,11
		C339,564.2,340.3,564.8,339.6,566.5L339.6,566.5z"/>
	<path class="st5" d="M339.6,566.5c-0.4-0.3-0.7-0.8-1.1-0.9c-8.1-2.5-11.7-9-13.9-16.5c-2.8-9.7-3-19.6-2.2-29.6
		c0.9-12.2,2.6-24.3,6.1-35.9c4.5-14.9,11.2-28.7,22.4-39.9c5.4-5.5,11.5-9.9,19.5-11c9.1-1.3,19.5,2.4,22.5,14
		c0.9,2.9,1.3,5.9,1.3,8.9c-0.2,1.3,0,2.6,0.5,3.7c-0.7,9.8-2.4,19.5-5,29c-4.7,18.3-11.4,35.8-22,51.6c-7,10.5-15.3,19.6-26.5,25.8
		C340.7,566.1,340.2,566.3,339.6,566.5L339.6,566.5z"/>
	<path class="st7" d="M491.9,490.2c-13.9,6-22.1-2.5-26.2-11.6c-0.5-1.1-0.3-2.3,0.5-3.2c16.7-24.4,23.4-51.6,22.7-80.9
		c-0.2-5.6-0.8-11.1-1.9-16.5c-0.3-1.4-0.6-2.5,1.6-2s4-1,5.4-2.8c5.1-6.7,11.4-12.4,18.5-16.8c20.2-12.1,42.4,3.5,42.8,24.2
		c0.6,3.6,0.1,6.6-2.8,9.5c-4.9,4.8-7.5,11.1-10.6,17.1c-5.4,10.3-10,21-15.6,31.1c-6.6,12.1-13.6,23.9-21.9,34.9
		C500.2,478.9,496.4,484.9,491.9,490.2L491.9,490.2z"/>
	<path class="st5" d="M220.7,61.6c-32.7,22.3-55.9,51.7-69.3,88.8c-13.2-12.8-11.9-47.6,2.5-67.4C171.6,58.6,201.7,54.2,220.7,61.6
		L220.7,61.6z"/>
	<path class="st5" d="M240.4,50.1c3.3-14.6,19.2-33.9,43.4-39.2c23.1-5.1,46.4,4.9,57.4,18.7C305.8,27.8,272.3,34.2,240.4,50.1
		L240.4,50.1z"/>
	<path class="st5" d="M116.2,215c0.9-19.3,8.1-35.1,25.6-45c0.3-0.2,0.7-0.4,1-0.6c0.8-0.4,1.7-1.1,2.4-0.6s0.2,1.6,0,2.4
		c-5.6,24.7-6.8,50.2-3.6,75.3c0.5,4.1,1.5,8.2,2.2,12.4c0.1,0.7,0.8,1.6-0.1,2.1c-0.6,0.4-1.3-0.3-1.9-0.6
		c-12.5-6.8-19.9-17.5-23.7-30.9C116.8,224.8,116.2,219.9,116.2,215L116.2,215z"/>
	<path class="st5" d="M491.9,490.2c0.2-2.7,1.8-4.8,3.3-6.7c14.8-19.1,27.6-39.8,37.9-61.6c3.8-8,7.6-16,12-23.8
		c2.3-4.2,4.7-8.3,8.8-11.1c2.3-1.6,0.7-4.2,1.4-6.2c1.2,5.6,0.1,11.1-1,16.5c-3.9,20-12.9,37.9-23.9,54.9
		c-7.8,12.1-16.6,23.4-28.2,32.2C499.1,486.8,495.6,488.8,491.9,490.2L491.9,490.2z"/>
	<path class="st5" d="M138.2,300.9c0.1-7.7,2.5-15.2,6.8-21.5c1.7-2.5,2-2.5,3.3,0.1c7.9,16.2,15.3,32.6,18.8,50.5
		c0.4,2.2,0.7,4.4,1,6.6c0.4,3,0.2,3.2-2.8,2.3c-7.2-2-13.6-6.3-18.3-12.1C141.1,319.5,138,310.3,138.2,300.9L138.2,300.9z"/>
	<path class="st5" d="M168.1,369.9c-0.2,5.9-0.1,11.9,0.2,17.8c0.1,0.8,0.5,1.9-0.4,2.4s-1.7-0.3-2.4-0.7
		c-9.5-5.2-12.7-20.4-6.3-30.2c1.8-2.9,4.3-5.3,7.4-6.9c1.8-0.9,2.4-0.4,2.3,1.6c-0.1,5.4,0,10.7,0,16L168.1,369.9L168.1,369.9z"/>
	<path class="st5" d="M148.1,394.8c7.9-0.1,13.8,4.7,15,12c1,5.7-2,8.3-7.4,6.3c-6.1-2.1-11.9-4.9-17.3-8.4c-3.7-2.5-3.5-5,0.3-7.3
		C141.6,395.7,144.8,394.8,148.1,394.8L148.1,394.8z"/>
	<path class="st8" d="M485,369c-2-7.3-4.5-14.4-7.5-21.3c4.2,1.7,6.6,4.6,8.9,7.5C491.5,361.8,491.4,362.6,485,369L485,369z"/>
	<path class="st4" d="M309.2,380.1c-5.6-0.1-11.1-1.1-16.3-3.1c-1.7-0.7-3.7-0.5-5.1,0.6c-4.8,3.2-10.2,5.5-15.8,6.7
		c-3.5,0.8-6.1-0.6-6.6-3.5s1.1-4.9,4.5-5.7c5.5-1.2,10.8-3.6,15.3-7.1c2.8-2.1,5.3-2.2,8.4-0.9c5.7,2.5,12,3.7,18.3,3.4
		c11.2-0.7,19.7-10.3,19-21.5c0-0.4-0.1-0.8-0.1-1.2c-0.6-5.5,0.8-7.1,6.3-7.2c4.5-0.1,9-0.5,13.2-2.2c2.6-1.1,4.6-2.6,4.3-5.9
		c-0.3-3.1-2.7-3.8-5-4.5c-2.8-0.7-5.8-1-8.7-1c-7.3-0.2-14.6-0.3-22-0.5c-4.7-0.1-6.3-2.2-5.5-6.8c0.6-2.8,0.7-5.6,0.3-8.4
		c-0.4-1.9-1.2-3.5-3.3-4.1s-3.6,0.3-4.9,1.8c-2.5,2.9-4.3,6.3-5.4,10c-0.5,2.2-2.1,4-4.2,4.8c-3.8,1.5-6,4.7-7.4,8.3
		c-0.9,2.5-3.2,4.3-5.8,4.7c-7.8,1.5-15.5,1.1-23.3,0.4c-1-0.1-1.9-0.5-2.7-1.1c-4.2-3-8-6.5-11.3-10.6c-2.1-2.8-2-5.5,0.2-7.3
		s5.1-1.4,7.1,1.4c4.7,6.4,10.5,9.9,18.7,8.6c0.6-0.1,1.2-0.1,1.8,0c4.3,0.3,7.8-0.5,9.6-5.1c0.9-2.2,2.6-4,4.7-5.1
		c3-1.8,4.7-4.4,6-7.5c1.5-3.9,4.1-7.4,7.4-10c5.9-4.7,14.4-3.7,19.1,2.2c1,1.2,1.7,2.6,2.2,4.1c0.9,2.4,1.3,4.9,1.2,7.5
		c-0.2,2.6,0.9,3.1,3.2,3.1c5.9,0,11.7,0.2,17.6,0.4c4.4,0.2,8.8,0.8,12.7,3c6.8,3.7,9.4,12.2,5.7,19.1c-0.9,1.8-2.3,3.3-3.9,4.5
		c-4.5,3.5-9.8,4.8-15.3,5.3c-2.1,0.2-2.9,0.8-3.2,3.1C338.4,369.2,325.9,380.2,309.2,380.1L309.2,380.1z"/>
	<path class="st4" d="M378.1,272.3c-16.9,0.3-31-1.1-44.7-5.6c-6.8-2.2-13.2-5.4-19-9.5c-3-2.1-3.7-4.8-2-7.2s4.5-2.6,7.5-0.5
		c11.6,8.2,24.9,11.7,38.7,12.8c30.8,2.6,61.7-3.2,89.5-16.8c9.5-4.6,18.2-10.5,25.2-18.7c3.8-4.2,6.4-9.3,7.7-14.9
		c0.1-0.4,0.2-0.8,0.3-1.1c1-2.8,3.3-4.1,5.9-3.3c2.4,0.7,3.7,3,3.1,5.8c-2.3,10.9-8.7,19.3-16.8,26.4
		c-11.4,10.1-24.8,16.7-39.1,21.8C416.4,267.9,397.3,271.6,378.1,272.3L378.1,272.3z"/>
	<path class="st4" d="M326.2,208.7c0-11.2,8.5-20.1,19.3-20.1c10.9,0,19.8,9.1,19.9,20.4s-8.5,20.3-19.4,20.3S326.2,220,326.2,208.7
		L326.2,208.7z"/>
	<path class="st4" d="M470.7,187.4c0.1,4.3-1.3,8.6-3.8,12.1c-4.6,6.3-12.5,7.5-18.8,2.8c-8.5-6.4-10.7-20-4.5-28.7
		c5.1-7.3,14.4-8.1,20.7-1.8C468.4,175.9,470.7,181.5,470.7,187.4L470.7,187.4z"/>
</g>
</svg>
