<?xml version="1.0" encoding="UTF-8"?>
<svg id="Layer_2" data-name="Layer 2" xmlns="http://www.w3.org/2000/svg" viewBox="0 0 481 481">
  <defs>
    <style>
      .cls-1 {
        fill: #fff;
      }

      .cls-2 {
        fill: #9ed4f8;
      }

      .cls-3 {
        fill: #4fb1f3;
      }
    </style>
  </defs>
  <g id="Layer_1-2" data-name="Layer 1">
    <rect class="cls-3" width="481" height="481" rx="57.37" ry="57.37"/>
    <g>
      <path class="cls-2" d="m244.94,157.83c-.99-.54-.66-2.04.46-2.12,4.65-.33,9.31-.74,13.93-.47,10.91.64,22.14.55,32.62,3.22,47.61,12.13,78.68,42.1,89.63,90.16,8.8,38.64-.51,73.89-26.91,104.04-19.06,21.78-43.25,34.17-71.39,39.02-5.82,1-11.73,1.47-17.64,1.42-21.85-.18-43.78.44-65.53-1.21-17.2-1.31-33.28-7.94-47.98-17.27-31.61-20.07-49.38-49.18-55.41-85.75-.78-4.72-.39-9.65-.39-14.48-.02-45.5-.02-91.01.02-136.51,0-1.02.14-2.05.31-3.07s1.57-1.3,2.11-.37c.08.14.16.28.23.43,6.9,13.84,17.79,21.39,33.51,20.19,14.15-1.08,24.25-8.19,29.17-21.9.2-.55.87-.93,1.32-1.39.22,2.47.62,4.95.63,7.42.04,43.51-.09,87.01.15,130.52.03,6.38.87,13.03,2.83,19.06,7.25,22.31,26.27,36,49.69,36.28,16.16.19,32.33.2,48.49.05,23.2-.23,43.1-14.91,49.74-36.43,9.03-29.25-11.65-61.39-41.76-64.48-8.41-.86-16.93-.67-25.4-1.02-.92-.04-1.83-.13-2.74-.24-1.12-.13-1.39-1.7-.35-2.15.01,0,.02,0,.03-.01,13.5-5.69,20.67-16.1,21.16-30.48.48-14.19-5.89-24.95-18.77-31.51-.59-.3-1.18-.62-1.77-.93Z"/>
      <path class="cls-1" d="m241.21,155.95c.2,0,.4.05.57.14,1.64.9,3.27,1.82,4.93,2.67,12.88,6.56,19.26,17.32,18.77,31.51-.49,14.38-7.65,24.79-21.16,30.48-.93.39-1.75,1.06-2.6,1.63-.15.1-.32.16-.49.18-8.88,1.11-17.73,1.47-25.76-3.44-18.4-11.24-24.62-34-9.22-52.09,6.46-7.59,14.65-11.61,24.87-10.98,3.35.2,6.72-.04,10.09-.1Z"/>
      <path class="cls-1" d="m163.06,131.36c-.04.28-.17.53-.39.71-.4.34-.83.66-.99,1.09-4.92,13.72-15.02,20.82-29.17,21.9-15.72,1.2-26.61-6.35-33.51-20.19-.46-.93-1.13-1.75-1.73-2.61-.1-.14-.16-.3-.19-.47-2.04-11.79-.96-22.84,7.22-32.46,5.01-5.89,11.21-9.93,18.7-10.95,16.01-2.18,29,2.79,37.28,18.21,4.18,7.78,3.91,16.29,2.78,24.78Z"/>
    </g>
  </g>
</svg>