<?xml version="1.0" encoding="utf-8"?>
<!-- Generator: Adobe Illustrator 26.0.1, SVG Export Plug-In . SVG Version: 6.00 Build 0)  -->
<svg version="1.1" id="Layer_1" xmlns="http://www.w3.org/2000/svg" xmlns:xlink="http://www.w3.org/1999/xlink" x="0px" y="0px"
	 viewBox="0 0 700 800" style="enable-background:new 0 0 700 800;" xml:space="preserve">
<style type="text/css">
	.st0{fill:#FFFFFF;}
	.st1{fill:#7289DA;}
</style>
<rect x="77.8" y="149.5" class="st0" width="544.3" height="409.8"/>
<path id="path116" class="st1" d="M278.1,336c-22.7,0-40.5,19.9-40.5,44.1s18.3,44.1,40.5,44.1c22.7,0,40.5-19.9,40.5-44.1
	C319,355.9,300.7,336,278.1,336z M423.1,336c-22.7,0-40.5,19.9-40.5,44.1s18.3,44.1,40.5,44.1c22.7,0,40.5-19.9,40.5-44.1
	S445.8,336,423.1,336z"/>
<path id="path118" class="st1" d="M618,0H82C36.8,0,0,36.8,0,82.4v540.8c0,45.6,36.8,82.4,82,82.4h453.6l-21.2-74l51.2,47.6L614,724
	l86,76V82.4C700,36.8,663.2,0,618,0z M463.6,522.4c0,0-14.4-17.2-26.4-32.4c52.4-14.8,72.4-47.6,72.4-47.6
	c-16.4,10.8-32,18.4-46,23.6c-20,8.4-39.2,14-58,17.2c-38.4,7.2-73.6,5.2-103.6-0.4c-22.8-4.4-42.4-10.8-58.8-17.2
	c-9.2-3.6-19.2-8-29.2-13.6c-1.2-0.8-2.4-1.2-3.6-2c-0.8-0.4-1.2-0.8-1.6-1.2c-7.2-4-11.2-6.8-11.2-6.8s19.2,32,70,47.2
	c-12,15.2-26.8,33.2-26.8,33.2c-88.4-2.8-122-60.8-122-60.8c0-128.8,57.6-233.2,57.6-233.2c57.6-43.2,112.4-42,112.4-42l4,4.8
	c-72,20.8-105.2,52.4-105.2,52.4s8.8-4.8,23.6-11.6c42.8-18.8,76.8-24,90.8-25.2c2.4-0.4,4.4-0.8,6.8-0.8c24.4-3.2,52-4,80.8-0.8
	c38,4.4,78.8,15.6,120.4,38.4c0,0-31.6-30-99.6-50.8l5.6-6.4c0,0,54.8-1.2,112.4,42c0,0,57.6,104.4,57.6,233.2
	C586,461.6,552,519.6,463.6,522.4L463.6,522.4z"/>
</svg>
