<?xml version="1.0" encoding="utf-8"?>
<!-- Generator: Adobe Illustrator 26.0.1, SVG Export Plug-In . SVG Version: 6.00 Build 0)  -->
<svg version="1.1" id="Layer_1" xmlns="http://www.w3.org/2000/svg" xmlns:xlink="http://www.w3.org/1999/xlink" x="0px" y="0px"
	 viewBox="0 0 240 240" style="enable-background:new 0 0 240 240;" xml:space="preserve">
<style type="text/css">
	.st0{fill:#ED3675;}
	.st1{fill-rule:evenodd;clip-rule:evenodd;fill:#BD1949;}
</style>
<circle class="st0" cx="120" cy="120" r="116.2"/>
<path class="st1" d="M120,0C53.8,0,0,53.8,0,120s53.8,120,120,120c66.1,0,120-53.8,120-120S186.1,0,120,0z M199.3,55.3
	c14.3,17.4,22.9,39.7,23.2,63.8c-3.4-0.6-37.2-7.5-71.3-3.3c-0.8-1.7-1.4-3.5-2.2-5.3c-2.1-4.9-4.4-10-6.8-14.8
	C179.9,80.3,197.1,58.2,199.3,55.3z M120,17.7c26,0,49.8,9.8,67.9,25.8c-1.8,2.6-17.3,23.3-53.8,37c-16.8-30.8-35.4-56.1-38.3-60
	C103.6,18.6,111.7,17.7,120,17.7z M76.4,27.3c2.7,3.6,21,29,38,59.2C66.5,99.3,24.2,99,19.6,99C26.3,67.3,47.8,40.9,76.4,27.3z
	 M17.4,120.1c0-1,0-2.1,0-3.1c4.4,0.1,54.1,0.8,105.3-14.6c3,5.7,5.7,11.6,8.3,17.4c-1.3,0.4-2.7,0.8-4,1.2
	c-52.8,17.1-81,63.6-83.3,67.5C27.5,170.5,17.4,146.4,17.4,120.1z M120,222.6c-23.7,0-45.6-8.1-62.9-21.6c1.8-3.8,22.6-43.9,80.4-64
	c0.3-0.1,0.4-0.1,0.7-0.3c14.4,37.4,20.3,68.7,21.9,77.7C147.7,219.7,134.2,222.6,120,222.6z M177.1,205c-1-6.2-6.5-36.2-19.9-73
	c32.1-5.1,60.3,3.3,63.8,4.4C216.6,164.9,200.2,189.5,177.1,205z"/>
</svg>
