<?xml version="1.0" encoding="UTF-8"?>
<svg id="Layer_2" data-name="Layer 2" xmlns="http://www.w3.org/2000/svg" viewBox="0 0 382.84 383.13">
  <defs>
    <style>
      .cls-1 {
        fill: #017cf5;
      }

      .cls-2 {
        fill: #0168e3;
      }

      .cls-3 {
        fill: #0180f9;
      }

      .cls-4 {
        fill: #0170eb;
      }

      .cls-5 {
        fill: #016ae5;
      }

      .cls-6 {
        fill: #0177f1;
      }

      .cls-7 {
        fill: #0173ed;
      }

      .cls-8 {
        fill: #016de7;
      }

      .cls-9 {
        fill: #017af4;
      }

      .cls-10 {
        fill: #0166e2;
      }

      .cls-11 {
        fill: #016ee9;
      }
    </style>
  </defs>
  <g id="Layer_1-2" data-name="Layer 1">
    <g>
      <path class="cls-7" d="m156.39,202.31c3.33-3.48,6.65-6.97,9.64-10.1-32.41-32.41-64.84-64.84-97.71-97.71-4.43,6.79-9.23,14.17-14.04,21.54-.87-1.2-1.57-2.57-2.62-3.57-7.57-7.18-15.2-14.29-22.81-21.42,4.48-6.62,8.43-13.7,13.58-19.75,7.3-8.57,15.52-16.36,23.28-24.55,2.24-2.36,3.93-2.58,6.46-.04,47.62,47.79,95.32,95.49,143.01,143.22.23.23.41.52.4.51-11.55,11.93-23.07,23.83-34.58,35.72-4.46-4.18-8.97-8.31-13.37-12.55-1.84-1.78-3.38-3.88-5.18-5.7-1.93-1.95-4.01-3.74-6.03-5.6Z"/>
      <path class="cls-3" d="m344.07,155.12c-2.73-8.15-5.01-16.48-8.27-24.41-6.8-16.5-16.19-31.45-28.39-44.59-14.25-15.35-30.65-27.71-49.68-36.53-13.66-6.33-27.94-10.57-42.85-12.64-3.37-3.49-6.71-7.01-10.12-10.45-6.18-6.23-12.49-12.32-18.54-18.68-2.1-2.21-3.57-5.01-5.33-7.54,35.5-1.85,69.06,5.27,100.59,21.78,20.01,10.48,37.59,24.19,52.66,40.91,17.58,19.5,30.83,41.7,38.93,66.78,4.58,14.18,8.41,28.54,8.85,43.58.16,5.27.53,10.52.8,15.79-8.63-8.04-17.21-16.14-25.92-24.1-3.97-3.62-6.37-9.32-12.71-9.9Z"/>
      <path class="cls-10" d="m182.87,382.95c-14.75-1.22-29.27-3.37-43.59-7.51-24.23-7.01-46.33-18.13-65.96-33.75-9.68-7.7-18.06-17.03-26.97-25.68-.65-.63-.89-1.68-.82-1.54,10.98-11.41,21.58-22.42,32.18-33.42,2.57,1.71,5.3,3.22,7.66,5.18,2,1.67,3.51,3.91,5.36,5.79,4.03,4.1,8.12,8.14,12.19,12.2-2.69,2.88-5.38,5.77-8.44,9.06,14.84,13.18,32.47,20.76,50.43,27.74.08.49-.01,1.15.27,1.44,9.23,9.46,18.59,18.79,27.71,28.36,3.6,3.78,6.67,8.07,9.98,12.13Z"/>
      <path class="cls-2" d="m34.7,194.12c1.71,23.29,6.1,45.88,16.99,66.85.66,1.26.74,3.84-.08,4.69-7.67,8.02-15.58,15.8-23.86,24.07-1.16-1.8-2.09-3.07-2.85-4.44-10.35-18.54-18.14-38.19-21.7-59.04C.76,211.91.62,197.14.02,182.54c-.21-5.1,1.3-10.28,2.02-15.42,1.22.63,2.71,1.01,3.61,1.95,2.67,2.75,4.9,5.94,7.68,8.57,3.82,3.61,7.89,6.98,12.04,10.21,2.95,2.29,6.2,4.19,9.32,6.27Z"/>
      <path class="cls-9" d="m180.87.29c1.76,2.53,3.23,5.33,5.33,7.54,6.05,6.35,12.37,12.45,18.54,18.68,3.41,3.45,6.75,6.97,10.12,10.45-12.74-1.64-25.4-2.19-38.32-1.08-19.55,1.67-37.74,7.27-55.37,15.42-1.03.48-3.07.38-3.8-.32-7.99-7.74-15.81-15.65-24.06-23.89,12.25-7.74,24.81-13.86,38.16-17.56,13.45-3.73,27.38-5.71,41.11-8.36,2.72-.52,5.52-.59,8.28-.87Z"/>
      <path class="cls-4" d="m327.92,325.23c-20.48,21.6-45.16,36.63-73.05,46.61-.98-2.03-1.52-4.49-3.02-6.02-4.23-4.32-9.01-8.09-13.25-12.39-3.18-3.22-5.86-6.93-8.77-10.43,28.37-7.95,53.35-21.74,74-43,2.35,2.54,4.67,5.11,7.07,7.61,5.66,5.89,11.35,11.74,17.03,17.61Z"/>
      <path class="cls-8" d="m34.7,194.12c-3.12-2.07-6.37-3.97-9.32-6.27-4.15-3.23-8.22-6.6-12.04-10.21-2.78-2.62-5.01-5.81-7.68-8.57-.91-.94-2.39-1.32-3.61-1.95,1.32-7.81,2.12-15.76,4.07-23.4,4.78-18.72,12.2-36.38,22.72-52.66,7.61,7.13,15.25,14.24,22.81,21.42,1.05,1,1.76,2.37,2.62,3.57-7,13.68-12.75,27.83-15.76,42.95-1.18,5.89-1.93,11.89-2.57,17.87-.62,5.73-.84,11.51-1.23,17.27Z"/>
      <path class="cls-6" d="m327.92,325.23c-5.68-5.87-11.37-11.72-17.03-17.61-2.4-2.5-4.71-5.07-7.07-7.61,19.18-19.49,31.57-42.86,39.3-68.88,2.03,1.35,5.03,2.23,5.93,4.12,3.63,7.63,10.81,11.69,16.41,17.29,1.47,1.47,4.13,1.76,6.24,2.59-4.62,10.41-8.6,21.18-14.02,31.16-7.84,14.46-17.59,27.69-29.77,38.95Z"/>
      <path class="cls-5" d="m229.83,343c2.9,3.49,5.59,7.2,8.77,10.43,4.24,4.3,9.03,8.08,13.25,12.39,1.5,1.53,2.04,3.98,3.02,6.02-23.31,8.18-47.26,12.19-72,11.11-3.31-4.06-6.38-8.35-9.98-12.13-9.12-9.57-18.48-18.9-27.71-28.36-.28-.29-.19-.95-.27-1.44,6.62,1.51,13.17,3.51,19.87,4.43,11.79,1.62,23.57,3.91,35.63,1.82,9.76-1.69,19.61-2.87,29.43-4.27Z"/>
      <path class="cls-1" d="m371.7,255.12c-2.11-.83-4.77-1.11-6.24-2.59-5.6-5.6-12.78-9.67-16.41-17.29-.9-1.89-3.89-2.77-5.93-4.12,1.09-6.35,2.76-12.66,3.15-19.05.69-11.42,1.04-22.89.71-34.32-.22-7.57-1.89-15.09-2.92-22.63,6.34.59,8.75,6.28,12.71,9.9,8.71,7.95,17.29,16.06,25.92,24.1.89,19.94-2.54,39.3-7.97,58.37-.75,2.62-2.01,5.09-3.03,7.63Z"/>
      <path class="cls-11" d="m156.39,202.31c2.02,1.86,4.1,3.66,6.03,5.6,1.81,1.82,3.34,3.92,5.18,5.7,4.4,4.25,8.91,8.37,13.37,12.55l-44,44c-6.83-6.64-13.62-13.33-20.52-19.9-1.37-1.3-3.16-2.15-4.75-3.21,14.9-14.92,29.79-29.84,44.69-44.75Z"/>
      <path class="cls-5" d="m111.7,247.06c1.6,1.06,3.39,1.91,4.75,3.21,6.9,6.57,13.69,13.25,20.52,19.9-11.35,11.35-22.71,22.71-34.06,34.06-4.07-4.06-8.17-8.1-12.19-12.2-1.84-1.88-3.35-4.12-5.36-5.79-2.36-1.96-5.09-3.47-7.66-5.18l33.99-34Z"/>
    </g>
  </g>
</svg>