<svg xmlns="http://www.w3.org/2000/svg" viewBox="0 0 365.82 358.5"><defs><style>.cls-1{fill:#fff;stroke:#339ff8;stroke-miterlimit:10;}.cls-2{fill:#339ff8;}</style></defs><g id="Layer_2" data-name="Layer 2"><g id="Layer_1-2" data-name="Layer 1"><path class="cls-1" d="M365.32,179A178.82,178.82,0,0,1,85.72,326.9a58.58,58.58,0,0,1-15.3,4.9c-1.5.3-3.1.6-4.6.8-13.6,2.2-28.9,2.4-37.3,1.4-19.3-2.3-39.6-18.3-20.1-33.9,8.9-7.1,14.5-12.9,17.9-17.6.3-.5.7-.9.9-1.3,7-10.3,3.3-14.7,3.3-14.7a178.79,178.79,0,0,1,.4-175.8l.3-.6A179.18,179.18,0,0,1,131.62,8.6a215.07,215.07,0,0,1,219.3,99.9A178,178,0,0,1,365.32,179Z"/><path class="cls-2" d="M99.12,216.9V163.2c0-4.9-4.3-5-4.3-5H83.22c-4.1,0-4.1,4.2-4.1,4.2v55.3c0,4.8,3.5,5,3.5,5h11.9C99.42,222.6,99.12,216.9,99.12,216.9Zm-10-92.3c-6.5,0-10.7,4.4-10.6,10.2-.1,5.5,4.1,10,10.4,10,6.6,0,10.8-4.5,10.8-10C99.72,129,95.62,124.6,89.12,124.6Zm107,32.1a23.11,23.11,0,0,0-12.2,3.2,29,29,0,0,0-8.3,7.8h-.3c-2.8-6.7-9.4-11-17.7-11-11.1,0-16.7,6.1-19.5,10.2h-.4l-.5-4.8a4.79,4.79,0,0,0-4.7-3.9h-8.4a3.81,3.81,0,0,0-4.1,3.9s.4,10.4.4,16.7v37s0,6.9,6.4,6.9h8.6c5.2,0,4.5-6.9,4.5-6.9V185.1a12.49,12.49,0,0,1,.8-5c1.2-3.3,4.2-7.2,9.4-7.2,6.3,0,9.2,5.5,9.2,13.7v29.3c0,6.5,5.1,6.9,5.1,6.9h8.9c5.6,0,5.5-6.3,5.5-6.3V185.1a17,17,0,0,1,.8-5.1c1.3-3.8,4.6-7,9.2-7,6.5,0,9.5,5.4,9.5,14.8v27.7s-1,7.4,4.1,7.4h10.8s4.6-.5,4.6-6.9V184.9C217.92,165.4,208.52,156.7,196.12,156.7Zm73.7,0c-20.7,0-34.4,13.3-34.4,34.2s14.5,33.2,33.3,33.2c17.3,0,34-10.8,34-34.4C302.72,170.3,289.62,156.7,269.82,156.7Zm-.5,53c-8.6,0-13.2-8.3-13.2-19.4,0-9.5,3.6-19.4,13.2-19.4,9.1,0,12.8,9.8,12.8,19.4C282,201.9,277,209.7,269.32,209.7Zm.5-53c-20.7,0-34.4,13.3-34.4,34.2s14.5,33.2,33.3,33.2c17.3,0,34-10.8,34-34.4C302.72,170.3,289.62,156.7,269.82,156.7Zm-.5,53c-8.6,0-13.2-8.3-13.2-19.4,0-9.5,3.6-19.4,13.2-19.4,9.1,0,12.8,9.8,12.8,19.4C282,201.9,277,209.7,269.32,209.7Zm-73.2-53a23.11,23.11,0,0,0-12.2,3.2,29,29,0,0,0-8.3,7.8h-.3c-2.8-6.7-9.4-11-17.7-11-11.1,0-16.7,6.1-19.5,10.2h-.4l-.5-4.8a4.79,4.79,0,0,0-4.7-3.9h-8.4a3.81,3.81,0,0,0-4.1,3.9s.4,10.4.4,16.7v37s0,6.9,6.4,6.9h8.6c5.2,0,4.5-6.9,4.5-6.9V185.1a12.49,12.49,0,0,1,.8-5c1.2-3.3,4.2-7.2,9.4-7.2,6.3,0,9.2,5.5,9.2,13.7v29.3c0,6.5,5.1,6.9,5.1,6.9h8.9c5.6,0,5.5-6.3,5.5-6.3V185.1a17,17,0,0,1,.8-5.1c1.3-3.8,4.6-7,9.2-7,6.5,0,9.5,5.4,9.5,14.8v27.7s-1,7.4,4.1,7.4h10.8s4.6-.5,4.6-6.9V184.9C217.92,165.4,208.52,156.7,196.12,156.7Zm-97,60.2V163.2c0-4.9-4.3-5-4.3-5H83.22c-4.1,0-4.1,4.2-4.1,4.2v55.3c0,4.8,3.5,5,3.5,5h11.9C99.42,222.6,99.12,216.9,99.12,216.9Zm-10-92.3c-6.5,0-10.7,4.4-10.6,10.2-.1,5.5,4.1,10,10.4,10,6.6,0,10.8-4.5,10.8-10C99.72,129,95.62,124.6,89.12,124.6Zm0,0c-6.5,0-10.7,4.4-10.6,10.2-.1,5.5,4.1,10,10.4,10,6.6,0,10.8-4.5,10.8-10C99.72,129,95.62,124.6,89.12,124.6Zm10,92.3V163.2c0-4.9-4.3-5-4.3-5H83.22c-4.1,0-4.1,4.2-4.1,4.2v55.3c0,4.8,3.5,5,3.5,5h11.9C99.42,222.6,99.12,216.9,99.12,216.9Zm97-60.2a23.11,23.11,0,0,0-12.2,3.2,29,29,0,0,0-8.3,7.8h-.3c-2.8-6.7-9.4-11-17.7-11-11.1,0-16.7,6.1-19.5,10.2h-.4l-.5-4.8a4.79,4.79,0,0,0-4.7-3.9h-8.4a3.81,3.81,0,0,0-4.1,3.9s.4,10.4.4,16.7v37s0,6.9,6.4,6.9h8.6c5.2,0,4.5-6.9,4.5-6.9V185.1a12.49,12.49,0,0,1,.8-5c1.2-3.3,4.2-7.2,9.4-7.2,6.3,0,9.2,5.5,9.2,13.7v29.3c0,6.5,5.1,6.9,5.1,6.9h8.9c5.6,0,5.5-6.3,5.5-6.3V185.1a17,17,0,0,1,.8-5.1c1.3-3.8,4.6-7,9.2-7,6.5,0,9.5,5.4,9.5,14.8v27.7s-1,7.4,4.1,7.4h10.8s4.6-.5,4.6-6.9V184.9C217.92,165.4,208.52,156.7,196.12,156.7Zm73.7,0c-20.7,0-34.4,13.3-34.4,34.2s14.5,33.2,33.3,33.2c17.3,0,34-10.8,34-34.4C302.72,170.3,289.62,156.7,269.82,156.7Zm-.5,53c-8.6,0-13.2-8.3-13.2-19.4,0-9.5,3.6-19.4,13.2-19.4,9.1,0,12.8,9.8,12.8,19.4C282,201.9,277,209.7,269.32,209.7Zm.5-53c-20.7,0-34.4,13.3-34.4,34.2s14.5,33.2,33.3,33.2c17.3,0,34-10.8,34-34.4C302.72,170.3,289.62,156.7,269.82,156.7Zm-.5,53c-8.6,0-13.2-8.3-13.2-19.4,0-9.5,3.6-19.4,13.2-19.4,9.1,0,12.8,9.8,12.8,19.4C282,201.9,277,209.7,269.32,209.7Zm-73.2-53a23.11,23.11,0,0,0-12.2,3.2,29,29,0,0,0-8.3,7.8h-.3c-2.8-6.7-9.4-11-17.7-11-11.1,0-16.7,6.1-19.5,10.2h-.4l-.5-4.8a4.79,4.79,0,0,0-4.7-3.9h-8.4a3.81,3.81,0,0,0-4.1,3.9s.4,10.4.4,16.7v37s0,6.9,6.4,6.9h8.6c5.2,0,4.5-6.9,4.5-6.9V185.1a12.49,12.49,0,0,1,.8-5c1.2-3.3,4.2-7.2,9.4-7.2,6.3,0,9.2,5.5,9.2,13.7v29.3c0,6.5,5.1,6.9,5.1,6.9h8.9c5.6,0,5.5-6.3,5.5-6.3V185.1a17,17,0,0,1,.8-5.1c1.3-3.8,4.6-7,9.2-7,6.5,0,9.5,5.4,9.5,14.8v27.7s-1,7.4,4.1,7.4h10.8s4.6-.5,4.6-6.9V184.9C217.92,165.4,208.52,156.7,196.12,156.7Zm-97,60.2V163.2c0-4.9-4.3-5-4.3-5H83.22c-4.1,0-4.1,4.2-4.1,4.2v55.3c0,4.8,3.5,5,3.5,5h11.9C99.42,222.6,99.12,216.9,99.12,216.9Zm-10-92.3c-6.5,0-10.7,4.4-10.6,10.2-.1,5.5,4.1,10,10.4,10,6.6,0,10.8-4.5,10.8-10C99.72,129,95.62,124.6,89.12,124.6Zm0,0c-6.5,0-10.7,4.4-10.6,10.2-.1,5.5,4.1,10,10.4,10,6.6,0,10.8-4.5,10.8-10C99.72,129,95.62,124.6,89.12,124.6Zm10,92.3V163.2c0-4.9-4.3-5-4.3-5H83.22c-4.1,0-4.1,4.2-4.1,4.2v55.3c0,4.8,3.5,5,3.5,5h11.9C99.42,222.6,99.12,216.9,99.12,216.9Zm97-60.2a23.11,23.11,0,0,0-12.2,3.2,29,29,0,0,0-8.3,7.8h-.3c-2.8-6.7-9.4-11-17.7-11-11.1,0-16.7,6.1-19.5,10.2h-.4l-.5-4.8a4.79,4.79,0,0,0-4.7-3.9h-8.4a3.81,3.81,0,0,0-4.1,3.9s.4,10.4.4,16.7v37s0,6.9,6.4,6.9h8.6c5.2,0,4.5-6.9,4.5-6.9V185.1a12.49,12.49,0,0,1,.8-5c1.2-3.3,4.2-7.2,9.4-7.2,6.3,0,9.2,5.5,9.2,13.7v29.3c0,6.5,5.1,6.9,5.1,6.9h8.9c5.6,0,5.5-6.3,5.5-6.3V185.1a17,17,0,0,1,.8-5.1c1.3-3.8,4.6-7,9.2-7,6.5,0,9.5,5.4,9.5,14.8v27.7s-1,7.4,4.1,7.4h10.8s4.6-.5,4.6-6.9V184.9C217.92,165.4,208.52,156.7,196.12,156.7Zm73.7,0c-20.7,0-34.4,13.3-34.4,34.2s14.5,33.2,33.3,33.2c17.3,0,34-10.8,34-34.4C302.72,170.3,289.62,156.7,269.82,156.7Zm-.5,53c-8.6,0-13.2-8.3-13.2-19.4,0-9.5,3.6-19.4,13.2-19.4,9.1,0,12.8,9.8,12.8,19.4C282,201.9,277,209.7,269.32,209.7Zm.5-53c-20.7,0-34.4,13.3-34.4,34.2s14.5,33.2,33.3,33.2c17.3,0,34-10.8,34-34.4C302.72,170.3,289.62,156.7,269.82,156.7Zm-.5,53c-8.6,0-13.2-8.3-13.2-19.4,0-9.5,3.6-19.4,13.2-19.4,9.1,0,12.8,9.8,12.8,19.4C282,201.9,277,209.7,269.32,209.7Zm-73.2-53a23.11,23.11,0,0,0-12.2,3.2,29,29,0,0,0-8.3,7.8h-.3c-2.8-6.7-9.4-11-17.7-11-11.1,0-16.7,6.1-19.5,10.2h-.4l-.5-4.8a4.79,4.79,0,0,0-4.7-3.9h-8.4a3.81,3.81,0,0,0-4.1,3.9s.4,10.4.4,16.7v37s0,6.9,6.4,6.9h8.6c5.2,0,4.5-6.9,4.5-6.9V185.1a12.49,12.49,0,0,1,.8-5c1.2-3.3,4.2-7.2,9.4-7.2,6.3,0,9.2,5.5,9.2,13.7v29.3c0,6.5,5.1,6.9,5.1,6.9h8.9c5.6,0,5.5-6.3,5.5-6.3V185.1a17,17,0,0,1,.8-5.1c1.3-3.8,4.6-7,9.2-7,6.5,0,9.5,5.4,9.5,14.8v27.7s-1,7.4,4.1,7.4h10.8s4.6-.5,4.6-6.9V184.9C217.92,165.4,208.52,156.7,196.12,156.7Zm-97,6.4c0-4.9-4.3-5-4.3-5H83.22c-4.1,0-4.1,4.2-4.1,4.2v55.3c0,4.8,3.5,5,3.5,5h11.9c4.9,0,4.6-5.8,4.6-5.8Zm-10-38.5c-6.5,0-10.7,4.4-10.6,10.2-.1,5.5,4.1,10,10.4,10,6.6,0,10.8-4.5,10.8-10C99.72,129,95.62,124.6,89.12,124.6Zm261.8-16.1q-2.7-6.45-6-12.6a178.88,178.88,0,0,0-313.8-5.8l-.3.6a178.94,178.94,0,0,0-.5,175.7s3.7,4.4-3.3,14.7c-.3.4-.6.9-.9,1.3-3.4,4.7-9,10.5-17.9,17.6-19.5,15.6.8,31.6,20.1,33.9,8.4,1,23.8.7,37.3-1.4,1.6-.2,3.1-.5,4.6-.8,6-1.2,11.4-2.8,15.3-4.9a178.83,178.83,0,0,0,279.6-147.9A174.37,174.37,0,0,0,350.92,108.5ZM186.42,333.9a152.78,152.78,0,0,1-95.1-33c-1.6,0-28.9,8-46.2,5.8a27.57,27.57,0,0,1-5.3-1.1c-.2-.1-.4-.1-.6-.2.1-.1.2-.1.3-.2.9-.7,1.8-1.4,2.7-2.2C64.32,283.9,55,259.8,55,259.8a153.83,153.83,0,1,1,285.3-79.9C340.22,265.1,271.42,333.9,186.42,333.9Zm83.4-177.2c-20.7,0-34.4,13.3-34.4,34.2s14.5,33.2,33.3,33.2c17.3,0,34-10.8,34-34.4C302.72,170.3,289.62,156.7,269.82,156.7Zm-.5,53c-8.6,0-13.2-8.3-13.2-19.4,0-9.5,3.6-19.4,13.2-19.4,9.1,0,12.8,9.8,12.8,19.4C282,201.9,277,209.7,269.32,209.7Zm-73.2-53a23.11,23.11,0,0,0-12.2,3.2,29,29,0,0,0-8.3,7.8h-.3c-2.8-6.7-9.4-11-17.7-11-11.1,0-16.7,6.1-19.5,10.2h-.4l-.5-4.8a4.79,4.79,0,0,0-4.7-3.9h-8.4a3.81,3.81,0,0,0-4.1,3.9s.4,10.4.4,16.7v37s0,6.9,6.4,6.9h8.6c5.2,0,4.5-6.9,4.5-6.9V185.1a12.49,12.49,0,0,1,.8-5c1.2-3.3,4.2-7.2,9.4-7.2,6.3,0,9.2,5.5,9.2,13.7v29.3c0,6.5,5.1,6.9,5.1,6.9h8.9c5.6,0,5.5-6.3,5.5-6.3V185.1a17,17,0,0,1,.8-5.1c1.3-3.8,4.6-7,9.2-7,6.5,0,9.5,5.4,9.5,14.8v27.7s-1,7.4,4.1,7.4h10.8s4.6-.5,4.6-6.9V184.9C217.92,165.4,208.52,156.7,196.12,156.7Zm-97,6.4c0-4.9-4.3-5-4.3-5H83.22c-4.1,0-4.1,4.2-4.1,4.2v55.3c0,4.8,3.5,5,3.5,5h11.9c4.9,0,4.6-5.8,4.6-5.8Zm-10-38.5c-6.5,0-10.7,4.4-10.6,10.2-.1,5.5,4.1,10,10.4,10,6.6,0,10.8-4.5,10.8-10C99.72,129,95.62,124.6,89.12,124.6Zm0,0c-6.5,0-10.7,4.4-10.6,10.2-.1,5.5,4.1,10,10.4,10,6.6,0,10.8-4.5,10.8-10C99.72,129,95.62,124.6,89.12,124.6Zm10,92.3V163.2c0-4.9-4.3-5-4.3-5H83.22c-4.1,0-4.1,4.2-4.1,4.2v55.3c0,4.8,3.5,5,3.5,5h11.9C99.42,222.6,99.12,216.9,99.12,216.9Zm97-60.2a23.11,23.11,0,0,0-12.2,3.2,29,29,0,0,0-8.3,7.8h-.3c-2.8-6.7-9.4-11-17.7-11-11.1,0-16.7,6.1-19.5,10.2h-.4l-.5-4.8a4.79,4.79,0,0,0-4.7-3.9h-8.4a3.81,3.81,0,0,0-4.1,3.9s.4,10.4.4,16.7v37s0,6.9,6.4,6.9h8.6c5.2,0,4.5-6.9,4.5-6.9V185.1a12.49,12.49,0,0,1,.8-5c1.2-3.3,4.2-7.2,9.4-7.2,6.3,0,9.2,5.5,9.2,13.7v29.3c0,6.5,5.1,6.9,5.1,6.9h8.9c5.6,0,5.5-6.3,5.5-6.3V185.1a17,17,0,0,1,.8-5.1c1.3-3.8,4.6-7,9.2-7,6.5,0,9.5,5.4,9.5,14.8v27.7s-1,7.4,4.1,7.4h10.8s4.6-.5,4.6-6.9V184.9C217.92,165.4,208.52,156.7,196.12,156.7Zm73.7,0c-20.7,0-34.4,13.3-34.4,34.2s14.5,33.2,33.3,33.2c17.3,0,34-10.8,34-34.4C302.72,170.3,289.62,156.7,269.82,156.7Zm-.5,53c-8.6,0-13.2-8.3-13.2-19.4,0-9.5,3.6-19.4,13.2-19.4,9.1,0,12.8,9.8,12.8,19.4C282,201.9,277,209.7,269.32,209.7Zm.5-53c-20.7,0-34.4,13.3-34.4,34.2s14.5,33.2,33.3,33.2c17.3,0,34-10.8,34-34.4C302.72,170.3,289.62,156.7,269.82,156.7Zm-.5,53c-8.6,0-13.2-8.3-13.2-19.4,0-9.5,3.6-19.4,13.2-19.4,9.1,0,12.8,9.8,12.8,19.4C282,201.9,277,209.7,269.32,209.7Zm-73.2-53a23.11,23.11,0,0,0-12.2,3.2,29,29,0,0,0-8.3,7.8h-.3c-2.8-6.7-9.4-11-17.7-11-11.1,0-16.7,6.1-19.5,10.2h-.4l-.5-4.8a4.79,4.79,0,0,0-4.7-3.9h-8.4a3.81,3.81,0,0,0-4.1,3.9s.4,10.4.4,16.7v37s0,6.9,6.4,6.9h8.6c5.2,0,4.5-6.9,4.5-6.9V185.1a12.49,12.49,0,0,1,.8-5c1.2-3.3,4.2-7.2,9.4-7.2,6.3,0,9.2,5.5,9.2,13.7v29.3c0,6.5,5.1,6.9,5.1,6.9h8.9c5.6,0,5.5-6.3,5.5-6.3V185.1a17,17,0,0,1,.8-5.1c1.3-3.8,4.6-7,9.2-7,6.5,0,9.5,5.4,9.5,14.8v27.7s-1,7.4,4.1,7.4h10.8s4.6-.5,4.6-6.9V184.9C217.92,165.4,208.52,156.7,196.12,156.7Zm-97,60.2V163.2c0-4.9-4.3-5-4.3-5H83.22c-4.1,0-4.1,4.2-4.1,4.2v55.3c0,4.8,3.5,5,3.5,5h11.9C99.42,222.6,99.12,216.9,99.12,216.9Zm-10-92.3c-6.5,0-10.7,4.4-10.6,10.2-.1,5.5,4.1,10,10.4,10,6.6,0,10.8-4.5,10.8-10C99.72,129,95.62,124.6,89.12,124.6Zm0,0c-6.5,0-10.7,4.4-10.6,10.2-.1,5.5,4.1,10,10.4,10,6.6,0,10.8-4.5,10.8-10C99.72,129,95.62,124.6,89.12,124.6Zm10,92.3V163.2c0-4.9-4.3-5-4.3-5H83.22c-4.1,0-4.1,4.2-4.1,4.2v55.3c0,4.8,3.5,5,3.5,5h11.9C99.42,222.6,99.12,216.9,99.12,216.9Zm97-60.2a23.11,23.11,0,0,0-12.2,3.2,29,29,0,0,0-8.3,7.8h-.3c-2.8-6.7-9.4-11-17.7-11-11.1,0-16.7,6.1-19.5,10.2h-.4l-.5-4.8a4.79,4.79,0,0,0-4.7-3.9h-8.4a3.81,3.81,0,0,0-4.1,3.9s.4,10.4.4,16.7v37s0,6.9,6.4,6.9h8.6c5.2,0,4.5-6.9,4.5-6.9V185.1a12.49,12.49,0,0,1,.8-5c1.2-3.3,4.2-7.2,9.4-7.2,6.3,0,9.2,5.5,9.2,13.7v29.3c0,6.5,5.1,6.9,5.1,6.9h8.9c5.6,0,5.5-6.3,5.5-6.3V185.1a17,17,0,0,1,.8-5.1c1.3-3.8,4.6-7,9.2-7,6.5,0,9.5,5.4,9.5,14.8v27.7s-1,7.4,4.1,7.4h10.8s4.6-.5,4.6-6.9V184.9C217.92,165.4,208.52,156.7,196.12,156.7Zm73.7,0c-20.7,0-34.4,13.3-34.4,34.2s14.5,33.2,33.3,33.2c17.3,0,34-10.8,34-34.4C302.72,170.3,289.62,156.7,269.82,156.7Zm-.5,53c-8.6,0-13.2-8.3-13.2-19.4,0-9.5,3.6-19.4,13.2-19.4,9.1,0,12.8,9.8,12.8,19.4C282,201.9,277,209.7,269.32,209.7Zm.5-53c-20.7,0-34.4,13.3-34.4,34.2s14.5,33.2,33.3,33.2c17.3,0,34-10.8,34-34.4C302.72,170.3,289.62,156.7,269.82,156.7Zm-.5,53c-8.6,0-13.2-8.3-13.2-19.4,0-9.5,3.6-19.4,13.2-19.4,9.1,0,12.8,9.8,12.8,19.4C282,201.9,277,209.7,269.32,209.7Zm-73.2-53a23.11,23.11,0,0,0-12.2,3.2,29,29,0,0,0-8.3,7.8h-.3c-2.8-6.7-9.4-11-17.7-11-11.1,0-16.7,6.1-19.5,10.2h-.4l-.5-4.8a4.79,4.79,0,0,0-4.7-3.9h-8.4a3.81,3.81,0,0,0-4.1,3.9s.4,10.4.4,16.7v37s0,6.9,6.4,6.9h8.6c5.2,0,4.5-6.9,4.5-6.9V185.1a12.49,12.49,0,0,1,.8-5c1.2-3.3,4.2-7.2,9.4-7.2,6.3,0,9.2,5.5,9.2,13.7v29.3c0,6.5,5.1,6.9,5.1,6.9h8.9c5.6,0,5.5-6.3,5.5-6.3V185.1a17,17,0,0,1,.8-5.1c1.3-3.8,4.6-7,9.2-7,6.5,0,9.5,5.4,9.5,14.8v27.7s-1,7.4,4.1,7.4h10.8s4.6-.5,4.6-6.9V184.9C217.92,165.4,208.52,156.7,196.12,156.7Zm-97,60.2V163.2c0-4.9-4.3-5-4.3-5H83.22c-4.1,0-4.1,4.2-4.1,4.2v55.3c0,4.8,3.5,5,3.5,5h11.9C99.42,222.6,99.12,216.9,99.12,216.9Zm-10-92.3c-6.5,0-10.7,4.4-10.6,10.2-.1,5.5,4.1,10,10.4,10,6.6,0,10.8-4.5,10.8-10C99.72,129,95.62,124.6,89.12,124.6Z"/></g></g></svg>