<?xml version="1.0" encoding="utf-8"?>
<!-- Generator: Adobe Illustrator 26.0.1, SVG Export Plug-In . SVG Version: 6.00 Build 0)  -->
<svg version="1.1" id="Layer_1" xmlns="http://www.w3.org/2000/svg" xmlns:xlink="http://www.w3.org/1999/xlink" x="0px" y="0px"
	 viewBox="0 0 130 130" style="enable-background:new 0 0 130 130;" xml:space="preserve">
<style type="text/css">
	.st0{fill:url(#SVGID_1_);}
	.st1{fill:url(#SVGID_00000000202132185735748110000014444655360203333548_);}
	.st2{fill:#FFFFFF;}
</style>
<radialGradient id="SVGID_1_" cx="-859.5716" cy="-577.6098" r="65" gradientTransform="matrix(0 -1.982 -1.8439 0 -1030.5212 -1563.6528)" gradientUnits="userSpaceOnUse">
	<stop  offset="0" style="stop-color:#FFDD55"/>
	<stop  offset="0.1" style="stop-color:#FFDD55"/>
	<stop  offset="0.5" style="stop-color:#FF543E"/>
	<stop  offset="1" style="stop-color:#C837AB"/>
</radialGradient>
<path class="st0" d="M65,0C37.9,0,29.9,0,28.4,0.2c-5.6,0.5-9,1.3-12.8,3.2c-2.9,1.4-5.2,3.1-7.5,5.5C4,13.1,1.5,18.4,0.6,24.7
	C0.2,27.7,0,28.3,0,43.8C0,49,0,55.8,0,65c0,27.1,0,35,0.2,36.6c0.5,5.4,1.3,8.8,3.1,12.6c3.4,7.1,10,12.5,17.8,14.5
	c2.7,0.7,5.6,1.1,9.4,1.2c1.6,0.1,18,0.1,34.4,0.1s32.8,0,34.4-0.1c4.4-0.2,7-0.6,9.8-1.3c7.8-2,14.2-7.3,17.8-14.5
	c1.8-3.6,2.7-7.2,3.1-12.3c0.1-1.1,0.1-19,0.1-36.8c0-17.8,0-35.7-0.1-36.8c-0.4-5.2-1.3-8.7-3.1-12.4c-1.5-3-3.2-5.3-5.6-7.6
	c-4.3-4.1-9.6-6.6-15.8-7.5c-3-0.4-3.6-0.6-19.2-0.6H65z"/>
<radialGradient id="SVGID_00000015327112740637899530000002274457579582287239_" cx="-151.6066" cy="199.2945" r="65" gradientTransform="matrix(0.1739 0.8687 3.5818 -0.7172 -709.2468 283.9979)" gradientUnits="userSpaceOnUse">
	<stop  offset="0" style="stop-color:#3771C8"/>
	<stop  offset="0.128" style="stop-color:#3771C8"/>
	<stop  offset="1" style="stop-color:#6600FF;stop-opacity:0"/>
</radialGradient>
<path style="fill:url(#SVGID_00000015327112740637899530000002274457579582287239_);" d="M65,0C37.9,0,29.9,0,28.4,0.2
	c-5.6,0.5-9,1.3-12.8,3.2c-2.9,1.4-5.2,3.1-7.5,5.5C4,13.1,1.5,18.4,0.6,24.7C0.2,27.7,0,28.3,0,43.8C0,49,0,55.8,0,65
	c0,27.1,0,35,0.2,36.6c0.5,5.4,1.3,8.8,3.1,12.6c3.4,7.1,10,12.5,17.8,14.5c2.7,0.7,5.6,1.1,9.4,1.2c1.6,0.1,18,0.1,34.4,0.1
	s32.8,0,34.4-0.1c4.4-0.2,7-0.6,9.8-1.3c7.8-2,14.2-7.3,17.8-14.5c1.8-3.6,2.7-7.2,3.1-12.3c0.1-1.1,0.1-19,0.1-36.8
	c0-17.8,0-35.7-0.1-36.8c-0.4-5.2-1.3-8.7-3.1-12.4c-1.5-3-3.2-5.3-5.6-7.6c-4.3-4.1-9.6-6.6-15.8-7.5c-3-0.4-3.6-0.6-19.2-0.6H65z"
	/>
<path class="st2" d="M65,17c-13,0-14.7,0.1-19.8,0.3c-5.1,0.2-8.6,1-11.7,2.2c-3.2,1.2-5.8,2.9-8.5,5.5c-2.7,2.7-4.3,5.3-5.5,8.5
	c-1.2,3.1-2,6.5-2.2,11.7C17.1,50.3,17,52,17,65s0.1,14.7,0.3,19.8c0.2,5.1,1,8.6,2.2,11.7c1.2,3.2,2.9,5.8,5.5,8.5
	c2.7,2.7,5.3,4.3,8.5,5.5c3.1,1.2,6.5,2,11.7,2.2c5.1,0.2,6.8,0.3,19.8,0.3c13,0,14.7-0.1,19.8-0.3c5.1-0.2,8.6-1,11.7-2.2
	c3.2-1.2,5.8-2.9,8.5-5.5c2.7-2.7,4.3-5.3,5.5-8.5c1.2-3.1,2-6.5,2.2-11.7c0.2-5.1,0.3-6.8,0.3-19.8s-0.1-14.7-0.3-19.8
	c-0.2-5.1-1.1-8.6-2.2-11.7c-1.2-3.2-2.9-5.8-5.5-8.5c-2.7-2.7-5.3-4.3-8.5-5.5c-3.1-1.2-6.6-2-11.7-2.2C79.7,17.1,78,17,65,17
	L65,17z M60.7,25.6c1.3,0,2.7,0,4.3,0c12.8,0,14.3,0,19.4,0.3c4.7,0.2,7.2,1,8.9,1.7c2.2,0.9,3.8,1.9,5.5,3.6
	c1.7,1.7,2.7,3.3,3.6,5.5c0.7,1.7,1.4,4.2,1.7,8.9c0.2,5.1,0.3,6.6,0.3,19.4s-0.1,14.3-0.3,19.4c-0.2,4.7-1,7.2-1.7,8.9
	c-0.9,2.2-1.9,3.8-3.6,5.5c-1.7,1.7-3.3,2.7-5.5,3.6c-1.7,0.7-4.2,1.4-8.9,1.7c-5.1,0.2-6.6,0.3-19.4,0.3c-12.8,0-14.3-0.1-19.4-0.3
	c-4.7-0.2-7.2-1-8.9-1.7c-2.2-0.9-3.8-1.9-5.5-3.6c-1.7-1.7-2.7-3.3-3.6-5.5c-0.7-1.7-1.4-4.2-1.7-8.9c-0.2-5.1-0.3-6.6-0.3-19.4
	s0-14.3,0.3-19.4c0.2-4.7,1-7.2,1.7-8.9c0.9-2.2,1.9-3.8,3.6-5.5s3.3-2.7,5.5-3.6c1.7-0.7,4.2-1.4,8.9-1.7
	C50,25.7,51.7,25.6,60.7,25.6L60.7,25.6z M90.6,33.6c-3.2,0-5.8,2.6-5.8,5.8c0,3.2,2.6,5.8,5.8,5.8s5.8-2.6,5.8-5.8
	S93.8,33.6,90.6,33.6L90.6,33.6z M65,40.3c-13.6,0-24.7,11-24.7,24.7s11,24.6,24.7,24.6c13.6,0,24.6-11,24.6-24.6S78.6,40.3,65,40.3
	L65,40.3z M65,49c8.8,0,16,7.2,16,16c0,8.8-7.2,16-16,16c-8.8,0-16-7.2-16-16C49,56.2,56.2,49,65,49z"/>
</svg>
