<svg xmlns="http://www.w3.org/2000/svg" viewBox="0 0 360 360"><defs><style>.cls-1{fill:#00c300;}.cls-2{fill:#fff;}</style></defs><g id="Layer_2" data-name="Layer 2"><g id="Layer_1-2" data-name="Layer 1"><path class="cls-1" d="M65,360H295a65,65,0,0,0,65-65V65A65,65,0,0,0,295,0H65A65,65,0,0,0,0,65V295A65,65,0,0,0,65,360Z"/><path class="cls-2" d="M311.13,164.17c0-58.65-58.8-106.37-131.07-106.37S49,105.52,49,164.17c0,52.58,46.63,96.62,109.62,105,4.27.92,10.08,2.82,11.55,6.46,1.32,3.31.86,8.5.42,11.85,0,0-1.53,9.25-1.87,11.22-.57,3.31-2.63,13,11.35,7.07s75.48-44.45,103-76.11h0C302,208.79,311.13,187.64,311.13,164.17Zm-182.38,34.9h-26a6.88,6.88,0,0,1-6.87-6.88V140.1a6.87,6.87,0,0,1,13.74,0v45.21h19.17a6.88,6.88,0,0,1,0,13.76Zm26.93-6.88a6.87,6.87,0,1,1-13.74,0V140.1a6.87,6.87,0,1,1,13.74,0Zm62.7,0A6.87,6.87,0,0,1,206,196.32L179.32,160v32.22a6.88,6.88,0,0,1-13.76,0V140.1a6.87,6.87,0,0,1,4.7-6.52,6.77,6.77,0,0,1,2.18-.35,6.91,6.91,0,0,1,5.49,2.75l26.7,36.35V140.1a6.88,6.88,0,0,1,13.75,0Zm42.14-32.92a6.88,6.88,0,1,1,0,13.75H241.35v12.3h19.17a6.88,6.88,0,1,1,0,13.75h-26a6.88,6.88,0,0,1-6.87-6.88v-26h0v-26a6.88,6.88,0,0,1,6.87-6.87h26a6.87,6.87,0,1,1,0,13.74H241.35v12.3h19.17Z"/></g></g></svg>