<?xml version="1.0" encoding="UTF-8"?>
<svg id="Layer_2" data-name="Layer 2" xmlns="http://www.w3.org/2000/svg" viewBox="0 0 331.15 331.16">
  <defs>
    <style>
      .cls-1 {
        fill: #fff;
      }

      .cls-2 {
        fill: #fb8669;
      }

      .cls-3 {
        fill: #f86b70;
      }

      .cls-4 {
        fill: #fa7b6c;
      }

      .cls-5 {
        fill: #fc8c67;
      }

      .cls-6 {
        fill: #f76572;
      }

      .cls-7 {
        fill: #f9736f;
      }

      .cls-8 {
        fill: #f55276;
      }

      .cls-9 {
        fill: #fb8369;
      }

      .cls-10 {
        fill: #f65a75;
      }

      .cls-11 {
        fill: #f98285;
      }
    </style>
  </defs>
  <g id="Layer_1-2" data-name="Layer 1">
    <path class="cls-9" d="m.21,125.12c.32-.05.65-.09.98-.14,3-3.35,6.01-6.71,9.01-10.06,4.58,5.05,9.09,10.18,13.82,15.08,1.04,1.08,2.91,1.36,4.39,2.01-6.95,7.87-13.91,15.74-20.87,23.61-2.51-2.48-5.01-4.97-7.52-7.46"/>
    <path class="cls-5" d="m.02,148.16c2.51,2.49,5.01,4.98,7.52,7.46-.82,1.04-1.48,2.28-2.48,3.09-4.17,3.32-5.2,7.58-4.97,12.76"/>
    <path class="cls-1" d="m208.21,331.15c-10.33,0-20.67,0-31,0-13.67,0-27.33,0-41,0-17.02,0-34.04,0-51.07,0-10.23-.1-20.47-.11-30.7-.33-3.41-.07-6.8-.67-10.2-1.03-12.25-4.89-23.61-11.07-31.65-21.99-5.31-7.22-9.77-14.88-11.44-23.86-.39-12.33-.78-24.67-1.17-37,0-17.67,0-35.33,0-53,.06-7.49.02-15.46.09-22.47.05-5.19.8-9.44,4.97-12.76,1.01-.8,1.67-2.05,2.49-3.09,6.96-7.87,13.91-15.74,20.87-23.61,3.21-3.04,6.52-5.56,11.32-3.24,4.53,2.18,4.78,6.12,4.76,10.4-.02,6.92.19,13.84.3,20.77-.1,21.49-.24,42.97-.21,64.46,0,1.06,1.38,3.02,2.17,3.04,7.43.23,14.86.14,22.52.14v-48.63c.08-2.14.21-4.27.23-6.41.1-11.91,3.46-16.67,14.71-20.8,11.57.78,14.46,3.03,16.77,13.31.43,1.91.42,3.92.61,5.88-.09,17.77-.15,35.53-.31,53.3-.02,2.64,1.06,3.49,3.56,3.45,5.98-.09,11.96-.09,17.94,0,2.44.04,3.65-.68,3.62-3.38-.15-12.12-.18-24.24-.25-36.36.08-2.14.18-4.29.22-6.43.14-8.32-1.08-16.86,3.88-24.42,1.49-1.02,2.9-2.21,4.49-3.05,9.63-5.05,22.39-.84,22.54,10.6.08,6.1.68,12.2,1.05,18.3-.02,14.34-.05,28.67-.07,43.01.07.32.15.64.22.96,7.56.23,15.12.55,22.67.55.69,0,1.96-2.05,1.98-3.16.11-6.79-.07-13.58-.15-20.37,0-9,0-18,0-27-.57-7.52-.72-15.11-1.79-22.56-3.38-23.49-23.91-27.32-41.98-21.24-6.59,1.86-11.71,5.61-15.05,11.67-1.12-.6-2.87-.93-3.27-1.85-7.14-16.31-35.68-16.94-45.49-3.61-1.73,1.57-3.45,3.14-6.49,5.91,2.19-21.53-4.19-36.92-25.1-41.77-12.92-3-24.89.33-33.61,11.43-3,3.36-6.01,6.71-9.01,10.07-.33.04-.65.09-.98.13-.07-9.39-.14-18.78-.21-28.17.07-10.63-.11-21.28.28-31.9.28-7.7,1.32-15.38,2.01-23.07,5.24-13.72,13.85-24.77,26.05-32.98C37.01,4.05,46.44,1.51,56.22.1c17.02-.03,34.03-.05,51.05-.08C120.24.02,133.2,0,146.17,0c0,0,0,.27,0,.27,11.72,0,23.44.02,35.16.02,2.59,0,5.18,0,7.77,0,1.08,0,2.16,0,3.24,0,1.59,0,3.18,0,4.77,0,10.07,0,20.15,0,30.22,0,3.59,0,7.19,0,10.78,0,4.07,0,8.15,0,12.22,0,6.26,0,12.52,0,18.78,0,2.06.2,4.12.4,6.18.6.63-.04,1.25-.08,1.88-.12,3.98.81,7.95,1.62,11.93,2.42,19.15,6.76,32.14,19.68,38.87,38.86.81,3.98,1.62,7.96,2.42,11.94-.04.62-.08,1.25-.13,1.87.18.4.35.79.53,1.19.03,4.26.05,8.52.08,12.78v4.22c0,1.93,0,3.85,0,5.78,0,1.74,0,3.48,0,5.22,0,2.59,0,5.18,0,7.77,0,1.41,0,2.82,0,4.23,0,2.93,0,5.85,0,8.78,0,2.41,0,4.81,0,7.22,0,1.26,0,2.52,0,3.78,0,8.74,0,17.48,0,26.22,0,.59,0,1.18,0,1.77,0,4.74,0,9.49,0,14.23,0,.59,0,1.18,0,1.77,0,1.41,0,2.82,0,4.24,0,.92,0,1.84,0,2.77,0,4.74,0,9.49,0,14.23.09,2.59.18,5.17.26,7.76-.02,28.36-.04,56.72-.07,85.07-2.42,8-4.82,16.01-7.26,24.01-.51,1.69-1.15,3.34-1.73,5.01-4.21,4.37-7.88,9.51-12.76,12.94-6.59,4.64-14.09,7.96-21.2,11.85-11.97,3.68-24.28,1.78-36.44,2.25-3.49.13-6.98.14-10.47.21-11,0-22,0-33,0Zm58.04-133.04l-.82.84c-.31,5.35-4.21,7.79-8.21,10.15-1.56.41-3.12.82-4.69,1.22-14.05,3.64-28.64-7.59-27.67-24.6,2.09-.18,4.22-.37,6.34-.56,15.33,0,30.66,0,46,0h13.39c-.48-7.03-.25-13.73-1.54-20.12-2.05-10.12-5.74-19.84-14.83-25.93-15.5-10.39-31.9-12.76-49.13-4.22-10.76,4.69-17.78,12.81-21.72,23.74-4.58,7.18-3.94,15.27-4.32,23.28-.91,19.16,12.8,41.82,34.74,46.49,12.37,2.63,24.1,2.23,35.51-3.41,10.65-3.54,20.24-15.4,20.12-28.27-7.74.47-15.45.93-23.17,1.39Z"/>
    <path class="cls-4" d="m10.2,114.92c8.72-11.1,20.69-14.43,33.61-11.43,20.91,4.85,27.3,20.24,25.1,41.77,3.04-2.77,4.77-4.34,6.49-5.9,3.26,3.9,8.46,6.42,8.81,12.39-11.25,4.13-14.61,8.9-14.71,20.8-.02,2.14-.15,4.27-.23,6.41-2.6-1.08-5.67-1.61-7.71-3.35-5.82-4.96-11.21-10.41-16.77-15.66-.11-6.92-.32-13.85-.3-20.77.01-4.28-.23-8.22-4.76-10.4-4.8-2.31-8.11.2-11.32,3.24-1.49-.65-3.35-.93-4.39-2.01-4.73-4.91-9.24-10.04-13.82-15.09Z"/>
    <path class="cls-11" d="m.21,125.12c.33-.04.65-.09.98-.13-.33.04-.65.09-.98.13Z"/>
    <path class="cls-6" d="m231.21,185.16c-2.12.19-4.25.37-6.34.56-.97,17.01,13.62,28.25,27.67,24.6,1.56-.41,3.13-.81,4.69-1.22.58.77,1.28,1.48,1.73,2.32,2.74,5.07,9.92,6.75,10.34,13.57-11.41,5.64-23.15,6.04-35.51,3.41-21.95-4.67-35.65-27.34-34.74-46.49.38-8-.26-16.09,4.33-23.27,2.73,1.39,5.91,2.27,8.1,4.26,5.87,5.33,11.4,11.04,16.86,16.8,1.36,1.44,1.93,3.62,2.87,5.46Z"/>
    <path class="cls-8" d="m225.09,134.89c17.23-8.55,33.63-6.17,49.13,4.22,9.09,6.09,12.78,15.81,14.83,25.93,1.29,6.39,1.06,13.09,1.54,20.12-4.92,0-9.15,0-13.39,0-1.07-1.46-1.94-3.13-3.25-4.33-3.67-3.34-8.54-5.72-8.68-11.66-.17-11.61-3.62-17.65-13.24-19.56-5.18-1.03-10.91.7-16.4,1.18-.51-1.69-.62-3.68-1.61-5.02-2.79-3.77-5.93-7.28-8.94-10.89Z"/>
    <path class="cls-7" d="m84.22,151.74c-.35-5.97-5.55-8.48-8.81-12.39,9.81-13.33,38.34-12.71,45.49,3.6.4.92,2.15,1.25,3.27,1.85,1,2.16,1.95,4.35,3.01,6.48.97,1.96,2.06,3.87,3.09,5.8-4.96,7.56-3.74,16.09-3.88,24.42-.04,2.14-.14,4.29-.22,6.43-5.94-4.61-11.81-9.32-17.87-13.76-1.97-1.44-4.45-2.19-6.69-3.25-.19-1.96-.18-3.97-.61-5.88-2.31-10.28-5.2-12.52-16.77-13.31Z"/>
    <path class="cls-2" d="m44.79,159.94c5.56,5.26,10.95,10.71,16.77,15.66,2.04,1.74,5.11,2.27,7.71,3.35,0,15.97,0,31.93,0,48.63-7.66,0-15.1.1-22.52-.14-.79-.02-2.17-1.98-2.17-3.04-.03-21.49.11-42.97.21-64.46Z"/>
    <path class="cls-10" d="m265.27,169.17c.15,5.95,5.01,8.32,8.68,11.66,1.31,1.19,2.18,2.87,3.25,4.33-15.33,0-30.66,0-46,0-.93-1.84-1.51-4.03-2.87-5.46-5.46-5.76-10.99-11.47-16.86-16.8-2.19-1.98-5.37-2.87-8.1-4.26,3.94-10.93,10.95-19.05,21.72-23.74,3,3.61,6.15,7.11,8.94,10.89.99,1.34,1.1,3.33,1.61,5.02-6.01,4.47-9.99,10.09-10.51,18.37h40.15Z"/>
    <path class="cls-4" d="m101.6,170.93c2.25,1.06,4.73,1.81,6.69,3.25,6.06,4.44,11.93,9.16,17.87,13.76.07,12.12.09,24.24.25,36.36.03,2.7-1.17,3.42-3.62,3.38-5.98-.09-11.96-.1-17.94,0-2.5.04-3.59-.81-3.56-3.45.16-17.77.22-35.53.31-53.3Z"/>
    <path class="cls-3" d="m130.27,157.09c-1.03-1.93-2.12-3.84-3.09-5.8-1.06-2.13-2.01-4.32-3.01-6.48,3.34-6.06,8.46-9.81,15.05-11.67,6.39,6.75,12.71,13.56,19.17,20.24,5.82,6.01,11.73,11.93,17.71,17.78,2.14,2.09,4.58,3.87,6.89,5.78,0,9,0,18,0,27-1.22-.43-2.79-.51-3.6-1.34-5.03-5.19-9.77-10.67-14.86-15.79-1.67-1.68-4.11-2.6-6.2-3.86-.37-6.1-.97-12.2-1.05-18.3-.15-11.43-12.91-15.65-22.54-10.6-1.59.83-2.99,2.02-4.49,3.05Z"/>
    <path class="cls-6" d="m182.99,176.94c-2.31-1.92-4.75-3.69-6.89-5.78-5.98-5.85-11.89-11.77-17.71-17.78-6.46-6.68-12.79-13.49-19.17-20.24,18.07-6.08,38.6-2.25,41.98,21.24,1.07,7.45,1.22,15.04,1.79,22.56Z"/>
    <path class="cls-7" d="m158.34,182.94c2.09,1.27,4.53,2.18,6.2,3.86,5.09,5.12,9.83,10.6,14.86,15.79.8.83,2.38.91,3.6,1.34.08,6.79.26,13.58.15,20.37-.02,1.11-1.29,3.16-1.98,3.16-7.56,0-15.12-.32-22.67-.55.05-.11.17-.26.14-.34-.09-.22-.24-.41-.36-.62.02-14.34.05-28.67.07-43.01Z"/>
    <path class="cls-10" d="m269.3,224.99c-.43-6.82-7.6-8.5-10.34-13.57-.45-.84-1.15-1.55-1.73-2.32,4.01-2.36,7.91-4.8,8.21-10.15.27-.28.54-.56.82-.84,7.71-.46,15.43-.93,23.17-1.39.12,12.88-9.47,24.74-20.12,28.27Z"/>
    <path class="cls-11" d="m158.27,225.95c.13.2.28.4.36.62.03.08-.09.22-.14.34-.07-.32-.15-.64-.22-.96Z"/>
    <path class="cls-11" d="m266.25,198.11c-.27.28-.54.56-.82.84.27-.28.54-.56.82-.84Z"/>
    <path class="cls-1" d="m265.27,169.17h-40.15c.52-8.28,4.5-13.9,10.51-18.37,5.48-.48,11.21-2.21,16.4-1.18,9.62,1.9,13.06,7.95,13.24,19.56Z"/>
  </g>
</svg>