<?xml version="1.0" encoding="utf-8"?>
<!-- Generator: Adobe Illustrator 26.0.1, SVG Export Plug-In . SVG Version: 6.00 Build 0)  -->
<svg version="1.1" id="Layer_1" xmlns="http://www.w3.org/2000/svg" xmlns:xlink="http://www.w3.org/1999/xlink" x="0px" y="0px"
	 viewBox="0 0 667.6 800" style="enable-background:new 0 0 667.6 800;" xml:space="preserve">
<style type="text/css">
	.st0{fill:#FAAB07;}
	.st1{fill:#FFFFFF;}
	.st2{fill:#EB1923;}
</style>
<path class="st0" d="M333.8,785.9c-69.1,0-132.6-23.1-173.5-57.7c-20.8,6.2-47.3,16.2-64.1,28.6c-14.3,10.6-12.6,21.4-10,25.7
	c11.3,19.1,194.6,12.2,247.5,6.3V785.9z M333.8,785.9c69.2,0,132.6-23.1,173.5-57.7c20.7,6.2,47.3,16.2,64.1,28.6
	c14.3,10.6,12.5,21.4,10,25.7c-11.3,19.1-194.6,12.2-247.5,6.3V785.9z"/>
<path d="M334.2,371.5c114.2-0.8,205.7-22.9,236.7-31.4c7.4-2,11.3-5.6,11.3-5.6c0-1,0.5-18.6,0.5-27.6c0-152.5-72-305.7-249-305.7
	c-177,0-249,153.2-249,305.7c0,9.1,0.4,26.6,0.5,27.6c0,0,3.2,3.4,9.1,5c28.6,8,121.9,31.2,239,32H334.2z M644.5,498.5
	c-7.1-22.8-16.7-49.3-26.5-74.9c0,0-5.6-0.7-8.5,0.1c-87.8,25.5-194.2,41.8-275.3,40.8h-0.8c-80.6,1-186.3-15.1-273.9-40.4
	c-3.3-1-9.9-0.6-9.9-0.6c-9.8,25.5-19.4,52.1-26.5,74.9C-10.7,607.1,0.2,652.1,8.6,653.1c17.9,2.2,69.6-81.8,69.6-81.8
	c0,85.3,77,216.3,253.3,217.5h4.7c176.3-1.2,253.3-132.2,253.3-217.5c0,0,51.7,83.9,69.6,81.8C667.4,652.1,678.3,607.1,644.5,498.5"
	/>
<path class="st1" d="M270.8,226.4c-24,1.1-44.5-26.3-45.8-61c-1.3-34.8,17.1-63.9,41.1-65c24-1.1,44.5,26.3,45.8,61
	C313.2,196.3,294.8,225.3,270.8,226.4 M442.6,165.4c-1.3,34.8-21.8,62.1-45.8,61c-24-1.1-42.4-30.2-41.1-64.9
	c1.3-34.8,21.8-62.1,45.8-61.1C425.5,101.5,443.9,130.6,442.6,165.4 M0,1.2"/>
<path d="M300.3,165.9c1.1,13.7-6.4,25.9-16.8,27.3c-10.4,1.3-19.7-8.7-20.8-22.5c-1.1-13.7,6.4-26,16.8-27.3
	C289.9,142.1,299.2,152.1,300.3,165.9 M366.3,170.5c2.1-3.8,16.6-23.8,46.5-16.5c7.9,1.9,11.5,4.7,12.3,5.8c1.1,1.6,1.4,4,0.3,7.1
	c-2.3,6.2-7,6-9.6,4.8c-1.7-0.8-22.5-14.7-41.7,6.1c-1.3,1.4-3.7,1.9-5.9,0.2C365.9,176.3,365,172.9,366.3,170.5"/>
<path class="st1" d="M334.2,459.6h-0.8c-55.2,0.7-122-6.6-186.8-19.4c-5.5,32.1-8.9,72.5-6,120.6c7.3,121.6,79.5,198.1,191,199.2
	h4.5c111.5-1.1,183.7-77.6,191-199.2c2.9-48.1-0.5-88.5-6-120.6C456.3,452.9,389.4,460.2,334.2,459.6"/>
<path class="st2" d="M228.5,432.6V513c0,0,36.8,7.4,73.7,2.3v-74.2C278.9,439.8,253.7,436.8,228.5,432.6"/>
<path class="st2" d="M582.3,334.5c0,0-106.7,33.7-248.1,34.6h-0.8c-141.2-0.9-247.7-34.5-248.1-34.6l-35.7,89.2
	c89.3,26.9,200.1,44.3,283.8,43.3h0.8c83.7,1,194.4-16.3,283.8-43.3L582.3,334.5z"/>
</svg>
