<svg xmlns="http://www.w3.org/2000/svg" viewBox="0 0 923.2 255.5"><defs><style>.cls-1{fill:#b92b27;}</style></defs><g id="Layer_2" data-name="Layer 2"><g id="Layer_1-2" data-name="Layer 1"><path class="cls-1" d="M131.4,199.2c-8.9-17.4-19.2-35-39.5-35a26,26,0,0,0-11.3,2.3l-6.9-13.8c8.4-7.2,21.9-12.9,39.4-12.9,27.1,0,41,13.1,52,29.7,6.6-14.2,9.7-33.4,9.7-57.2,0-59.5-18.6-90-62-90-42.8,0-61.3,30.5-61.3,90,0,59.1,18.5,89.4,61.3,89.4A67.48,67.48,0,0,0,131.4,199.2ZM142,220a114.77,114.77,0,0,1-29.2,3.9C55.8,223.9,0,178.4,0,112.3,0,45.5,55.8,0,112.8,0,170.7,0,226,45.2,226,112.3c0,37.3-17.4,67.6-42.7,87.2,8.2,12.3,16.6,20.4,28.3,20.4,12.8,0,18-9.9,18.8-17.6h16.7c1,10.3-4.2,53.2-50.8,53.2C168.1,255.5,153.2,239.1,142,220Zm120.7-56.8V86.8c0-8.7-3.2-12.6-13.2-12.6H238.9V53.9h69.6V162.3c0,18.3,9.9,26.3,25,26.3,12.4,0,24.7-5.5,31.4-18V86.8c0-8.7-3.2-12.6-13.2-12.6H340.4V53.9h70.2V167.4c0,11.3,4.2,16.5,17.1,16.5H430v21l-62.8,10V193.3h-1.3c-12.1,14.8-29.2,24.8-53.7,24.8-27.6,0-49.5-13.9-49.5-54.9m258.4,34.5c24.7,0,34.1-21.5,34.6-64.8.5-42.4-9.9-62.9-34.6-62.9-21.6,0-35.2,20.5-35.2,62.9C486,176.2,499.3,197.7,521.1,197.7Zm0,20.4c-44.7,0-85.1-34.2-85.1-85.2,0-50,39.4-83.2,85.1-83.2,47.6,0,85.8,33.9,85.8,83.2C606.9,183.9,568.7,218.1,521.1,218.1Zm87.2-3.3V194.5h6.8c16.8,0,18.4-4.8,18.4-19.4V86.8c0-8.7-4.5-12.6-14.8-12.6h-9V53.9h63.8l3.2,33.2H678c7.1-23.9,26.1-36.5,44-36.5,14.7,0,26.2,8.4,26.2,25.4,0,11.8-5.7,24.4-21.6,24.4-14.3,0-17.1-9.7-28.9-9.7-10.5,0-18.7,10-18.7,24.7v59.7c0,14.5,3.6,19.4,20,19.4h9.4v20.3H608.3m212.3-23.6c20.3,0,28.7-19.2,28.7-38.6V126.8c-14.8,15.4-49.4,15.9-49.4,43.3C800,183.5,807.9,191.2,820.6,191.2Zm29.7-.1c-8.4,16.1-25.6,27-49.7,27-28,0-46-14.8-46-41,0-52.6,73.2-38.6,94.7-73.4V99.9c0-26.8-10.5-31-22.1-31-32.6,0-17.7,35-47.7,35-14.4,0-20-8.7-20-18.5,0-19.8,23.7-35.8,68.1-35.8,42,0,67.8,11.6,67.8,53.4v66.8c0,10.3,3.8,15.9,12.8,15.9a16.78,16.78,0,0,0,9.6-2.8l5.4,13.1c-4.4,6.8-16.1,18.7-38.4,18.7-19.3,0-31.5-9-33.1-23.8h-1.4Z"/></g></g></svg>