<?xml version="1.0" encoding="utf-8"?>
<!-- Generator: Adobe Illustrator 26.0.1, SVG Export Plug-In . SVG Version: 6.00 Build 0)  -->
<svg version="1.1" id="Layer_1" xmlns="http://www.w3.org/2000/svg" xmlns:xlink="http://www.w3.org/1999/xlink" x="0px" y="0px"
	 viewBox="0 0 533.3 533.3" style="enable-background:new 0 0 533.3 533.3;" xml:space="preserve">
<style type="text/css">
	.st0{fill:#FF4500;}
	.st1{fill:#FFFFFF;}
</style>
<g transform="translate(-85.4 -85.4)">
	<circle class="st0" cx="352.1" cy="352.1" r="266.7"/>
	<path class="st1" d="M529.8,352.1c0-21.5-17.5-39-39-39c-10.6,0-20,4.1-26.8,10.9c-26.5-19-63.3-31.5-103.9-33.1l17.8-83.3
		l57.7,12.2c0.6,14.7,12.8,26.5,27.8,26.5c15.3,0,27.8-12.5,27.8-27.8s-12.5-27.8-27.8-27.8c-10.9,0-20.3,6.2-24.6,15.6l-64.6-13.7
		c-1.9-0.3-3.7,0-5.3,0.9s-2.5,2.5-3.1,4.4l-19.6,92.9c-41.5,1.2-78.6,13.4-105.4,33.1c-6.9-6.5-16.5-10.9-26.8-10.9
		c-21.5,0-39,17.5-39,39c0,15.9,9.4,29.3,23.1,35.6c-0.6,3.7-0.9,7.8-0.9,11.9c0,59.9,69.6,108.2,155.6,108.2
		s155.6-48.3,155.6-108.2c0-4.1-0.3-7.8-0.9-11.5C520.2,381.7,529.8,368,529.8,352.1L529.8,352.1z M263.2,379.8
		c0-15.3,12.5-27.8,27.8-27.8c15.3,0,27.8,12.5,27.8,27.8c0,15.3-12.5,27.8-27.8,27.8C275.7,407.6,263.2,395.1,263.2,379.8z
		 M418.2,453.1c-19,19-55.2,20.3-65.8,20.3c-10.6,0-47.1-1.6-65.8-20.3c-2.8-2.8-2.8-7.5,0-10.3c2.8-2.8,7.5-2.8,10.3,0
		c11.9,11.9,37.4,16.2,55.8,16.2s43.7-4.4,55.8-16.2c2.8-2.8,7.5-2.8,10.3,0C421,445.9,421,450.3,418.2,453.1L418.2,453.1z
		 M413.2,407.6c-15.3,0-27.8-12.5-27.8-27.8c0-15.3,12.5-27.8,27.8-27.8c15.3,0,27.8,12.5,27.8,27.8
		C441,395.1,428.5,407.6,413.2,407.6z"/>
</g>
</svg>
