<?xml version="1.0" encoding="utf-8"?>
<!-- Generator: Adobe Illustrator 26.0.1, SVG Export Plug-In . SVG Version: 6.00 Build 0)  -->
<svg version="1.1" id="Layer_1" xmlns="http://www.w3.org/2000/svg" xmlns:xlink="http://www.w3.org/1999/xlink" x="0px" y="0px"
	 viewBox="0 0 28 28" style="enable-background:new 0 0 28 28;" xml:space="preserve">
<style type="text/css">
	.st0{fill:#FFFA37;}
	.st1{fill-rule:evenodd;clip-rule:evenodd;}
	.st2{fill-rule:evenodd;clip-rule:evenodd;fill:#FFFFFF;}
</style>
<circle class="st0" cx="14" cy="14" r="14"/>
<g>
	<path class="st1" d="M19,6.2C18,5,16.5,4,14,4c-2.1,0-6.3,1.2-6.3,5.7c0,0.7,0.1,1.5,0.1,2.2c-0.1,0-0.1,0-0.2-0.1l0,0
		c-0.2-0.1-0.5-0.2-0.9-0.2c-0.4,0-0.8,0.2-1.1,0.4c-0.3,0.2-0.5,0.6-0.5,1c0,0.5,0.3,0.9,0.6,1.1c0.3,0.2,0.7,0.3,1,0.4l0,0
		c0.3,0.1,0.6,0.2,0.7,0.3c0.1,0.1,0.1,0.1,0.2,0.2c0,0,0,0,0,0c0,0,0,0.1-0.1,0.2c-0.1,0.2-0.2,0.4-0.4,0.6
		c-0.3,0.4-0.7,0.9-0.9,1.2c-0.3,0.3-0.7,0.6-1.2,0.8c-0.2,0.1-0.5,0.2-0.7,0.3c-0.2,0.1-0.4,0.1-0.5,0.1c-0.1,0-0.1,0-0.2,0
		c0,0-0.1,0-0.1,0c-0.1,0-0.2,0.1-0.3,0.1C3.2,18.5,3,18.8,3,19.2c0,0.2,0,0.4,0.1,0.5c0.1,0.1,0.2,0.2,0.2,0.3l0,0l0,0
		c0.3,0.3,0.8,0.5,1.3,0.7C5,20.8,5.5,20.9,5.9,21c0,0,0,0.1,0,0.1l0,0c0,0.1,0.1,0.3,0.1,0.5c0.1,0.2,0.1,0.4,0.3,0.5
		c0.2,0.2,0.6,0.2,0.8,0.2c0.2,0,0.5,0,0.7-0.1l0,0c0.3,0,0.7-0.1,1.1-0.1c0.7,0,1.1,0.3,1.8,0.8l0,0c0.2,0.2,0.5,0.3,0.8,0.5
		c1,0.6,1.8,0.6,2.3,0.6c0,0,0.1,0,0.1,0s0.1,0,0.1,0c0.5,0,1.3,0,2.3-0.6c0.3-0.2,0.6-0.4,0.8-0.5l0,0c0.7-0.5,1.1-0.8,1.8-0.8
		c0.4,0,0.7,0,1.1,0.1l0,0c0.2,0,0.5,0.1,0.7,0.1c0.2,0,0.5,0,0.8-0.2c0.2-0.2,0.3-0.4,0.3-0.5c0.1-0.2,0.1-0.3,0.1-0.5l0,0
		c0,0,0-0.1,0-0.1c0.4-0.1,0.9-0.2,1.3-0.3c0.5-0.2,1-0.4,1.3-0.7l0,0l0,0c0.1-0.1,0.1-0.2,0.2-0.3c0.1-0.1,0.1-0.3,0.1-0.5
		c0-0.4-0.3-0.6-0.4-0.8c-0.1-0.1-0.2-0.1-0.3-0.1c0,0-0.1,0-0.1,0c0,0-0.1,0-0.2,0c-0.1,0-0.2,0-0.5-0.1c-0.2-0.1-0.4-0.2-0.7-0.3
		c-0.5-0.3-0.9-0.6-1.2-0.8c-0.3-0.3-0.6-0.7-0.9-1.2c-0.1-0.2-0.3-0.4-0.4-0.6c0-0.1-0.1-0.2-0.1-0.2c0,0,0,0,0,0
		c0,0,0-0.1,0.2-0.2c0.2-0.1,0.4-0.2,0.7-0.3l0,0c0.3-0.1,0.7-0.2,1-0.4c0.3-0.2,0.6-0.6,0.6-1.1c0-0.4-0.2-0.8-0.5-1
		c-0.3-0.2-0.7-0.4-1.1-0.4c-0.4,0-0.7,0.1-0.9,0.2l0,0c-0.1,0-0.2,0.1-0.2,0.1c0-0.6,0.1-1.5,0.1-2.2C20.3,8.8,20,7.4,19,6.2z
		 M9.8,6.8C9,7.8,8.7,9,8.7,9.7c0,0.7,0.1,1.6,0.1,2.2c0,0.2,0,0.5-0.2,0.7c-0.2,0.2-0.5,0.3-0.7,0.3c-0.3,0-0.6-0.1-0.8-0.2l0,0
		c-0.2-0.1-0.3-0.1-0.4-0.1c-0.1,0-0.3,0.1-0.4,0.2c-0.1,0.1-0.2,0.2-0.2,0.3c0,0.1,0,0.2,0.2,0.3c0.2,0.1,0.5,0.2,0.8,0.3l0,0
		c0.3,0.1,0.6,0.2,0.9,0.4c0.3,0.2,0.6,0.5,0.6,1c0,0.1,0,0.3-0.1,0.3c0,0.1-0.1,0.2-0.1,0.3c-0.1,0.2-0.3,0.5-0.4,0.7
		c-0.3,0.5-0.7,1-1.1,1.3c-0.3,0.3-0.9,0.7-1.4,1c-0.3,0.1-0.5,0.3-0.8,0.4c-0.2,0.1-0.5,0.2-0.7,0.2c0,0,0,0,0,0c0,0,0,0,0,0l0,0
		c0,0,0,0,0,0c0,0,0,0,0,0c0,0,0,0,0.1,0.1l0,0c0.1,0.1,0.4,0.3,0.8,0.4C5.3,19.9,5.8,20,6.3,20c0.2,0,0.4,0.2,0.4,0.2
		c0.1,0.1,0.1,0.2,0.1,0.2c0,0.1,0.1,0.2,0.1,0.3l0,0C6.9,21,7,21.1,7,21.2c0,0,0,0.1,0,0.1c0,0,0.1,0,0.1,0c0.2,0,0.4,0,0.6-0.1
		c0.3,0,0.8-0.1,1.2-0.1c1,0,1.7,0.5,2.3,0.9l0,0c0.2,0.2,0.5,0.3,0.8,0.5c0.8,0.5,1.3,0.4,1.8,0.4c0,0,0.1,0,0.1,0c0,0,0.1,0,0.1,0
		c0.4,0,1,0,1.8-0.4c0.3-0.2,0.5-0.3,0.8-0.5l0,0c0.7-0.4,1.3-0.9,2.3-0.9c0.4,0,0.9,0.1,1.2,0.1l0,0c0.3,0,0.5,0.1,0.6,0.1
		c0,0,0.1,0,0.1,0c0,0,0,0,0-0.1c0-0.1,0.1-0.2,0.1-0.4l0,0c0-0.1,0.1-0.2,0.1-0.3c0-0.1,0.1-0.1,0.1-0.2c0.1-0.1,0.2-0.2,0.4-0.2
		c0.5,0,1-0.1,1.4-0.3c0.4-0.1,0.7-0.3,0.8-0.4l0,0c0.1-0.1,0.1-0.1,0.1-0.1c0,0,0,0,0,0c0,0,0,0,0,0l0,0c0,0,0,0,0,0c0,0,0,0,0,0
		c-0.2,0-0.5-0.1-0.7-0.2c-0.3-0.1-0.5-0.2-0.8-0.4c-0.5-0.3-1-0.7-1.4-1c-0.3-0.3-0.8-0.8-1.1-1.3c-0.2-0.2-0.3-0.5-0.4-0.7
		c-0.1-0.1-0.1-0.2-0.1-0.3c0-0.1-0.1-0.2-0.1-0.3c0-0.5,0.3-0.8,0.6-1c0.3-0.2,0.6-0.3,0.9-0.4l0,0c0.3-0.1,0.6-0.2,0.8-0.3
		c0.2-0.1,0.2-0.2,0.2-0.3c0-0.1,0-0.2-0.2-0.3c-0.1-0.1-0.3-0.2-0.4-0.2c-0.1,0-0.2,0-0.4,0.1l0,0c-0.2,0.1-0.4,0.2-0.8,0.2
		c-0.2,0-0.5-0.1-0.7-0.3c-0.2-0.2-0.2-0.5-0.2-0.7c0-0.7,0.1-1.6,0.1-2.2c0-0.7-0.3-1.9-1.1-2.9C17.4,5.8,16.1,5,14,5
		C11.9,5,10.6,5.8,9.8,6.8z"/>
	<path class="st2" d="M9.8,6.8C9,7.8,8.7,9,8.7,9.7c0,0.7,0.1,1.6,0.1,2.2c0,0.2,0,0.5-0.2,0.7c-0.2,0.2-0.5,0.3-0.7,0.3
		c-0.3,0-0.6-0.1-0.8-0.2l0,0c-0.2-0.1-0.3-0.1-0.4-0.1c-0.1,0-0.3,0.1-0.4,0.2c-0.1,0.1-0.2,0.2-0.2,0.3c0,0.1,0,0.2,0.2,0.3
		c0.2,0.1,0.5,0.2,0.8,0.3l0,0c0.3,0.1,0.6,0.2,0.9,0.4c0.3,0.2,0.6,0.5,0.6,1c0,0.1,0,0.3-0.1,0.3c0,0.1-0.1,0.2-0.1,0.3
		c-0.1,0.2-0.3,0.5-0.4,0.7c-0.3,0.5-0.7,1-1.1,1.3c-0.3,0.3-0.9,0.7-1.4,1c-0.3,0.1-0.5,0.3-0.8,0.4c-0.2,0.1-0.5,0.2-0.7,0.2
		c0,0,0,0,0,0c0,0,0,0,0,0l0,0c0,0,0,0,0,0c0,0,0,0,0,0c0,0,0,0,0.1,0.1l0,0c0.1,0.1,0.4,0.3,0.8,0.4C5.3,19.9,5.8,20,6.3,20
		c0.2,0,0.4,0.2,0.4,0.2c0.1,0.1,0.1,0.2,0.1,0.2c0,0.1,0.1,0.2,0.1,0.3l0,0C6.9,21,7,21.1,7,21.2c0,0,0,0.1,0,0.1c0,0,0.1,0,0.1,0
		c0.2,0,0.4,0,0.6-0.1c0.3,0,0.8-0.1,1.2-0.1c1,0,1.7,0.5,2.3,0.9l0,0c0.2,0.2,0.5,0.3,0.8,0.5c0.8,0.5,1.3,0.4,1.8,0.4
		c0,0,0.1,0,0.1,0c0,0,0.1,0,0.1,0c0.4,0,1,0,1.8-0.4c0.3-0.2,0.5-0.3,0.8-0.5l0,0c0.7-0.4,1.3-0.9,2.3-0.9c0.4,0,0.9,0.1,1.2,0.1
		l0,0c0.3,0,0.5,0.1,0.6,0.1c0,0,0.1,0,0.1,0c0,0,0,0,0-0.1c0-0.1,0.1-0.2,0.1-0.4l0,0c0-0.1,0.1-0.2,0.1-0.3c0-0.1,0.1-0.1,0.1-0.2
		c0.1-0.1,0.2-0.2,0.4-0.2c0.5,0,1-0.1,1.4-0.3c0.4-0.1,0.7-0.3,0.8-0.4l0,0c0.1-0.1,0.1-0.1,0.1-0.1c0,0,0,0,0,0c0,0,0,0,0,0l0,0
		c0,0,0,0,0,0c0,0,0,0,0,0c-0.2,0-0.5-0.1-0.7-0.2c-0.3-0.1-0.5-0.2-0.8-0.4c-0.5-0.3-1-0.7-1.4-1c-0.3-0.3-0.8-0.8-1.1-1.3
		c-0.2-0.2-0.3-0.5-0.4-0.7c-0.1-0.1-0.1-0.2-0.1-0.3c0-0.1-0.1-0.2-0.1-0.3c0-0.5,0.3-0.8,0.6-1c0.3-0.2,0.6-0.3,0.9-0.4l0,0
		c0.3-0.1,0.6-0.2,0.8-0.3c0.2-0.1,0.2-0.2,0.2-0.3c0-0.1,0-0.2-0.2-0.3c-0.1-0.1-0.3-0.2-0.4-0.2c-0.1,0-0.2,0-0.4,0.1l0,0
		c-0.2,0.1-0.4,0.2-0.8,0.2c-0.2,0-0.5-0.1-0.7-0.3c-0.2-0.2-0.2-0.5-0.2-0.7c0-0.7,0.1-1.6,0.1-2.2c0-0.7-0.3-1.9-1.1-2.9
		C17.4,5.8,16.1,5,14,5C11.9,5,10.6,5.8,9.8,6.8z"/>
</g>
</svg>
