<?xml version="1.0" encoding="utf-8"?>
<!-- Generator: Adobe Illustrator 26.0.1, SVG Export Plug-In . SVG Version: 6.00 Build 0)  -->
<svg version="1.1" id="Layer_1" xmlns="http://www.w3.org/2000/svg" xmlns:xlink="http://www.w3.org/1999/xlink" x="0px" y="0px"
	 viewBox="0 0 255.1 143.9" style="enable-background:new 0 0 255.1 143.9;" xml:space="preserve">
<style type="text/css">
	.st0{fill:url(#SVGID_1_);}
	.st1{fill:url(#SVGID_00000073689577319649812000000006551092459852095164_);}
	.st2{fill:url(#SVGID_00000055703699050471588810000002324510894780709536_);}
	.st3{fill:url(#SVGID_00000089562187531013508750000007907509590980816018_);}
	.st4{fill:url(#SVGID_00000018922747364653511350000003618970906183451292_);}
	.st5{fill:url(#SVGID_00000031904713509118584780000002310568633545033140_);}
	.st6{fill:url(#SVGID_00000021834261582683624890000016308281484379102910_);}
	.st7{fill:url(#SVGID_00000133499707491312886510000007657281400471636633_);}
	.st8{fill:url(#SVGID_00000069382749197094146060000006979561056515098275_);}
	.st9{fill:url(#SVGID_00000146494767000511383680000011875824871990197183_);}
	.st10{fill:url(#SVGID_00000130615530905964095750000017656648057744265095_);}
	.st11{fill:url(#SVGID_00000011006605176114137430000000052246395482249607_);}
	.st12{fill:url(#SVGID_00000053512171062007708300000007810878755982778511_);}
	.st13{fill:url(#SVGID_00000176024106281387077120000016009776808609294261_);}
	.st14{fill:#F04923;}
</style>
<linearGradient id="SVGID_1_" gradientUnits="userSpaceOnUse" x1="-699.502" y1="465.5499" x2="-699.502" y2="464.272" gradientTransform="matrix(8.8654 0 0 -86.6615 6306.8833 40345.2383)">
	<stop  offset="0" style="stop-color:#F6871F"/>
	<stop  offset="0.2393" style="stop-color:#F57E20"/>
	<stop  offset="0.6262" style="stop-color:#F36621"/>
	<stop  offset="1" style="stop-color:#F04923"/>
</linearGradient>
<path class="st0" d="M110,81.5L108.5,27c0-1.7-1.4-3-3-3c-1.7,0-3,1.3-3,3l-1.4,54.5l1.4,26.2c0,1.7,1.4,3,3,3c1.7,0,3-1.3,3-3
	L110,81.5z"/>
<linearGradient id="SVGID_00000026154765208848675980000011557191529246042519_" gradientUnits="userSpaceOnUse" x1="-698.4907" y1="465.5984" x2="-698.4907" y2="464.3464" gradientTransform="matrix(8.7658 0 0 -88.4545 6217.6333 41184.2656)">
	<stop  offset="0" style="stop-color:#F6871F"/>
	<stop  offset="0.2393" style="stop-color:#F57E20"/>
	<stop  offset="0.6262" style="stop-color:#F36621"/>
	<stop  offset="1" style="stop-color:#F04923"/>
</linearGradient>
<path style="fill:url(#SVGID_00000026154765208848675980000011557191529246042519_);" d="M99.2,81.5l-1.7-56.6
	c0-1.6-1.3-2.8-2.8-2.8s-2.8,1.2-2.8,2.8l-1.5,56.5l1.5,26.4c0,1.6,1.3,2.8,2.8,2.8s2.8-1.2,2.8-2.8L99.2,81.5z"/>
<linearGradient id="SVGID_00000124153705335300831640000017773940432221291146_" gradientUnits="userSpaceOnUse" x1="-695.3139" y1="465.5727" x2="-695.3139" y2="464.3079" gradientTransform="matrix(8.4669 0 0 -87.558 5960.9336 40764.5977)">
	<stop  offset="0" style="stop-color:#F6871F"/>
	<stop  offset="0.2393" style="stop-color:#F57E20"/>
	<stop  offset="0.6262" style="stop-color:#F36621"/>
	<stop  offset="1" style="stop-color:#F04923"/>
</linearGradient>
<path style="fill:url(#SVGID_00000124153705335300831640000017773940432221291146_);" d="M76,25.3c-0.1-1.3-1.1-2.4-2.4-2.4
	s-2.3,1-2.4,2.4l-1.7,56.1l1.7,26.8c0,1.3,1.1,2.3,2.4,2.3s2.3-1,2.4-2.4l2-26.8L76,25.3z"/>
<linearGradient id="SVGID_00000089570890119548654710000000308505798957191820_" gradientUnits="userSpaceOnUse" x1="-696.3974" y1="465.6331" x2="-696.3974" y2="464.3992" gradientTransform="matrix(8.5665 0 0 -89.7494 6049.9844 41790.2969)">
	<stop  offset="0" style="stop-color:#F6871F"/>
	<stop  offset="0.2393" style="stop-color:#F57E20"/>
	<stop  offset="0.6262" style="stop-color:#F36621"/>
	<stop  offset="1" style="stop-color:#F04923"/>
</linearGradient>
<path style="fill:url(#SVGID_00000089570890119548654710000000308505798957191820_);" d="M86.8,23.4c0-1.4-1.2-2.6-2.6-2.6
	s-2.6,1.1-2.6,2.6l-1.6,58l1.6,26.6c0,1.4,1.2,2.6,2.6,2.6s2.5-1.1,2.6-2.6l1.8-26.6L86.8,23.4z"/>
<linearGradient id="SVGID_00000057848659755572450410000010902012337755086468_" gradientUnits="userSpaceOnUse" x1="-688.2365" y1="464.3174" x2="-688.2365" y2="462.4039" gradientTransform="matrix(7.8693 0 0 -57.8739 5448.5332 26871.8711)">
	<stop  offset="0" style="stop-color:#F6871F"/>
	<stop  offset="0.2393" style="stop-color:#F57E20"/>
	<stop  offset="0.6262" style="stop-color:#F36621"/>
	<stop  offset="1" style="stop-color:#F04923"/>
</linearGradient>
<path style="fill:url(#SVGID_00000057848659755572450410000010902012337755086468_);" d="M32.5,109.9c0.8,0,1.4-0.6,1.5-1.5l2.6-27
	L34,53.5c-0.1-0.8-0.7-1.5-1.5-1.5s-1.4,0.6-1.5,1.5l-2.3,27.9l2.3,27C31,109.3,31.7,109.9,32.5,109.9z"/>
<linearGradient id="SVGID_00000047753689510881714100000009051202599760463750_" gradientUnits="userSpaceOnUse" x1="-702.4042" y1="465.8127" x2="-702.4042" y2="464.6725" gradientTransform="matrix(9.1642 0 0 -97.1206 6553.2236 45240.0195)">
	<stop  offset="0" style="stop-color:#F6871F"/>
	<stop  offset="0.2393" style="stop-color:#F57E20"/>
	<stop  offset="0.6262" style="stop-color:#F36621"/>
	<stop  offset="1" style="stop-color:#F04923"/>
</linearGradient>
<path style="fill:url(#SVGID_00000047753689510881714100000009051202599760463750_);" d="M120.8,81.5l-1.4-64.7
	c0-1.1-0.6-2.1-1.5-2.7c-0.5-0.3-1.1-0.6-1.8-0.6c-0.6,0-1.2,0.2-1.8,0.5c-0.9,0.6-1.5,1.6-1.5,2.7v0.6l-1.2,64.1l1.2,26v0.1
	c0,0.7,0.3,1.4,0.8,1.9c0.6,0.7,1.5,1.2,2.5,1.2c0.9,0,1.7-0.4,2.3-0.9c0.6-0.6,1-1.4,1-2.3l0.1-2.6L120.8,81.5z"/>
<linearGradient id="SVGID_00000018214120661069351930000015128249437155189942_" gradientUnits="userSpaceOnUse" x1="-688.2365" y1="464.2335" x2="-688.2365" y2="462.2727" gradientTransform="matrix(7.8693 0 0 -56.4794 5458.6963 26219.6172)">
	<stop  offset="0" style="stop-color:#F6871F"/>
	<stop  offset="0.2393" style="stop-color:#F57E20"/>
	<stop  offset="0.6262" style="stop-color:#F36621"/>
	<stop  offset="1" style="stop-color:#F04923"/>
</linearGradient>
<path style="fill:url(#SVGID_00000018214120661069351930000015128249437155189942_);" d="M44.3,55.5c-0.1-1-0.8-1.7-1.7-1.7
	s-1.7,0.7-1.7,1.7l-2.1,25.9l2.1,27.2c0.1,1,0.8,1.7,1.7,1.7s1.7-0.7,1.7-1.7l2.4-27.2L44.3,55.5z"/>
<linearGradient id="SVGID_00000129923921389183638270000013908396780352241583_" gradientUnits="userSpaceOnUse" x1="-690.7122" y1="465.0932" x2="-690.7122" y2="463.5785" gradientTransform="matrix(8.0685 0 0 -73.1144 5626.0435 34005.0039)">
	<stop  offset="0" style="stop-color:#F6871F"/>
	<stop  offset="0.2393" style="stop-color:#F57E20"/>
	<stop  offset="0.6262" style="stop-color:#F36621"/>
	<stop  offset="1" style="stop-color:#F04923"/>
</linearGradient>
<path style="fill:url(#SVGID_00000129923921389183638270000013908396780352241583_);" d="M52.9,37.4c-1,0-1.9,0.8-1.9,1.9l-2,42.1
	l2,27.2c0.1,1.1,0.9,1.9,1.9,1.9s1.9-0.8,1.9-1.9l2.3-27.2l-2.3-42.1C54.8,38.3,53.9,37.4,52.9,37.4z"/>
<linearGradient id="SVGID_00000029045267935880211130000017104362505510278820_" gradientUnits="userSpaceOnUse" x1="-694.2045" y1="465.4444" x2="-694.2045" y2="464.1115" gradientTransform="matrix(8.3673 0 0 -83.0824 5871.7827 38670.2188)">
	<stop  offset="0" style="stop-color:#F6871F"/>
	<stop  offset="0.2393" style="stop-color:#F57E20"/>
	<stop  offset="0.6262" style="stop-color:#F36621"/>
	<stop  offset="1" style="stop-color:#F04923"/>
</linearGradient>
<path style="fill:url(#SVGID_00000029045267935880211130000017104362505510278820_);" d="M65.2,108.6l2.1-27.1l-2.1-51.8
	c-0.1-1.2-1-2.1-2.2-2.1s-2.1,0.9-2.2,2.1L59,81.5l1.9,27.1c0,1.2,1,2.1,2.2,2.1C64.2,110.8,65.1,109.8,65.2,108.6z"/>
<linearGradient id="SVGID_00000172417217975426121750000005675289520913515151_" gradientUnits="userSpaceOnUse" x1="-708.4917" y1="465.9415" x2="-708.4917" y2="464.8684" gradientTransform="matrix(9.8615 0 0 -103.1969 7113.7256 48083.7148)">
	<stop  offset="0" style="stop-color:#F6871F"/>
	<stop  offset="0.2393" style="stop-color:#F57E20"/>
	<stop  offset="0.6262" style="stop-color:#F36621"/>
	<stop  offset="1" style="stop-color:#F04923"/>
</linearGradient>
<path style="fill:url(#SVGID_00000172417217975426121750000005675289520913515151_);" d="M128.7,7.9c-0.5-0.3-1.1-0.5-1.8-0.5
	c-0.8,0-1.6,0.3-2.2,0.8c-0.8,0.6-1.3,1.6-1.3,2.7v0.4L122,81.6l0.7,12.9l0.7,12.7c0,1.9,1.6,3.4,3.5,3.4s3.4-1.6,3.5-3.5l1.5-25.6
	l-1.5-70.6C130.3,9.6,129.7,8.5,128.7,7.9L128.7,7.9z"/>
<linearGradient id="SVGID_00000103976483777188037690000011361085635801931435_" gradientUnits="userSpaceOnUse" x1="-658.6505" y1="460.4648" x2="-658.6505" y2="456.7836" gradientTransform="matrix(6.0763 0 0 -30.0825 4005.1726 13851.9287)">
	<stop  offset="0" style="stop-color:#F6871F"/>
	<stop  offset="0.2393" style="stop-color:#F57E20"/>
	<stop  offset="0.6262" style="stop-color:#F36621"/>
	<stop  offset="1" style="stop-color:#F04923"/>
</linearGradient>
<path style="fill:url(#SVGID_00000103976483777188037690000011361085635801931435_);" d="M2.9,96.3c0.5,0,0.9-0.4,1-1l2.2-13.9
	L3.9,67.2c-0.1-0.6-0.5-1-1-1s-1,0.4-1,1L0,81.4l1.9,13.9C1.9,95.9,2.4,96.3,2.9,96.3z"/>
<linearGradient id="SVGID_00000068649247706537060940000010963728702165647550_" gradientUnits="userSpaceOnUse" x1="-684.2787" y1="463.3882" x2="-684.2787" y2="461.0477" gradientTransform="matrix(7.5704 0 0 -47.3152 5192.834 21925.293)">
	<stop  offset="0" style="stop-color:#F6871F"/>
	<stop  offset="0.2393" style="stop-color:#F57E20"/>
	<stop  offset="0.6262" style="stop-color:#F36621"/>
	<stop  offset="1" style="stop-color:#F04923"/>
</linearGradient>
<path style="fill:url(#SVGID_00000068649247706537060940000010963728702165647550_);" d="M12.4,104.8c0.5,0,1-0.4,1.1-1l2.9-22.4
	l-2.9-22.9c-0.1-0.6-0.5-1-1.1-1c-0.5,0-1,0.4-1.1,1L8.8,81.4l2.5,22.4C11.4,104.4,11.8,104.8,12.4,104.8z"/>
<linearGradient id="SVGID_00000123436180844615659440000011790252265863083184_" gradientUnits="userSpaceOnUse" x1="-685.6322" y1="464.175" x2="-685.6322" y2="462.1969" gradientTransform="matrix(7.67 0 0 -55.9813 5281.2876 25985.1309)">
	<stop  offset="0" style="stop-color:#F6871F"/>
	<stop  offset="0.2393" style="stop-color:#F57E20"/>
	<stop  offset="0.6262" style="stop-color:#F36621"/>
	<stop  offset="1" style="stop-color:#F04923"/>
</linearGradient>
<path style="fill:url(#SVGID_00000123436180844615659440000011790252265863083184_);" d="M22.3,108.9c0.7,0,1.2-0.5,1.3-1.3
	l2.7-26.2l-2.7-27.2c-0.1-0.7-0.6-1.3-1.3-1.3c-0.7,0-1.2,0.5-1.3,1.3l-2.4,27.2l2.4,26.2C21.1,108.3,21.6,108.9,22.3,108.9z"/>
<linearGradient id="SVGID_00000107565435404653477740000009680929466924642973_" gradientUnits="userSpaceOnUse" x1="-782.0181" y1="466.0787" x2="-782.0181" y2="465.0787" gradientTransform="matrix(121.7245 0 0 -110.5681 95385.0078 51533.4336)">
	<stop  offset="0" style="stop-color:#F7941E"/>
	<stop  offset="0" style="stop-color:#F68B1F"/>
	<stop  offset="0" style="stop-color:#F6871F"/>
	<stop  offset="0.2402" style="stop-color:#F57E20"/>
	<stop  offset="0.6306" style="stop-color:#F36621"/>
	<stop  offset="1" style="stop-color:#F04923"/>
</linearGradient>
<path style="fill:url(#SVGID_00000107565435404653477740000009680929466924642973_);" d="M223.6,48c-4.3,0-8.4,0.9-12.2,2.4
	C209,22.2,185.3,0,156.4,0c-7.1,0-13.9,1.4-20,3.8c-2.4,0.9-3,1.9-3,3.7V107c0,1.9,1.5,3.4,3.4,3.6h87c17.3,0,31.4-13.8,31.4-31.2
	C255,62.1,241,48,223.6,48z"/>
<path class="st14" d="M25,129.5c-3.7-0.9-4.7-1.3-4.7-2.8c0-1,0.8-2.1,3.3-2.1c2.1,0,3.8,0.9,5.3,2.4l3.4-3.3
	c-2.2-2.3-4.9-3.7-8.5-3.7c-4.6,0-8.3,2.6-8.3,6.8c0,4.6,3,6,7.3,6.9c4.4,1,5.2,1.7,5.2,3.2c0,1.8-1.3,2.5-4.1,2.5
	c-2.2,0-4.3-0.8-6-2.7l-3.4,3c1.8,2.6,5.2,4.2,9,4.2c6.4,0,9.1-3,9.1-7.4C32.8,131.6,28.7,130.3,25,129.5L25,129.5z M46.4,120.1
	c-6.4,0-10.1,4.9-10.1,12c0,7.1,3.8,12,10.1,12s10.1-4.9,10.1-12S52.7,120.1,46.4,120.1z M46.4,139.4c-3.8,0-5.3-3.2-5.3-7.4
	s1.6-7.4,5.3-7.4c3.8,0,5.3,3.2,5.3,7.4C51.7,136.2,50.1,139.4,46.4,139.4z M75.2,133.5c0,3.7-1.8,6-4.8,6s-4.8-2.4-4.8-6.1v-12.9
	H61v13c0,6.8,3.8,10.6,9.4,10.6c5.9,0,9.4-3.9,9.4-10.6v-12.9H75v12.9H75.2z M99.8,130.3c0,1.3,0.1,4.2,0.1,5.1
	c-0.3-0.6-1.1-1.8-1.6-2.6L90,120.5h-4.5v23.2h4.6v-10.3c0-1.3-0.1-4.2-0.1-5.1c0.3,0.6,1.1,1.8,1.6,2.6l8.5,12.7h4.2v-23.2h-4.6
	L99.8,130.3L99.8,130.3z M117.6,120.4h-7.3v23.2h6.9c6,0,11.9-3.5,11.9-11.6C129.1,123.5,124.2,120.4,117.6,120.4z M117.2,139.2H115
	V125h2.5c4.9,0,7,2.4,7,7.1C124.4,136.3,122.1,139.2,117.2,139.2z M143.4,124.7c2.1,0,3.4,0.9,4.3,2.5l4.3-2c-1.5-3-4.1-5.2-8.5-5.2
	c-6.1,0-10.3,4.9-10.3,12c0,7.3,4.1,12,10.2,12c4.2,0,7-2,8.6-5.3l-3.9-2.3c-1.2,2.1-2.5,3-4.6,3c-3.5,0-5.5-3.2-5.5-7.4
	C138.1,127.7,140.1,124.7,143.4,124.7L143.4,124.7z M160.7,120.4H156v23.2h13.9v-4.6h-9.3V120.4z M182.2,120.1
	c-6.4,0-10.1,4.9-10.1,12c0,7.1,3.8,12,10.1,12c6.4,0,10.1-4.9,10.1-12S188.6,120.1,182.2,120.1z M182.2,139.4
	c-3.8,0-5.3-3.2-5.3-7.4s1.6-7.4,5.3-7.4c3.8,0,5.3,3.2,5.3,7.4C187.5,136.2,186,139.4,182.2,139.4z M211,133.5c0,3.7-1.8,6-4.8,6
	s-4.8-2.4-4.8-6.1v-12.9h-4.7v13c0,6.8,3.8,10.6,9.4,10.6c5.9,0,9.4-3.9,9.4-10.6v-12.9h-4.7v12.9H211z M228.7,120.4h-7.3v23.2h6.9
	c6,0,11.9-3.5,11.9-11.6C240.2,123.5,235.3,120.4,228.7,120.4L228.7,120.4z M228.3,139.2h-2.2V125h2.5c4.9,0,6.9,2.4,6.9,7.1
	C235.5,136.3,233.2,139.2,228.3,139.2z"/>
</svg>
