<svg xmlns="http://www.w3.org/2000/svg" viewBox="0 0 360 430"><defs><style>.cls-1{fill:#4fc3f7;}.cls-2{fill:#039be5;}.cls-3{fill:#0277bd;}.cls-4{fill:#0288d1;}.cls-5{fill:#01579b;}.cls-6{fill:#81d4fa;}.cls-7{fill:#b3e5fc;}</style></defs><g id="Layer_2" data-name="Layer 2"><g id="Layer_1-2" data-name="Layer 1"><path class="cls-1" d="M0,100v70H252l64-70Z"/><path class="cls-2" d="M0,190v70H171l63-70Z"/><path class="cls-3" d="M0,280v20a60.18,60.18,0,0,0,60,60H80l73-80Z"/><path class="cls-2" d="M360,100H316l-64,70H360Z"/><path class="cls-4" d="M360,190H234l-63,70H360Z"/><path class="cls-5" d="M153,280,80,360H210v70l70-70h20a60.18,60.18,0,0,0,60-60V280Z"/><path class="cls-6" d="M360,80V60c0-3,0-6-1-8h0L334,80h26Z"/><path class="cls-7" d="M300,0H60A60.18,60.18,0,0,0,0,60V80H334l26-28C355,23,330,0,300,0Z"/></g></g></svg>