<?xml version="1.0" encoding="UTF-8"?>
<svg id="Layer_2" data-name="Layer 2" xmlns="http://www.w3.org/2000/svg" viewBox="0 0 192 195">
  <defs>
    <style>
      .cls-1 {
        fill: #fe6700;
      }

      .cls-2 {
        fill: #fe7a00;
      }

      .cls-3 {
        fill: #fe7800;
      }

      .cls-4 {
        fill: #fe7f00;
      }

      .cls-5 {
        fill: #fe8300;
      }

      .cls-6 {
        fill: #fe8800;
      }

      .cls-7 {
        fill: #fe5e00;
      }

      .cls-8 {
        fill: #fe7500;
      }

      .cls-9 {
        fill: #ffcfbc;
      }

      .cls-10 {
        fill: #fe6b00;
      }

      .cls-11 {
        fill: #fe8d00;
      }

      .cls-12 {
        fill: #fed5c1;
      }

      .cls-13 {
        fill: #fe7d00;
      }

      .cls-14 {
        fill: #fe7000;
      }

      .cls-15 {
        fill: #fed2bf;
      }

      .cls-16 {
        fill: #fef2dd;
      }

      .cls-17 {
        fill: #fe5900;
      }

      .cls-18 {
        fill: #fe6400;
      }

      .cls-19 {
        fill: #fe8a00;
      }

      .cls-20 {
        fill: #fe7300;
      }

      .cls-21 {
        fill: #feeeda;
      }

      .cls-22 {
        fill: #2b1900;
      }

      .cls-23 {
        fill: #fedac7;
      }

      .cls-24 {
        fill: #fed7c4;
      }

      .cls-25 {
        fill: #ff5c00;
      }

      .cls-26 {
        fill: #fee5d0;
      }

      .cls-27 {
        fill: #fee9d4;
      }

      .cls-28 {
        fill: #ff8500;
      }

      .cls-29 {
        fill: #fefefe;
      }

      .cls-30 {
        fill: #fee0cc;
      }
    </style>
  </defs>
  <g id="Layer_1-2" data-name="Layer 1">
    <g>
      <path class="cls-5" d="m0,37v-5.75c.17,0,.33,0,.5,0,.34-.46.78-.87,1-1.38,1.36-3.14.36-2.87,3.82-2.87,23.04,0,46.07,0,69.11,0,38.61,0,77.23,0,115.84,0,.16.31.35.62.48.94.42,1.02.83,2.04,1.24,3.06v6H0Z"/>
      <path class="cls-7" d="m0,129.5v-10.25c1.24.67,1.01-1.43,2.07-1.18-.03,1.45.24,1.68,1.94,1.67,13.68-.08,27.37-.17,41.05-.26,1.26,2.07,2.64,3.92,4.69,5.41,4.15,3.02,8.48,3.51,13.19,1.85,3.9-1.37,6.53-4.14,8.39-7.74,1.94,1.17,4.09.73,6.16.73,14.49.03,28.99,0,43.48.03.95,0,1.7-.12,2.11-1.06.19.31.4.61.56.94,1.46,2.86,3.73,4.97,6.48,6.5,2.92,1.62,6.1,2.05,9.36,1.21,1.45-.38,2.93-.83,4.23-1.55,2.34-1.31,4.07-3.31,5.47-5.58,13.15,0,26.31.01,39.46.02.33,0,.71-.1.99.02.4.17.97.46,1.03.78.17.83.63,1,1.33.94v5.5c-.21.34-.61.7-.58,1.01.1.78-.25,1.12-.9,1.22-.94.13-1.89.26-2.84.26-60.95.01-121.9.01-182.85.01-.46,0-.92.03-1.37-.02-.99-.11-1.52-.52-1.5-1.69.01-1.09.39-1.74,1.6-2.08-2.24-.46-2.31-.42-2.3,1.58,0,.9-.05,1.72-1.26,1.72Z"/>
      <path class="cls-3" d="m0,62.75v-8c1.45.08,2.9.24,4.34.24,12.66.02,25.33.01,37.99.01,48.94,0,97.89,0,146.83,0,.87,0,1.79-.16,2.05,1.07.04.19.52.29.79.43v8c-.25-.23-.49-.48-.75-.69-.34-.28-.68-.75-1.04-.77-2.53-.15-5.06-.28-7.59-.27-13.45.05-26.89.16-40.34.22-1.86,0-3.73-.22-5.6-.23-6.27-.03-12.54-.01-18.81-.01-19.23,0-38.46-.03-57.69,0-18.32.04-36.64.16-54.97.23-1.74,0-3.48-.15-5.22-.24Z"/>
      <path class="cls-4" d="m0,37h192v9.5c-.16-.05-.42-.07-.45-.16-.55-1.85-2.06-1.59-3.46-1.59-61.96,0-123.92,0-185.87,0-.74,0-1.48-.16-2.22-.24,0-2.5,0-5,0-7.5Z"/>
      <path class="cls-9" d="m154,195H37.5c-.36-1.16-1.22-1.49-2.51-.99-1,0-2,0-3,0-.15-.07-.29-.17-.45-.2-5.36-.93-10.11-3.26-14.54-6.33.28-.32.51-.83.86-.92.79-.21,1.64-.3,2.46-.3,50.54-.01,101.08,0,151.62-.03,1.19,0,2.08.42,2.82,1.28-.3.27-.57.6-.92.79-1.81.98-3.6,2.03-5.48,2.86-3.14,1.39-6.31,2.74-9.82,2.85-.51,0-1.02-.01-1.54-.02-1.65-.61-2.52-.32-3,1Z"/>
      <path class="cls-25" d="m0,129.5c1.2,0,1.26-.81,1.26-1.72,0-1.99.06-2.03,2.3-1.58-1.22.34-1.59.99-1.6,2.08-.01,1.16.51,1.58,1.5,1.69.45.05.92.02,1.37.02,60.95,0,121.9,0,182.85-.01.95,0,1.9-.13,2.84-.26.65-.09,1-.44.9-1.22-.04-.31.37-.67.58-1.01v6.5c-2.33-.01-4.67-.03-7-.04-.39-.31-.77-.88-1.17-.89-1.44-.05-2.89.05-4.33.16-.34.03-.67.32-1,.49-3.38.27-6.76.47-10.13.83-2.28.24-4.54.69-6.81,1.04-1.01.16-2.02.29-3.04.43-.55-.2-1.19-.68-1.28.45-1.25.33-2.5.66-3.75,1-.27-.47-.53-1.35-.81-1.35-1.19-.02-2.41.09-3.55.4-.77.21-1.39,1.05-2.15,1.19-1.15.21-2.37.06-3.56.06-31.56,0-63.12,0-94.69,0-.42,0-.86.09-1.24-.03-.57-.18-1.23-.39-1.61-.81-.9-.98-1.72-1.22-3.07-.61.04,1.76,1.3.77,2.21.84-.2.75-.37,1.41-.54,2.07-.42-.1-.84-.2-1.27-.3-.08-.05-.16-.1-.25-.15-1.58-.43-3.16-.86-4.74-1.3-.12-.39-.25-.78-.37-1.16-.3.25-.59.49-.89.74-4.33-.76-8.64-1.66-12.99-2.26-3.79-.52-7.61-.87-11.43-.98-4.18-.12-8.38.12-12.57.21v-4.5Z"/>
      <path class="cls-20" d="m0,74.75C0,72.42,0,70.08,0,67.75c.7.08,1.39.24,2.09.24,16.24.01,32.48,0,48.73.02.62,0,1.23.15,1.85.16,2.39.04,4.79.06,7.18.05.62,0,1.23-.21,1.84-.21,22.61-.01,45.23-.01,67.84,0,.53,0,1.07.12,1.6.16,1.84.12,3.69.33,5.53.31,1.61-.02,3.21-.45,4.81-.45,15.74-.04,31.48-.02,47.23-.02.33,0,.72-.11.99.02.47.22.87.59,1.29.9.35.26.68.55,1.01.82v8c-.63.05-.98-.1-1.02-.87-.08-1.7-.32-1.88-2.04-1.88-5.28,0-10.57-.03-15.85,0-8.31.07-16.62.18-24.93.28-.3-.34-.6-.69-.91-1.03-.23-.26-.47-.51-.7-.77-.26-.21-.52-.41-.78-.62-4.13-3.26-8.79-3.95-13.73-2.53-3.17.91-5.61,3-7.53,5.67-.16-.05-.42-.07-.45-.16-.43-1.38-1.56-1.09-2.56-1.09-15.45,0-30.89,0-46.34,0-1.79,0-3.65-.34-5.17,1-5.46-8.14-18.53-8.22-23.94.26-.67-.35-1-1.06-2.03-1.06-14.67-.01-29.34-.12-44.01-.2Z"/>
      <path class="cls-11" d="m35,0C75.58,0,116.17,0,156.75,0c.28.25.51.64.83.72,1.18.31,2.38.52,3.58.77,4.69.97,8.95,2.94,12.91,5.58-.32.22-.62.6-.96.64-1.4.15-2.81.27-4.22.27-17.77.02-35.54.01-53.3.01-20.66,0-41.32,0-61.99,0-11,0-21.99.02-32.99-.03-.96,0-1.92-.48-2.88-.73.07-.1.13-.23.23-.29,4.27-2.68,8.8-4.76,13.78-5.73.1,0,.19,0,.29,0,.08.02.15,0,.19-.08C33.15.76,34.39,1.15,35,0Z"/>
      <path class="cls-8" d="m192,69.75c-.34-.27-.67-.56-1.01-.82-.42-.32-.82-.68-1.29-.9-.27-.13-.66-.02-.99-.02-15.74,0-31.48-.01-47.23.02-1.6,0-3.21.43-4.81.45-1.84.02-3.69-.19-5.53-.31-.54-.03-1.07-.16-1.6-.16-22.61,0-45.23,0-67.84,0-.61,0-1.23.21-1.84.21-2.39.01-4.79-.01-7.18-.05-.62,0-1.23-.16-1.85-.16-16.24,0-32.48,0-48.73-.02-.7,0-1.39-.16-2.09-.24,0-1.67,0-3.33,0-5,1.74.08,3.48.24,5.22.24,18.32-.06,36.64-.19,54.97-.23,19.23-.04,38.46,0,57.69,0,6.27,0,12.54-.02,18.81.01,1.87,0,3.73.23,5.6.23,13.45-.06,26.89-.17,40.34-.22,2.53-.01,5.07.12,7.59.27.36.02.7.49,1.04.77.26.22.5.46.75.69v5.25Z"/>
      <path class="cls-13" d="m0,44.5c.74.08,1.48.24,2.22.24,61.96.01,123.92.01,185.87,0,1.4,0,2.91-.26,3.46,1.59.03.09.29.11.45.16v5.25c-.29-.12-.82-.2-.84-.35-.23-1.68-1.47-1.4-2.57-1.4-62.86,0-125.72,0-188.58,0C0,48.17,0,46.33,0,44.5Z"/>
      <path class="cls-2" d="m0,50c62.86,0,125.72,0,188.58,0,1.1,0,2.34-.28,2.57,1.4.02.15.55.24.84.35v4.75c-.27-.14-.75-.24-.79-.43-.26-1.24-1.18-1.07-2.05-1.07-48.94,0-97.89,0-146.83,0-12.66,0-25.33,0-37.99-.01-1.45,0-2.9-.16-4.34-.24v-4.75Z"/>
      <path class="cls-1" d="m192,92v17.75c-.15.12-.45.25-.44.35.2,1.86-1.06,1.65-2.24,1.65-11.39,0-22.77,0-34.16,0-1.3,0-2.6-.64-3.9,0,0-6.67,0-13.33,0-20,1.71-.17,3.41-.41,5.12-.48,1.95-.08,3.91-.02,5.86-.02,4.99,0,9.98-.13,14.96.04,4.93.16,9.92-.79,14.79.71Z"/>
      <path class="cls-18" d="m45.06,119.49c-13.68.09-27.37.18-41.05.26-1.7.01-1.97-.23-1.94-1.67C1.01,117.82,1.24,119.92,0,119.25v-17.25c13.75,0,27.49,0,41.24.01.66,0,1.31.16,1.96.24l.28,2.29c0,1.78.06,3.56,0,5.34-.1,3.31.03,6.57,1.56,9.6Z"/>
      <path class="cls-30" d="m0,166v-5.25c26.03,0,52.05,0,78.08-.01.78,0,1.59-.07,2.33-.3.43-.13.75-.64,1.11-.98.8.86,1.59,1.75,2.41,2.59,2.1,2.15,4.22,4.28,6.33,6.43-.93.26-1.87.74-2.8.75-26.34.04-52.69.04-79.03.01-2.23,0-4.45-.31-6.68-.48-.25-.63-.45-1.3-.79-1.88-.21-.36-.64-.58-.97-.87Z"/>
      <path class="cls-14" d="m192,92c-4.86-1.51-9.86-.55-14.79-.71-4.98-.16-9.97-.04-14.96-.04-1.95,0-3.91-.06-5.86.02-1.71.07-3.42.31-5.12.48-.02-.7-.03-1.41-.05-2.11-.06-2.39-.01-4.79-.21-7.17-.22-2.65-1.36-5-2.86-7.18,8.31-.09,16.62-.21,24.93-.28,5.28-.04,10.57,0,15.85,0,1.72,0,1.96.18,2.04,1.88.04.77.39.92,1.02.87v14.25Z"/>
      <path class="cls-10" d="m43.21,102.25c-.65-.08-1.31-.24-1.96-.24-13.75-.01-27.49-.01-41.24-.01C0,96.83,0,91.67,0,86.5c.71.1,1.42.15,2.11.32.63.16,1.22.65,1.83.65,11.24.04,22.47.03,33.71.03.7,0,1.53.33,2.07.06,1.27-.63,2.37-.73,3.49.19.1.81.28,1.62.28,2.43.03,3.55.03,7.11,0,10.66,0,.47-.19.94-.29,1.41Z"/>
      <path class="cls-30" d="m192,160.5v5.5c-.33.34-.71.65-.97,1.04-.37.55-.65,1.15-.97,1.74-.69-.72-1.56-.79-2.51-.79-26.73.02-53.45.01-80.18.02-1.47,0-2.93-.7-4.4-.02,2.83-2.85,5.67-5.71,8.5-8.56.16,1.33,1.15,1.32,2.13,1.32,24.93,0,49.87,0,74.8-.01,1.2,0,2.39-.16,3.59-.24Z"/>
      <path class="cls-27" d="m0,157.5C0,154.83,0,152.17,0,149.5c1.14-.17,2.27-.48,3.41-.48,19.07-.03,38.15-.02,57.22-.01.99,0,1.98.15,2.97.21.74.04,1.44-.04,1.65-.94,2.6,1.55,5.23,3.06,7.79,4.66,1.53.96,2.98,2.07,4.46,3.11-.04,1.32-.99,1.21-1.88,1.21-24.51,0-49.02,0-73.53,0-.7,0-1.39.16-2.09.24Z"/>
      <path class="cls-14" d="m43.21,87.75c-1.12-.92-2.22-.82-3.49-.19-.54.27-1.37-.06-2.07-.06-11.24,0-22.47,0-33.71-.03-.61,0-1.2-.5-1.83-.65-.69-.17-1.41-.22-2.11-.32,0-3.92,0-7.83,0-11.75,14.67.08,29.34.19,44.01.2,1.02,0,1.36.71,2.03,1.06-.73,1.73-1.61,3.42-2.15,5.21-.32,1.08-.11,2.31-.14,3.47-.18,1.02-.37,2.04-.55,3.06Z"/>
      <path class="cls-27" d="m192,150.25v5.25c-1.84,1.77-4.14,1.24-6.31,1.24-20.88.02-41.77,0-62.65.01-1.64,0-3.29-.03-4.93.03-1.41.06-1.72-.6-1.36-1.81,2.67-1.73,5.34-3.45,8.01-5.18.45.46.9.92,1.49,1.51-.01.04-.11.38-.28.98.77-.09,1.36-.16,1.95-.24-.01-.11-.03-.21-.04-.32-.34-.23-.69-.47-1.03-.7.02-.11.04-.21.06-.32.59-.07,1.18-.2,1.77-.2,19.73-.01,39.45,0,59.18-.02,1.39,0,2.77-.16,4.16-.24Z"/>
      <path class="cls-21" d="m192,150.25c-1.39.08-2.77.24-4.16.24-19.73.02-39.45,0-59.18.02-.59,0-1.18.13-1.77.2-.02.11-.04.21-.06.32.34.23.69.47,1.03.7.01.11.03.21.04.32-.59.07-1.18.14-1.95.24.17-.6.27-.93.28-.98-.58-.59-1.03-1.05-1.49-1.51.12-.02.26-.01.36-.07,4.24-2.57,8.54-5.03,13.14-6.93-.04.8.44.97,1.12.96,1.69-.02,3.37,0,5.06,0,13.98,0,27.97.02,41.95-.02,1.87,0,3.75-.31,5.62-.48v7Z"/>
      <path class="cls-16" d="m0,134c4.19-.08,8.38-.33,12.57-.21,3.82.11,7.64.46,11.43.98,4.35.6,8.66,1.49,12.99,2.26.42.14.84.29,1.26.43,1.58.43,3.16.86,4.74,1.3.08.05.16.1.25.15.42.1.84.2,1.27.3.22.1.43.21.66.29,2.87,1.07,5.74,2.14,8.61,3.21-.39.35-.76.95-1.18,1-1.77.19-3.55.28-5.33.29-15.05.02-30.11,0-45.16.02-.7,0-1.39.16-2.09.24,0-3.42,0-6.83,0-10.25Z"/>
      <path class="cls-16" d="m192,143.25c-1.87.17-3.75.47-5.62.48-13.98.04-27.97.02-41.95.02-1.69,0-3.37-.01-5.06,0-.68,0-1.16-.16-1.12-.96,4.97-2.09,10.08-3.8,15.25-5.33,1.25-.33,2.5-.66,3.75-1,.43-.15.85-.3,1.28-.45,1.01-.14,2.03-.28,3.04-.43,2.27-.35,4.53-.8,6.81-1.04,3.37-.35,6.75-.56,10.13-.83,2.17.08,4.33.16,6.5.25,2.33.01,4.67.03,7,.04v9.25Z"/>
      <path class="cls-18" d="m151.26,111.75c1.3-.64,2.6,0,3.9,0,11.39,0,22.77,0,34.16,0,1.18,0,2.44.21,2.24-1.65-.01-.1.29-.23.44-.35v12.25c-.7.06-1.16-.11-1.33-.94-.07-.33-.64-.61-1.03-.78-.28-.12-.66-.02-.99-.02-13.15,0-26.31-.01-39.46-.02,1.27-2.68,2.16-5.46,2.08-8.48Z"/>
      <path class="cls-29" d="m174.08,7.08c-3.97-2.64-8.22-4.62-12.91-5.58-1.2-.25-2.4-.46-3.58-.77-.32-.08-.56-.47-.83-.72,11.75,0,23.5,0,35.25,0v31c-.41-1.02-.82-2.05-1.24-3.06-.14-.33-.32-.63-.48-.94-1.06-2.09-2.11-4.19-3.17-6.28-1.11-1.58-2.21-3.15-3.32-4.73-.25-.37-.47-.77-.76-1.11-2.61-3.02-5.63-5.59-8.95-7.8Z"/>
      <path class="cls-29" d="m31.75,1.21c-4.98.97-9.5,3.05-13.78,5.73-.1.06-.15.19-.23.29-.12.02-.28-.01-.36.05-3.39,2.61-6.73,5.28-9.35,8.71-1.15,1.67-2.3,3.33-3.45,5-1.62,2.67-3.06,5.43-3.85,8.49C.48,29.82.24,30.16,0,30.5,0,20.33,0,10.17,0,0,10.67,0,21.33,0,32,0c.07.37.15.75.22,1.12-.04.08-.1.1-.19.08-.1,0-.19,0-.29,0Z"/>
      <path class="cls-29" d="m190.05,168.78c.32-.58.6-1.19.97-1.74.26-.39.65-.7.97-1.04v29h-33.5l.04-.98c3.52-.11,6.69-1.46,9.82-2.85,1.88-.83,3.67-1.88,5.48-2.86.35-.19.61-.52.92-.79,1.49-1.09,2.99-2.19,4.49-3.28.92-.91,1.84-1.82,2.76-2.72,1.42-1.83,2.84-3.67,4.26-5.5,1.26-2.41,2.52-4.82,3.79-7.23Z"/>
      <path class="cls-29" d="m0,166c.33.28.76.51.97.87.34.58.53,1.25.79,1.88,1.08,2.09,2.16,4.17,3.23,6.26,1.58,2,3.15,4.01,4.73,6.01.59.66,1.18,1.33,1.77,1.99,1.84,1.49,3.67,2.98,5.51,4.48,4.43,3.07,9.18,5.4,14.54,6.33.16.03.3.13.45.2,0,.33,0,.66,0,.98H0C0,185.33,0,175.67,0,166Z"/>
      <path class="cls-26" d="m116.74,154.97c-.37,1.22-.06,1.87,1.36,1.81,1.64-.07,3.29-.03,4.93-.03,20.88,0,41.77,0,62.65-.01,2.17,0,4.48.53,6.31-1.24v5c-1.2.08-2.39.24-3.59.24-24.93.01-49.87.01-74.8.01-.99,0-1.97,0-2.13-1.32,1.34-1.32,2.68-2.64,4.01-3.97l1.26-.49Z"/>
      <path class="cls-21" d="m0,144.25c.7-.08,1.39-.24,2.09-.24,15.05-.01,30.11,0,45.16-.02,1.78,0,3.56-.1,5.33-.29.43-.05.79-.65,1.18-1,.24.05.5.05.71.15,3.6,1.8,7.19,3.61,10.78,5.42-.22.9-.91.98-1.65.94-.99-.05-1.98-.21-2.97-.21-19.07-.01-38.15-.02-57.22.01-1.14,0-2.27.31-3.41.48,0-1.75,0-3.5,0-5.25Z"/>
      <path class="cls-26" d="m0,157.5c.7-.08,1.39-.24,2.09-.24,24.51-.01,49.02-.01,73.53,0,.89,0,1.84.11,1.88-1.21.24.07.47.15.71.22,1.1,1.06,2.2,2.13,3.3,3.19-.37.34-.68.85-1.11.98-.74.23-1.55.3-2.33.3-26.03.01-52.05.01-78.08.01C0,159.67,0,158.58,0,157.5Z"/>
      <path class="cls-16" d="m32,195c0-.33,0-.66,0-.98,1,0,2,0,3,0,0,.33,0,.66,0,.99h-3Z"/>
      <path class="cls-15" d="m154,195c.48-1.32,1.35-1.61,3-1-.25.33-.5.67-.75,1h-2.25Z"/>
      <path class="cls-12" d="m35,195c0-.33,0-.66,0-.99,1.29-.51,2.15-.17,2.51.99h-2.5Z"/>
      <path class="cls-26" d="m32.22,1.12c-.07-.37-.15-.75-.22-1.12,1,0,2,0,3,0-.61,1.15-1.85.76-2.78,1.12Z"/>
      <path class="cls-23" d="m156.25,195c.25-.33.5-.67.75-1,.51,0,1.02.01,1.54.02-.01.33-.02.65-.04.98h-2.25Z"/>
      <path class="cls-11" d="m0,30.5c.24-.34.48-.68.72-1.01-.07.59-.15,1.18-.22,1.76-.17,0-.33,0-.5,0C0,31,0,30.75,0,30.5Z"/>
      <path class="cls-28" d="m.5,31.25c.07-.59.15-1.18.22-1.76.8-3.05,2.23-5.81,3.85-8.49,1.95-.08,3.89-.24,5.84-.24,58.23-.01,116.46-.01,174.69-.01.67,0,1.33-.02,2-.03,1.06,2.09,2.11,4.19,3.17,6.28-38.61,0-77.23,0-115.84,0-23.04,0-46.07,0-69.11,0-3.46,0-2.47-.27-3.82,2.87-.22.51-.66.92-1,1.38Z"/>
      <path class="cls-22" d="m151.26,111.75c.08,3.02-.81,5.79-2.08,8.48-1.4,2.27-3.13,4.28-5.47,5.58-1.3.72-2.78,1.18-4.23,1.55-3.26.84-6.44.42-9.36-1.21-2.75-1.53-5.02-3.64-6.48-6.5-.17-.32-.37-.63-.56-.94-.58-2.21-1.24-4.4-1.1-6.75.1-1.65-.01-3.31-.03-4.96.03-.91.07-1.83.1-2.74,2.43-2.15,4.91-4.26,7.27-6.48,1.93-1.82,1.87-5.3-.07-7.13-1.58-1.5-3.24-2.92-4.88-4.35-.74-.64-1.53-1.2-2.31-1.8-.26-3.14.96-5.85,2.45-8.49,1.92-2.67,4.36-4.76,7.53-5.67,4.94-1.41,9.6-.73,13.73,2.53.26.2.52.41.78.62.23.26.47.51.7.77.3.34.6.69.91,1.03,1.5,2.18,2.64,4.53,2.86,7.18.2,2.38.15,4.78.21,7.17.02.7.03,1.41.05,2.11,0,6.67,0,13.33,0,20Z"/>
      <path class="cls-22" d="m43.76,84.69c.03-1.16-.18-2.4.14-3.47.54-1.79,1.41-3.48,2.15-5.21,5.41-8.48,18.48-8.39,23.94-.26,1.51,2.37,2.67,4.85,2.56,7.74.05.17.11.35.16.52.03.24.06.49.09.73.01,5.5.03,11,.04,16.5,0,3.42,0,6.83,0,10.25-.22,2.56-.42,5.11-1.49,7.5-1.86,3.6-4.49,6.37-8.39,7.74-4.71,1.66-9.04,1.17-13.19-1.85-2.05-1.49-3.44-3.34-4.69-5.41-1.53-3.04-1.66-6.3-1.56-9.6.05-1.78,0-3.56,0-5.34.96-.84,1.92-1.67,2.87-2.52,1.39-1.23,2.8-2.44,4.14-3.72,2.01-1.93,2.49-5.24-.16-8.04-.68-.72-1.42-1.38-2.18-2.01-1.45-1.2-2.93-2.37-4.4-3.55Z"/>
      <path class="cls-18" d="m71.33,119c1.07-2.39,1.27-4.95,1.49-7.5,1.14.02,1.2-.72,1.19-1.6-.02-2.15,0-2.15,2.17-2.15,12.89,0,25.78,0,38.67,0,1.99,0,4.01-.22,5.49,1.16.61-.73,1.11-1.32,1.61-1.91.02,1.66.12,3.32.03,4.96-.14,2.35.52,4.53,1.1,6.75-.42.93-1.16,1.06-2.11,1.06-14.49-.03-28.99,0-43.48-.03-2.07,0-4.22.44-6.16-.73Zm3.71-7.65c.61.05,1.16.14,1.71.14,13.57,0,27.14,0,40.71,0,.33,0,.74.11.98-.04.27-.17.52-.56.56-.88.04-.34-.09-.76-.28-1.05-.22-.32-.59-.7-.92-.73-1.05-.1-2.12-.04-3.18-.04-11.99,0-23.97,0-35.96-.01-1.72,0-3.1.38-3.61,2.62Z"/>
      <path class="cls-15" d="m17,187.49c-1.84-1.49-3.67-2.98-5.51-4.48,1.41-.09,2.82-.25,4.23-.25,53.6-.01,107.19-.01,160.79,0,.46,0,.92-.03,1.37.04.81.12,1.43.48,1.36,1.45-1.5,1.09-2.99,2.19-4.49,3.28-.74-.87-1.64-1.28-2.82-1.28-50.54.02-101.08.01-151.62.03-.82,0-1.67.09-2.46.3-.34.09-.58.6-.86.92Z"/>
      <path class="cls-17" d="m78.21,156.26c-.24-.07-.47-.15-.71-.22-1.48-1.04-2.92-2.15-4.46-3.11-2.57-1.6-5.19-3.11-7.79-4.66-3.59-1.81-7.18-3.62-10.78-5.42-.21-.1-.47-.1-.71-.15-2.87-1.07-5.74-2.14-8.61-3.21-.22-.08-.44-.19-.66-.29.17-.66.34-1.31.54-2.07-.92-.07-2.17.92-2.21-.84,1.34-.61,2.16-.38,3.07.61.38.42,1.04.62,1.61.81.38.12.83.03,1.24.03,31.56,0,63.12,0,94.69,0,1.19,0,2.41.16,3.56-.06.76-.14,1.38-.99,2.15-1.19,1.15-.31,2.37-.42,3.55-.4.28,0,.54.88.81,1.35-5.17,1.54-10.28,3.24-15.25,5.33-4.6,1.89-8.89,4.36-13.14,6.93-.1.06-.24.05-.36.07-2.67,1.73-5.34,3.45-8.01,5.18-.42.16-.84.33-1.26.49.01-.5-.12-1.06.07-1.5.8-1.9.83-3.8.49-5.82-.97-5.68-6.42-9.19-12.28-7.98-2.31.48-4.06,1.92-5.63,3.62-.54.59-1.19,1.08-1.75,1.58-1.22-1.16-2.26-2.17-3.34-3.15-2.49-2.25-5.6-2.78-8.61-2.08-6.37,1.49-9.96,9.12-6.75,14.62.26.45.37,1,.55,1.5Z"/>
      <path class="cls-7" d="m185,133.96c-2.17-.08-4.33-.16-6.5-.25.33-.17.66-.46,1-.49,1.44-.11,2.89-.21,4.33-.16.4.02.78.58,1.17.89Z"/>
      <path class="cls-17" d="m38.25,137.46c-.42-.14-.84-.29-1.26-.43.3-.25.59-.49.89-.74.12.39.25.78.37,1.16Z"/>
      <path class="cls-17" d="m158.53,136.01c-.43.15-.85.3-1.28.45.08-1.12.73-.65,1.28-.45Z"/>
      <path class="cls-17" d="m43.23,138.91c-.08-.05-.16-.1-.25-.15.08.05.16.1.25.15Z"/>
      <path class="cls-14" d="m72.54,83.5c.11-2.9-1.05-5.38-2.56-7.74,1.53-1.34,3.39-1,5.17-1,15.45,0,30.89,0,46.34,0,1,0,2.13-.28,2.56,1.09.03.09.3.11.45.16-1.49,2.63-2.71,5.35-2.45,8.49-.05.83-.09,1.66-.14,2.49-.23-.76-.46-1.52-.7-2.34-1.46-.32-36.56-.26-48.43.11-.03-.24-.06-.49-.09-.73-.05-.17-.11-.35-.16-.52Z"/>
      <path class="cls-14" d="m147.25,74.25c-.23-.26-.47-.51-.7-.77.23.26.47.51.7.77Z"/>
      <path class="cls-19" d="m8.03,16c2.62-3.44,5.96-6.1,9.35-8.71.08-.07.24-.04.36-.05.96.26,1.92.73,2.88.73,11,.05,21.99.03,32.99.03,20.66,0,41.32,0,61.99,0,17.77,0,35.54,0,53.3-.01,1.41,0,2.82-.12,4.22-.27.34-.04.64-.42.96-.64,3.32,2.22,6.34,4.78,8.95,7.8.29.34.51.74.76,1.11-3.06-.16-6.13-.48-9.19-.47-55.52.28-111.04-.66-166.56.48Z"/>
      <path class="cls-26" d="m31.75,1.21c.1,0,.19,0,.29,0-.1,0-.19,0-.29,0Z"/>
      <path class="cls-16" d="m43.76,84.69c1.47,1.18,2.95,2.35,4.4,3.55.76.63,1.5,1.29,2.18,2.01,2.65,2.8,2.17,6.12.16,8.04-1.34,1.28-2.75,2.49-4.14,3.72-.95.85-1.92,1.68-2.87,2.52-.09-.76-.19-1.52-.28-2.29.1-.47.28-.94.29-1.41.02-3.55.03-7.11,0-10.66,0-.81-.18-1.62-.28-2.43.18-1.02.37-2.04.55-3.06Z"/>
      <path class="cls-23" d="m4.99,175c-1.08-2.09-2.16-4.17-3.23-6.26,2.23.17,4.45.48,6.68.48,26.34.03,52.69.03,79.03-.01.93,0,1.87-.49,2.8-.75.48.45.97.89,1.44,1.36,2.47,2.44,6.09,2.64,8.67.43.87-.75,1.73-1.51,2.6-2.27,1.47-.69,2.93.02,4.4.02,26.73,0,53.45,0,80.18-.02.95,0,1.81.07,2.51.79-1.26,2.41-2.52,4.82-3.79,7.23-.45-1.22-1.44-1.27-2.54-1.27-58.88.01-117.77.01-176.65.02-.7,0-1.39.16-2.09.24Z"/>
      <path class="cls-22" d="m102.97,167.99c-.87.76-1.73,1.52-2.6,2.27-2.58,2.21-6.2,2.01-8.67-.43-.47-.46-.96-.9-1.44-1.36-2.11-2.14-4.23-4.27-6.33-6.43-.82-.84-1.61-1.72-2.41-2.59-1.1-1.06-2.2-2.13-3.3-3.19-.18-.5-.29-1.05-.55-1.5-3.2-5.5.38-13.13,6.75-14.62,3.01-.71,6.12-.17,8.61,2.08,1.08.97,2.12,1.99,3.34,3.15.56-.5,1.21-.99,1.75-1.58,1.57-1.69,3.32-3.14,5.63-3.62,5.86-1.21,11.32,2.3,12.28,7.98.34,2.02.32,3.92-.49,5.82-.18.43-.05.99-.07,1.5-1.34,1.32-2.68,2.64-4.01,3.97-2.83,2.85-5.67,5.71-8.5,8.56Z"/>
      <path class="cls-6" d="m8.03,16c55.52-1.13,111.04-.2,166.56-.48,3.06-.02,6.13.3,9.19.47,1.11,1.58,2.21,3.15,3.32,4.73-.67.01-1.33.03-2,.03-58.23,0-116.46,0-174.69.01-1.95,0-3.89.16-5.84.24,1.15-1.67,2.3-3.33,3.45-5Z"/>
      <path class="cls-24" d="m4.99,175c.7-.08,1.39-.24,2.09-.24,58.88-.01,117.77,0,176.65-.02,1.1,0,2.09.05,2.54,1.27-1.42,1.83-2.84,3.67-4.26,5.5-.51-1.43-1.7-1.52-2.96-1.52-55.01,0-110.01,0-165.02.05-1.44,0-2.88.64-4.32.98-1.58-2-3.15-4.01-4.73-6.01Z"/>
      <path class="cls-12" d="m9.72,181.02c1.44-.34,2.88-.98,4.32-.98,55.01-.05,110.01-.04,165.02-.05,1.26,0,2.44.09,2.96,1.52-.92.91-1.84,1.82-2.76,2.72.07-.97-.55-1.33-1.36-1.45-.45-.07-.91-.04-1.37-.04-53.6,0-107.19,0-160.79,0-1.41,0-2.82.16-4.23.25-.59-.66-1.18-1.33-1.77-1.99Z"/>
      <path class="cls-1" d="m121.95,107c-.5.59-.99,1.18-1.61,1.91-1.48-1.38-3.5-1.16-5.49-1.16-12.89,0-25.78,0-38.67,0-2.17,0-2.19,0-2.17,2.15,0,.88-.05,1.61-1.19,1.6,0-3.42,0-6.83,0-10.25.5-.04,1.19.19,1.16-.7-.03-.95.53-1.09,1.29-1.06,2.01.09,4.02.24,6.04.24,11.32.02,22.64.02,33.96,0,.95,0,1.9-.24,2.84-.19,1.28.06,2.55.29,3.82.45.04,1.42.07,2.84.11,4.26-.03.91-.07,1.83-.1,2.74Z"/>
      <path class="cls-16" d="m122.05,104.26c-.04-1.42-.07-2.84-.11-4.26v-13.02c.03-.83.08-1.66.13-2.49.77.6,1.57,1.16,2.31,1.8,1.65,1.43,3.3,2.85,4.88,4.35,1.94,1.84,2,5.32.07,7.13-2.37,2.22-4.84,4.32-7.27,6.48Z"/>
      <path class="cls-10" d="m121.92,86.98v13.02c-1.26-.16-2.53-.39-3.8-.45-.94-.05-1.89.19-2.84.19-11.32.02-22.64.02-33.96,0-2.01,0-4.02-.15-6.04-.24-.76-.03-1.33.11-1.29,1.06.03.89-.66.65-1.16.7-.01-5.5-.03-11-.04-16.5,11.88-.37,46.97-.43,48.43-.11.25.82.47,1.58.7,2.34Z"/>
      <path class="cls-10" d="m72.54,83.5c.05.17.11.35.16.52-.05-.17-.11-.35-.16-.52Z"/>
      <path class="cls-1" d="m75.05,111.35c.5-2.23,1.88-2.62,3.61-2.62,11.99.02,23.97.01,35.96.01,1.06,0,2.13-.05,3.18.04.33.03.7.42.92.73.2.29.33.71.28,1.05-.04.32-.29.71-.56.88-.24.15-.65.04-.98.04-13.57,0-27.14,0-40.71,0-.55,0-1.1-.09-1.71-.14Z"/>
    </g>
  </g>
</svg>