<svg xmlns="http://www.w3.org/2000/svg" viewBox="0 0 384 384"><defs><style>.cls-1{fill:#fff;}</style></defs><g id="Layer_2" data-name="Layer 2"><g id="Layer_1-2" data-name="Layer 1"><rect class="cls-1" width="384" height="384" rx="64"/><g id="Layer_2-2" data-name="Layer 2"><g id="Layer_1-2-2" data-name="Layer 1-2"><path d="M320,0H64A64,64,0,0,0,0,64V320a64,64,0,0,0,64,64H320a64,64,0,0,0,64-64V64A64,64,0,0,0,320,0ZM264,288s-16,24-64,24c-40,0-48-32-48-64V168H120V136c32,0,48-32,48-64h32v56h56v40H200v80c0,16,8,24,26.52,24C248,272,264,256,264,256Z"/></g></g></g></g></svg>