<?xml version="1.0" encoding="utf-8"?>
<!-- Generator: Adobe Illustrator 26.0.1, SVG Export Plug-In . SVG Version: 6.00 Build 0)  -->
<svg version="1.1" id="Layer_1" xmlns="http://www.w3.org/2000/svg" xmlns:xlink="http://www.w3.org/1999/xlink" x="0px" y="0px"
	 viewBox="0 0 923.1 307" style="enable-background:new 0 0 923.1 307;" xml:space="preserve">
<style type="text/css">
	.st0{fill:#9147FE;}
	.st1{fill:#FFFFFF;}
</style>
<g>
	<path class="st0" d="M906.8,218.2H842v-80.8h-16.2v80.8H761v-202h64.8v56.5h48.6l32.4,32.3V218.2 M744.9,137.4h-64.8v16.2h64.8
		v64.6h-97.2l-32.4-32.3v-80.8l32.4-32.3h97.2L744.9,137.4 M599.2,137.4h-56.7v16.2h56.7v64.6h-89.1l-32.4-32.3V16.2h64.8v56.5h56.7
		L599.2,137.4 M461.5,56.6h-64.8V16.2h64.8V56.6 M461.5,218.2h-64.8V72.7h64.8V218.2 M380.5,218.2H186.2l-32.4-32.3V72.7h64.8v80.8
		h16.2V72.7h64.8v80.8h16.2V72.7h64.8L380.5,218.2 M137.6,137.4H81v16.2h56.7v64.6H48.6l-32.4-32.3V16.2H81v56.5h56.7L137.6,137.4
		 M882.5,56.6H842V0h-88.9l-40.9,56.6h-72.6l-24.3,24.2V56.6h-56.7V0H380.5v56.6H130L89.1,0H0v193.9L113.4,307h113.4v-32.3
		l32.4,32.3h218.6v-32.3l32.4,32.3h105.2v-32.3l32.4,32.3h202.4l72.9-72.7V97L882.5,56.6"/>
	<path class="st1" d="M761.1,218.2h64.8v-80.8h16.2v80.8h64.8V105.1l-32.4-32.3h-48.6V16.2h-64.8L761.1,218.2 M477.7,185.8
		l32.4,32.3h89.1v-64.6h-56.7v-16.2h56.7V72.7h-56.7V16.2h-64.8L477.7,185.8 M615.3,185.8l32.4,32.3h97.2v-64.6h-64.8v-16.2h64.8
		V72.7h-97.2l-32.4,32.3V185.8 M396.7,16.2h64.8v40.4h-64.8V16.2 M137.6,72.7H81V16.2H16.2v169.7l32.4,32.3h89.1v-64.6H81v-16.2
		h56.7L137.6,72.7 M153.8,185.8l32.4,32.3h194.3V72.7h-64.8v80.8h-16.2V72.7h-64.8v80.8h-16.2V72.7h-64.8L153.8,185.8 M396.7,72.7
		h64.8v145.4h-64.8V72.7"/>
</g>
</svg>
