<svg xmlns="http://www.w3.org/2000/svg" viewBox="0 0 360 360"><defs><style>.cls-1{fill:#212121;fill-rule:evenodd;}.cls-2{fill:#fff;}</style></defs><g id="Layer_2" data-name="Layer 2"><g id="Layer_1-2" data-name="Layer 1"><path class="cls-1" d="M320,360H40A40,40,0,0,1,0,320V40A40,40,0,0,1,40,0H320a40,40,0,0,1,40,40V320A40,40,0,0,1,320,360Z"/><path class="cls-2" d="M282.57,280H218.2L78.29,80h64.37Zm-56.7-17H251.5L135,97H109.36Z"/><polygon class="cls-2" points="98.66 280 170.69 196.56 161.27 184.07 78.23 280 98.66 280"/><polygon class="cls-2" points="184.5 157.21 193.55 170.1 271.36 80 251.36 80 184.5 157.21"/></g></g></svg>