<?xml version="1.0" encoding="utf-8"?>
<!-- Generator: Adobe Illustrator 26.0.1, SVG Export Plug-In . SVG Version: 6.00 Build 0)  -->
<svg version="1.1" id="Layer_1" xmlns="http://www.w3.org/2000/svg" xmlns:xlink="http://www.w3.org/1999/xlink" x="0px" y="0px"
	 viewBox="0 0 923.1 265.2" style="enable-background:new 0 0 923.1 265.2;" xml:space="preserve">
<style type="text/css">
	.st0{fill:#1AB7EA;}
</style>
<path class="st0" d="M206.4,122.8c-0.9,20.1-15,47.6-42.1,82.6c-28.1,36.5-51.8,54.7-71.2,54.7c-12,0-22.2-11.1-30.5-33.3
	c-5.5-20.4-11.1-40.7-16.7-61.1c-6.2-22.2-12.8-33.3-19.9-33.3c-1.5,0-7,3.3-16.2,9.7L0,129.5c10.2-8.9,20.2-17.9,30.1-26.9
	c13.6-11.7,23.8-17.9,30.6-18.5c16.1-1.5,26,9.5,29.7,33c4,25.4,6.8,41.2,8.3,47.3c4.6,21.1,9.7,31.6,15.3,31.6
	c4.3,0,10.8-6.8,19.5-20.5c8.6-13.7,13.3-24.1,13.9-31.2c1.2-11.8-3.4-17.7-13.9-17.7c-5,0-10,1.1-15.3,3.4
	c10.1-33.2,29.5-49.4,58.1-48.5C197.6,82.1,207.6,95.9,206.4,122.8"/>
<path class="st0" d="M293.5,23.1c-0.3,7.7-4.2,15.1-11.6,22.2c-8.3,8-18.2,12-29.7,12c-17.6,0-26.1-7.7-25.5-23.1
	c0.3-8,5-15.7,14.1-23.1C249.9,3.7,260,0,271.2,0c6.5,0,11.9,2.5,16.2,7.6C291.7,12.7,293.8,17.8,293.5,23.1z M333.8,187.9
	c-8.7,16.4-20.6,31.2-35.7,44.5c-20.7,17.9-41.4,26.9-62.1,26.9c-9.6,0-16.9-3.1-22-9.3c-5.1-6.2-7.5-14.2-7.2-24.1
	c0.3-10.2,3.5-25.9,9.5-47.3c6-21.3,9.1-32.7,9.1-34.3c0-8-2.8-12.1-8.4-12.1c-1.8,0-7.1,3.3-15.8,9.7l-10.7-12.5
	c9.9-8.9,19.8-17.9,29.7-26.9c13.3-11.7,23.2-17.9,29.7-18.5c10.2-0.9,17.7,2.1,22.5,9c4.8,6.9,6.6,15.9,5.3,27
	c-4,18.8-8.4,42.6-13,71.6c-0.3,13.2,4.5,19.9,14.4,19.9c4.3,0,12.1-4.6,23.2-13.7c9.3-7.6,16.8-14.8,22.7-21.5L333.8,187.9"/>
<path class="st0" d="M623.3,187.9c-8.7,16.4-20.6,31.2-35.7,44.5c-20.7,17.9-41.4,26.9-62.1,26.9c-20.1,0-29.8-11.1-29.2-33.4
	c0.3-9.9,2.2-21.8,5.8-35.7c3.5-13.9,5.5-24.7,5.8-32.4c0.3-11.7-3.3-17.6-10.7-17.6c-8.1,0-17.7,9.6-28.8,28.7
	c-11.8,20.1-18.1,39.6-19.1,58.4c-0.7,13.3,0.7,23.5,3.9,30.6c-21.6,0.6-36.7-2.9-45.3-10.7c-7.7-6.8-11.3-18.1-10.6-33.8
	c0.3-9.9,1.8-19.8,4.6-29.7c2.7-9.9,4.2-18.7,4.5-26.4c0.7-11.4-3.6-17.2-12.5-17.2c-7.7,0-16.1,8.8-25.1,26.4
	c-9,17.6-13.9,36-14.9,55.2c-0.7,17.3,0.5,29.4,3.3,36.2c-21.2,0.6-36.3-3.8-45.2-13.4c-7.4-8-10.8-20.2-10.2-36.5
	c0.3-8,1.7-19.2,4.3-33.5c2.5-14.3,4-25.5,4.3-33.5c0.7-5.5-0.8-8.3-4.2-8.3c-1.9,0-7.1,3.1-15.8,9.4l-11.1-12.5
	c1.6-1.2,11.3-10.2,29.2-26.9c13-12,21.8-18.2,26.4-18.5c8-0.6,14.5,2.7,19.5,10c4.9,7.3,7.4,15.7,7.4,25.3c0,3.1-0.3,6-0.9,8.8
	c4.6-7.1,10-13.3,16.2-18.6c14.2-12.3,30.1-19.3,47.8-20.9c15.1-1.2,26,2.3,32.5,10.7c5.2,6.8,7.7,16.5,7.4,29.2
	c2.2-1.8,4.5-3.9,7-6c7.1-8.3,14-15,20.8-19.9c11.4-8.4,23.4-13,35.7-13.9c14.8-1.2,25.5,2.3,32,10.6c5.5,6.8,8,16.5,7.4,29.1
	c-0.3,8.6-2.4,21.2-6.3,37.6c-3.9,16.5-5.8,25.9-5.8,28.4c-0.3,6.5,0.3,10.9,1.8,13.4c1.6,2.5,5.2,3.7,11.1,3.7
	c4.3,0,12-4.6,23.2-13.7c9.3-7.6,16.8-14.8,22.7-21.5L623.3,187.9"/>
<path class="st0" d="M691.9,139c0.3-8.3-3.1-12.5-10.2-12.5c-9.3,0-18.7,6.4-28.2,19.1c-9.6,12.8-14.5,25-14.8,36.7
	c-0.2,0-0.2,2,0,6c15.1-5.5,28.2-14,39.3-25.4C687,153.2,691.6,145.2,691.9,139L691.9,139z M797.1,187.4
	c-9,14.8-26.6,29.6-52.8,44.4c-32.8,18.8-66,28.2-99.7,28.2c-25,0-43-8.3-53.8-25c-7.7-11.4-11.4-25-11.1-40.8
	c0.3-25,11.4-48.8,33.4-71.4c24.1-24.7,52.5-37.1,85.3-37.1c30.3,0,46.4,12.3,48.2,37c1.2,15.7-7.4,31.9-26,48.6
	c-19.8,18.2-44.7,29.7-74.6,34.7c5.5,7.7,13.9,11.6,25,11.6c22.2,0,46.5-5.7,72.8-17c18.9-8,33.7-16.2,44.5-24.8L797.1,187.4"/>
<path class="st0" d="M870.6,154.6c0.3-8.4-0.8-16-3.5-23c-2.6-7-6.4-10.5-11.4-10.5c-15.8,0-28.8,8.5-38.9,25.6
	c-8.7,13.9-13.3,28.8-13.9,44.6c-0.3,7.8,1.1,14.6,4.2,20.4c3.4,6.8,8.2,10.2,14.4,10.2c13.9,0,25.8-8.2,35.7-24.6
	C865.5,183.7,870,169.5,870.6,154.6L870.6,154.6z M923,156.4c-1.2,28.4-11.7,52.9-31.5,73.6s-44.4,31-73.7,31
	c-24.4,0-43-7.9-55.6-23.6c-9.3-11.7-14.4-26.4-15.3-44c-1.6-26.6,8-50.9,28.7-73.1c22.2-24.7,50.2-37,83.9-37
	c21.6,0,38,7.3,49.1,21.8C919.1,118.3,923.9,135.4,923,156.4"/>
</svg>
