<?xml version="1.0" encoding="UTF-8"?>
<svg id="Layer_2" data-name="Layer 2" xmlns="http://www.w3.org/2000/svg" viewBox="0 0 384 384">
  <defs>
    <style>
      .cls-1 {
        fill: #0077b5;
      }
    </style>
  </defs>
  <g id="Layer_1-2" data-name="Layer 1">
    <path class="cls-1" d="m384,180.75v22.5c-.21,1.08-.54,2.16-.62,3.25-1.02,14.89-4.07,29.37-8.33,43.66-1.02,3.42-2.56,4.26-5.99,4.26-118.05-.1-236.11-.08-354.16-.08-.5,0-1.01-.06-1.5.01-2.24.33-3.25-.61-3.95-2.81-2.68-8.46-5-17-6.41-25.76C1.85,218.3,1,210.76,0,203.25c0-7.5,0-15,0-22.5.22-1.2.54-2.39.63-3.6,1.05-14.89,4.11-29.37,8.42-43.64.94-3.11,2.36-3.92,5.48-3.92,56.34.1,112.69.07,169.03.07,62.09,0,124.18.02,186.27-.07,2.85,0,4.16.76,4.98,3.55,2.5,8.51,4.9,17.03,6.25,25.8,1.11,7.25,1.97,14.54,2.94,21.81Zm-212.53,23.19c-1.5-1.42-1.51-3.01-1.92-4.39-4.27-14.6-8.47-29.23-12.73-43.84-1.34-4.61-4.35-6.63-8.18-5.62-3.73.98-5.36,4.48-4.05,9.02,6.65,23,13.35,45.99,20,69,.98,3.39,2.58,6.05,6.54,6.06,4.13,0,5.73-2.74,6.74-6.3,4.16-14.64,8.42-29.24,12.68-43.85.35-1.19.32-2.64,1.75-3.62.44,1.45.83,2.62,1.17,3.81,4.24,14.74,8.46,29.49,12.73,44.23,1.38,4.77,4.59,6.83,8.52,5.53,2.65-.88,3.76-2.98,4.49-5.53,4.13-14.39,8.35-28.74,12.53-43.12,2.61-8.98,5.25-17.96,7.78-26.96,1-3.57-.59-6.8-3.68-8.03-2.83-1.12-6.26,0-7.8,2.73-.66,1.18-1.06,2.53-1.44,3.84-3.33,11.5-6.62,23.01-9.94,34.52-1.22,4.22-2.5,8.42-4.03,13.57-4.85-16.83-9.4-32.64-13.97-48.45-1.38-4.79-3.38-6.72-6.92-6.58-4.15.17-5.58,3.04-6.58,6.53-4.49,15.71-9.06,31.39-13.71,47.46Zm-81.06-24.6c.59,1.69.91,2.49,1.15,3.3,4.38,15.1,8.78,30.19,13.11,45.3.97,3.4,2.52,6.08,6.48,6.14,4.14.06,5.77-2.66,6.79-6.23,4.39-15.36,8.88-30.68,13.33-46.02,2.23-7.67,4.51-15.32,6.65-23.02,1.19-4.28-.56-7.86-4.03-8.81-3.7-1.01-6.78.93-8.18,5.17-.2.59-.34,1.2-.52,1.8-4.2,14.5-8.4,29-12.62,43.5-.31,1.08-.71,2.13-1.28,3.82-.52-1.54-.83-2.34-1.07-3.17-4.33-14.98-8.68-29.96-12.97-44.96-1-3.49-2.55-6.38-6.72-6.35-4.14.02-5.67,2.82-6.68,6.37-4.13,14.52-8.37,29.01-12.59,43.51-.36,1.25-.8,2.49-1.5,4.68-.71-2.19-1.14-3.42-1.51-4.68-4.24-14.62-8.49-29.24-12.68-43.87-.76-2.66-1.86-4.98-4.71-5.79-2.29-.65-4.46-.28-6.25,1.47-2.13,2.09-2.34,4.6-1.57,7.28,2.14,7.43,4.33,14.85,6.49,22.28,4.55,15.7,9.08,31.41,13.66,47.1,1.57,5.38,5.85,7.5,9.88,5.05,2.11-1.29,2.79-3.4,3.42-5.59,4.56-15.82,9.13-31.64,13.94-48.3Zm224.19,24.2c-.29.02-.58.04-.87.05-4.59-15.92-9.19-31.85-13.78-47.77-.98-3.41-2.77-5.94-6.71-5.87-3.74.07-5.44,2.5-6.37,5.79-1.86,6.6-3.78,13.19-5.69,19.78-2.76,9.52-5.54,19.03-8.53,29.33-.56-1.77-.88-2.71-1.15-3.66-4.26-14.74-8.52-29.48-12.78-44.21-.21-.72-.42-1.44-.67-2.14-1.37-3.9-4.52-5.74-8.1-4.73-3.47.98-5.26,4.39-4.11,8.36,6.71,23.25,13.51,46.47,20.21,69.72,1,3.47,2.66,5.99,6.58,5.98,3.9-.02,5.59-2.53,6.57-6,4.16-14.64,8.4-29.25,12.7-43.84.38-1.29.18-2.98,1.88-3.88,4.6,15.93,9.16,31.74,13.74,47.55,1.28,4.42,3.39,6.39,6.78,6.27,3.94-.13,5.57-2.78,6.54-6.14,6.63-23.01,13.28-46.02,19.9-69.03,1.24-4.32-.28-7.76-3.79-8.9-3.66-1.19-7.11.92-8.42,5.3-1.57,5.26-3.04,10.55-4.56,15.82-3.11,10.75-6.24,21.49-9.36,32.23Z"/>
    <path class="cls-1" d="m198,0c10.52,2.08,20.29,5.88,28.95,12.33,15.15,11.29,25.95,26.15,34.77,42.59,9.92,18.47,16.56,38.16,21.49,58.48.66,2.74.04,3.45-2.73,3.45-58.96-.06-117.92-.05-176.88-.04-1.76,0-3.66.38-2.93-2.62,7.15-29.33,17.39-57.31,36.01-81.54,10.44-13.59,22.88-24.74,39.59-30.16,3.17-1.03,6.47-1.67,9.72-2.49,4,0,8,0,12,0Z"/>
    <path class="cls-1" d="m186,384c-4.37-1.39-8.95-1.98-13.25-3.7-15.24-6.09-26.76-16.77-36.52-29.55-16.55-21.7-26.37-46.54-33.43-72.62-.65-2.41-.99-4.92-1.83-7.25-1.16-3.22.09-3.74,3.04-3.73,31.48.08,62.96.05,94.44.05,27.11,0,54.22.06,81.33-.07,3.5-.02,4.16.77,3.32,4.2-6.24,25.37-15.1,49.64-29.62,71.56-9.14,13.79-20.08,25.78-34.75,33.97-6.51,3.64-13.6,5.4-20.73,7.15h-12Z"/>
    <path class="cls-1" d="m240.55,377.39c5.64-5.17,10.42-10.01,14.74-15.29,17.11-20.96,27.8-45.17,35.62-70.8,2.11-6.91,3.77-13.97,5.46-21,.55-2.31,1.46-3.18,3.98-3.17,21.62.11,43.25.08,64.87.04,2.18,0,3.74-.08,2.32,2.95-25.5,54.18-66.81,89.95-124.29,106.94-.57.17-1.19.15-2.69.33Z"/>
    <path class="cls-1" d="m142.72,377.32c-4.61-.75-8.94-2.28-13.24-3.83-51.7-18.63-89.2-52.86-112.47-102.65-1.73-3.69-1.66-3.74,2.35-3.74,21.37,0,42.74.06,64.1-.08,2.91-.02,3.73,1.06,4.32,3.63,6.95,30.42,17.55,59.33,35.96,84.89,5.2,7.21,11.02,13.9,17.67,19.82.53.48,1.28.82,1.3,1.95Z"/>
    <path class="cls-1" d="m241.28,6.78c3.06.07,5.81,1.27,8.6,2.19,53.84,17.87,92.79,52.55,116.95,103.85,1.86,3.94,1.79,3.99-2.34,3.99-21.25,0-42.5-.06-63.74.08-3.01.02-3.93-1.04-4.57-3.82-6.98-30.29-17.56-59.07-35.88-84.55-5.19-7.22-11-13.92-17.66-19.84-.54-.48-1.28-.84-1.35-1.88Z"/>
    <path class="cls-1" d="m143.51,6.6c-5.57,5.19-10.37,10.04-14.68,15.34-17.18,21.07-27.94,45.39-35.75,71.15-2.06,6.8-3.73,13.72-5.36,20.64-.56,2.38-1.53,3.15-4,3.14-21.62-.1-43.25-.11-64.87,0-3.12.02-3.22-.86-2.05-3.34C42.14,59.57,83.36,24.04,140.52,7.03c.69-.2,1.43-.21,2.99-.43Z"/>
  </g>
</svg>