<svg xmlns="http://www.w3.org/2000/svg" viewBox="0 0 300 300"><defs><style>.cls-1{fill:#2dc100;}.cls-2{fill:#fff;}</style></defs><g id="Layer_2" data-name="Layer 2"><g id="圖層_1" data-name="圖層 1"><path class="cls-1" d="M300,255a45,45,0,0,1-45,45H45A45,45,0,0,1,0,255V45A45,45,0,0,1,45,0H255a45,45,0,0,1,45,45Z"/><path class="cls-2" d="M200.8,111.88c-24.21,1.26-45.26,8.6-62.36,25.19-17.27,16.75-25.15,37.28-23,62.73-9.46-1.17-18.08-2.46-26.75-3.19a16.67,16.67,0,0,0-9.09,1.54c-8.41,4.75-16.48,10.11-26,16.09,1.76-7.94,2.89-14.89,4.9-21.58,1.48-4.91.8-7.64-3.73-10.85C25.65,161.29,13.4,130.58,22.57,99c8.49-29.25,29.32-47,57.62-56.23,38.64-12.62,82.06.25,105.55,30.93A72.27,72.27,0,0,1,200.8,111.88ZM89.37,102c.22-5.78-4.79-11-10.74-11.17a10.85,10.85,0,0,0-11.29,10.48A10.71,10.71,0,0,0,78,112.46,11,11,0,0,0,89.37,102Zm58.14-11.17a11.17,11.17,0,0,0-10.92,11,10.89,10.89,0,0,0,11.2,10.65,10.83,10.83,0,1,0-.28-21.65Z"/><path class="cls-2" d="M255.2,262.83c-7.67-3.41-14.7-8.54-22.19-9.32s-15.3,3.53-23.1,4.32c-23.77,2.44-45.07-4.19-62.63-20.43-33.4-30.89-28.62-78.25,10-103.57,34.34-22.49,84.7-15,108.91,16.22,21.13,27.24,18.65,63.4-7.15,86.29-7.46,6.62-10.15,12.07-5.36,20.8C254.59,258.75,254.69,260.79,255.2,262.83Zm-87.27-84.5a9,9,0,1,0,.06-18,9,9,0,1,0-.06,18Zm56.26-18a9,9,0,0,0-9,8.63,8.89,8.89,0,0,0,8.84,9.33,8.8,8.8,0,0,0,9-8.56A9,9,0,0,0,224.19,160.31Z"/></g></g></svg>