<svg xmlns="http://www.w3.org/2000/svg" xmlns:xlink="http://www.w3.org/1999/xlink" viewBox="0 0 477.07 482.2"><defs><style>.cls-1{opacity:0.2;}.cls-2{fill:url(#linear-gradient);}.cls-3{fill:url(#linear-gradient-2);}.cls-4{fill:#fff;fill-rule:evenodd;}</style><linearGradient id="linear-gradient" x1="260.73" y1="834.89" x2="260.73" y2="294.52" gradientTransform="translate(16.65 -243.62) scale(0.85 0.86)" gradientUnits="userSpaceOnUse"><stop offset="0" stop-color="#20b038"/><stop offset="1" stop-color="#60d66a"/></linearGradient><linearGradient id="linear-gradient-2" x1="270.38" y1="835.27" x2="270.38" y2="275.51" gradientTransform="translate(8.43 -235.65) scale(0.85 0.86)" gradientUnits="userSpaceOnUse"><stop offset="0" stop-color="#f9f9f9"/><stop offset="1" stop-color="#fff"/></linearGradient></defs><g id="Layer_2" data-name="Layer 2"><g id="Layer_1-2" data-name="Layer 1"><path id="e" d="M2,239.79a238.17,238.17,0,0,0,31.71,119L0,482.2l125.92-33.11a237,237,0,0,0,113.51,29h.1C370.44,478.08,477,371.26,477.07,240A237.85,237.85,0,0,0,239.53,1.72C108.6,1.72,2.05,108.52,2,239.79Z"/><g id="e-2" data-name="e"><path class="cls-1" d="M2,239.79a238.17,238.17,0,0,0,31.71,119L0,482.2l125.92-33.11a237,237,0,0,0,113.51,29h.1C370.44,478.08,477,371.26,477.07,240A237.85,237.85,0,0,0,239.53,1.72C108.6,1.72,2.05,108.52,2,239.79Z"/></g><path class="cls-2" d="M10.52,237.32A228.69,228.69,0,0,0,41.1,351.82L8.6,470.5l121.45-31.85a229,229,0,0,0,109.48,27.88h.11c126.26,0,229.05-102.75,229.1-229A229.13,229.13,0,0,0,239.63,8.29C113.35,8.29,10.57,111,10.52,237.32"/><path class="cls-3" d="M2.34,237.24A236.74,236.74,0,0,0,34,355.85L.35,478.78l125.81-33a237.25,237.25,0,0,0,113.41,28.88h.1c130.79,0,237.27-106.45,237.32-237.25A237.32,237.32,0,0,0,239.67,0C108.85,0,2.39,106.43,2.34,237.24ZM77.26,349.65l-4.7-7.46A196.65,196.65,0,0,1,42.41,237.25c0-108.72,88.53-197.18,197.33-197.18A197.26,197.26,0,0,1,436.92,237.41c0,108.73-88.53,197.2-197.25,197.2h-.08a197,197,0,0,1-100.4-27.49l-7.2-4.27L57.33,422.42Z"/><path class="cls-4" d="M180.35,138.06c-4.44-9.87-9.12-10.07-13.34-10.25-3.46-.14-7.42-.14-11.37-.14a21.8,21.8,0,0,0-15.81,7.42c-5.43,5.94-20.76,20.28-20.76,49.46s21.26,57.37,24.22,61.33,41,65.73,101.3,89.5c50.09,19.76,60.28,15.83,71.15,14.84s35.09-14.34,40-28.19,4.94-25.71,3.46-28.19-5.44-4-11.37-6.92-35.08-17.31-40.52-19.29-9.39-3-13.34,3-15.31,19.28-18.77,23.24-6.92,4.46-12.85,1.49-25-9.23-47.69-29.43c-17.63-15.72-29.53-35.13-33-41.06s-.37-9.15,2.61-12.1c2.66-2.66,5.93-6.93,8.89-10.39s4-5.93,5.93-9.89,1-7.42-.5-10.38-13-32.3-18.28-44"/></g></g></svg>