<?xml version="1.0" encoding="utf-8"?>
<!-- Generator: Adobe Illustrator 26.0.1, SVG Export Plug-In . SVG Version: 6.00 Build 0)  -->
<svg version="1.1" id="Layer_1" xmlns="http://www.w3.org/2000/svg" xmlns:xlink="http://www.w3.org/1999/xlink" x="0px" y="0px"
	 viewBox="0 0 1135.5 800" style="enable-background:new 0 0 1135.5 800;" xml:space="preserve">
<style type="text/css">
	.st0{fill:#FF0000;}
	.st1{fill:#FFFFFF;}
</style>
<path class="st0" d="M1111.7,124.9c-13.1-49.2-51.5-87.9-100.4-101C922.8,0,567.7,0,567.7,0S212.7,0,124.1,23.9
	C75.3,37,36.8,75.8,23.7,124.9C0,214,0,400,0,400s0,185.9,23.7,275.1c13,49.2,51.5,87.9,100.4,101C212.7,800,567.7,800,567.7,800
	s355.1,0,443.6-23.9c48.9-13.2,87.3-51.9,100.4-101c23.7-89.1,23.7-275.1,23.7-275.1S1135.5,214.1,1111.7,124.9"/>
<path class="st1" d="M451.6,568.8L748.4,400L451.6,231.2V568.8z"/>
</svg>
